<?xml version="1.0" encoding="UTF-8" standalone="no"?>
<!-- Created with Inkscape (http://www.inkscape.org/) -->
<svg
   xmlns:svg="http://www.w3.org/2000/svg"
   xmlns="http://www.w3.org/2000/svg"
   version="1.0"
   width="688"
   height="688"
   id="svg3640"
   style="display:inline">
  <defs
     id="defs3642" />
  <rect
     width="688"
     height="688"
     x="0"
     y="0"
     id="rect2897"
     style="opacity:1;fill:#000000;fill-opacity:1;stroke:#60441c;stroke-width:0;stroke-linecap:round;stroke-linejoin:miter;stroke-miterlimit:4;stroke-dasharray:none;stroke-opacity:1" />
  <g
     id="layer1"
     style="display:none">
    <g
       transform="translate(-768.41559,-68.502154)"
       id="g2865"
       style="fill:#b3b3b3">
      <path
         d="M 1014.3279,272.22761 C 1005.2165,260.21102 977.13547,220.82643 970.26625,210.42977 C 965.27814,202.8802 965.24589,202.77653 965.52336,195.18371 C 965.8267,186.88285 969.43888,177.46999 974.19469,172.58739 C 979.70362,166.93159 1012.8432,152.20063 1033.4589,146.24368 C 1090.9163,129.64128 1153.6588,131.83534 1208.6023,152.36832 C 1223.7998,158.04779 1241.727,166.6651 1247.3172,170.97788 C 1254.915,176.83952 1259.156,188.88596 1257.819,200.80803 C 1257.3947,204.59106 1257.0317,205.4934 1254.3067,209.53934 C 1246.3084,221.41467 1216.8754,262.26419 1209.2832,272.02674 L 1205.5487,276.82874 L 1204.4704,275.45727 C 1200.3019,270.15521 1194.2589,266.20822 1181.7059,260.58871 C 1164.9827,253.10234 1149.2776,248.73895 1131.5373,246.65019 C 1123.0982,245.65656 1103.9919,245.50994 1095.3125,246.37221 C 1075.9573,248.29512 1056.1879,253.84742 1038.4439,262.34394 C 1028.1961,267.25102 1022.8282,270.72481 1020.4045,274.01812 C 1019.3537,275.44591 1018.3125,276.62414 1018.0908,276.6364 C 1017.8691,276.64867 1016.1758,274.66471 1014.3279,272.22761 z"
         id="path2855"
         style="fill:#b3b3b3;fill-opacity:1;stroke:#60441c;stroke-width:0;stroke-linecap:round;stroke-linejoin:miter;stroke-miterlimit:4;stroke-dasharray:none;stroke-opacity:1" />
      <path
         d="M 861.54737,485.99517 C 855.52374,484.01551 852.45475,482.45782 848.31849,479.28075 C 840.44372,473.23211 838.4452,468.78495 835.72465,451.25651 C 834.47187,443.18485 834.40549,441.25911 834.41651,413.308 C 834.42746,385.49321 834.49919,383.43522 835.71194,376.14396 C 839.93628,350.74641 845.47396,329.88281 853.23986,310.10633 C 857.38146,299.55942 868.27505,277.9181 874.30161,268.2649 C 886.77046,248.29251 902.70667,228.29633 916.66121,215.1136 C 923.4129,208.7353 925.6999,207.26767 930.73739,206.0804 C 938.32469,204.29217 946.37486,205.23698 954.95415,208.92261 L 959.83935,211.02127 L 984.30673,244.80743 C 997.76379,263.38981 1009.3473,279.42254 1010.0478,280.43573 L 1011.3214,282.27787 L 1008.0896,283.29439 C 1002.9709,284.90443 997.7326,289.33192 987.03413,301.09087 C 962.59229,327.95548 947.69996,362.36345 944.4101,399.57156 C 943.56656,409.11197 943.99857,427.211 945.28388,436.17817 C 947.05549,448.53818 948.96034,454.93364 952.20916,459.4296 C 953.10393,460.66786 953.09216,460.67249 929.48137,468.38758 C 885.92312,482.62074 869.7236,487.65344 867.59383,487.6142 C 866.94121,487.60217 864.22032,486.87361 861.54737,485.99515 L 861.54737,485.99517 z"
         id="path2857"
         style="fill:#b3b3b3;fill-opacity:1;stroke:#60441c;stroke-width:0;stroke-linecap:round;stroke-linejoin:miter;stroke-miterlimit:4;stroke-dasharray:none;stroke-opacity:1" />
      <path
         d="M 1340.6775,483.5464 C 1310.1211,473.65621 1271.7443,461.13818 1271.3743,460.94055 C 1271.1505,460.82103 1271.8325,459.12425 1272.8899,457.16995 C 1275.8252,451.74498 1277.5709,444.59713 1278.9943,432.17589 C 1279.9043,424.23493 1279.913,400.75665 1279.0085,393.86835 C 1274.8736,362.3776 1263.4823,334.97961 1244.1407,310.00502 C 1239.3815,303.85983 1224.2625,288.12366 1220.8845,285.79952 C 1219.5994,284.91536 1217.275,283.82079 1215.7192,283.36714 C 1214.1634,282.91348 1212.8905,282.30837 1212.8905,282.02244 C 1212.8905,281.73651 1224.3338,265.70353 1238.3201,246.39359 L 1263.7498,211.28461 L 1267.9379,209.34959 C 1278.6353,204.40706 1290.2892,203.93204 1298.6317,208.09849 C 1305.4876,211.52251 1325.8905,234.13523 1339.5986,253.50265 C 1360.2772,282.71828 1376.3253,318.77285 1383.7529,352.70203 C 1391.3863,387.57145 1392.4827,423.80183 1386.9279,457.61896 C 1384.7773,470.71135 1379.5036,478.03169 1368.1717,483.65404 C 1364.9897,485.23278 1356.0266,487.67867 1353.8279,487.56824 C 1353.3562,487.54453 1347.4385,485.73472 1340.6775,483.54639 L 1340.6775,483.5464 z"
         id="path2859"
         style="fill:#b3b3b3;fill-opacity:1;stroke:#60441c;stroke-width:0;stroke-linecap:round;stroke-linejoin:miter;stroke-miterlimit:4;stroke-dasharray:none;stroke-opacity:1" />
      <path
         d="M 1139.9756,688.99971 C 1138.2371,688.42361 1135.1496,687.07521 1133.1145,686.00321 C 1128.1732,683.40051 1120.2943,675.53161 1117.9754,670.88331 L 1116.2639,667.45281 L 1116.086,623.28479 C 1115.9766,596.1236 1116.114,579.11676 1116.4429,579.11676 C 1116.7371,579.11676 1118.1036,579.52239 1119.4796,580.01817 C 1122.9574,581.27121 1128.6619,581.08936 1138.5789,579.40939 C 1191.8341,570.38773 1234.6281,539.95082 1259.9746,493.06773 C 1266.5683,480.8713 1267.747,477.7851 1267.7482,472.71353 L 1267.7493,468.36844 L 1276.0545,471.102 C 1280.6224,472.60547 1299.6013,478.89717 1318.2298,485.08358 L 1352.0998,496.33159 L 1355.1079,499.61209 C 1358.6832,503.51113 1361.6695,508.35426 1363.0867,512.55215 C 1364.4605,516.62138 1365.5566,525.67165 1365.0197,528.51028 C 1364.4613,531.46195 1355.8616,548.14955 1349.9897,557.67597 C 1340.9414,572.3558 1332.3909,584.15803 1323.3206,594.48751 C 1315.9437,602.8884 1299.8266,618.95217 1291.7926,625.91105 C 1255.9102,656.99171 1206.8877,679.98691 1159.4304,687.99901 C 1146.995,690.09841 1143.7892,690.26331 1139.9756,688.99971 L 1139.9756,688.99971 z"
         id="path2861"
         style="fill:#b3b3b3;fill-opacity:1;stroke:#60441c;stroke-width:0;stroke-linecap:round;stroke-linejoin:miter;stroke-miterlimit:4;stroke-dasharray:none;stroke-opacity:1" />
      <path
         d="M 1064.2343,687.99801 C 1020.8838,679.64601 984.32836,664.48541 951.59868,641.28484 C 913.91665,614.57375 884.60305,580.51497 863.48454,538.90712 L 858.02101,528.14284 L 858.62368,522.61214 C 859.22708,517.07467 860.76337,511.42567 862.69643,507.63659 C 864.42302,504.25219 868.92268,498.62818 870.86343,497.42888 C 874.2575,495.33149 889.66652,489.90913 922.3557,479.30903 C 940.23426,473.51155 955.09273,468.76817 955.37451,468.76817 C 955.65629,468.76817 955.88684,470.19138 955.88684,471.93086 C 955.88684,475.91579 957.37144,480.33714 961.42243,488.41667 C 974.47798,514.45536 993.49843,536.3673 1016.7787,552.18822 C 1039.5601,567.67016 1061.4265,575.98266 1090.6792,580.28146 C 1098.5716,581.44129 1099.7031,581.37544 1106.1153,579.38311 L 1107.4017,578.98338 L 1107.3953,623.50397 L 1107.3889,668.02461 L 1104.955,671.87311 C 1100.5875,678.77891 1093.8471,684.77771 1087.0051,687.84821 C 1082.7072,689.77691 1073.7727,689.83571 1064.2343,687.99801 L 1064.2343,687.99801 z"
         id="path2863"
         style="fill:#b3b3b3;fill-opacity:1;stroke:#60441c;stroke-width:0;stroke-linecap:round;stroke-linejoin:miter;stroke-miterlimit:4;stroke-dasharray:none;stroke-opacity:1" />
    </g>
  </g>
  <g
     id="g2899">
    <g
       transform="translate(0.9670524,-0.8939098)"
       id="g2529"
       style="fill:#ffffff">
      <g
         id="g2872"
         style="fill:#ffffff">
        <path
           d="M 352.8125,45.84375 C 326.74735,45.950096 300.60637,49.642698 275.46875,56.90625 C 254.853,62.863196 221.72768,77.594196 216.21875,83.25 C 211.46294,88.1326 207.83459,97.542893 207.53125,105.84375 C 207.25378,113.43657 207.29314,113.54418 212.28125,121.09375 C 216.97766,128.20183 231.40831,148.58354 243.09375,164.78125 C 253.68734,138.40886 316.01249,120.59937 357.41585,122.11662 C 410.54096,124.06341 461.5359,148.15586 464.9375,164.21875 C 476.48347,148.36354 490.99821,128.07777 496.3125,120.1875 C 499.03753,116.14156 499.38826,115.25178 499.8125,111.46875 C 501.14951,99.54668 496.9103,87.486639 489.3125,81.625 C 483.72234,77.312213 465.8225,68.710726 450.625,63.03125 C 419.71933,51.481449 386.32483,45.70702 352.8125,45.84375 z"
           transform="translate(-10.424243,20.848493)"
           id="path3630"
           style="fill:#ffffff;fill-opacity:1;stroke:#60441c;stroke-width:0;stroke-linecap:round;stroke-linejoin:miter;stroke-miterlimit:4;stroke-dasharray:none;stroke-opacity:1" />
        <path
           d="M 607.05217,257.47039 C 598.65816,232.79359 586.84015,209.18597 571.95599,187.66572 C 559.74925,170.01663 535.24424,143.29971 528.12958,139.87658 C 521.98755,136.92142 511.91184,136.4757 503.94584,138.82923 C 496.65931,140.98199 496.56981,141.05354 490.99965,148.1845 C 485.75521,154.89843 471.0241,175.06405 459.38611,191.29589 C 487.75858,192.94802 518.26843,236.3755 532.66858,275.22361 C 547.90303,316.32246 551.92061,389.154 530.50372,401.43215 C 549.20858,407.33343 573.05833,414.63954 582.22942,417.16721 C 586.93214,418.46332 587.88728,418.51273 591.60869,417.71126 C 603.3366,415.18554 613.42112,407.32947 616.56076,398.2615 C 618.87079,391.58963 621.33007,371.88324 621.87899,355.66845 C 622.99528,322.69404 617.84446,289.19769 607.05217,257.47039 z"
           id="path2887"
           style="fill:#ffffff;fill-opacity:1;stroke:#60441c;stroke-width:0;stroke-linecap:round;stroke-linejoin:miter;stroke-miterlimit:4;stroke-dasharray:none;stroke-opacity:1" />
        <path
           d="M 508.02539,569.65567 C 528.93148,554.08844 547.76849,535.59106 563.67729,514.81682 C 576.72436,497.77954 594.62387,466.25342 595.69645,458.43127 C 596.6224,451.67848 593.95204,441.95286 589.26569,435.09469 C 584.97908,428.82151 584.8835,428.75832 576.38645,425.64747 C 568.3863,422.71854 544.67099,414.89281 525.64932,408.80254 C 532.79099,436.31114 498.47537,482.10164 465.92752,507.73712 C 431.49397,534.85785 365.77384,557.63229 347.51141,541.02146 C 347.64011,560.63475 348.01201,585.57571 348.42322,595.07986 C 348.63407,599.95337 348.88041,600.8775 350.78608,604.17291 C 356.7917,614.55829 367.36531,621.74258 376.95928,621.94544 C 384.01815,622.09473 403.5274,618.38278 419.1271,613.92517 C 450.85067,604.86018 481.14613,589.67067 508.02539,569.65567 z"
           id="path2889"
           style="fill:#ffffff;fill-opacity:1;stroke:#60441c;stroke-width:0;stroke-linecap:round;stroke-linejoin:miter;stroke-miterlimit:4;stroke-dasharray:none;stroke-opacity:1" />
        <path
           d="M 179.16036,571.75667 C 200.17322,587.17947 223.38079,599.76499 247.90655,608.88341 C 268.02052,616.36158 303.40931,624.23066 311.20215,622.96259 C 317.92964,621.86787 326.44484,616.46325 331.62751,609.972 C 336.36811,604.03445 336.40051,603.92454 336.88322,594.88882 C 337.3377,586.3815 337.86597,561.41395 338.11127,541.44259 C 313.9057,556.33612 257.24995,533.05928 223.19789,509.45849 C 187.17298,484.49034 148.94601,432.2319 159.47208,409.9017 C 140.75857,415.77552 117.02284,423.44398 108.05697,426.62379 C 103.4595,428.25432 102.6482,428.7608 100.05638,431.54896 C 91.888362,440.3357 88.120079,452.55108 90.739159,461.78286 C 92.666156,468.57526 101.93524,486.13868 110.77087,499.74574 C 128.73906,527.41707 152.14384,551.92733 179.16036,571.75667 z"
           id="path2891"
           style="fill:#ffffff;fill-opacity:1;stroke:#60441c;stroke-width:0;stroke-linecap:round;stroke-linejoin:miter;stroke-miterlimit:4;stroke-dasharray:none;stroke-opacity:1" />
        <path
           d="M 78.628551,258.29863 C 70.342593,283.01191 65.427774,308.9509 64.216847,335.08886 C 63.223748,356.525 66.513066,392.62858 70.095563,399.66436 C 73.1883,405.73828 80.930731,412.20152 88.692559,415.15959 C 95.792327,417.86536 95.906886,417.86272 104.65995,415.56898 C 112.90114,413.4094 136.84216,406.3041 155.93838,400.45181 C 134.37699,381.93605 137.3816,321.83241 149.48312,282.208 C 162.28575,240.28789 202.30991,187.00356 226.78568,190.22425 C 215.48861,174.19073 200.95183,153.92076 195.19105,146.35031 C 192.23707,142.46839 191.50746,141.85001 188.0621,140.23111 C 177.20422,135.12919 164.4215,135.26256 156.42692,140.5703 C 150.54482,144.47552 136.64133,158.65588 126.37396,171.21781 C 105.49422,196.76375 89.281936,226.52443 78.628551,258.29863 z"
           id="path2893"
           style="fill:#ffffff;fill-opacity:1;stroke:#60441c;stroke-width:0;stroke-linecap:round;stroke-linejoin:miter;stroke-miterlimit:4;stroke-dasharray:none;stroke-opacity:1" />
      </g>
    </g>
    <g
       transform="matrix(1.2065808,0,0,1.2065808,-363.28882,-160.28045)"
       id="g2674"
       style="fill:#ffffff">
      <path
         d="M 584.995,259.39637 C 572.89075,259.39086 566.23497,259.99882 556.27625,262.02137 C 541.12036,265.09943 529.67479,269.0505 514.96375,276.27137 C 504.26749,281.5216 499.40124,285.22218 499.40125,288.05262 C 499.40125,290.46031 501.80182,294.38967 503.96375,295.52137 C 507.10823,297.16743 508.92733,296.87027 511.46375,294.33387 C 514.60932,291.18829 514.45928,290.13346 510.52625,287.14637 C 509.38274,286.27788 509.38277,286.26899 510.52625,285.36512 C 513.86256,282.72797 531.62082,275.08808 540.995,272.24012 C 555.69857,267.77306 570.03054,265.67762 586.245,265.67762 C 606.114,265.67762 623.28755,268.68971 639.46375,274.95887 C 646.78159,277.79492 660.45198,284.23809 661.87,285.52137 C 662.85635,286.414 662.81121,286.50476 660.90125,287.80262 C 658.15799,289.66672 658.03858,291.83247 660.495,294.42762 C 663.37488,297.47014 667.6735,297.03697 670.87,293.39637 C 676.21447,287.30935 671.94048,282.66531 652.90125,273.86512 C 640.66971,268.21151 630.78305,264.98772 617.1825,262.24012 C 606.71046,260.12454 598.56208,259.40255 584.995,259.39637 z M 586.40125,285.70887 C 584.87092,285.65403 583.3492,285.83476 582.02625,286.27137 C 577.54163,287.75143 573.67739,292.86657 572.83875,298.45887 C 572.37192,301.57191 571.85597,301.95711 567.4325,302.52137 C 555.82798,304.00168 547.4809,315.19693 550.27625,325.55262 C 551.82246,331.28068 572.13111,381.45933 576.08875,389.33387 C 577.6245,392.38952 577.86086,392.6183 579.3075,392.27137 C 580.16557,392.06559 580.99402,391.78519 581.15125,391.64637 C 581.30848,391.50757 581.59969,379.86484 581.8075,365.77137 C 582.06095,348.58644 582.40771,339.73308 582.83875,338.92762 C 583.78325,337.16281 586.03621,335.86937 587.40125,336.30262 C 589.88334,337.09041 589.96763,337.92439 590.27625,364.64637 C 590.59094,391.89381 590.57344,391.65037 593.495,392.20887 C 594.53728,392.40811 595.1764,392.14599 595.745,391.27137 C 596.179,390.6038 599.73965,381.97907 607.1825,363.74012 C 613.17858,348.9882 615.58152,346.69581 621.21375,326.70887 C 622.92814,320.62507 620.40145,312.12328 617.15125,308.89637 C 613.71495,305.48473 609.5076,303.19414 604.15125,302.33387 C 602.18346,302.01783 600.36143,301.6274 600.08875,301.45887 C 599.81608,301.29035 599.48153,299.74274 599.33875,298.02137 C 599.01712,294.143 596.73002,290.26263 593.3075,287.80262 C 591.53946,286.53179 588.95179,285.80027 586.40125,285.70887 z M 684.27625,295.49012 C 683.22495,295.46441 682.2377,295.74186 681.21375,296.27137 C 675.84041,299.05004 675.56371,306.29095 680.71375,309.36512 C 683.94137,311.29175 686.93252,309.76453 686.9325,306.17762 C 686.9325,305.32275 687.1733,304.4702 687.495,304.27137 C 688.27505,303.78927 699.51216,315.28355 705.33875,322.52137 C 724.19445,345.94405 735.46955,373.86601 738.43255,404.61512 C 739.61785,416.9159 738.60855,435.33608 736.05755,447.95887 L 735.43255,450.99012 L 733.18255,448.95887 C 731.94895,447.8444 730.65255,446.92762 730.30755,446.92762 C 729.96245,446.92762 728.81415,447.79594 727.74495,448.86512 C 726.24445,450.36571 725.80745,451.28559 725.80755,452.89637 C 725.80755,455.65058 727.14625,458.16706 729.40125,459.58387 C 731.85525,461.1257 736.13055,460.79662 738.11995,458.92762 C 742.18405,455.10969 744.78715,438.46565 744.80755,416.33387 C 744.81995,402.77156 743.87105,394.28103 740.99495,382.20887 C 734.07075,353.14373 719.27845,326.67518 698.08875,305.36512 C 691.14626,298.38319 687.43016,295.56726 684.27625,295.49012 z M 487.9325,295.52137 C 486.17041,295.64448 484.29573,296.4977 482.37,298.05262 C 478.00755,301.57502 466.26702,313.58657 462.02625,318.86512 C 446.30332,338.43581 434.79518,363.92276 429.6825,390.49012 C 426.77167,405.61588 426.89348,432.14566 429.96375,447.52137 C 431.39287,454.67825 432.40277,457.04849 434.6825,458.92762 C 437.6401,461.36551 440.68325,461.33087 443.5575,458.80262 C 446.20925,456.47008 446.89786,454.18007 445.87,451.17762 C 445.15282,449.08266 443.29809,446.92762 442.1825,446.92762 C 441.91381,446.92762 440.74772,447.74998 439.62,448.74012 C 438.40458,449.80727 437.3626,450.32648 437.0575,450.02137 C 435.2518,448.21566 433.31297,424.40892 433.83875,410.61512 C 435.0006,380.13603 445.92185,350.24563 465.21375,324.77137 C 469.31576,319.3548 483.59894,303.99012 484.52625,303.99012 C 484.76989,303.99012 485.26117,305.15883 485.62,306.58387 C 486.4287,309.79552 488.13063,310.81768 490.8075,309.70887 C 496.0999,307.51668 496.71423,299.61137 491.83875,296.55262 C 490.60199,295.77671 489.30302,295.42562 487.9325,295.52137 z M 508.745,311.58387 C 508.64054,311.68833 508.17193,314.61381 507.71375,318.05262 C 506.78826,324.99837 505.03115,331.58343 501.65125,340.55262 C 500.19235,344.4241 499.60457,346.65506 499.995,346.89637 C 500.32674,347.10139 502.57402,347.68587 504.995,348.20887 C 510.55062,349.40903 511.22554,349.93072 543.40125,376.80262 C 556.766,387.96435 568.07185,397.12038 568.495,397.14637 C 568.91816,397.17235 569.98667,396.6816 570.87,396.05262 L 572.46375,394.89637 L 568.745,385.89637 C 560.40554,365.64739 548.58643,335.95492 546.83875,330.86512 C 544.91948,325.27563 544.41948,320.31728 545.3075,315.95887 L 545.71375,313.89637 L 531.5575,313.55262 C 521.87958,313.32834 516.07374,312.95654 513.1825,312.33387 C 510.85575,311.83277 508.84945,311.47941 508.745,311.58387 z M 662.83875,311.58387 C 662.07454,311.62695 660.47061,311.90481 658.6825,312.30262 C 655.6719,312.97241 650.17562,313.3885 640.745,313.64637 L 627.1825,313.99012 L 627.1825,320.58387 C 627.17211,328.30715 628.49734,324.36046 611.0575,367.30262 L 599.87,394.89637 L 601.245,396.02137 C 601.99289,396.6443 602.92131,397.16716 603.33875,397.17762 C 603.75619,397.18808 611.47846,391.07087 620.495,383.58387 C 662.03393,349.09142 661.05133,349.81766 667.46375,348.24012 C 671.53783,347.23784 672.3222,346.86718 672.245,345.95887 C 672.19418,345.36088 670.96028,341.54692 669.495,337.45887 C 666.48404,329.05841 664.91559,322.92695 664.12,316.39637 C 663.82005,313.9342 663.46679,311.77438 663.3075,311.61512 C 663.26768,311.5753 663.09349,311.56951 662.83875,311.58387 z M 501.12,352.64637 C 500.55174,352.6525 499.96199,352.69329 499.3075,352.74012 C 491.53352,353.29635 485.06606,357.9948 481.5575,365.64637 C 479.91413,369.2303 479.87672,369.26774 478.0575,368.80262 C 477.04863,368.54467 474.53335,368.33388 472.46375,368.33387 C 469.26922,368.33387 468.28882,368.57654 465.90125,370.05262 C 461.78792,372.59566 460.32786,375.5552 460.27625,381.42762 C 460.22626,387.11177 461.11925,388.85208 465.52625,391.55262 C 471.68888,395.32895 471.52706,395.05431 470.83875,400.61512 C 470.02218,407.2121 470.74233,411.40773 473.33875,415.17762 C 475.45845,418.25533 479.63122,421.78579 482.83875,423.17762 C 483.91526,423.64475 485.21079,424.03303 485.6825,424.05262 C 487.36999,424.12273 558.01404,419.4095 558.745,419.17762 C 559.25405,419.01613 559.42651,418.07123 559.3075,416.24012 L 559.15125,413.55262 L 540.5575,407.45887 C 519.21138,400.44009 510.94532,397.42985 509.52625,396.17762 C 507.42316,394.32177 509.22324,390.33388 512.15125,390.33387 C 512.87426,390.33387 519.09224,392.15053 525.995,394.36512 C 532.89776,396.57971 543.58166,399.95039 549.71375,401.86512 C 555.84581,403.77985 561.12174,405.45387 561.46375,405.58387 C 561.80575,405.71386 562.77392,404.81515 563.58875,403.58387 L 565.0575,401.33387 L 562.08875,398.80262 C 554.01204,391.85517 516.79706,360.99017 512.495,357.67762 C 507.32581,353.69739 505.09781,352.60343 501.12,352.64637 z M 670.40125,352.70887 C 668.71019,352.72047 667.24629,352.92747 666.27625,353.33387 C 665.13788,353.81079 660.76503,356.97488 656.5575,360.36512 C 647.97669,367.27914 613.66179,395.85377 609.83875,399.27137 L 607.37,401.49012 L 608.745,403.49012 C 609.65242,404.81403 610.47269,405.43076 611.1825,405.30262 C 611.77259,405.1961 619.98143,402.66281 629.4325,399.67762 C 656.84401,391.01945 659.89479,390.20018 661.6825,391.05262 C 663.5948,391.96446 664.06756,395.00904 662.5575,396.67762 C 661.74183,397.57893 637.93769,405.72502 615.1825,412.86512 C 613.0643,413.52977 612.87237,413.7423 612.71375,415.86512 C 612.60981,417.25628 612.82527,418.39641 613.27625,418.74012 C 613.68489,419.05156 627.92015,420.2551 644.90125,421.42762 C 661.88236,422.60015 676.55158,423.63116 677.495,423.74012 C 678.4384,423.84909 681.41804,423.88674 684.12,423.80262 C 688.2699,423.67344 689.44036,423.39785 691.6825,422.08387 C 699.49191,417.50725 703.52117,408.31944 701.5575,399.49012 C 700.61083,395.23355 700.36972,395.57296 705.77625,392.42762 C 708.08953,391.08185 709.4389,389.77216 710.83875,387.45887 C 712.57867,384.58358 712.70855,384.00043 712.52625,380.49012 C 712.28278,375.80117 710.35219,372.68608 706.08875,370.05262 C 703.2205,368.28096 701.82364,368.12321 693.87,368.74012 C 692.01664,368.88388 691.86466,368.75862 690.71375,365.74012 C 689.10566,361.52252 683.2457,355.58518 679.21375,354.11512 C 676.64225,353.17754 673.21968,352.68954 670.40125,352.70887 z M 585.4325,396.74012 C 575.29292,396.93247 566.9784,403.93526 565.15125,414.42762 C 563.28664,425.13503 569.53099,435.21523 580.1825,438.70887 C 581.72015,439.21322 584.16732,439.41868 586.995,439.27137 C 595.18716,438.84461 601.85024,434.3864 605.40125,426.92762 C 606.99422,423.58165 607.15123,422.66162 607.15125,417.77137 C 607.15125,413.08453 606.96376,411.88371 605.65125,409.08387 C 602.54189,402.45102 597.11773,398.32671 589.87,397.08387 C 588.36053,396.82502 586.88101,396.71264 585.4325,396.74012 z M 558.21375,424.17762 C 557.0885,424.0829 543.59216,424.94356 528.21375,426.08387 C 512.83532,427.22419 495.98883,428.1851 490.77625,428.24012 L 481.3075,428.36512 L 477.90125,426.24012 C 476.03839,425.0821 474.3305,424.30675 474.12,424.52137 C 473.90952,424.73599 473.23583,427.18155 472.58875,429.92762 C 471.03819,436.50774 467.94852,444.62392 464.12,452.27137 C 462.41102,455.68501 461.08465,458.55459 461.1825,458.64637 C 461.28037,458.73814 464.06812,460.2096 467.37,461.89637 C 474.87126,465.72836 483.83811,471.67651 488.27625,475.77137 C 490.14133,477.49221 491.7334,478.91344 491.8075,478.92762 C 491.88159,478.94179 492.75725,477.33051 493.745,475.36512 C 497.34287,468.20615 493.63898,470.96428 533.995,445.67762 C 548.46038,436.61377 560.53639,428.81526 560.83875,428.36512 C 561.19145,427.84009 561.16689,426.98687 560.8075,425.95887 C 560.35453,424.66314 559.86804,424.31688 558.21375,424.17762 z M 614.37,424.45887 C 611.15588,424.59754 611.42761,425.3623 611.58875,426.89637 C 611.78845,428.79753 614.07489,430.46716 632.995,442.33387 C 654.71002,455.95358 669.46113,465.46428 673.02625,468.14637 C 675.38462,469.92062 676.43773,471.27874 678.0575,474.64637 L 680.12,478.89637 L 685.37,474.49012 C 691.55469,469.30164 696.32396,466.21244 704.995,461.77137 L 711.3075,458.52137 L 708.1825,452.30262 C 704.22442,444.41346 701.47074,437.24826 699.745,430.45887 C 698.99983,427.5272 698.25361,424.91309 698.08875,424.64637 C 697.9239,424.37963 696.34356,425.0272 694.58875,426.08387 C 689.29409,429.27214 689.25668,429.27504 638.08875,425.77137 C 624.28236,424.82599 617.58412,424.3202 614.37,424.45887 z M 563.8075,433.24012 C 563.44006,433.25428 549.25737,441.92234 532.27625,452.52137 L 501.40125,471.80262 L 499.08875,476.36512 C 496.97869,480.55959 496.82391,481.24438 496.83875,485.49012 C 496.85961,491.45065 498.56313,495.32539 503.4325,500.39637 L 506.9325,504.05262 L 505.1825,507.61512 C 503.75214,510.47753 503.40126,511.85959 503.40125,514.80262 C 503.40125,516.85865 503.75195,519.15958 504.21375,520.05262 C 505.3471,522.24427 509.34243,525.73173 512.1825,527.02137 C 515.0902,528.34171 515.79533,528.36539 519.245,527.20887 C 522.48729,526.12189 526.37237,523.31204 527.6825,521.11512 C 528.86159,519.1379 529.26936,519.15453 531.87,521.24012 C 534.97865,523.73314 538.47048,524.79931 543.745,524.86512 C 547.72252,524.91476 548.81101,524.69226 551.65125,523.30262 C 553.46559,522.41496 556.44678,520.2599 558.245,518.49012 L 561.495,515.27137 L 563.9325,505.24012 C 577.32189,450.13 578.65402,444.09311 577.5575,443.39637 C 577.17391,443.15264 576.21864,442.95775 575.4325,442.95887 C 573.58538,442.9615 570.69657,446.43969 557.4325,464.64637 C 551.81963,472.35076 545.88522,480.04353 544.245,481.70887 C 541.62652,484.36743 541.054,484.66806 539.62,484.33387 C 536.56116,483.62098 535.70751,481.1806 537.58875,478.45887 C 538.16569,477.62416 545.00304,467.99455 552.77625,457.05262 L 566.9325,437.17762 L 565.6825,435.17762 C 565.0111,434.09127 564.17494,433.22596 563.8075,433.24012 z M 608.58875,433.77137 C 607.445,433.77137 605.51028,436.38139 605.90125,437.39637 C 606.04288,437.76405 611.67922,445.80618 618.40125,455.24012 C 634.1393,477.32749 635.60272,479.60754 635.37,481.61512 C 635.1446,483.55985 632.83685,485.02398 630.83875,484.49012 C 629.34136,484.09004 626.11761,479.88064 608.87,456.08387 C 603.28597,448.37948 598.6117,441.97087 598.495,441.83387 C 598.37832,441.69687 597.32451,442.12344 596.15125,442.80262 C 594.80926,443.57945 594.04681,444.41383 594.12,445.05262 C 594.28668,446.50835 601.17668,475.09858 605.245,491.24012 C 611.10874,514.50504 612.68043,518.441 617.40125,521.42762 C 621.08594,523.75873 624.484,524.74603 628.71375,524.74012 C 633.72016,524.73312 636.42304,523.98826 640.08875,521.52137 L 643.08875,519.49012 L 646.27625,522.64637 C 648.03026,524.37653 650.36311,526.17242 651.46375,526.64637 C 656.09088,528.63896 662.55316,526.91361 666.245,522.70887 C 668.64531,519.97508 669.21375,518.47954 669.21375,514.77137 C 669.21375,512.55134 668.71004,510.73468 667.245,507.67762 L 665.27625,503.58387 L 667.96375,501.33387 C 671.2362,498.59307 674.45157,493.30819 675.495,488.95887 C 676.44805,484.98612 675.64939,480.18336 673.3075,475.86512 C 671.93145,473.32782 670.66957,472.32369 660.33875,465.52137 C 637.93388,450.76889 610.24039,433.77138 608.58875,433.77137 z M 585.9325,444.74012 C 585.10614,444.78767 584.42686,445.03304 584.15125,445.36512 C 583.80435,445.7831 581.42506,454.46652 578.87,464.67762 C 570.63972,492.54488 567.55904,521.44253 562.245,521.83387 L 557.245,526.39637 L 561.62,529.05262 C 567.56149,532.65336 574.54899,538.16393 580.8075,544.20887 C 583.67285,546.97645 586.1424,549.25975 586.3075,549.27137 C 586.4726,549.28299 588.51939,547.32097 590.87,544.92762 C 596.2921,539.40695 604.27701,533.01185 610.08875,529.49012 C 612.57456,527.9838 614.72162,526.66086 614.87,526.55262 C 615.01842,526.44439 613.80616,525.1227 612.1825,523.64637 C 610.55886,522.17007 608.70621,519.87913 608.0575,518.55262 C 606.12744,514.60603 602.69229,502.02829 595.5575,472.67762 L 588.8075,444.92762 L 586.8075,444.77137 C 586.51268,444.74634 586.20795,444.72427 585.9325,444.74012 z M 445.62,468.61512 C 442.86702,468.83735 440.26055,470.59033 439.3075,473.77137 C 438.51131,476.42883 438.90791,477.83402 443.12,486.80262 C 455.41719,512.98656 476.69267,536.82089 501.9325,552.67762 C 521.49724,564.969 547.67348,573.97154 569.71375,576.02137 C 572.3867,576.26997 575.33286,576.29628 576.27625,576.05262 C 578.27677,575.53598 580.97716,572.77217 581.495,570.70887 C 582.36424,567.2455 580.07986,563.07061 576.58875,561.74012 C 574.83057,561.07007 571.76062,561.59949 570.58875,562.77137 C 569.53908,563.82103 569.44008,566.5761 570.40125,568.11512 C 570.78241,568.72548 570.91567,569.44445 570.6825,569.67762 C 569.66181,570.69831 551.77403,567.1643 541.1825,563.86512 C 519.08105,556.98062 500.53425,546.4343 483.52625,531.08387 C 477.99477,526.09149 467.70157,514.74195 462.8075,508.20887 C 457.62365,501.28897 446.77628,482.02148 446.77625,479.74012 C 446.77625,479.26798 447.47671,479.16149 448.995,479.36512 C 452.90343,479.88935 454.81113,476.55228 452.8075,472.67762 C 451.26663,469.69789 448.37298,468.39289 445.62,468.61512 z M 725.61995,468.64637 C 723.52605,468.64637 722.78715,468.99691 721.08875,470.64637 C 718.44985,473.20921 717.85835,475.70569 719.40125,477.74012 C 720.36775,479.01456 720.94815,479.22484 723.18255,479.14637 C 724.85725,479.08756 725.80785,479.2869 725.80755,479.70887 C 725.80685,480.6766 722.92685,486.62162 719.77625,492.14637 C 703.65755,520.4109 682.17317,540.86939 654.0575,554.70887 C 640.05826,561.59977 626.88991,565.91304 611.495,568.67762 C 601.65855,570.44404 599.63197,570.2048 602.08875,567.49012 C 602.82968,566.67139 602.94598,566.0497 602.52625,564.58387 C 601.42333,560.73172 596.4886,560.34582 592.6825,563.83387 C 590.80208,565.55714 590.58874,566.08224 590.58875,568.64637 C 590.58875,572.0001 591.91788,574.19941 594.90125,575.74012 C 597.10025,576.87578 598.4461,576.79352 610.15125,574.95887 C 641.47313,570.04956 669.52798,556.6951 693.21375,535.39637 C 706.90617,523.08387 718.88615,507.2321 727.90125,489.52137 C 733.75685,478.01766 734.24635,476.38409 732.74495,472.99012 C 731.42135,469.9978 729.21515,468.64636 725.61995,468.64637 z"
         id="path2676"
         style="fill:#ffffff;fill-opacity:1;stroke:#60441c;stroke-width:0;stroke-linecap:round;stroke-linejoin:miter;stroke-miterlimit:4;stroke-dasharray:none;stroke-opacity:1" />
      <g
         transform="matrix(0.5433489,0,0,0.5433489,-338.20135,131.00342)"
         id="g2771"
         style="fill:#ffffff">
        <g
           transform="matrix(1.5249618,0,0,1.5249618,-211.85959,-121.38906)"
           id="g2820"
           style="fill:#ffffff" />
      </g>
    </g>
  </g>
</svg>
