<?xml version="1.0" encoding="UTF-8"?>
<!DOCTYPE svg  PUBLIC '-//W3C//DTD SVG 20010904//EN'  'http://www.w3.org/TR/2001/REC-SVG-20010904/DTD/svg10.dtd'>
<svg width="688pt" height="688pt" version="1.0" viewBox="0 0 688 688" xmlns="http://www.w3.org/2000/svg">
 <g transform="translate(0 688) scale(.1 -.1)">
  <path d="m3255 5665c-205-32-437-131-533-226-99-98-134-211-94-302 25-57 102-140 182-196l59-41 16 35c22 45 75 92 161 143 238 141 550 141 788 0 86-51 139-98 161-143l16-35 59 41c137 96 207 201 197 294-13 128-103 228-282 315-232 114-486 154-730 115z"/>
  <path d="m3301 5130c-127-27-257-89-331-159-42-40-50-53-50-84 0-26 6-39 20-47 38-20 84 26 58 58-10 12-7 19 22 44 47 39 181 104 255 123 36 9 103 16 165 16s129-7 165-16c74-19 208-84 255-123 29-25 33-32 22-45-10-11-11-21-3-35 26-49 81-32 81 25 0 31-8 44-50 84-58 54-157 108-255 139-79 25-277 36-354 20z"/>
  <path d="m3385 5006c-38-16-85-70-85-97 0-15-7-19-37-19-97 0-162-105-118-190 8-15 52-57 97-92l83-63 94 50 3 65c2 50 6 65 18 65s16-15 18-67c3-62 5-67 30-76 15-6 36-17 47-25 18-14 25-10 98 47 44 33 88 75 98 91 53 85-13 195-116 195-28 0-35 4-35 19 0 27-48 81-87 97-40 17-69 17-108 0z"/>
  <path d="m2344 4980c-257-67-424-281-424-543 0-168 48-285 165-403 78-78 157-123 265-150 86-22 231-15 315 15 62 22 165 80 165 92 0 4-22 15-49 24-119 39-234 160-272 287-17 55-21 88-17 158 4 77 9 98 42 164 57 116 152 197 281 241 19 6 19 7-5 27-71 58-228 108-334 107-34 0-93-9-132-19z"/>
  <path d="m4264 4980c-76-20-153-55-194-88-24-20-24-21-5-27 129-44 224-125 281-241 33-66 38-87 42-164 4-70 0-103-17-158-38-127-153-248-272-287-27-9-49-20-49-24 0-12 103-70 165-92 84-30 229-37 315-15 208 52 379 224 420 423 18 83 8 245-18 318-46 126-156 251-275 311-68 35-189 64-261 63-34 0-93-9-132-19z"/>
  <path d="m2798 4811c-70-28-112-57-161-111-144-160-138-398 13-550 85-84 224-135 263-95 21 21 22 49 1 69-20 21-30 20-54-4-26-26-35-25-95 9-110 63-178 175-179 295 0 128 58 239 160 303 71 45 93 49 110 24 26-37 74-21 74 25 0 26-35 54-65 54-11-1-41-9-67-19z"/>
  <path d="m3973 4815c-38-27-25-85 18-85 10 0 24 9 33 21 17 25 39 21 110-24 180-114 214-367 70-527-37-41-126-100-151-100-7 0-22 9-33 20-24 24-34 25-54 4-21-20-20-48 1-69 39-40 178 11 263 95 119 120 151 303 78 457-63 134-265 259-335 208z"/>
  <path d="m2948 4670c-45-13-86-49-99-84-10-28-19-35-50-40-56-9-99-56-99-110 0-23 7-52 16-64 18-27 65-52 96-52 17-1 28-12 43-43 27-57 81-87 158-87 35 0 71 7 90 17 24 12 130 88 196 140 2 1 0 17-5 34l-9 31-80 2c-67 1-80 4-83 19s6 17 78 17c77 0 81 1 90 26 6 14 10 29 10 34 0 15-186 150-221 160-40 12-93 12-131 0z"/>
  <path d="m3796 4670c-31-10-216-147-216-160 0-5 4-20 10-34 9-25 13-26 90-26 72 0 81-2 78-17s-16-18-83-19l-80-2-9-31c-5-17-7-33-5-34 66-52 172-128 196-140 19-10 55-17 90-17 77 0 131 30 158 87 15 31 26 42 43 43 31 0 78 25 96 52 9 12 16 41 16 64 0 54-43 101-99 110-32 5-40 12-50 40-25 69-147 112-235 84z"/>
  <path d="m3379 4535c-28-15-59-70-59-105 0-29 26-76 52-94 12-9 43-16 68-16 52 0 83 18 105 60 19 37 19 64-1 106-28 59-105 82-165 49z"/>
  <path d="m3238 4256c-53-40-90-76-98-95-34-82 26-181 110-181 38 0 41-3 56-40 42-105 195-120 254-25 11 18 20 40 20 49 0 12 10 16 44 16 96 0 155 102 109 187-17 31-170 157-182 150-3-2-25-12-48-23l-42-19-3-65c-2-50-7-65-18-65s-16 15-18 65l-3 65-42 19c-23 11-45 21-48 23s-44-25-91-61z"/>
  <path d="m2932 4018c-65-65 116-216 322-268 228-57 508 5 654 146 54 52 68 94 40 122-33 33-96-9-67-44 10-12 8-19-12-39-41-40-140-94-224-122-69-23-97-26-205-26s-136 3-205 26c-84 28-183 82-224 122-20 20-22 27-12 39 29 35-34 77-67 44z"/>
  <path d="m2787 3909c-78-59-150-143-167-195-16-49-8-121 20-180 92-191 448-344 800-344 422 0 805 204 828 440 6 64-11 109-64 174-43 53-168 156-190 156-7 0-15-11-18-24-9-37-105-118-193-164-125-65-215-86-363-86s-238 21-364 87c-84 43-196 141-196 171 0 27-22 18-93-35z"/>
  <path d="m1740 3693c-148-15-321-67-455-136-95-49-195-143-227-214-28-61-29-143-3-198 22-46 119-147 186-193l46-31 31 48c55 84 203 172 356 211 97 25 270 27 364 5 166-39 337-145 384-238l14-27 49 35c75 53 162 143 186 192 16 34 20 57 17 101-9 133-95 231-281 321-213 105-445 147-667 124z"/>
  <path d="m4855 3689c-204-28-460-135-558-233-98-97-132-218-88-309 24-49 111-139 186-192l49-35 14 27c47 93 218 199 384 238 150 35 362 12 506-55 119-56 232-152 232-198 0-20 12-14 82 39 128 95 182 176 182 269 0 77-31 139-106 214-98 96-288 184-480 221-102 20-309 27-403 14z"/>
  <path d="m1706 3144c-97-21-174-55-257-110-101-67-134-129-90-168 37-34 91 13 60 51-11 13-9 19 14 37 52 42 136 88 209 114 66 24 86 27 218 27 116 0 156-4 200-19 72-25 155-66 207-105 38-28 41-33 36-65-4-28-1-36 16-45 26-14 57 0 66 28 21 67-132 185-310 241-94 29-272 36-369 14z"/>
  <path d="m4888 3150c-197-33-418-180-393-261 9-28 40-42 66-28 17 9 20 17 16 45-5 32-2 37 36 65 52 39 135 80 207 105 44 15 84 19 200 19 132 0 152-3 218-27 73-26 157-72 209-114 23-18 25-24 14-37-31-38 23-85 60-51 44 39 11 101-90 168-39 26-97 58-128 71-120 48-286 66-415 45z"/>
  <path d="m1800 3018c-33-17-50-34-65-65-16-35-25-42-48-43-51 0-98-30-118-74-10-23-19-49-19-59 0-42 35-88 116-151l85-67 26 21c14 11 34 20 44 20 17 0 19 8 19 63 0 113 37 120 42 7 3-56 6-65 23-69 11-2 31-11 45-21l26-18 81 61c94 72 113 99 113 160 0 69-58 127-127 127-23 0-32 8-52 45-17 31-36 50-65 65-54 26-71 25-126-2z"/>
  <path d="m4965 3026c-37-17-70-52-84-88-8-22-17-28-41-28-71 0-130-61-130-135 0-53 15-73 113-150l81-64 25 19c14 10 35 19 46 21 17 4 21 14 25 74 4 53 9 70 20 70 12 0 16-16 18-68 3-63 5-69 30-78 15-6 34-17 43-25 15-14 25-9 104 52 114 88 137 138 97 213-21 40-73 71-117 71-26 0-33 5-44 35-25 69-121 111-186 81z"/>
  <path d="m783 3005c-160-35-316-159-386-305-106-225-65-472 108-645 110-111 242-165 400-165 119 0 234 36 329 103l29 20-54 20c-304 112-396 481-181 719 57 63 116 99 216 132 17 6 15 10-18 33-131 88-293 121-443 88z"/>
  <path d="m2705 3005c-33-7-78-20-100-29-50-21-137-77-131-84 3-3 30-15 60-27 293-119 373-490 155-720-49-51-169-125-205-125-27 0-14-16 39-48 83-50 161-73 267-79 115-7 183 6 277 51 80 39 185 132 233 206 74 116 104 276 76 410-65 311-367 511-671 445z"/>
  <path d="m3940 3005c-332-75-526-420-415-738 31-91 74-154 152-228 73-68 173-121 262-140 79-16 232-6 306 20 64 23 165 80 165 93 0 4-6 8-14 8-36 0-156 74-205 125-217 229-138 601 152 719 29 12 54 25 56 30 5 15-100 75-169 97-86 27-207 33-290 14z"/>
  <path d="m5865 3006c-66-13-152-50-211-90-33-22-35-26-18-32 170-56 278-164 318-319 59-224-61-450-283-532l-54-20 29-20c95-67 210-103 329-103 158 0 290 54 400 165 109 109 165 243 165 395 0 162-51 282-170 400-140 141-314 194-505 156z"/>
  <path d="m1223 2831c-287-104-359-466-133-674 112-104 260-131 260-47 0 42-30 56-63 30s-42-25-103 10c-68 38-128 109-155 179-29 78-24 193 12 271 32 70 98 136 168 168l54 25 17-23c20-26 47-24 67 7 14 20 13 24-11 48-30 30-44 30-113 6z"/>
  <path d="m2402 2840c-29-12-37-35-24-66 14-30 46-31 66-3 17 24 36 21 103-18 87-50 158-160 170-262 14-120-48-256-150-324-70-48-99-55-127-27-19 19-24 20-43 7-49-32-21-87 43-87 54 0 169 61 220 116 23 25 56 75 73 112 29 61 32 76 32 162-1 123-25 187-102 270-80 87-204 144-261 120z"/>
  <path d="m4378 2831c-72-29-112-57-167-116-71-78-95-145-96-265 0-86 3-101 32-162 17-37 50-87 73-112 51-55 166-116 220-116 64 0 92 55 43 87-19 13-24 12-43-7-28-28-57-21-127 27-102 68-164 204-150 324 12 102 83 212 170 262 67 39 86 42 104 17 20-29 55-23 67 13 20 55-46 80-126 48z"/>
  <path d="m5553 2835c-38-27-25-85 18-85 9 0 23 10 31 22l14 21 55-25c70-32 136-98 168-168 36-78 41-193 12-271-27-70-87-141-155-179-61-35-70-36-103-10s-63 12-63-30c0-84 148-57 260 47 172 159 179 415 16 579-83 82-208 131-253 99z"/>
  <path d="m1367 2686c-48-18-76-42-93-82-10-25-21-33-50-39-51-9-104-63-104-104 0-66 52-121 115-121 16 0 28-7 31-17 22-74 78-113 166-113 76 0 96 9 204 91 90 69 92 71 81 99-11 29-13 29-92 32-63 2-80 6-80 18s17 16 80 18c79 3 81 3 92 32 11 28 9 32-30 63-23 18-64 50-91 71-79 64-150 80-229 52z"/>
  <path d="m2217 2686c-37-14-217-144-217-158 0-4 4-18 10-32 9-25 13-26 88-26 83 0 99-5 81-27-8-9-36-13-85-13-71 0-75-1-84-26-6-14-10-27-10-29 0-8 166-133 197-149 39-20 132-21 176-2 38 16 72 51 86 87 7 20 19 28 48 32 41 7 86 45 98 85 17 57-35 124-106 137-29 5-38 13-48 41-26 72-146 113-234 80z"/>
  <path d="m4528 2690c-45-13-86-49-99-85-10-27-19-35-48-40-71-13-123-80-106-137 12-40 57-78 98-85 29-4 41-12 48-32 14-36 48-71 86-87 44-19 137-18 176 2 31 16 197 141 197 149 0 2-4 15-10 29-9 25-13 26-84 26-49 0-77 4-85 13-18 22-2 27 81 27 75 0 79 1 88 26 6 14 10 28 10 32 0 14-180 144-217 158-42 15-94 16-135 4z"/>
  <path d="m5377 2690c-27-8-92-53-184-127-39-31-41-35-30-63 11-29 13-29 92-32 63-2 80-6 80-18s-17-16-80-18c-79-3-81-3-92-32-11-28-9-30 81-99 108-82 128-91 204-91 88 0 144 39 166 113 3 10 15 17 31 17 63 0 115 55 115 121 0 41-53 95-104 104-29 6-40 14-50 39-32 75-136 114-229 86z"/>
  <path d="m1811 2557c-40-20-66-64-65-108 3-111 136-154 209-68 78 93-35 232-144 176z"/>
  <path d="m4958 2555c-60-34-76-122-33-174 65-77 180-54 205 40 12 44-3 91-38 123-28 25-99 31-134 11z"/>
  <path d="m1670 2282c-95-73-123-114-117-165 10-73 60-120 127-119 30 1 40-3 40-15 0-29 40-81 74-97 84-39 183 0 205 80 6 23 13 29 39 30 78 4 132 56 132 127 0 58-19 85-108 153l-83 65-98-46-1-68c0-60-2-68-17-65s-19 16-21 68l-3 65-42 19c-23 11-44 21-47 23-3 1-39-23-80-55z"/>
  <path d="m4816 2277c-88-70-105-95-106-150 0-74 51-128 125-130 28-1 35-7 51-41 28-61 76-89 142-84 43 4 59 11 87 38 19 18 37 45 40 60 5 23 11 26 47 27 102 2 161 125 98 206-11 13-52 50-92 80l-73 56-47-22-46-22-4-65c-2-52-6-65-20-68-16-3-18 5-18 67 0 51-4 71-13 71-7 0-29 9-50 20-20 11-38 20-39 20-2-1-38-29-82-63z"/>
  <path d="m1352 2038c-21-21-14-65 18-102 65-73 219-153 343-177 87-17 253-12 338 10 183 47 353 172 335 246-7 27-36 40-67 30-18-6-20-12-15-44 5-36 3-40-39-70-70-50-182-98-275-117-155-31-341 1-475 81-88 53-107 73-92 96 24 38-39 79-71 47z"/>
  <path d="m4506 2034c-48-47 29-136 183-213 96-49 199-72 321-72 124 0 183 10 283 49 175 68 293 191 233 242-36 29-92-11-69-49 15-23-4-43-92-96-134-80-320-112-475-81-93 19-205 67-275 117-42 30-45 35-39 67 5 24 2 37-7 43-21 13-46 11-63-7z"/>
  <path d="m1235 1949c-65-49-145-131-173-179-80-134 15-311 225-422 284-150 639-181 955-82 207 65 359 168 418 286 67 135 22 250-148 379-36 27-68 49-72 49s-21-22-37-48c-49-79-197-167-349-208-94-25-293-25-384-1-151 42-330 154-360 227-15 37-24 37-75-1z"/>
  <path d="m4368 1931c-170-129-215-244-148-379 59-118 211-221 418-286 181-57 413-72 595-41 195 35 404 127 503 222 98 93 136 226 90 312-34 64-201 221-234 221-5 0-15-14-22-30-30-73-210-186-360-226-92-25-291-25-384 0-152 41-300 129-349 208-16 26-33 48-37 48s-36-22-72-49z"/>
 </g>
</svg>
