<?xml version="1.0" encoding="UTF-8" standalone="no"?>
<!-- Created with Inkscape (http://www.inkscape.org/) -->

<svg
   xmlns:dc="http://purl.org/dc/elements/1.1/"
   xmlns:cc="http://creativecommons.org/ns#"
   xmlns:rdf="http://www.w3.org/1999/02/22-rdf-syntax-ns#"
   xmlns:svg="http://www.w3.org/2000/svg"
   xmlns="http://www.w3.org/2000/svg"
   xmlns:sodipodi="http://sodipodi.sourceforge.net/DTD/sodipodi-0.dtd"
   xmlns:inkscape="http://www.inkscape.org/namespaces/inkscape"
   id="svg2457"
   sodipodi:version="0.32"
   inkscape:version="0.48.0 r9654"
   width="160"
   height="160"
   version="1.0"
   sodipodi:docname="Marunimitsuhikiryo.svg"
   inkscape:output_extension="org.inkscape.output.svg.inkscape">
  <metadata
     id="metadata2462">
    <rdf:RDF>
      <cc:Work
         rdf:about="">
        <dc:format>image/svg+xml</dc:format>
        <dc:type
           rdf:resource="http://purl.org/dc/dcmitype/StillImage" />
      </cc:Work>
    </rdf:RDF>
  </metadata>
  <defs
     id="defs2460">
    <inkscape:perspective
       sodipodi:type="inkscape:persp3d"
       inkscape:vp_x="0 : 526.18109 : 1"
       inkscape:vp_y="0 : 1000 : 0"
       inkscape:vp_z="744.09448 : 526.18109 : 1"
       inkscape:persp3d-origin="372.04724 : 350.78739 : 1"
       id="perspective2464" />
  </defs>
  <sodipodi:namedview
     inkscape:window-height="975"
     inkscape:window-width="1280"
     inkscape:pageshadow="2"
     inkscape:pageopacity="0.0"
     guidetolerance="10.0"
     gridtolerance="10.0"
     objecttolerance="10.0"
     borderopacity="1.0"
     bordercolor="#666666"
     pagecolor="#ffffff"
     id="base"
     showgrid="false"
     inkscape:zoom="4.5514831"
     inkscape:cx="80"
     inkscape:cy="63.763909"
     inkscape:window-x="-4"
     inkscape:window-y="-4"
     inkscape:current-layer="svg2457"
     inkscape:showpageshadow="false"
     inkscape:window-maximized="1" />
  <rect
     style="fill:#ffffff;fill-opacity:1;fill-rule:nonzero;stroke:none"
     id="rect2983"
     width="160"
     height="160"
     x="0"
     y="0" />
  <path
     style="fill:#000000"
     d="M 0,80 L 0,0 L 80,0 L 160,0 L 160,80 L 160,160 L 80,160 L 0,160 L 0,80 z M 104.26121,152.33238 C 115.82169,148.23947 122.78958,143.98837 131.85078,135.5 C 157.15581,111.7947 163.49131,76.047974 147.91164,44.879939 C 143.77713,36.608607 133.81251,24.598947 126.71704,19.33558 C 119.18853,13.75098 106.64957,7.6054893 98.5,5.5060695 C 54.393154,-5.856337 9.1443414,25.58798 3.9783546,71.191077 C -0.15509852,107.67941 21.87195,141.58154 57,152.7974 C 66.732729,155.90492 66.463859,155.87366 81.5,155.6461 C 94.312233,155.4522 96.243306,155.17106 104.26121,152.33238 z M 64.362038,140.01856 C 60.436158,138.98933 55.029533,137.03518 52.347314,135.676 C 46.165187,132.54328 35.282782,124.3969 33.947783,121.90243 C 32.953591,120.04477 34.042311,120.00082 80.214816,120.03483 L 127.5,120.06965 L 121.4792,125.78483 C 106.78006,139.73781 84.484445,145.29393 64.362038,140.01856 z M 21.067029,100.12524 C 20.515192,99.094129 19.766846,96.394129 19.404037,94.125244 L 18.744384,90 L 79.983483,90 L 141.22258,90 L 140.54595,93.606762 C 140.1738,95.590481 139.45986,98.290481 138.95941,99.606762 L 138.0495,102 L 80.059935,102 C 24.385167,102 22.030317,101.92516 21.067029,100.12524 z M 18.709882,68.25 C 19.03116,66.1875 19.66673,63.4875 20.122261,62.25 L 20.950498,60 L 79.928245,60 L 138.90599,60 L 139.94742,63.75 C 140.5202,65.8125 140.99136,68.5125 140.99442,69.75 L 141,72 L 79.562871,72 L 18.125741,72 L 18.709882,68.25 z M 33.24176,38.75 C 37.069514,33.770092 48.726274,25.322261 55.52639,22.599987 C 73.470473,15.416479 88.463104,15.707033 105.75396,23.573387 C 113.64656,27.164067 123.3265,34.245199 126.84147,38.99945 L 129.05987,42 L 79.901778,42 L 30.743681,42 L 33.24176,38.75 z"
     id="path2468" />
</svg>
