<?xml version="1.0" encoding="UTF-8" standalone="no"?>
<!-- Created with Inkscape (http://www.inkscape.org/) -->
<svg
   xmlns:dc="http://purl.org/dc/elements/1.1/"
   xmlns:cc="http://creativecommons.org/ns#"
   xmlns:rdf="http://www.w3.org/1999/02/22-rdf-syntax-ns#"
   xmlns:svg="http://www.w3.org/2000/svg"
   xmlns="http://www.w3.org/2000/svg"
   xmlns:sodipodi="http://sodipodi.sourceforge.net/DTD/sodipodi-0.dtd"
   xmlns:inkscape="http://www.inkscape.org/namespaces/inkscape"
   width="450"
   height="450"
   id="svg2"
   sodipodi:version="0.32"
   inkscape:version="0.46"
   version="1.0"
   sodipodi:docname="chosokabe mon.svg"
   inkscape:output_extension="org.inkscape.output.svg.inkscape">
  <defs
     id="defs4">
    <inkscape:perspective
       sodipodi:type="inkscape:persp3d"
       inkscape:vp_x="0 : 526.18109 : 1"
       inkscape:vp_y="0 : 1000 : 0"
       inkscape:vp_z="744.09448 : 526.18109 : 1"
       inkscape:persp3d-origin="372.04724 : 350.78739 : 1"
       id="perspective10" />
    <inkscape:perspective
       id="perspective2390"
       inkscape:persp3d-origin="372.04724 : 350.78739 : 1"
       inkscape:vp_z="744.09448 : 526.18109 : 1"
       inkscape:vp_y="0 : 1000 : 0"
       inkscape:vp_x="0 : 526.18109 : 1"
       sodipodi:type="inkscape:persp3d" />
    <inkscape:perspective
       id="perspective2403"
       inkscape:persp3d-origin="372.04724 : 350.78739 : 1"
       inkscape:vp_z="744.09448 : 526.18109 : 1"
       inkscape:vp_y="0 : 1000 : 0"
       inkscape:vp_x="0 : 526.18109 : 1"
       sodipodi:type="inkscape:persp3d" />
    <inkscape:perspective
       id="perspective3210"
       inkscape:persp3d-origin="372.04724 : 350.78739 : 1"
       inkscape:vp_z="744.09448 : 526.18109 : 1"
       inkscape:vp_y="0 : 1000 : 0"
       inkscape:vp_x="0 : 526.18109 : 1"
       sodipodi:type="inkscape:persp3d" />
    <inkscape:perspective
       id="perspective3253"
       inkscape:persp3d-origin="372.04724 : 350.78739 : 1"
       inkscape:vp_z="744.09448 : 526.18109 : 1"
       inkscape:vp_y="0 : 1000 : 0"
       inkscape:vp_x="0 : 526.18109 : 1"
       sodipodi:type="inkscape:persp3d" />
  </defs>
  <sodipodi:namedview
     id="base"
     pagecolor="#ffffff"
     bordercolor="#666666"
     borderopacity="1.0"
     inkscape:pageopacity="0.0"
     inkscape:pageshadow="2"
     inkscape:zoom="1.0281632"
     inkscape:cx="214.12564"
     inkscape:cy="206.07817"
     inkscape:document-units="px"
     inkscape:current-layer="layer1"
     showgrid="false"
     inkscape:window-width="1024"
     inkscape:window-height="748"
     inkscape:window-x="-8"
     inkscape:window-y="-8" />
  <metadata
     id="metadata7">
    <rdf:RDF>
      <cc:Work
         rdf:about="">
        <dc:format>image/svg+xml</dc:format>
        <dc:type
           rdf:resource="http://purl.org/dc/dcmitype/StillImage" />
      </cc:Work>
    </rdf:RDF>
  </metadata>
  <g
     inkscape:label="Capa 1"
     inkscape:groupmode="layer"
     id="layer1">
    <rect
       style="opacity:1;fill:#000000;fill-opacity:1;fill-rule:nonzero;stroke:none;stroke-width:22;stroke-linecap:round;stroke-linejoin:round;stroke-miterlimit:4;stroke-dasharray:none;stroke-dashoffset:0;stroke-opacity:1"
       id="rect3224"
       width="450.31766"
       height="450.31766"
       x="-6.8113923e-07"
       y="-0.31765935"
       ry="8.2044783" />
    <path
       sodipodi:type="arc"
       style="opacity:1;fill:#ffffff;fill-opacity:1;fill-rule:nonzero;stroke:#000000;stroke-width:2;stroke-linecap:round;stroke-linejoin:round;stroke-miterlimit:4;stroke-dasharray:none;stroke-dashoffset:0;stroke-opacity:1"
       id="path3267"
       sodipodi:cx="224.54643"
       sodipodi:cy="307.29437"
       sodipodi:rx="133.07729"
       sodipodi:ry="126.88765"
       d="M 357.62372,307.29437 A 133.07729,126.88765 0 1 1 357.61803,306.1211"
       sodipodi:start="0"
       sodipodi:end="6.2739386"
       transform="matrix(1.2952099,0,0,1.3486349,-64.17624,-191.86845)"
       sodipodi:open="true" />
    <path
       sodipodi:type="arc"
       style="opacity:1;fill:#000000;fill-opacity:1;fill-rule:nonzero;stroke:#000000;stroke-width:2;stroke-linecap:round;stroke-linejoin:round;stroke-miterlimit:4;stroke-dasharray:none;stroke-dashoffset:0;stroke-opacity:1"
       id="path3265"
       sodipodi:cx="224.54643"
       sodipodi:cy="307.29437"
       sodipodi:rx="133.07729"
       sodipodi:ry="126.88765"
       d="M 357.62372,307.29437 A 133.07729,126.88765 0 1 1 357.61803,306.1211"
       sodipodi:start="0"
       sodipodi:end="6.2739386"
       transform="matrix(1.1751794,0,0,1.2292534,-37.223827,-154.7705)"
       sodipodi:open="true" />
    <path
       style="fill:#ffffff;fill-opacity:1;fill-rule:evenodd;stroke:none;stroke-width:1px;stroke-linecap:butt;stroke-linejoin:miter;stroke-opacity:1"
       d="M 222.94473,230.39968 L 222.94473,272.48924 L 218.81831,279.09153 L 211.39074,282.39267 L 203.13788,283.21796 L 193.23446,280.7421 L 187.45746,276.61567 L 184.15632,272.48924 L 181.68045,264.23638 L 182.50574,255.98353 L 183.74367,246.9054 L 185.80688,241.95368 L 173.4276,239.47782 L 164.34947,235.3514 L 157.74717,228.74911 L 156.09661,220.59637 L 158.57246,211.41811 L 161.8736,203.5779 L 167.65061,199.03884 L 173.4276,197.38826 L 180.02989,198.21355 L 189.93331,202.33998 L 212.21603,214.71926 L 222.94473,230.39968 z"
       id="path3299"
       sodipodi:nodetypes="cccccccccccccccccccccccc" />
    <path
       style="fill:#ffffff;fill-opacity:1;fill-rule:evenodd;stroke:none;stroke-width:1px;stroke-linecap:butt;stroke-linejoin:miter;stroke-opacity:1"
       d="M 229.54701,230.39968 L 232.84817,269.1881 L 235.32402,274.96509 L 241.10101,279.91681 L 247.7033,280.7421 L 255.13087,279.09152 L 263.38373,276.61567 L 268.33544,273.31453 L 269.98601,267.53752 L 270.81129,259.28467 L 269.16072,247.73067 L 267.51015,241.12839 L 274.93772,239.47782 L 284.84115,236.17668 L 292.26872,230.39968 L 296.39515,225.44797 L 296.39515,216.36982 L 293.91929,207.29168 L 288.96757,199.86411 L 284.01587,196.56297 L 274.93772,195.73768 L 269.98601,197.38826 L 239.45045,213.06868"
       id="path3277" />
    <path
       style="fill:#ffffff;fill-opacity:1;fill-rule:evenodd;stroke:none;stroke-width:1px;stroke-linecap:butt;stroke-linejoin:miter;stroke-opacity:1"
       d="M 216.34245,210.18019 L 184.15632,189.54805 L 180.02989,184.18369 L 177.96667,177.99405 L 179.2046,171.8044 L 181.26781,165.61477 L 185.80688,159.83776 L 190.7586,156.53662 L 195.71031,155.71134 L 202.31259,155.2987 L 209.32752,156.12398 L 214.69188,159.83776 L 218.81831,164.37684 L 222.11945,167.67798 L 225.83323,173.04234 L 233.2608,163.96419 L 239.45045,159.01249 L 246.05273,156.12398 L 253.06765,155.2987 L 259.2573,157.36191 L 264.62166,161.48834 L 268.74809,166.44006 L 271.22394,171.8044 L 272.04923,175.93083 L 271.63658,182.12048 L 267.9228,187.0722 L 260.49523,192.0239 L 236.14931,210.59283 L 216.34245,210.18019 z"
       id="path3301"
       sodipodi:nodetypes="ccccccccccccccccccccccccccccc" />
    <path
       sodipodi:type="arc"
       style="opacity:1;fill:#ffffff;fill-opacity:1;fill-rule:nonzero;stroke:#000000;stroke-width:2;stroke-linecap:round;stroke-linejoin:round;stroke-miterlimit:4;stroke-dasharray:none;stroke-dashoffset:0;stroke-opacity:1"
       id="path3269"
       sodipodi:cx="223.17096"
       sodipodi:cy="302.13635"
       sodipodi:rx="11.347675"
       sodipodi:ry="10.316069"
       d="M 234.51863,302.13635 A 11.347675,10.316069 0 1 1 234.51815,302.04096"
       sodipodi:start="0"
       sodipodi:end="6.2739386"
       sodipodi:open="true"
       transform="matrix(1.2,0,0,1.2,-41.146627,-143.71794)" />
    <path
       style="fill:none;fill-rule:evenodd;stroke:#000000;stroke-width:2.4000001;stroke-linecap:butt;stroke-linejoin:miter;stroke-miterlimit:4;stroke-dasharray:none;stroke-opacity:1"
       d="M 239.45045,224.62268 L 247.7033,230.39968"
       id="path3271" />
    <path
       style="fill:none;fill-rule:evenodd;stroke:#000000;stroke-width:2.4000001;stroke-linecap:butt;stroke-linejoin:miter;stroke-miterlimit:4;stroke-dasharray:none;stroke-opacity:1"
       d="M 227.07116,205.64112 L 227.07116,196.56297"
       id="path3273" />
    <path
       style="fill:none;fill-rule:evenodd;stroke:#000000;stroke-width:2.4000001;stroke-linecap:butt;stroke-linejoin:miter;stroke-miterlimit:4;stroke-dasharray:none;stroke-opacity:1"
       d="M 214.69188,224.62268 L 206.43902,229.5744"
       id="path3275" />
    <path
       style="fill:#ffffff;fill-opacity:1;fill-rule:evenodd;stroke:none;stroke-width:1px;stroke-linecap:butt;stroke-linejoin:miter;stroke-opacity:1"
       d="M 105.81162,299.99385 L 139.07483,312.24871 L 143.74334,312.24871 L 149.57899,310.49802 L 153.66395,306.41306 L 156.58177,302.3281 C 156.58177,302.3281 158.33246,298.24315 158.33246,295.9089 C 158.33246,293.57463 158.33246,288.90612 158.33246,288.90612 L 156.58177,284.82116 L 152.49681,280.7362 L 146.66117,277.81838 L 139.65839,276.65125 L 134.98987,276.65125 L 137.32413,270.8156 L 139.07483,262.64569 L 137.90769,257.3936 L 137.32413,251.55795 L 134.4063,246.88944 L 129.73778,243.38804 L 122.15144,241.63735 L 115.14866,241.63735 L 109.31301,245.7223 L 105.22806,249.80726 L 103.47737,259.1443 L 101.72666,269.06491 L 100.55953,277.81838 L 99.975971,288.90612 L 102.89379,292.4075 L 105.22806,295.9089 L 105.81162,299.99385 z"
       id="path2465" />
    <path
       style="fill:#ffffff;fill-opacity:1;fill-rule:evenodd;stroke:none;stroke-width:1px;stroke-linecap:butt;stroke-linejoin:miter;stroke-opacity:1"
       d="M 99.070775,157.26542 L 105.92958,192.04443 L 108.3606,196.03005 L 112.89398,200.10045 L 118.50855,201.46072 L 123.51536,201.82459 C 123.51536,201.82459 127.91442,201.19204 129.90722,199.97654 C 131.90004,198.76102 135.88566,196.33 135.88566,196.33 L 138.46145,192.70825 L 139.82172,187.09368 L 139.27395,180.59226 L 136.62383,174.00607 L 134.19281,170.02045 L 140.39035,168.97448 L 148.27682,166.21479 L 152.15289,162.48348 L 156.83105,158.9465 L 159.29727,154.02446 L 159.85547,148.21556 L 157.39967,140.82729 L 153.75313,134.84886 L 147.22692,131.99398 L 141.61236,130.63371 L 132.72947,134.00115 L 123.34838,137.67247 L 115.26758,141.23422 L 105.49785,146.50971 L 104.02802,150.82399 L 102.25431,154.64008 L 99.070775,157.26542 z"
       id="path3237" />
    <path
       style="fill:#ffffff;fill-opacity:1;fill-rule:evenodd;stroke:none;stroke-width:1px;stroke-linecap:butt;stroke-linejoin:miter;stroke-opacity:1"
       d="M 217.02182,80.896808 L 191.17967,105.16212 L 189.09092,109.3373 L 188.04569,115.33957 L 189.87133,120.82051 L 192.21917,125.25765 C 192.21917,125.25765 195.08918,128.651 197.17677,129.69537 C 199.26438,130.73974 203.43956,132.82849 203.43956,132.82849 L 207.87613,133.09044 L 213.35708,131.26479 L 218.5775,127.35127 L 222.75441,121.61066 L 224.84316,117.43548 L 229.01777,122.134 L 235.54109,127.355 L 240.76037,128.66103 L 246.24044,130.75006 L 251.72111,130.2293 L 256.94124,127.62067 L 261.90114,121.61926 L 265.03425,115.35648 L 263.99189,108.30984 L 262.16624,102.8289 L 254.59913,97.085708 L 246.51013,91.081424 L 239.20383,86.121236 L 229.54884,80.63858 L 225.11198,81.681524 L 220.93621,82.202564 L 217.02182,80.896808 z"
       id="path3239" />
    <path
       style="fill:#ffffff;fill-opacity:1;fill-rule:evenodd;stroke:none;stroke-width:1px;stroke-linecap:butt;stroke-linejoin:miter;stroke-opacity:1"
       d="M 344.47226,141.53832 L 311.1998,129.30861 L 306.53129,129.31214 L 300.69697,131.06724 L 296.6151,135.15529 L 293.70037,139.24244 C 293.70037,139.24244 291.95276,143.32872 291.95453,145.66297 C 291.95629,147.99723 291.95982,152.66575 291.95982,152.66575 L 293.71359,156.74938 L 297.80165,160.83124 L 303.63949,163.74466 L 310.64316,164.9065 L 315.31167,164.90298 L 312.98181,170.74038 L 311.2373,178.91162 L 312.40841,184.16282 L 312.99637,189.99802 L 315.91773,194.66433 L 320.5889,198.1622 L 328.17656,199.90716 L 335.17934,199.90186 L 341.01189,195.81249 L 345.09377,191.72445 L 346.8374,182.38609 L 348.58061,172.46416 L 349.74111,163.70982 L 350.3163,152.62164 L 347.39582,149.12246 L 345.05892,145.62283 L 344.47226,141.53832 z"
       id="path3241" />
    <path
       style="fill:#ffffff;fill-opacity:1;fill-rule:evenodd;stroke:none;stroke-width:1px;stroke-linecap:butt;stroke-linejoin:miter;stroke-opacity:1"
       d="M 354.38955,285.1704 L 348.29424,250.2495 L 345.95109,246.21158 L 341.50796,242.04286 L 335.92454,240.55993 L 330.9269,240.08648 C 330.9269,240.08648 326.51505,240.6225 324.4961,241.79407 C 322.47713,242.96563 318.43921,245.30876 318.43921,245.30876 L 315.7847,248.87323 L 314.30177,254.45666 L 314.70699,260.96852 L 317.21222,267.61118 L 319.55535,271.64908 L 313.33639,272.55904 L 305.39136,275.14532 L 301.43448,278.79084 L 296.67996,282.22448 L 294.10652,287.09133 L 293.4212,292.88661 L 295.71458,300.32688 L 299.22929,306.38377 L 305.69138,309.38092 L 311.27481,310.86386 L 320.22932,307.6918 L 329.68859,304.22686 L 337.84547,300.84296 L 347.72841,295.78274 L 349.29239,291.5017 L 351.14927,287.72539 L 354.38955,285.1704 z"
       id="path3243" />
    <path
       style="fill:#ffffff;fill-opacity:1;fill-rule:evenodd;stroke:none;stroke-width:1px;stroke-linecap:butt;stroke-linejoin:miter;stroke-opacity:1"
       d="M 236.09383,363.89618 L 262.01631,339.7167 L 264.11889,335.54846 L 265.18403,329.5497 L 263.37656,324.06272 L 261.04346,319.61782 C 261.04346,319.61782 258.18471,316.21497 256.1006,315.16369 C 254.01648,314.1124 249.84823,312.00982 249.84823,312.00982 L 245.41255,311.73316 L 239.92559,313.54062 L 234.69222,317.43681 L 230.49629,323.16354 L 228.39372,327.33177 L 224.2347,322.61942 L 217.72874,317.37682 L 212.51382,316.05349 L 207.04069,313.9463 L 201.55835,314.44888 L 196.32957,317.04019 L 191.3498,323.02512 L 188.19594,329.27748 L 189.21493,336.32754 L 191.02239,341.8145 L 198.57042,347.58274 L 206.63947,353.61382 L 213.92928,358.59822 L 223.56603,364.11286 L 228.00632,363.08463 L 232.1838,362.57745 L 236.09383,363.89618 z"
       id="path3245" />
    <path
       style="fill:#ffffff;fill-opacity:1;fill-rule:evenodd;stroke:none;stroke-width:1px;stroke-linecap:butt;stroke-linejoin:miter;stroke-opacity:1"
       d="M 216.68897,372.3559 L 213.18757,368.27095 L 208.51905,364.18599 L 203.85054,359.51748 L 198.01489,356.01608 L 192.7628,353.68183 L 186.92715,351.34756 L 181.09151,348.42974 C 181.09151,348.42974 179.3408,347.26261 177.00655,347.26261 C 174.67229,347.26261 171.75446,347.84618 171.75446,347.84618 L 169.4202,351.34756 L 167.66951,356.01608 L 169.4202,360.68461 L 176.42298,364.76956 L 184.59289,367.10382 L 192.7628,369.43808 L 203.85054,371.77234 L 216.68897,372.3559 z"
       id="path3247" />
    <path
       style="fill:#ffffff;fill-opacity:1;fill-rule:evenodd;stroke:none;stroke-width:1px;stroke-linecap:butt;stroke-linejoin:miter;stroke-opacity:1"
       d="M 240.61513,370.89699 L 244.11653,366.81204 L 248.78504,362.72708 L 253.45356,358.05856 L 259.28921,354.55717 L 264.54129,352.22292 L 270.37694,349.88865 L 276.21259,346.97083 C 276.21259,346.97083 277.96329,345.8037 280.29755,345.8037 C 282.63181,345.8037 285.54963,346.38727 285.54963,346.38727 L 287.8839,349.88865 L 289.63459,354.55717 L 287.8839,359.2257 L 280.88112,363.31065 L 272.71121,365.6449 L 264.54129,367.97917 L 253.45356,370.31343 L 240.61513,370.89699 z"
       id="path3251" />
    <path
       style="fill:#ffffff;fill-opacity:1;fill-rule:evenodd;stroke:none;stroke-width:1px;stroke-linecap:butt;stroke-linejoin:miter;stroke-opacity:1"
       d="M 352.92615,304.34737 L 347.62247,305.25162 L 341.71898,307.15705 L 335.31488,308.76258 L 329.31216,311.96912 L 324.61058,315.27489 L 319.60905,319.08127 L 314.10695,322.58772 C 314.10695,322.58772 312.20601,323.48972 311.00637,325.49211 C 309.80672,327.49453 308.80778,330.29745 308.80778,330.29745 L 310.61174,334.09933 L 313.71684,338.0004 L 318.62137,338.89788 L 325.72451,334.99004 L 331.92565,329.18126 L 338.12681,323.37248 L 345.82752,315.06069 L 352.92615,304.34737 z"
       id="path3253" />
    <path
       style="fill:#ffffff;fill-opacity:1;fill-rule:evenodd;stroke:none;stroke-width:1px;stroke-linecap:butt;stroke-linejoin:miter;stroke-opacity:1"
       d="M 363.97097,283.07294 L 362.26623,277.96995 L 361.16129,271.86577 L 359.55577,265.46168 L 359.55125,258.65619 L 360.24806,252.95114 L 361.24476,246.74548 L 361.74085,240.23994 C 361.74085,240.23994 361.63938,238.13829 362.83901,236.13589 C 364.03866,234.13348 366.03882,231.93038 366.03882,231.93038 L 370.24206,231.72744 L 375.1466,232.62492 L 378.2517,236.52601 L 378.15697,244.6326 L 375.96063,252.84066 L 373.7643,261.04873 L 370.06841,271.7598 L 363.97097,283.07294 z"
       id="path3255" />
    <path
       style="fill:#ffffff;fill-opacity:1;fill-rule:evenodd;stroke:none;stroke-width:1px;stroke-linecap:butt;stroke-linejoin:miter;stroke-opacity:1"
       d="M 238.01815,74.326347 L 241.51059,78.418964 L 246.17015,82.514144 L 250.82841,87.192884 L 256.65637,90.70706 L 261.90333,93.05282 L 267.73385,95.399864 L 273.56309,98.330468 C 273.56309,98.330468 275.31123,99.50144 277.64547,99.506552 C 279.97974,99.511664 282.89883,98.934488 282.89883,98.934488 L 285.24077,95.438228 L 287.00168,90.773564 L 285.26123,86.101208 L 278.26742,82.000916 L 270.10265,79.64876 L 261.93787,77.296604 L 250.85527,74.938035 L 238.01815,74.326347 z"
       id="path3257" />
    <path
       style="fill:#ffffff;fill-opacity:1;fill-rule:evenodd;stroke:none;stroke-width:1px;stroke-linecap:butt;stroke-linejoin:miter;stroke-opacity:1"
       d="M 214.08885,75.732812 L 210.57851,79.810088 L 205.90105,83.884808 L 201.22231,88.543076 L 195.37901,92.03168 L 190.12182,94.354412 L 184.28107,96.675884 L 178.43904,99.580904 C 178.43904,99.580904 176.68578,100.7442 174.35154,100.73908 C 172.01727,100.73397 169.10073,100.144 169.10073,100.144 L 166.77415,96.637508 L 165.03369,91.965164 L 166.79462,87.300488 L 173.80633,83.230892 L 181.98134,80.914544 L 190.15635,78.598196 L 201.24918,76.288244 L 214.08885,75.732812 z"
       id="path3259" />
    <path
       style="fill:#ffffff;fill-opacity:1;fill-rule:evenodd;stroke:none;stroke-width:1px;stroke-linecap:butt;stroke-linejoin:miter;stroke-opacity:1"
       d="M 102.93471,137.8344 L 108.22051,136.83091 L 114.08726,134.81515 L 120.46013,133.08986 L 126.40169,129.77137 L 131.04049,126.37803 L 135.96978,122.4786 L 141.4052,118.86961 C 141.4052,118.86961 143.2889,117.93214 144.45079,115.90761 C 145.61268,113.88307 146.55891,111.06192 146.55891,111.06192 L 144.684,107.29453 L 141.50635,103.45233 L 136.58585,102.64693 L 129.55721,106.68723 L 123.46603,112.61124 L 117.37485,118.53524 L 109.83128,126.9899 L 102.93471,137.8344 z"
       id="path3261" />
    <path
       style="fill:#ffffff;fill-opacity:1;fill-rule:evenodd;stroke:none;stroke-width:1px;stroke-linecap:butt;stroke-linejoin:miter;stroke-opacity:1"
       d="M 92.290607,159.31212 L 94.090703,164.38227 L 95.309855,170.46466 L 97.035155,176.83754 L 97.167227,183.64172 L 96.577487,189.35884 L 95.697287,195.58209 L 95.323223,202.0958 C 95.323223,202.0958 95.464055,204.19518 94.302167,206.21971 C 93.140267,208.24425 91.181759,210.48445 91.181759,210.48445 L 86.983043,210.76615 L 82.062551,209.96077 L 78.884879,206.11856 L 78.827627,198.01161 L 80.869739,189.76382 L 82.911839,181.51604 L 86.406311,170.73757 L 92.290607,159.31212 z"
       id="path3263" />
    <path
       style="fill:#ffffff;fill-opacity:1;fill-rule:evenodd;stroke:none;stroke-width:1px;stroke-linecap:butt;stroke-linejoin:miter;stroke-opacity:1"
       d="M 90.369371,288.59702 L 92.059979,283.48933 L 93.148007,277.38211 L 94.735787,270.9736 L 94.721447,264.16813 L 94.008851,258.46502 L 92.994971,252.26217 L 92.480867,245.75799 C 92.480867,245.75799 92.576519,243.65608 91.371335,241.65703 C 90.166151,239.65795 88.159907,237.46039 88.159907,237.46039 L 83.956115,237.26908 L 79.054079,238.18014 L 75.959807,242.08981 L 76.076963,250.19612 L 78.296039,258.39806 L 80.515091,266.60002 L 84.240647,277.30082 L 90.369371,288.59702 z"
       id="path3266" />
    <path
       style="fill:#ffffff;fill-opacity:1;fill-rule:evenodd;stroke:none;stroke-width:1px;stroke-linecap:butt;stroke-linejoin:miter;stroke-opacity:1"
       d="M 103.97191,308.3343 L 109.27807,309.22387 L 115.18682,311.11294 L 121.59534,312.70072 L 127.60691,315.89064 L 132.31764,319.18338 L 137.32968,322.97588 L 142.84147,326.46709 C 142.84147,326.46709 144.74491,327.36382 145.95008,329.36288 C 147.15528,331.36196 148.16197,334.1621 148.16197,334.1621 L 146.36856,337.96896 L 143.27429,341.87862 L 138.37224,342.78968 L 131.25831,338.90154 L 125.0411,333.10994 L 118.82388,327.31836 L 111.10019,319.02794 L 103.97191,308.3343 z"
       id="path3268" />
    <path
       style="fill:#ffffff;fill-opacity:1;fill-rule:evenodd;stroke:none;stroke-width:1px;stroke-linecap:butt;stroke-linejoin:miter;stroke-opacity:1"
       d="M 360.71057,155.91961 L 358.84685,160.96669 L 357.55128,167.03328 L 355.74595,173.38393 L 355.52829,180.18592 L 356.04607,185.91001 L 356.84792,192.14384 L 357.14003,198.66175 C 357.14003,198.66175 356.97278,200.75918 358.10911,202.79817 C 359.24545,204.83718 361.17563,207.10182 361.17563,207.10182 L 365.37047,207.4363 L 370.30069,206.69288 L 373.52645,202.89096 L 373.68567,194.78538 L 371.74749,186.51255 L 369.80929,178.23973 L 366.45068,167.41816 L 360.71057,155.91961 z"
       id="path3270" />
    <path
       style="fill:#ffffff;fill-opacity:1;fill-rule:evenodd;stroke:none;stroke-width:1px;stroke-linecap:butt;stroke-linejoin:miter;stroke-opacity:1"
       d="M 347.78873,135.73011 L 342.51599,134.66019 L 336.67506,132.5708 L 330.32439,130.76548 L 324.42504,127.37251 L 319.82931,123.92109 L 314.94945,119.95995 L 309.55986,116.28289 C 309.55986,116.28289 307.68811,115.32181 306.55178,113.28282 C 305.41543,111.24381 304.50475,108.41097 304.50475,108.41097 L 306.42691,104.66748 L 309.65264,100.86555 L 314.5829,100.12212 L 321.56016,104.25052 L 327.57635,110.25066 L 333.59252,116.2508 L 341.02913,124.79972 L 347.78873,135.73011 z"
       id="path3272" />
    <path
       sodipodi:type="arc"
       style="opacity:1;fill:#ffffff;fill-opacity:1;fill-rule:nonzero;stroke:#000000;stroke-width:2;stroke-linecap:round;stroke-linejoin:round;stroke-miterlimit:4;stroke-dasharray:none;stroke-dashoffset:0;stroke-opacity:1"
       id="path3280"
       sodipodi:cx="223.17096"
       sodipodi:cy="302.13635"
       sodipodi:rx="11.347675"
       sodipodi:ry="10.316069"
       d="M 234.51863,302.13635 A 11.347675,10.316069 0 1 1 234.51815,302.04096"
       sodipodi:start="0"
       sodipodi:end="6.2739386"
       sodipodi:open="true"
       transform="matrix(0.7457687,0,0,0.3609343,62.50991,262.13738)" />
    <path
       sodipodi:type="arc"
       style="opacity:1;fill:#ffffff;fill-opacity:1;fill-rule:nonzero;stroke:#000000;stroke-width:2;stroke-linecap:round;stroke-linejoin:round;stroke-miterlimit:4;stroke-dasharray:none;stroke-dashoffset:0;stroke-opacity:1"
       id="path3282"
       sodipodi:cx="223.17096"
       sodipodi:cy="302.13635"
       sodipodi:rx="11.347675"
       sodipodi:ry="10.316069"
       d="M 234.51863,302.13635 A 11.347675,10.316069 0 1 1 234.51815,302.04096"
       sodipodi:start="0"
       sodipodi:end="6.2739386"
       sodipodi:open="true"
       transform="matrix(0.7457687,0,0,0.3609343,58.424964,-33.730051)" />
    <path
       sodipodi:type="arc"
       style="opacity:1;fill:#ffffff;fill-opacity:1;fill-rule:nonzero;stroke:#000000;stroke-width:2;stroke-linecap:round;stroke-linejoin:round;stroke-miterlimit:4;stroke-dasharray:none;stroke-dashoffset:0;stroke-opacity:1"
       id="path3284"
       sodipodi:cx="223.17096"
       sodipodi:cy="302.13635"
       sodipodi:rx="11.347675"
       sodipodi:ry="10.316069"
       d="M 234.51863,302.13635 A 11.347675,10.316069 0 1 1 234.51815,302.04096"
       sodipodi:start="0"
       sodipodi:end="6.2739386"
       sodipodi:open="true"
       transform="matrix(0.3871176,-0.6374252,0.3084986,0.1873556,-81.960365,233.3312)" />
    <path
       sodipodi:type="arc"
       style="opacity:1;fill:#ffffff;fill-opacity:1;fill-rule:nonzero;stroke:#000000;stroke-width:2;stroke-linecap:round;stroke-linejoin:round;stroke-miterlimit:4;stroke-dasharray:none;stroke-dashoffset:0;stroke-opacity:1"
       id="path3286"
       sodipodi:cx="223.17096"
       sodipodi:cy="302.13635"
       sodipodi:rx="11.347675"
       sodipodi:ry="10.316069"
       d="M 234.51863,302.13635 A 11.347675,10.316069 0 1 1 234.51815,302.04096"
       sodipodi:start="0"
       sodipodi:end="6.2739386"
       sodipodi:open="true"
       transform="matrix(0.3314476,0.668067,-0.3233285,0.1604128,121.94511,100.6835)" />
    <path
       sodipodi:type="arc"
       style="opacity:1;fill:#ffffff;fill-opacity:1;fill-rule:nonzero;stroke:#000000;stroke-width:2;stroke-linecap:round;stroke-linejoin:round;stroke-miterlimit:4;stroke-dasharray:none;stroke-dashoffset:0;stroke-opacity:1"
       id="path3288"
       sodipodi:cx="223.17096"
       sodipodi:cy="302.13635"
       sodipodi:rx="11.347675"
       sodipodi:ry="10.316069"
       d="M 234.51863,302.13635 A 11.347675,10.316069 0 1 1 234.51815,302.04096"
       sodipodi:start="0"
       sodipodi:end="6.2739386"
       sodipodi:open="true"
       transform="matrix(0.3857604,-0.6382475,0.3088967,0.1866989,179.65941,380.188)" />
    <path
       sodipodi:type="arc"
       style="opacity:1;fill:#ffffff;fill-opacity:1;fill-rule:nonzero;stroke:#000000;stroke-width:2;stroke-linecap:round;stroke-linejoin:round;stroke-miterlimit:4;stroke-dasharray:none;stroke-dashoffset:0;stroke-opacity:1"
       id="path3290"
       sodipodi:cx="223.17096"
       sodipodi:cy="302.13635"
       sodipodi:rx="11.347675"
       sodipodi:ry="10.316069"
       d="M 234.51863,302.13635 A 11.347675,10.316069 0 1 1 234.51815,302.04096"
       sodipodi:start="0"
       sodipodi:end="6.2739386"
       sodipodi:open="true"
       transform="matrix(0.3918384,0.6345342,-0.3070994,0.1896404,359.1657,-52.974191)" />
  </g>
</svg>
