<?xml version="1.0" encoding="utf-8"?>
<svg xmlns="http://www.w3.org/2000/svg" xml:space="preserve" width="458.199" height="493.4">
  <path d="M272.8 216.2c3.164-9.589 12.8-34.5 12.801-78.2.001-59.8-30.251-106.05-56.501-138-32.25 37.95-56.75 87.2-56.538 138 .132 31.701 4.663 54.45 12.738 78.2-10.782 7.802-43.289 30.441-69.4 69.9-35.8 54.1-41.4 110.799-42.1 146.2l8.7-13.9c3.8-12.199 7.3-20.899 10.3-26.1 19.675-33.225 70.925-112.225 133-148.3V47.4c0-1.1 0-2.1.1-3.1.2-13.7 1.301-21.8 3.2-24.5 1.9 2.6 2.9 10.7 3.2 24.2 0 1.1 0 2.2.1 3.4V244c53.95 32.45 100.2 92.45 133 148.3 3 5.199 6.4 13.898 10.3 26.1-4.1-4.299-14.898-21.299-15.898-23.1-14.987-24.501-62.951-105.1-130.7-146.101C166.85 288.075 125.6 350.45 98.4 395.302c-3.175 6.273-11.8 18.801-15.899 23.1l-8.7 13.9c31.7-9.899 69.204-27.804 99.1-54.5 28.95-25.852 43.571-47.541 56.2-67.9 12.063 19.23 28.201 42.553 55.601 67.301s61.7 43.201 99.601 55.101c-1.451-51.603-12.385-93.481-33.501-132.3C330.1 261.95 295.6 231.7 272.8 216.2zM91.8 93.4c-.4-1.2-.9-1.9-1.7-2.2-.7-.3-1.399-.4-2.1-.4-.601 0-2.101.8-4.5 2.3-2.4 1.5-4.4 3.1-5.9 4.7l-.1.1c-.101.1-.2.3-.3.4-1.4 1.5-2.4 3.1-3 4.9-.5 1.1-.801 2.3-1.101 3.6-.2.7-.3 1.5-.399 2.3-.101.4-.2.9-.301 1.4v1c-.1 1.3-.1 2.6 0 3.9 0 1 .101 2 .2 2.9.101 1.1.3 2.2.4 3.3.1.3.1.6.2.9 0 .3 0 .5.1.7 0 .7.1 1.2.1 1.4 0 .1-.1.2-.1.4-.1.3-.3.6-.4 1v.1c-.5 1.2-1.3 3.1-2.5 5.7-.1.4-.3.8-.5 1.2-.6 1-1.1 1.9-1.699 2.6-1.5 1.9-3.301 2.7-5.101 2.6H63c-.3-.8-.601-1.6-1-2.5-.5-1.3-1-2.6-1.5-4-.101-.2-.2-.4-.2-.6-.2-.4-.4-.9-.5-1.3-.4-.9-.8-1.8-1.1-2.7-.4-1-.801-2-1.2-3.1-.7-1.9-1.5-4-2.2-6v-.1c-.4-1-.7-2-1.1-3-2-5.4-4-11-6-17 0-.2.1-.4.199-.7 0-.1.101-.2.101-.3s0-.2.1-.3c.4-1.5.9-3 1.3-4.5l1.5-6c.5-2.2.7-4.3.7-6.4 0-2.1-.2-4.1-.6-6.1-.4-1.8-1.2-3.5-2.3-5.1-.2-.2-.3-.3-.4-.5-1.3-1.8-3-3.6-5.2-5.4-2.2-1.8-3.6-2.7-4.2-2.8-.6-.1-1.3-.1-2.1.1s-1.4.9-2 2c-.5 1.2.6 2.3 3.3 3.4 2.601 1 4.3 2.7 5.101 4.9.699 2.2.8 4.1.199 5.9-.699 1.7-1.8 1.8-3.5.3-1.8-1.5-2.8-2.7-3.199-3.7-.5-.7-.9-1.5-1.2-2.3-1-2.2-1.601-4-2-5.3-.3-1.1-1.2-2-2.601-2.5-1.6-1.1-2.7-.7-3.4 1.1-.6 1.3-.6 2.5 0 3.5.7 1.2 1.5 3 2.5 5.2.3.8.5 1.6.8 2.4.4 1 .5 2.5.2 4.7-.101 2.2-1 2.8-2.7 2-1.8-.9-3.2-2.4-4.2-4.6-1.1-2.1-1-4.3.2-6.7 1.2-2.5 1.2-4 0-4.5-1.3-.5-2.2-.6-3-.3-.7.4-1.3.8-1.6 1.2-.4.4-.801 2-1.101 4.7-.3 2.7-.3 5.1.101 7.2 0 .2.1.4.1.6.4 1.9 1 3.7 2 5.2 1.2 1.7 2.3 3.2 3.3 4.6 1.101 1.3 2.601 2.8 4.4 4.5.899.8 1.899 1.5 2.899 2.1 1 .7 2 1.3 3.101 1.8 1.3.5 2.5 1.1 3.6 1.5.601.3 1.2.6 1.8.9.3.7.6 1.5.8 2.3 1.8 5.1 3.6 10 5.199 14.7C47 118.1 47.5 119.5 48 121c.3.6.5 1.3.7 2 .6 1.5 1.1 3 1.6 4.4.2.4.3.8.5 1.2l2.1 5.7c.101.5.301 1 .5 1.5.4 1.1.801 2.1 1.2 3.1 0 .1.101.2.101.3.3.7.6 1.4.8 2.1-1.3 1.6-3.9 2.1-7.8 1.6-.5 0-1-.1-1.601-.2-.399-.1-.8-.2-1.3-.3-.2-.1-.4-.1-.6-.1h-.1c-1-1-1.899-2-2.7-3-.3-.3-.6-.6-.8-.9-.6-.8-1.1-1.5-1.7-2.3v-.1c-.8-.9-1.5-1.8-2.3-2.7-.2-.3-.5-.6-.7-.8-1-1.2-2.1-2.2-3.3-3.1-.2-.3-.5-.5-.7-.7-1.8-1.4-3.5-2.6-5.399-3.6-1.7-.9-3.601-1.5-5.601-1.8h-.2c-.101-.1-.301-.1-.5-.2-1.4-.1-2.9-.2-4.601-.1-1 0-2.2.1-3.399.2-2.9.3-4.601.7-5 1.1-.5.3-.9.8-1.2 1.5-.4.7-.3 1.5.3 2.7.3.5.8.8 1.7.8.6-.1 1.5-.2 2.399-.6.2-.1.4-.2.7-.2 2.601-1.2 5.101-1.3 7.4-.3 2.3.9 4 2.2 5 3.7.2.4.399.7.399 1v.1c.101.9-.699 1.4-2.5 1.5-2.3.2-4.1.2-5.1-.2-.9-.2-1.8-.4-2.6-.7-2.4-.8-4.301-1.5-5.601-2.1L8 131.4c-1.101-.5-2.4-.4-3.8.1-1.9.5-2.3 1.5-1.3 3.2.4.7.9 1.3 1.5 1.7.4.3.801.5 1.301.6 1.5.4 3.399.9 5.899 1.8.7.2 1.5.5 2.2.9.1 0 .2.1.3.1 1.101.4 2.4 1.3 4.101 2.9 1.6 1.5 1.5 2.6-.4 3.2-1.8.6-3.9.5-6.4-.2-1.899-.5-3.5-1.6-4.6-3.2-.3-.5-.6-.9-.8-1.4-1-1.8-1.9-2.8-2.8-3-.301 0-.601 0-.9.2-1.3.5-1.9 1.1-2.1 1.8-.301.7-.301 1.3-.201 1.9 0 .1.1.4.3.7.4.4.9 1.1 1.7 1.9l1.2 1.2c2 2 4 3.6 5.899 4.8.2.1.4.2.5.3 1.9 1 3.8 1.6 5.7 1.9.6.1 1.3.2 1.9.3 1.5.2 3.1.3 4.699.2 1.301 0 2.601 0 4-.2.9-.1 1.9-.2 2.9-.4 1.3-.3 2.7-.6 4.2-1 1.2-.3 2.399-.6 3.6-1 .101-.1.2-.1.2-.1.2 0 .3-.1.5-.1 1.6-.6 3-1 4-1.3.6-.2 1.1-.4 1.5-.5 1.1-.4 1.8-.6 1.9-.6.1 0 1.399.2 3.899.8 2.4.5 6 .8 10.7 1 0-.1.1-.1.2 0 .399 1.1.899 2.2 1.3 3.4 1.8 4.3 3.6 8.5 5.3 12.5.3.6.601 1.2.8 1.8.601 1.5 1.2 2.9 1.9 4.3.2.5.5 1.1.7 1.6.6 1.4 1.2 2.8 1.899 4.2 0 .3.2.6.301.8.5 1 .899 2 1.3 2.9.2.3.3.5.399.7.2.5.4 1 .7 1.6.2.5.5 1.1.7 1.6.1.3.3.6.5.9h-.1c-1.601.4-3.301.7-5 .9-.301.1-.601.1-1 .2H69.1c-1.2.2-2.399.2-3.7.2-2.5.1-5.199 0-7.899-.4l-.101-.1c-.199-.3-.3-.6-.399-.7-.8-.9-1.601-1.9-2.3-2.8-.601-.6-1.2-1.2-1.801-1.8-.699-.8-1.399-1.5-2.1-2.2l-1.2-1.2c-.5-.5-.899-.9-1.3-1.2-1.6-1.6-3.4-2.9-5.3-4.1-1.2-.7-2.3-1.3-3.4-1.9-.8-.4-1.6-.8-2.5-1.1-1.8-.8-3.8-1.2-5.899-1.2-.2-.1-.4-.1-.601 0-2.3-.1-5 .2-7.8.9-1 .2-1.9.4-2.5.6-1.4.3-2.2.6-2.5.9-.4.4-.8.9-1 1.7-.3.7 0 1.6.7 2.6.3.5 1 .7 1.8.6.2 0 .4 0 .7-.1.6-.2 1.399-.5 2.3-1 2.5-1.4 4.9-1.8 7.3-1.1 2.4.7 4.3 1.8 5.4 3.2 1.2 1.4.7 2.3-1.7 2.8-2.3.4-4 .6-5.1.4-.9-.1-1.801-.3-2.7-.5-2.5-.5-4.4-1-5.8-1.4-.101-.1-.101-.1-.2-.1-1.101-.4-2.4-.3-3.7.5-1.9.6-2.2 1.7-.8 3.3.8 1.1 1.8 1.8 3 1.9.399.1.899.1 1.3.2.3.1.6.1.9.2 1.1.2 2.399.5 4 .8.8.2 1.699.4 2.5.7 1.1.3 2.6 1.1 4.399 2.4 1.9 1.4 1.9 2.5.101 3.3-1.7.8-3.9 1-6.301.6-1.3-.2-2.5-.7-3.5-1.4-.199-.2-.399-.3-.6-.4-.5-.4-.9-.9-1.3-1.4-.3-.3-.5-.6-.601-.9-1.6-2.3-2.899-3.1-4.1-2.5-1.1.7-1.8 1.4-1.9 2.1-.1.8-.1 1.4.101 1.9.1.6 1.399 1.7 3.6 3.5.9.7 1.8 1.4 2.7 1.9.5.3.9.6 1.4.9.8.5 1.6.9 2.399 1.3.2 0 .4.1.601.3.899.3 1.8.6 2.699.8 1 .3 2.101.4 3.2.5.601 0 1.3 0 2.101.1 1.5-.1 3-.2 4.6-.4 2.2-.2 4.5-.7 6.7-1.4 2.2-.6 4.3-1.4 6.399-2.1l2.801-.9.8-.5c.5-.2 1.7-.5 3.6-.7h.101c.699-.1 1.5-.2 2.3-.3.899-.1 1.899 0 3.2.1.699.1 1.6.3 2.5.5 3.699.8 8.899 2.3 15.5 4.6 1.5 1.3 3.6 4.3 6.199 9.1h.101c1.899-3.3 4.3-5.4 7.399-6.6l.101-.1-3-6.7v-3.1c0-.4 0-.7.1-.9.4-3.6 1.601-6.8 3.601-9.7.199-.4.5-.8.8-1.1 3.3-4.1 5.1-6.3 5.399-6.5h.1c.399 0 1.1-.2 2.1-.5 1.5-.3 3-.8 4.5-1.3.7-.2 1.4-.5 2.2-.7 1.2-.5 2.4-1 3.6-1.6.9-.3 1.801-.7 2.601-1.2 2.2-.9 4.1-2.1 5.899-3.4 1.801-1.4 3.4-2.8 4.801-4.3.899-1 1.6-2.1 2.199-3.2.301-.6.5-1.1.7-1.6.101-.2.101-.4.3-.5.2-.9.5-1.8.7-2.7.2-1 .4-1.9.5-2.9.101-.6.101-1.1.101-1.6v-.4c.199-2.4.1-3.9-.2-4.4-.3-.4-.8-.9-1.4-1.3-.7-.5-1.6-.6-2.899-.2-1.301.3-1.601 1.7-.9 4.3.3.9.4 1.7.4 2.4 0 1.5-.4 2.8-1.2 4-.101.1-.2.2-.2.4-1.4 1.9-3 3.2-4.9 3.8-.1 0-.199 0-.3.1-.6.1-1.1.1-1.5-.1-.2-.1-.399-.3-.5-.6-.2-.4-.2-1-.1-1.8v-.9c.2-1.7.6-2.9 1-3.6.399-.8.8-1.6 1.3-2.2 1.4-2.1 2.5-3.7 3.4-4.9.8-.9.899-2 .6-3.4-.1-.1-.1-.2-.1-.4-.101-.2-.101-.5-.2-.7-.5-.9-1.4-1.1-2.9-.6-1.2.3-2.1.8-2.6 1.6-.2.2-.3.4-.4.6-.6 1.1-1.5 2.6-2.7 4.5-.1.1-.199.3-.3.5-.399.7-.899 1.4-1.5 2.1-.5.8-1.8 1.8-3.8 3-1.9 1.2-3.1 1-3.4-.7v-.1c-.3-1.8.101-3.7 1.301-5.8.5-.9 1.199-1.7 2-2.3 1.1-.8 2.399-1.4 3.899-1.7 2.8-.7 4.101-1.6 3.8-2.8-.399-1.3-.899-2-1.6-2.3-.7-.4-1.4-.5-2-.5s-2.2.7-4.6 2.1c-2.601 1.5-4.601 3-6.2 4.6-.2.1-.3.3-.5.5-.7.7-1.4 1.5-1.9 2.3-.5.8-.899 1.5-1.2 2.3-.8 1.9-1.399 3.9-1.699 6-.2.9-.4 1.9-.4 2.9-.1.2-.1.5-.1.7v.3c-.101.8-.101 1.6-.101 2.4v.2c.101 2.1.2 4.1.4 6 .1 1.1.3 2.2.399 3.4.101.2.101.5.2.9-.3.4-.6.8-.899 1.2-.4.4-.801.9-1.2 1.4-.9 1.3-1.9 2.4-2.8 3.6-1.101 1.2-2.101 2.3-3.2 3.4-2 2-4 3.9-6 5.5-.7-1.3-1.5-2.6-2.2-3.9-.4-.8-.8-1.5-1.3-2.2-.601-1.2-1.2-2.4-1.8-3.7-.2-.2-.301-.5-.4-.7l-2.1-4.2c-.101-.3-.301-.5-.301-.8-2.1-4.2-4.199-8.6-6.199-13.2-.301-.8-.601-1.6-1-2.3-.4-1-.801-1.9-1.101-2.9-.1-.1-.2-.2-.2-.3 4-3.8 8-9.4 12.101-16.8l.1-.2c.601 0 .9-.1 1.101-.1 2-.8 4-1.6 6-2.5 1.3-.6 2.699-1.2 4-1.8.1-.1.199-.1.3-.2.5-.3 1.1-.6 1.7-.9 1.1-.5 2.1-1.1 3-1.7.899-.7 1.8-1.3 2.6-2 1.8-1.3 3.4-2.8 4.7-4.3s2.2-3.1 2.8-5c.1 0 .1-.1.1-.2s0-.2.101-.3c.2-.7.399-1.3.5-2 .2-.9.3-2 .399-3v-.2c.101-.1.101-.2.101-.4 0-.5 0-1 .1-1.5 0-2.8-.1-4.4-.399-4.8-.301-.5-.801-1-1.4-1.4-.7-.4-1.7-.4-3-.1-1.3.4-1.6 1.9-.7 4.5.5 1.4.601 2.8.3 4.1-.199.7-.399 1.4-.8 2.1 0 0 0 .1-.1.1 0 .1-.101.2-.2.4-.4.5-.8 1.1-1.2 1.6-1.1 1.1-2.2 1.9-3.5 2.4-1.3.4-2.1.2-2.399-.8-.101-.1-.101-.2-.101-.4v-1.1c.101-1.7.2-3 .601-3.9 0-.3.1-.5.3-.7.3-.8.7-1.6 1.2-2.3 1.199-2.1 2.3-3.7 3.199-4.9.295-.5.495-1.1.595-1.8 0-.3 0-.7-.101-1 0-.2-.1-.4-.1-.6-.2-1.8-1.3-2.4-3.3-1.6-1.4.4-2.4 1.2-2.8 2.2-.2.4-.4.7-.5 1.2-.2.2-.301.5-.5.8-.5.9-1.101 1.9-1.801 3.1-.399.7-.899 1.4-1.399 2.1-.601.9-1.8 2-3.8 3.3-.4.3-.801.5-1.2.6-.101.1-.3.1-.4.1h-.3c-.8.1-1.3-.4-1.5-1.5-.4-1.4-.2-2.9.5-4.5.1-.5.3-.9.5-1.3.6-1.1 1.4-2 2.4-2.7.899-.7 2.1-1.2 3.399-1.6 2.802-.7 4.002-1.7 3.702-2.9"/>
  <path d="M110.5 236.2c-.101-.4-.3-1-.5-1.9-3.5.2-6.601.2-9.3-.2-.301 0-.5-.1-.7-.1-4.7-.6-8.2-2-10.5-4v-.1c-4.101-3.8-6.2-8.3-6.2-13.7 0-1.2.1-2.4.3-3.6.4-1.8 1-3.6 2-5.2-3.399-2.7-7.399-4.1-12-4.1-4.5 0-8.5 1.3-11.8 3.9-.5.3-.9.6-1.3 1-1.9 1.8-3.3 3.8-4.2 5.9 0 0-.1.1-.1.2-.8 1.8-1.1 3.7-1.1 5.7.101 4.4.7 8 1.9 10.6.2.4.3.7.5.9-.5.1-1 .3-1.601.5-2.5.6-4.899 1.7-7 3-.5.3-.899.6-1.3 1-.1 0-.1 0-.2.1-.5.4-1.1.9-1.6 1.4-.5.4-.9.8-1.2 1.2-2.8 3.1-4.2 6.7-4.2 10.9 0 3.5 1.101 6.699 3.301 9.5.6.799 1.3 1.6 2.1 2.299 1.6 1.5 3.4 2.601 5.3 3.5 2.4 1 5 1.5 7.8 1.5 3.301-.1 6.4-.399 9.2-.799.1.2.2.4.3.7.2.301.301.6.5.9 1.2 2.799 3 5.4 5.601 7.699 3.7 3.4 8 5 13.2 5 4.699 0 8.899-1.5 12.399-4.399.2-.199.4-.399.601-.601.6-.399 1-.899 1.5-1.399.1-.199.199-.3.3-.399 2.5-2.899 3.7-6.1 3.8-9.699v-1.9h1.1c3.301.1 6 .2 8.101.3h.2c.8-.1 1.699-.1 2.6-.2 3.9-.6 7.4-2.199 10.4-4.899.199-.2.399-.4.699-.7 1.7-1.7 2.9-3.5 3.7-5.5.4-1 .601-2 .8-3-1.3.1-2.6.2-3.899.2-4.2 0-8-1-11.3-3-.101 0-.2 0-.2-.1-1.3-.7-2.4-1.6-3.5-2.6-.2-.3-.5-.5-.8-.7-7-.9-12.801-.2-17.4 2.1-1 .5-2 1.1-2.8 1.8-.4.3-.7.6-1 .9-.5.3-1 .7-1.4 1.1-.899.8-1.5 1.6-2 2.399-.5.801-1.1 1.801-1.8 2.7-.2.5-.5.9-.8 1.4-1 1.2-2 4.5-3.2 9.7-.2.899-.4 1.8-.6 2.899-.5-1-1-2.399-1.4-4.2-.1-.3-.2-.699-.2-1.1-.399-1.8-.3-4 .3-6.6.2-.9.5-1.9.801-2.801v-.1c-4.7-2.4-11.5-3.5-20.5-3.3v-.101c.399-.5 1-1 1.699-1.6 1.5-1.3 2.9-2 4.301-2.2 6.199-.7 11.899.3 17 2.9.3-.6.899-1.3 1.6-2.2l.1-.1c.301-.4.7-.8 1.101-1.3-.2-.3-.4-.6-.601-.9-2.6-3.3-5.199-6.1-7.8-8.6-.7-.6-1.399-1.2-2.1-1.8l-3.601-7.6h.2l7.5 4.4c2.5 1.5 4.7 3.4 6.7 5.7 1.4 1.6 2.6 3.4 3.8 5.4 1.3-1 3.3-1.8 5.7-2.6.7-.1 1.4-.3 2.2-.5.2-.1.399-.1.7-.1 2.898-.699 6.198-.999 9.798-.799"/>
  <path d="M160.4 174.7c-2-1.8-4.1-3-6.5-3.7-1.5-.4-3.199-.6-4.8-.5h-.1c-2-.1-3.9.2-5.601.8-2.1.8-4 1.9-5.699 3.4-1.801 2-3 4.1-3.601 6.2-.6 2.2-.899 3.1-1 2.7-.399-.4-.7-.7-.899-.8-.2-.2-.301-.3-.4-.4-1.6-1.4-2.5-2.1-2.6-2.2-.2-.1-.301-.2-.301-.2-3.1-2.9-6.899-4.3-11.199-4.3h-.2c-1.9 0-3.7.2-5.4.8-2.2.7-4.2 1.8-5.899 3.5-.5.4-.9.9-1.4 1.4-2.2 2.5-3.3 5.5-3.3 9v.6c.1 1.1.3 2.2.6 3.3.2.5.3 1 .601 1.6v.1c0 .2.199.5.399.9.4.7 1 1.8 1.9 3.2 0 .1.1.2.1.4l-2.7.5c-1.6.5-3.199 1-4.6 1.7-1.7.8-3.3 1.9-4.6 3.1-.801.7-1.4 1.4-1.9 2.1-.4.6-.7 1.1-.7 1.3-.1.3-.2.5-.399.5-.7 1.3-1.2 2.6-1.4 4.1-.2.8-.3 1.6-.3 2.4 0 4.1 1.6 7.5 4.7 10.4 3.1 2.9 7 4.4 11.399 4.4h.101c2.199 0 4.3-.4 6.3-1 .899-.3 1.6-.5 2.2-.7v.1c.1.2.199.6.199.8.301.6.5 1.3.9 2.1.7 1.7 1.8 3.4 3.2 5.2.3.3.7.7 1.2 1.1l5.399-6.8c-1.5-2.6-2.2-5.1-2.3-7.5-.1-2.1.3-4.2 1.3-6.1.2-.5.5-.9.7-1.4-2.6-.8-5.4-1.1-8.3-.8-.7.1-1.4.2-2.3.4-1.5.3-3.301.8-5.5 1.6 1.1-3.6 3.199-5.8 6.3-6.5.5-.2 1-.3 1.5-.4h.2c4-.4 7.699.2 11.399 1.8.8-.9 1.601-1.6 2.101-2.1-.301-.3-.7-.7-1-1-2.9-2.8-5.2-5.6-7.101-8.1v-.1c-.5-.6-1-1.4-1.399-2-1.5-2.6-2.5-4.9-2.801-7.1-.1-.7-.199-1.3-.199-2l-.7-.2c0-.1-.101-.1-.101-.1H116v.1l.7.2c1.1.7 2.199 1.5 3.199 2.2 2.101 1.6 4 3.3 5.801 5.1 1.3 1.3 2.5 2.7 3.8 4.1.2.3.6.7.899 1.2 1.101 1.5 2.301 3.1 3.301 4.8 1.5-.6 2.899-1.1 4.199-1.6-.6-.8-1-1.7-1.399-2.5-.101-.2-.2-.4-.3-.6-1-2.9-.7-5.5.8-7.9.6-.7 1.2-1.4 1.899-2 1.4-1.2 3.2-2 5.301-2.5l-1.2 2.5c-1.9 4.4-2 8-.3 10.9v.1c.199.2.3.4.399.7.101 0 .101 0 .3-.1.5-.1 1-.2 1.5-.2.601-.1 1.2-.2 1.801-.2.8 0 1.699 0 2.5.1.199 0 .399 0 .699.1 1.301.1 2.601.5 3.801 1.1 1.5.7 2.8 1.6 4.1 2.8-3.1 0-4.8-.1-5.3 0-3.5.1-6.8.6-9.8 1.4h-.2c-2.601.7-5 1.6-7.101 2.7 0 .1-.199.1-.199.2-.101.1-.301.2-.5.2-1.801 1.2-3.4 2.5-4.801 4 0 .1-.199.2-.199.2v.2h-.1s0 .1-.1.1c-.2.3-.4.5-.601.7-1.5 2.1-2.699 4.5-3.399 7.2v.1c-.2.4-.601 2.4-1.4 6.2l-5.4 6.8c.301.3.7.6 1 .8.101.1.2.2.301.3 1 .7 2 1.3 3.1 1.8.6.3 1.2.5 1.9.7 1.5.5 3.2.7 5 .7 2 0 3.899-.3 5.7-.9.1-.1.199-.1.399-.1.101-.1.101-.1.3-.1 1.801-.8 3.301-1.8 4.9-3.2l.1-.1v.1c.9-1.1 1.7-2.3 2.301-3.5.3-.4.5-.9.8-1.3.3-.6.6-1.2.899-1.8.101-.4.301-.8.4-1.2l.3-.9c.2-.9.3-1.9.4-2.8v-1.5c.1.1.699.2 2 .5.199 0 .399 0 .6.1.601.1 1.4.3 2 .4 1.3.1 2.5.1 3.6.1h.101c1.5 0 3-.1 4.399-.4l.2-.1c.601-.2 1.101-.3 1.601-.6 1.899-.6 3.5-1.7 5.1-3.1.8-.9 1.601-1.7 2.2-2.5.2-.4.399-.7.7-1 1.199-2 1.899-4.4 1.899-6.9v-.1c0-1.9-.3-3.5-.8-4.9-.2-.6-.4-1.2-.7-1.8-.1-.2-.3-.5-.399-.7-.5-.6-1.101-1.3-1.7-1.8-2.2-2-4.7-3.7-7.3-5 .399-.6 1.1-1.5 2-2.7.1-.2.3-.5.5-.7v-.1c.699-1 1.199-2 1.6-3.1.7-1.8 1.101-3.8 1.101-6v-.1c0-3.3-1.101-6.2-3.2-8.7-.502-.6-1.102-1.1-1.602-1.7M409.4 68c-.2.2-.3.3-.399.5-1.101 1.6-1.899 3.3-2.199 5.1-.5 2-.7 4-.7 6.1-.102 2.1.2 4.2.7 6.4.398 2 .898 4 1.5 6 .3 1.3.699 2.6 1.1 3.9.2.7.4 1.3.7 1.9-.3.7-.5 1.3-.7 2-.2.5-.399 1.1-.5 1.7-.899 2.3-1.7 4.5-2.5 6.8-.8 2.2-1.6 4.4-2.3 6.5-.7 1.9-1.4 3.8-2.101 5.7-1.801 4.6-3.399 9-5.101 13.2-.5 1.5-1.1 3-1.7 4.4-3 .2-5.5-1.9-7.398-6.4-1-2.3-1.801-4-2.2-5.2-.102-.2-.2-.4-.3-.5-.301-.9-.5-1.3-.5-1.5 0-.4.1-1.4.3-3 .2-1.3.398-2.6.5-3.9v-.1c.1-.8.1-1.5.2-2.2.199-2.1.1-4.3-.2-6.3-.102-.5-.2-1-.3-1.5-.102-.1-.102-.2-.102-.3-.3-1.4-.7-2.8-1.2-4.1-.398-1.1-.898-2.2-1.6-3.2-.4-.6-.9-1.1-1.3-1.7-.2-.1-.3-.3-.4-.4l-1.5-1.5c-1.3-1.1-2.8-2.2-4.5-3.3-2.5-1.5-4-2.3-4.6-2.3-.602 0-1.3.1-2 .4-.8.3-1.4 1-1.7 2.2-.4 1.1.7 2 3.1 2.8.102 0 .302.1.5.1 2.4.7 4.2 1.8 5.4 3.6.1.2.3.4.4.7.898 1.7 1.3 3.2 1.198 4.6 0 .4 0 .8-.1 1.2-.1.2-.1.4-.1.6-.602 1.2-1.7 1.3-3.4.2-.1-.1-.3-.2-.4-.4-1.698-1.1-2.8-2.1-3.3-2.9v-.1c-.6-.6-1-1.3-1.398-2-.5-.8-.9-1.6-1.302-2.3-.6-1.1-1.1-2-1.398-2.8-.2-.2-.3-.4-.4-.6-.5-.7-1.398-1.3-2.6-1.6-1.9-.8-3-.2-3.2 1.6-.1.3-.2.6-.2.8-.2.8 0 1.5.3 2.2.102.1.2.3.302.4.3.5.698 1 1.198 1.6.302.6.7 1.2 1.102 1.8l.1.1c.3.5.602.9.9 1.4.398.6.7 1.4 1 2.2l.1.1c.5.9.8 2.4.9 4.6.1.5 0 .9 0 1.3-.3 1.2-1.102 1.5-2.5 1-1.4-.6-2.7-1.5-3.9-2.9-.3-.3-.6-.7-.898-1.1-.7-1.1-1.102-2.2-1.2-3.3-.102-1 0-2.1.398-3.2 0-.1 0-.2.102-.2.1-.5.3-1 .3-1.4.3-1.2.2-2-.2-2.5-.199-.3-.398-.5-.8-.6-1.2-.3-2.2-.3-2.899.1l-.101.1c-.1 0-.1 0-.2.1-.5.3-.898.7-1.199 1 0 .1 0 .1-.101.2-.3.6-.399 2.1-.3 4.8 0 .3 0 .6.1 1-.1.1-.1.2 0 .4 0 .9.2 1.8.301 2.6.199 1.1.399 2.1.699 3.1.102.2.102.4.2.5.2.9.601 1.7 1 2.4.5.9 1.101 1.8 1.8 2.6 1.4 1.5 2.9 3 4.7 4.3.2.2.5.4.8.6 1.301 1.1 2.7 2 4.2 2.8.2.1.4.2.601.3 1.399.8 2.801 1.5 4.199 2.1l1.5.6c.102.1.2.1.301.2 1.899.9 4 1.7 6.101 2.5.1 0 .399.1 1 .1 0 .1.1.1.2.2.1.2.199.4.3.6l.1.1c1.2 2.1 2.4 4.2 3.5 6 .5.7 1 1.4 1.4 2 1 1.5 2 2.9 3 4.1 1.1 1.4 2.2 2.6 3.3 3.6.101.1.2.2.3.4-.199.4-.398.9-.5 1.4-.199.4-.398.9-.6 1.4s-.5 1-.7 1.6c-.1 0-.1.1-.1.2-3.7 8.7-7.602 16.8-11.602 24.2-1 1.9-2 3.6-3 5.4-1.898-1.5-3.8-3.2-5.7-5.2-2.198-2.2-4.398-4.8-6.5-7.6-.398-.4-.698-.8-1-1.2-.3-.4-.6-.8-.8-1.1.2-1.5.3-2.9.5-4.3.2-2 .3-4.1.3-6.2v-.6c.102-2-.1-3.9-.5-5.7 0-.3-.1-.5-.1-.7-.1-.4-.2-.9-.3-1.4-.2-.5-.3-1.1-.5-1.6s-.4-1-.5-1.5c-.102-.2-.2-.4-.2-.6-.1 0-.1-.1-.1-.2-.7-1.7-1.802-3.2-3.2-4.6l-.104-.1c-.101-.2-.199-.3-.301-.4-1.199-1.2-2.699-2.4-4.398-3.5-.301-.2-.602-.4-.801-.5-.301-.2-.601-.4-.899-.6-2.5-1.4-4.101-2.1-4.7-2.1-.599 0-1.2.1-2 .5-.6.2-1 .8-1.3 1.6-.101.2-.2.4-.3.7-.301 1.2 1 2.1 3.8 2.8 2.399.5 4.2 1.6 5.5 3.3.1.2.3.5.399.7 1 1.8 1.5 3.5 1.399 5.2-.1.2-.1.4-.1.6-.102.1-.102.3-.102.4-.1.5-.398.8-.7 1-.398.2-1 .2-1.6 0-.4-.2-.7-.3-1.1-.6-.2-.1-.4-.2-.5-.3-.4-.3-.7-.5-1-.7-1.102-.8-1.9-1.5-2.302-2-.6-.7-1.1-1.4-1.5-2.1 0-.1-.1-.2-.1-.3-1.3-2-2.2-3.6-2.8-4.7-.5-1.1-1.5-1.8-3-2.2-2-.7-3-.1-3.102 1.7-.398 1.4-.3 2.5.5 3.4.602.9 1.4 2 2.4 3.3.3.5.6 1 1 1.6.4.6.7 1.2 1.1 2 0 0 .102.1.102.2l.1.1c0 .1.102.3.2.5.4.8.7 2.2.9 3.9.198 2.2-.602 3-2.5 2.4-1.802-.6-3.5-1.9-4.9-3.8-.6-.8-1-1.7-1.2-2.5v-.3c-.3-.8-.3-1.7-.2-2.7.102-.4.2-.8.302-1.3.8-2.6.5-4-.802-4.3-1.3-.4-2.3-.3-2.898.2-.7.4-1.2.9-1.5 1.3-.3.5-.3 2.1-.102 4.8v.7c.102.4.102.9.2 1.3 0 .2 0 .3.102.5.198 1.7.5 3.2 1.1 4.7 0 .1.1.3.1.5.302.7.602 1.4 1 2.1.602.9 1.302 1.8 2 2.7 1.102 1.1 2.2 2.2 3.5 3.2.4.4.9.7 1.4 1.1 1.7 1.3 3.6 2.5 5.7 3.4.2.1.398.2.6.3 1.9.9 3.8 1.7 5.8 2.5 2.2.8 4.302 1.5 6.5 2h.2c.8.3 1.5.4 1.9.5h.2c.199.2 1.6 1.8 4 4.9.398.5.898 1 1.3 1.6 2.898 3.5 4.398 7.7 4.6 12.5v2.3l-3 6.7c3 1.1 5.5 3.4 7.5 6.7h.102c2.6-4.8 4.699-7.8 6.3-9.1 10.7-3.8 17.7-5.6 21.1-5.2.602 0 1.2.1 1.7.2 2.3.3 3.8.6 4.3.8l.801.5 2.899.9c1.4.5 3 1.1 4.601 1.6.5.1 1.101.4 1.699.5 2.2.7 4.5 1.2 6.801 1.4.399.1.899.1 1.399.2 1.8.1 3.5.2 5.2.1 1.898-.1 3.898-.6 5.8-1.3.2-.2.4-.3.601-.3 2.101-1 4.301-2.4 6.601-4.1 2.2-1.8 3.399-2.9 3.6-3.5.102-.5.2-1.1.102-1.9-.102-.6-.602-1.2-1.301-1.7-.199-.2-.399-.3-.601-.4-1.2-.6-2.5.2-4 2.5-1.6 2.3-3.6 3.6-6 4.1-2.6.4-4.7.2-6.5-.6-1.7-.8-1.7-1.9.2-3.3 1.8-1.3 3.3-2.1 4.399-2.4.801-.3 1.699-.5 2.601-.7.8-.2 1.7-.4 2.399-.6 1.5-.2 2.699-.4 3.601-.6 1.3-.1 2.3-.8 3.2-1.9.199-.4.398-.7.6-1 0-.2.101-.4.101-.6.101-.7-.5-1.3-1.601-1.7-1.399-.8-2.6-.9-3.8-.5-1.101.3-2.7.8-4.7 1.3-.399 0-.8.1-1.2.2-.8.2-1.8.4-2.699.5-1.101.2-2.801 0-5.101-.4-1.7-.3-2.5-.9-2.3-1.7 0-.1 0-.3.1-.5.102-.2.2-.4.4-.6 1.2-1.4 3-2.5 5.5-3.2 1.8-.5 3.6-.4 5.5.2.6.2 1.2.5 1.8.9 2.4 1.4 4.101 1.6 4.8.5.7-1 .9-1.9.7-2.6-.3-.8-.6-1.3-1-1.7-.1-.1-.2-.2-.399-.2-.699-.4-2.301-.9-4.601-1.3-2.1-.5-4-.8-5.899-.9-.601 0-1.301-.1-1.899 0-.3-.1-.5-.1-.7 0-2.1 0-4.1.4-5.899 1.2-2 .8-3.899 1.8-5.801 3-2 1.2-3.699 2.5-5.398 4.1l-.102.1c-1.5 1.4-3 2.9-4.398 4.5 0 0-.102 0-.102.1-1.398 1.4-2.6 2.8-3.8 4.3-.1.1-.2.1-.3.2-.101.1-.2.4-.3.8-4.5.5-8.602.5-12.602 0-.699 0-1.5-.1-2.199-.2-1.101-.2-2.101-.4-3.101-.7 1.5-3.1 3-6.3 4.5-9.6 3.601-8.2 7.3-17 11.101-26.5.101 0 .101-.1.199-.2 2.301-.1 4.4-.2 6.301-.4 1.801-.2 3.301-.4 4.601-.6 1-.2 1.8-.4 2.399-.5.899-.2 1.399-.3 1.5-.3.199 0 .801.2 2 .6 1.101.4 3.101 1 6 2 2.601.8 4.899 1.4 6.899 1.8.3.1.601.1.9.2 2.3.4 4.6.7 6.898.6H439c1.301-.1 2.601-.3 3.899-.5 1.9-.3 3.8-.9 5.601-1.9.199-.1.399-.2.5-.3 2-1.2 4-2.8 6-4.8s3.101-3.3 3.199-3.8c.102-.6 0-1.2-.199-1.9-.101-.3-.301-.7-.699-1-.301-.3-.801-.6-1.4-.8-.8-.3-1.5-.1-2.2.6-.5.5-1 1.3-1.5 2.2-1.199 2.4-3 4-5.398 4.6-.602.2-1.102.3-1.7.5-1.7.2-3.3.2-4.7-.3-1.899-.6-2-1.7-.399-3.2.5-.5.899-.8 1.301-1.1 1.1-1 2-1.5 2.699-1.8.899-.4 1.699-.8 2.601-1 1.1-.4 2.2-.8 3.1-1 1.102-.4 2-.6 2.801-.8 1.199-.3 2.101-1.1 2.801-2.3.199-.3.3-.5.3-.8.2-.4.3-.7.3-1-.1-.4-.399-.8-1-1.1-.2-.1-.6-.2-.899-.3-1.399-.5-2.699-.6-3.801-.1-1.3.6-3.3 1.4-5.699 2.2-.5.2-.899.3-1.399.4-.399.1-.8.2-1.2.3-1.1.4-2.7.4-5.1.2-2.4-.2-3.102-1-2.102-2.6.2-.4.602-.9 1.102-1.3.898-.9 2.3-1.8 3.898-2.4 2.301-1 4.801-.9 7.4.3 2.6 1.1 4.2 1.1 4.8 0 .601-1.2.7-2 .4-2.7-.4-.7-.801-1.2-1.301-1.5-.399-.4-2.101-.8-5.101-1.1-2.899-.3-5.5-.3-7.8-.1-.3.1-.5.1-.7.2-2.1.3-4 .9-5.7 1.8-1.398.8-2.8 1.7-4.2 2.7-.398.3-.8.6-1.1.9-1.8 1.4-3.4 2.9-4.9 4.6-1.398 1.7-2.698 3.4-3.898 5.1-.2.2-.4.5-.602.7-.898 1.1-1.8 2.1-2.898 3.2-.7.1-1.4.3-2.102.4-4.398.8-7.398.5-8.999-1.1-.101-.1-.199-.2-.301-.3.102-.3.2-.6.4-.9 2-5.6 4.3-11.6 6.6-18 .5-1.3.9-2.5 1.4-3.8 1.1-3.1 2.2-6.3 3.399-9.6.801-2.3 1.601-4.6 2.399-7 .101-.1.101-.2.2-.4.1-.4.2-.9.398-1.3 0-.2.102-.4.2-.6 1.5-.7 3.3-1.5 5.5-2.4 2.102-1 4.102-2.3 6-3.9l.102-.1c1.8-1.6 3.198-3.1 4.3-4.4 1-1.4 2.1-2.9 3.2-4.6 1-1.5 1.698-3.3 2.1-5.2.101-.2.101-.4.2-.6.3-2.1.3-4.5 0-7.2s-.7-4.3-1-4.7c-.4-.4-1-.8-1.7-1.2-.8-.3-1.7-.2-3 .3-1.2.5-1.2 2 0 4.5 1.101 2.4 1.2 4.6.2 6.7-1.102 2.2-2.4 3.7-4.102 4.6-1.8.8-2.698.2-2.898-2s-.102-3.7.3-4.7c.2-.8.5-1.6.8-2.4 1-2.2 1.801-4 2.5-5.2.602-1 .5-2.2-.1-3.5-.602-1.8-1.7-2.2-3.4-1.1-1.398.5-2.199 1.4-2.6 2.5-.4 1.3-1 3.1-1.9 5.3-.3.8-.699 1.6-1.199 2.3-.399 1-1.5 2.2-3.199 3.7-1.801 1.5-2.9 1.4-3.5-.3-.7-1.8-.602-3.7.199-5.9.801-2.2 2.5-3.9 5.199-4.9 2.602-1.1 3.7-2.2 3.102-3.4-.5-1.1-1.2-1.8-1.9-2-.8-.2-1.5-.2-2.1-.1-.602.1-2 1-4.2 2.8-2.205 1.8-3.906 3.6-5.205 5.4"/>
  <path d="M324 180.9v-.3c-.699-2-1.899-4-3.601-5.9-3.1-2.8-6.899-4.3-11.3-4.2H309c-4.301-.1-8.101 1.4-11.199 4.2-1.601 1.5-2.801 3.2-3.601 4.9-.301.5-.5 1-.601 1.5-.399 1.3-.601 2.6-.7 4v.8c.2 3.5 1.3 6.6 3.4 9.2 0 .2.199.4.3.5.7.9 1.2 1.7 1.7 2.2-2.7 1.3-5.2 3-7.4 5-.5.4-.899.9-1.3 1.4-.101.1-.101.2-.2.3-.3.4-.6.9-.8 1.5-.3.5-.601 1.2-.8 1.9-.2.8-.4 1.7-.5 2.7v1.5c0 2.6.699 4.9 2 7.1.8 1.1 1.699 2.2 2.8 3.3h.101c3 2.8 6.799 4.2 11.199 4.2 1.3 0 2.5-.1 3.8-.2h.102c.6-.1 1.199-.2 1.699-.3 1.699-.2 2.5-.5 2.699-.6v1.5c0 .4 0 .6.102 1-.102 0-.102.1 0 .2.398 3.1 2.1 6.5 5 10.3v-.1l.2.2c1.6 1.4 3.3 2.4 5.198 3.2 0 0 .102 0 .2.1 1.8.6 3.7.9 5.7.9 4.5 0 8.3-1.4 11.4-4.3.398-.4.8-.8 1.198-1.1h.102c.898-1.3 1.7-2.5 2.398-3.8.602-1.2 1.102-2.4 1.5-3.5.102-.3.2-.6.302-.9.6.2 1.3.4 2.198.7 2 .6 4.102 1 6.302 1h.198c4.102 0 7.7-1.4 10.7-3.9.2-.1.4-.4.602-.5 1.698-1.6 2.898-3.3 3.6-5.1.2-.5.4-1 .5-1.4.4-1.3.5-2.5.5-3.9 0-.9-.1-1.9-.3-2.7-.2-1.4-.7-2.6-1.3-3.8-.2 0-.4-.2-.4-.5-.1-.2-.3-.7-.7-1.3-.5-.7-1.1-1.4-1.898-2.1-2.5-2.3-5.602-3.8-9.2-4.8l-2.8-.5c.1-.2.1-.3.198-.4-1.5-1.2-2.898-2.4-4.198-3.6l-8-2.4c-.5 1.6-1.302 3.3-2.302 5-2.1 3.6-5.398 7.4-9.8 11.7.5.4 1.2 1.1 1.9 1.8l.2.2.1.1c.1-.1.3-.2.4-.2 3.6-1.5 7.3-2 11.1-1.6 1.1.1 2 .4 2.9.7 1.6.7 3 1.9 3.898 3.7.5.7.8 1.5 1.102 2.5-3.5-1.2-6.102-1.8-7.7-2-3-.3-5.8 0-8.4.8.9 1.5 1.5 2.9 1.8 4.5.302 1.5.302 3 .102 4.5-.3 2-1 3.9-2.2 6-.6-2.8-1-4.7-1.3-5.6 0-.3-.102-.5-.102-.6-.398-1.2-.698-2.3-1.198-3.4-.7-1.7-1.7-3.2-2.802-4.6 0 0-.1-.1-.198-.1h-.101v-.2c-.1 0-.1-.1-.2-.2-.898-1.1-2-2.1-3.199-3-.699-.4-1.301-.8-2-1.2 0-.1-.101-.1-.199-.2-.5-.2-1.102-.5-1.602-.7-1.699-.8-3.5-1.5-5.5-2h-.199c-2.601-.7-5.399-1.1-8.5-1.4h-1.399c-.4-.1-2.101 0-5.2 0 1.4-1.3 2.9-2.3 4.5-3 .4-.3.9-.4 1.5-.6 2-.5 4.2-.7 6.602-.4.698.1 1.398.2 2.1.4.1-.2.2-.4.3-.5 1.602-2.6 1.8-5.7.5-9.3-.1-.4-.2-.8-.398-1.2-.102-.3-.2-.5-.302-.7v-.1L314 190.8c1.198.3 2.398.8 3.5 1.3.198.1.398.3.6.4 1.1.7 2 1.5 2.8 2.5.102.1.2.2.3.3 1.5 2.4 1.801 4.9.801 7.8-.399 1-.899 2.1-1.601 3.2 1.2.5 2.5 1 4 1.6l.101-.2c1.399-2.2 3-4.2 4.601-6.2 2.2-2.7 4.6-5 7.2-7.2 1.6-1.3 3.3-2.6 5.2-3.8l.6-.3h.2s-.102 0-.102.1l-.1-.1-.6.3c0 1.2-.2 2.3-.5 3.6l8 2.4c2.3-.7 4.698-1.4 7-2 .198-.5.398-1.2.5-1.8.1-.7.198-1.5.198-2.3 0-4.1-1.6-7.6-4.698-10.4-1-1-2.102-1.7-3.2-2.3-.7-.4-1.4-.8-2.102-1-1.898-.7-3.898-1-6.1-1h-.101c-4.301 0-8 1.3-11.101 4.2v.1c-.1 0-.2.1-.3.2-.2.1-1.101.8-2.8 2.2 0 .1-.102.1-.301.3-.199.2-.5.5-.899.9-.101.2-.2 0-.5-.8-.096-.5-.296-1.1-.596-1.9"/>
  <path d="M397.699 208.2c-.898-.9-1.898-1.6-3-2.2-2.898-1.8-6.3-2.7-10.1-2.7-4.602 0-8.602 1.4-12 4.1.898 1.4 1.5 3.1 1.8 4.7.3 1.4.5 2.7.5 4.1 0 1.5-.2 2.9-.5 4.3-.1.3-.2.7-.2 1-.3.7-.5 1.5-.8 2.1-1.1 2.4-2.6 4.4-4.7 6.4-2.398 2-5.898 3.4-10.6 4-.102 0-.3.1-.5.1-2.8.4-5.9.4-9.4.2-.2.9-.398 1.5-.5 1.9 3.602-.2 6.9.1 9.9.8.2 0 .398 0 .5.1 2.5.6 4.5 1.2 6 1.9.8.4 1.5.8 2 1.2.5-.9 1-1.7 1.6-2.4 2.5-3.8 5.5-6.7 8.8-8.7l7.602-4.4h.1l-3.5 7.6-.1.2c-3.102 2.5-6.102 5.6-9.102 9.4-.5.5-.898 1.1-1.3 1.7.2.3.4.5.602.7 1 1.3 1.699 2.2 2.199 2.9.101-.1.199-.1.301-.2 5-2.4 10.5-3.3 16.699-2.7 1.399.2 2.801.9 4.301 2.2.699.6 1.199 1.101 1.699 1.601v.1c-8.199-.2-14.601.699-19.199 2.699-.5.201-.9.4-1.4.601 1.3 4 1.7 7.101 1.2 9.5-.5 2.3-1 4.101-1.7 5.3-1.399-7-2.6-11.199-3.6-12.6-1.102-1.5-2-2.9-2.801-4.1-.699-1.301-2.101-2.701-4.199-4.301l-.102-.1c-2.3-1.8-5-2.9-8.2-3.6-3.5-.8-7.5-.9-12-.3-.198.2-.5.4-.8.7-1.6 1.5-3.398 2.7-5.3 3.6-1.399.6-2.8 1.2-4.3 1.5-1.7.4-3.5.6-5.5.6-1.3 0-2.602-.1-3.9-.2.2.7.4 1.399.602 2.2.898 2.5 2.398 4.9 4.6 7 3.7 3.3 8 5 13.2 5.1 2.1-.1 4.8-.199 8.2-.3h1.1v1.899c.102 4.4 2 8.201 5.602 11.5 2.3 2.201 4.898 3.602 7.8 4.4.398.1.898.2 1.398.301 1.2.199 2.5.299 3.802.299 5.1 0 9.5-1.6 13.1-5 2.6-2.299 4.5-4.899 5.8-7.699.2-.7.5-1.2.7-1.6 2.8.399 5.8.699 9.2.799 5.1 0 9.5-1.699 13.2-5 3.5-3.299 5.3-7.199 5.3-11.799 0-4.701-1.8-8.801-5.3-12.101h-.103c-1.3-1.2-2.7-2.2-4.2-3-1.3-.8-2.6-1.4-4-2-.6-.2-1.3-.4-2-.5-.5-.2-1.1-.4-1.5-.5 0-.1.102-.3.301-.5 0-.1.101-.3.101-.4.6-1.1 1-2.5 1.3-4 .4-1.9.602-4.1.7-6.6 0-2-.3-3.8-1-5.5-.3-1-.8-1.9-1.3-2.7-.902-1.299-1.902-2.499-3.103-3.599M197 363.7l-10.4 13.1c6.8 26.1 8.101 64.899 4.101 116.601h15.1C208.6 433.6 205.7 390.399 197 363.7m36.8-31.5c-1.8-2.7-3.5-5.301-5.1-8-.101 0-.101 0-.101-.1-1 1.699-2 3.299-3 4.898h-.1c-1.4 2.2-2.9 4.4-4.3 6.5v150.2H235.6v-150.8c-.6-.898-1.2-1.797-1.8-2.698m35 44.6-10.5-13.1c-8.7 26.699-11.6 69.899-8.7 129.7h15.1c-4.1-51.7-2.8-90.501 4.1-116.6"/>
</svg>