<?xml version="1.0" encoding="UTF-8" standalone="no"?>
<!-- Created with Inkscape (http://www.inkscape.org/) -->
<svg
   xmlns:svg="http://www.w3.org/2000/svg"
   xmlns="http://www.w3.org/2000/svg"
   version="1.0"
   width="668"
   height="668"
   id="svg2535">
  <defs
     id="defs2538" />
  <rect
     width="668"
     height="668"
     x="0"
     y="0"
     id="rect2548"
     style="opacity:1;fill:#000000;fill-opacity:1;fill-rule:nonzero;stroke:#000000;stroke-width:0;stroke-linecap:round;stroke-linejoin:miter;stroke-miterlimit:4;stroke-dasharray:none;stroke-opacity:1" />
  <path
     d="M 56.865731,435.78866 C 57.341881,435.44265 88.479097,412.48805 126.05956,384.7784 C 163.64002,357.06877 194.56314,334.42216 194.7776,334.45261 C 194.99206,334.48305 226.23311,357.43766 264.20216,385.46284 L 333.2368,436.41772 L 194.6184,436.41772 L 56.000001,436.41772 L 56.865731,435.78866 z M 335.45764,435.78866 C 335.9338,435.44265 367.06716,412.4909 404.6429,384.78473 C 442.21864,357.07857 473.11251,334.4099 473.29595,334.4099 C 473.47939,334.4099 504.37327,357.07857 541.94899,384.78473 C 579.52473,412.4909 610.65812,435.44265 611.13423,435.78866 L 612,436.41772 L 473.29595,436.41772 L 334.59192,436.41772 L 335.45764,435.78866 z M 195.61298,333.5644 C 195.61298,333.43714 333.29013,231.75596 333.6972,231.58259 C 333.92048,231.48749 364.07338,253.53999 403.12583,282.3596 C 441.0945,310.37942 472.22794,333.37918 472.31126,333.47019 C 472.3949,333.56154 410.46459,333.63565 334.03786,333.63565 C 257.90418,333.63565 195.61298,333.60359 195.61298,333.5644 z"
     id="path2546"
     style="fill:#ffffff" />
</svg>
