<?xml version="1.0" encoding="UTF-8" standalone="no"?>
<!-- Created with Inkscape (http://www.inkscape.org/) -->
<svg
   xmlns:svg="http://www.w3.org/2000/svg"
   xmlns="http://www.w3.org/2000/svg"
   version="1.0"
   width="688"
   height="688"
   id="svg2580">
  <defs
     id="defs2583" />
  <rect
     width="688"
     height="688"
     x="0"
     y="0"
     id="rect2593"
     style="opacity:1;fill:#000000;fill-opacity:1;fill-rule:nonzero;stroke:#000000;stroke-width:0;stroke-linecap:round;stroke-linejoin:miter;stroke-miterlimit:4;stroke-dasharray:none;stroke-opacity:1" />
  <path
     d="M 331.44117,621.05458 C 300.08077,615.11899 277.28085,587.50821 277.34778,555.54734 C 277.41035,525.6785 297.06597,499.86077 326.07801,491.54002 C 334.44871,489.13928 351.05264,488.73832 358.93045,490.74669 C 374.79807,494.79199 389.70523,504.91883 398.40861,517.56527 C 402.46567,523.4604 406.96842,533.62835 408.58183,540.53805 C 410.58251,549.10636 410.38127,563.17964 408.13254,571.95713 C 402.20188,595.10646 384.32551,613.39066 361.40608,619.74961 C 352.74401,622.15287 340.1433,622.70163 331.44117,621.05458 z M 180.37964,558.65952 C 137.21795,549.43299 114.83636,501.91705 135.22673,462.80019 C 143.91473,446.13312 158.47099,434.467 177.05298,429.27852 C 185.8688,426.81696 201.27078,426.65156 209.76456,428.92725 C 227.66691,433.72372 241.77594,443.88917 250.53271,458.30042 C 263.80586,480.14439 263.93589,506.14421 250.88293,528.32731 C 247.09887,534.75821 235.29771,546.55613 228.86505,550.33915 C 214.04564,559.0544 196.39572,562.08322 180.37964,558.65952 z M 481.99365,559.20418 C 456.11035,554.55247 435.48439,535.11502 429.00896,509.27257 C 427.43846,503.0049 427.21754,500.13705 427.58996,490.85218 C 428.35441,471.79393 433.60184,459.81127 447.01938,446.48449 C 453.69423,439.85479 456.37585,437.87694 463.34175,434.44577 C 467.92617,432.18764 474.44088,429.67591 477.81888,428.86414 C 485.88923,426.92475 501.28058,426.90563 509.16843,428.82519 C 531.19771,434.18617 549.28266,450.85115 556.93132,472.83791 C 559.19151,479.33502 559.37331,480.86306 559.38369,493.4512 C 559.39444,506.46437 559.27749,507.37663 556.65567,514.73219 C 552.73032,525.74478 549.07526,531.41784 540.11463,540.40577 C 531.47208,549.07465 523.53815,553.89334 512.03755,557.45844 C 504.99509,559.64155 489.4525,560.54468 481.99365,559.20418 z M 325.15095,448.27432 C 304.50346,444.47882 285.4287,434.80932 270.84689,420.74617 C 255.3419,405.79266 245.52058,388.77043 240.42384,368.01714 C 237.77282,357.22249 237.15469,337.77119 239.09807,326.29743 C 248.38234,271.48284 297.56988,233.41107 352.85973,238.2445 C 401.55371,242.50132 440.2491,278.25791 448.54257,326.66049 C 450.19461,336.30224 449.76439,354.86376 447.6531,365.03486 C 438.7889,407.73814 404.80222,440.79115 362.10241,448.23533 C 352.76247,449.86363 333.90503,449.88354 325.15095,448.27432 z M 118.08411,408.87613 C 92.156963,402.8882 72.756263,383.51547 67.167252,358.0327 C 65.218998,349.14974 65.785227,332.47304 68.302483,324.59765 C 75.822123,301.07204 93.718313,284.39932 117.3257,278.92589 C 125.58091,277.01191 140.16024,277.20417 148.47372,279.33666 C 171.2305,285.17398 188.08493,301.26672 195.877,324.59765 C 197.64964,329.90528 198.59863,332.35044 198.59863,343.3448 C 198.59863,354.19172 197.62709,357.1437 195.88529,362.75417 C 189.24226,384.15191 172.64915,400.85653 151.42538,407.51286 C 143.55955,409.9798 125.9759,410.69876 118.08411,408.87613 z M 541.75105,408.87079 C 534.91712,407.3092 526.97513,404.10705 520.6043,400.34457 C 513.50761,396.15344 502.89733,385.38932 498.49016,377.90981 C 486.59805,357.72747 486.41128,331.38404 498.01163,310.41689 C 503.07974,301.2565 515.28871,289.59757 524.75988,284.87374 C 534.89122,279.82063 544.07375,277.60669 555.03025,277.57543 C 566.21681,277.54352 574.60947,279.31165 583.74594,283.62514 C 606.66965,294.44781 620.52487,314.91185 621.89011,339.96378 C 622.96553,359.69711 616.12907,377.45037 602.19142,391.11839 C 593.84264,399.30566 587.12757,403.39498 575.91743,407.11863 C 567.34107,409.96742 550.36101,410.83821 541.75105,408.87079 z M 185.48445,260.04984 C 164.49544,257.57898 145.13025,244.07898 135.26407,225.03985 C 121.62072,198.71177 126.47814,167.54935 147.43276,146.9725 C 168.27336,126.5076 197.07057,121.91844 223.71444,134.81615 C 231.54851,138.60845 233.90665,140.29783 240.4823,146.82871 C 252.71094,158.97411 259.3102,173.11835 260.36649,189.44662 C 263.0922,231.5807 227.63498,265.01186 185.48445,260.04984 z M 484.79903,260.06899 C 477.2816,259.17227 466.14827,255.34116 459.27953,251.2874 C 452.04281,247.01646 440.64507,235.47824 436.19192,227.91523 C 430.4415,218.14899 428.12256,209.89738 427.58994,197.30635 C 427.02717,184.00254 428.60179,176.012 433.96523,164.9543 C 440.57923,151.31833 451.22604,140.66109 464.63207,134.2574 C 474.73637,129.43087 480.7313,128.17201 493.61211,128.17201 C 510.44606,128.17201 522.58781,132.19481 534.58816,141.74818 C 550.30686,154.26171 558.7312,170.80521 559.63122,190.92713 C 560.22132,204.12025 558.6013,211.91399 552.81395,223.72411 C 540.33738,249.18475 513.55078,263.49861 484.79903,260.06899 z M 332.40127,197.81907 C 320.60392,195.83314 307.87797,189.46067 298.81896,181.00287 C 283.65393,166.84429 276.52392,149.25923 277.56864,128.59232 C 279.08417,98.611754 299.75077,74.136524 329.53796,67.045604 C 336.65562,65.351234 353.0074,65.780704 360.80475,67.866824 C 379.30956,72.817634 394.75589,85.507434 403.17515,102.67585 C 408.27149,113.06823 409.99784,120.50693 409.98709,132.02797 C 409.97624,143.66982 408.23207,151.29866 403.26138,161.44566 C 393.62221,181.12275 375.90311,194.32194 354.45687,197.80076 C 348.05753,198.83881 338.50608,198.84674 332.40127,197.81907 z"
     id="path2591"
     style="fill:#ffffff" />
</svg>
