<?xml version="1.0" encoding="UTF-8" standalone="no"?>
<!-- Created with Inkscape (http://www.inkscape.org/) -->

<svg
   xmlns:dc="http://purl.org/dc/elements/1.1/"
   xmlns:cc="http://creativecommons.org/ns#"
   xmlns:rdf="http://www.w3.org/1999/02/22-rdf-syntax-ns#"
   xmlns:svg="http://www.w3.org/2000/svg"
   xmlns="http://www.w3.org/2000/svg"
   version="1.1"
   width="688"
   height="688"
   id="svg2"
   xml:space="preserve"><metadata
     id="metadata8"><rdf:RDF><cc:Work
         rdf:about=""><dc:format>image/svg+xml</dc:format><dc:type
           rdf:resource="http://purl.org/dc/dcmitype/StillImage" /><dc:title></dc:title></cc:Work></rdf:RDF></metadata><defs
     id="defs6" /><g
     transform="matrix(1.25,0,0,-1.25,-27.874985,870.25002)"
     id="g10"><path
       d="m 293.11178,146.32555 c -0.96981,-0.0514 -1.21037,1.08581 -1.81642,1.64857 -3.79343,4.91495 -7.88903,9.59916 -12.36639,13.89012 8.79196,-2.08867 17.70361,-3.81938 26.68694,-4.88973 3.97071,-2.47107 7.75661,-5.2499 11.24726,-8.36335 -3.05892,-2.08052 -7.13915,-2.36443 -10.48109,-0.84795 -2.47412,-1.63773 -5.76388,-1.89517 -8.47295,-0.63066 -0.53566,0.38243 -1.02381,0.3323 -1.53464,-0.0667 -1.02255,-0.46734 -2.13672,-0.7684 -3.26271,-0.74035 z m -11.61311,0.35296 c -2.91699,0.0313 -5.77759,1.06309 -8.13523,2.75478 -2.6223,-1.56007 -5.92051,-2.11303 -8.81099,-0.95126 -1.31253,0.47948 -2.51292,1.1898 -3.59843,2.07039 -2.4994,-1.35644 -5.62911,-1.36101 -8.18687,-0.17648 -3.22034,8.61279 -7.43581,16.82794 -12.3879,24.5649 10.16535,-4.48649 20.658,-8.22886 31.37007,-11.17408 5.52964,-4.90662 10.65903,-10.24458 15.24169,-16.06381 -1.74554,-0.65204 -3.60968,-1.06483 -5.49234,-1.02444 z m 41.12801,1.22674 c -2.91232,2.97721 -6.11787,5.68682 -9.49109,8.16104 8.70842,-0.65321 17.4478,-1.18891 26.18334,-0.90391 2.66506,-1.11733 5.20935,-2.4407 7.71769,-3.86961 -2.96897,-1.64664 -6.65923,-1.70646 -9.74934,-0.33143 -2.04384,-2.11609 -5.36325,-2.98179 -8.06203,-1.63996 -0.50593,0.34708 -0.96792,0.49143 -1.40753,-0.0215 -1.47915,-0.9646 -3.21509,-1.53536 -4.97582,-1.61844 -0.0717,0.0746 -0.14348,0.14922 -0.21522,0.22383 z m -80.10817,3.24978 c -2.913,0.0215 -5.73231,1.4471 -7.56274,3.69743 -4.84457,-2.0559 -10.72191,-0.76153 -14.51425,2.74618 -0.46881,0.42871 -0.91205,0.88358 -1.32574,1.36878 -2.52118,-0.79715 -5.31689,-0.32267 -7.49817,1.14926 -1.80974,12.48045 -5.20498,24.7029 -9.91292,36.39324 10.28729,-7.06664 21.13061,-13.3246 32.39882,-18.68947 5.58955,-7.75268 10.25275,-16.14282 13.92457,-24.95659 -1.63145,-1.06908 -3.54991,-1.7457 -5.50957,-1.70883 z m 109.37341,1.22674 c -1.64201,1.11096 -3.3686,2.10633 -5.08772,3.09482 8.09185,0.3626 16.15862,1.1689 24.16458,2.36739 0.85367,-0.18 1.87138,-0.35802 0.57826,-0.84835 -2.60242,-1.47205 -5.63649,-2.10435 -8.61015,-1.71273 -2.12855,-2.02211 -5.30584,-3.03901 -8.16564,-2.1579 -0.82169,0.45703 -1.35183,-0.47038 -2.0943,-0.70152 -0.27438,-0.11087 -0.53593,-0.36451 -0.78503,-0.0417 z m -18.34081,6.19826 c -33.27568,0.1614 -66.48733,7.59352 -96.59416,21.71337 -36.01219,16.80619 -67.503,43.05071 -90.52874,75.40099 -20.57332,28.7796 -34.33861,62.34396 -39.91373,97.29616 -0.5948,3.9365 -1.24764,7.876 -1.52903,11.84079 0.0748,20.39208 6.36695,40.67725 17.86711,57.48044 12.31735,18.16879 30.54426,32.22165 51.30432,39.47926 21.97279,7.74867 46.61612,7.77351 68.58976,0.0516 13.56592,-4.73493 26.102,-12.32086 36.56111,-22.16306 -0.71495,-0.63276 -1.39349,-1.30902 -1.98,-2.0704 -15.33417,14.42088 -35.31598,23.78057 -56.21475,26.36842 -20.9052,2.64573 -42.60807,-1.43575 -61.03995,-11.62811 -20.34207,-11.11766 -36.60954,-29.45743 -45.13502,-51.02464 -4.6457,-11.66306 -7.07529,-24.21218 -7.0739,-36.77243 3.73456,-33.90307 15.17852,-66.93926 33.31998,-95.82422 21.28826,-34.07398 51.74388,-62.31956 87.31074,-81.01767 30.86477,-16.31114 65.5465,-25.33536 100.45889,-26.18846 13.29251,-0.37399 26.61,0.57231 39.75097,2.53303 7.10886,7.11215 17.25138,11.09966 27.3412,10.65756 0.84401,-0.0101 1.63119,-0.52415 2.36308,-0.6973 8.22817,3.6533 17.22826,5.35588 26.18298,6.06172 1.54329,0.10721 3.08915,0.18692 4.63614,0.20971 -7.8527,-7.48853 -18.28623,-13.00141 -29.35563,-13.04847 -0.65455,-0.005 -1.3682,0.16796 -1.69923,-0.55589 -3.7854,-4.31669 -9.37891,-6.81927 -15.07862,-7.18862 -4.48774,-0.39231 -8.96753,0.42276 -13.20623,1.7893 -12.01293,-1.83779 -24.17588,-2.77594 -36.33729,-2.70313 z m -129.92237,4.3603 c -5.23785,0.0545 -10.34204,2.421 -13.87291,6.28004 -0.83525,0.0406 -1.69175,-0.10097 -2.53955,0.0387 -5.62405,0.48672 -10.97607,3.54668 -14.25599,8.17825 0.29634,-0.95573 -0.81083,-0.47008 -1.35077,-0.50158 -4.5658,0.4784 -8.80311,3.29751 -10.92522,7.38423 3.62018,13.46493 5.32784,27.48692 4.65964,41.43323 -0.0338,0.59895 -0.0823,1.19712 -0.12718,1.79532 9.48301,-9.89974 19.81919,-18.99525 30.90521,-27.06573 5.30008,-11.83303 9.22146,-24.31837 11.38498,-37.12498 -1.28131,-0.2454 -2.56971,-0.43769 -3.87821,-0.41752 z m 127.3699,2.18661 c -7.91488,0.0859 -15.81505,0.72712 -23.6696,1.683 7.76946,3.15024 15.18238,7.12746 22.21472,11.6906 0.9527,-0.36428 1.86873,-0.87888 2.49652,-1.70452 2.50831,1.61853 6.21421,1.04919 8.09217,-1.29992 1.94482,0.41183 4.15468,-0.36912 5.25561,-2.03595 -4.40022,-3.01225 -8.91257,-5.88001 -13.64477,-8.34182 -0.24822,0.003 -0.49644,0.006 -0.74465,0.009 z m 7.84251,0.0258 c 4.70224,2.73504 9.19143,5.82513 13.52426,9.108 1.18384,-0.41545 2.27916,-1.13409 3.05178,-2.10483 1.8308,2.07448 5.49627,2.05889 7.32599,-0.0387 3.43338,1.57391 7.50382,1.77809 11.09661,0.64135 0.21827,-0.16236 1.37174,-0.3041 0.71934,-0.55495 -2.27212,-1.36754 -4.47695,-2.86397 -6.45703,-4.62748 -9.66865,-1.47518 -19.52081,-2.24381 -29.26095,-2.42335 z m -39.48376,2.73757 c -7.68023,1.21394 -15.25872,2.82843 -22.73986,4.94138 9.98535,3.60465 19.58412,8.25477 28.54212,13.95039 0.75233,-0.50256 1.40948,-1.15132 1.84656,-1.94987 2.70275,0.99411 6.01795,-0.39066 7.25282,-3.00013 2.41136,0.17278 4.9823,-0.26971 6.84391,-1.91113 0.56676,-0.4651 1.05682,-1.01679 1.4764,-1.61413 -7.11507,-4.25419 -14.67271,-7.74426 -22.49882,-10.52843 -0.24104,0.0373 -0.48209,0.0746 -0.72313,0.11192 z m -29.63111,6.88264 c -10.01548,3.04009 -19.84223,6.72374 -29.33413,11.15256 12.06163,3.17524 23.57315,8.32776 34.11626,14.97482 2.04654,-0.58594 3.76088,-2.16857 4.55398,-4.15369 3.87364,0.0444 7.65447,-2.30127 9.18979,-5.88404 2.95125,1.70586 7.1947,0.45551 8.73351,-2.61274 0.30435,-0.57876 0.52943,-1.21779 0.63704,-1.87239 -8.56425,-4.84672 -17.61528,-8.85162 -26.98823,-11.87569 -0.30275,0.0904 -0.60549,0.18078 -0.90822,0.27117 z m 117.12985,5.13939 c -4.17038,0.0684 -8.2994,1.36992 -11.84556,3.50805 -7.97574,-3.96064 -17.80308,-3.65671 -25.61405,0.57507 -2.12176,1.11967 -4.10445,2.51258 -5.88515,4.13388 10.93434,24.8403 15.41276,52.55844 12.50843,79.57874 -0.11307,1.03022 -0.23386,2.0693 -0.37018,3.09052 8.73165,-3.10962 17.90575,-4.9329 27.14321,-5.63869 20.91954,-16.3715 37.20505,-38.43969 47.02371,-63.14381 0.79244,-2.00555 1.55478,-4.03487 2.26965,-6.07437 -5.68773,-8.05512 -16.27295,-12.14648 -25.94659,-10.30461 -0.9689,0.17669 -1.92692,0.42851 -2.8667,0.72744 -4.41816,-4.12398 -10.36862,-6.57095 -16.41677,-6.45222 z m -59.08145,6.37043 c -6.94472,0.15786 -13.65194,3.68078 -17.87164,9.18117 -8.88594,-0.6963 -17.90733,2.27063 -24.77948,7.91209 -3.63834,2.97694 -6.65376,6.66067 -8.83316,10.82473 -8.13093,0.0266 -15.99816,4.5903 -20.16156,11.51412 -1.84371,2.99429 -3.01381,6.39609 -3.40042,9.88709 22.72159,15.81405 40.98683,37.95798 52.15575,63.30401 0.90051,2.00721 1.74161,4.05297 2.54817,6.10356 11.5604,-14.65924 27.13096,-26.07431 44.51123,-32.8809 3.46618,-26.0211 0.14098,-52.89961 -9.52308,-77.29552 -0.74564,-1.76379 -1.36684,-3.65688 -2.28958,-5.29882 -3.69466,-2.23592 -8.03744,-3.3877 -12.35623,-3.25153 z m -93.3096,2.48361 c -10.75742,5.32616 -21.04758,11.58526 -30.77176,18.59478 15.22154,1.57607 30.16887,5.95044 43.81392,12.85708 2.75777,-1.18149 4.58542,-4.03657 4.73909,-6.98165 3.13496,0.76469 6.70095,-0.69006 8.27294,-3.53818 0.49461,-0.81666 0.76407,-1.78518 0.95127,-2.6773 0.76704,-0.1969 1.63084,-0.0699 2.38031,-0.37878 2.3874,-0.71562 4.28026,-2.8253 4.6616,-5.29865 -10.32445,-5.89537 -21.49169,-10.33205 -33.0789,-13.05508 -0.32282,0.15926 -0.64565,0.31852 -0.96847,0.47778 z m -77.64179,-0.37017 c -5.6501,0.0634 -11.13403,3.13548 -14.18282,7.86834 -5.92627,1.09706 -11.26004,4.95314 -14.24738,10.18839 -5.66155,1.0078 -10.46083,5.46712 -12.12965,10.96317 10.01309,14.16599 16.75471,30.61074 19.64934,47.72227 7.41249,-11.91941 16.00295,-23.09053 25.50755,-33.41463 1.46388,-14.46018 0.056,-29.11352 -3.25408,-43.21993 -0.44993,-0.0397 -0.88629,-0.13795 -1.34296,-0.10761 z m 281.22441,6.96013 c -0.95949,0.042 -1.9168,0.19788 -2.84516,0.41752 -8.39525,26.60457 -24.57484,50.65699 -45.89376,68.60318 -1.12528,0.67303 0.0408,0.43302 0.6723,0.43421 11.66088,-0.13003 23.31392,1.7828 34.3659,5.46222 23.96939,-3.9104 46.81254,-14.45443 65.20654,-30.32842 1.5504,-1.32026 3.06316,-2.70033 4.55398,-4.09774 0.0758,-7.20154 -4.53528,-14.0687 -11.11381,-16.91177 -2.35797,-1.04122 -4.94241,-1.57735 -7.54121,-1.54956 -2.42596,-7.40453 -9.27539,-13.1162 -17.00104,-14.07993 -1.52413,-0.20144 -3.0972,-0.26851 -4.6154,0.0133 -3.59678,-4.92193 -9.59671,-8.15552 -15.78834,-7.96304 z m -239.55834,15.80555 c -9.63261,7.34098 -18.67114,15.47497 -26.9409,24.31955 9.88913,-0.56941 19.84583,0.80161 29.33411,3.5597 6.83187,1.99842 13.42598,4.81076 19.62782,8.27726 2.81084,-1.38838 4.64543,-4.35955 4.79504,-7.45513 5.21352,-0.8631 9.60774,-5.41425 9.999,-10.70491 0.22876,-0.42195 0.98175,-0.43942 1.40751,-0.74895 2.77148,-1.35818 4.96878,-3.69177 6.22839,-6.50818 -13.65915,-6.41962 -28.49696,-10.40249 -43.57289,-11.40221 -0.29269,0.22096 -0.58539,0.44192 -0.87808,0.66287 z m -84.14996,10.05065 c -7.30658,1.13454 -13.6727,6.59099 -15.86155,13.63787 -0.17363,0.6103 -0.25759,1.26534 -1.0002,1.38097 -6.24702,2.84476 -11.12771,8.3148 -13.40641,14.77154 -6.00857,3.5993 -10.34531,9.9254 -11.36347,16.85151 15.75928,13.55455 27.21762,31.53679 35.16766,50.64409 0.64122,1.56058 1.2679,3.11957 1.86693,4.69687 5.50984,-18.65637 13.34446,-36.61795 23.26068,-53.34804 -2.21712,-17.38677 -8.62918,-34.19477 -18.46994,-48.66494 l -0.13611,0.0212 -0.0576,0.009 z m 382.97484,16.49425 c -18.29134,17.56452 -41.59615,29.80235 -66.43756,34.93837 4.79409,1.94469 9.52224,4.10224 13.91758,6.83023 9.47201,6.93621 18.41174,14.60975 26.681,22.94293 16.98101,3.61287 34.66614,3.83043 51.77296,0.95611 5.5155,-0.95348 11.02667,-2.20201 16.33901,-3.87016 0.16129,-9.12314 -4.38681,-18.05288 -11.5873,-23.56197 -0.42859,-8.8007 -5.27301,-17.20442 -12.65048,-22.01243 -1.62192,-7.58039 -7.71673,-13.94474 -15.15471,-15.98506 -0.85839,-0.18318 -1.81686,-0.59805 -2.63971,-0.46966 -0.0803,0.0772 -0.16053,0.15443 -0.24079,0.23164 z m -322.95075,1.13204 c -2.08395,0.025 -4.16794,0.12523 -6.24129,0.34005 -9.31662,10.18561 -17.66919,21.25123 -24.8576,33.05737 11.46329,-2.24227 23.41847,-1.79624 34.71015,1.16576 7.01089,1.81832 13.77227,4.63142 20.02391,8.26506 3.12209,-1.7401 5.26822,-5.32344 4.95861,-8.94442 -0.12535,-0.45455 -0.10342,-0.93449 0.46487,-1.00292 4.14863,-2.11034 6.76488,-6.91009 6.07343,-11.55286 0.007,-0.57297 0.92159,-0.58272 1.287,-0.96849 3.42699,-2.07896 5.7864,-5.77079 6.237,-9.75794 -12.99075,-7.13603 -27.83424,-10.77389 -42.65608,-10.60161 z m 76.84118,0.15927 c -9.18826,1.34819 -17.35974,7.5262 -21.28911,15.91227 -1.98863,4.08998 -2.85972,8.65475 -2.8066,13.20232 0.003,0.72429 -1.01953,0.65538 -1.47946,1.03792 -8.9611,4.20541 -15.78235,12.5619 -18.12335,22.18805 -1.17547,4.8239 -1.34978,9.95245 -0.38228,14.83305 -6.64967,7.16325 -10.06908,17.20196 -9.05204,26.94521 0.44017,4.84325 1.92975,9.60691 4.42918,13.76959 22.53194,0.0921 44.92772,7.90552 62.59379,21.86178 7.78985,6.10991 14.66136,13.36523 20.36387,21.45715 -4.3788,-24.58085 0.28045,-50.66185 12.90929,-72.17984 1.98088,-3.38738 4.14434,-6.66405 6.4947,-9.80071 -8.94163,-24.10395 -24.33737,-45.67789 -44.08302,-62.07259 -3.02337,-2.50809 -6.14101,-4.91252 -9.35974,-7.18864 l -0.13602,0.0218 -0.0792,0.0127 z m 139.03036,29.30398 c -20.38196,0.0712 -40.65842,6.36221 -57.47181,17.85359 -18.3157,12.4064 -32.45276,30.76918 -39.69411,51.69834 -5.80429,16.65757 -7.19866,34.85823 -4.15045,52.24338 0.33118,1.77877 0.69461,3.53977 1.13705,5.29049 0.97088,-0.23426 1.95195,-0.43501 2.93125,-0.64995 -2.98657,-11.44649 -3.38078,-23.4828 -2.0191,-35.20852 2.32076,-19.29465 10.44922,-37.82153 23.00279,-52.62596 13.6603,-16.22844 32.5723,-27.99813 53.23707,-32.93255 19.61421,-4.76693 40.67583,-3.42895 59.51094,3.82226 4.95152,1.92351 9.81032,4.12927 14.36069,6.86929 29.28767,21.56735 53.27965,50.24359 69.32442,82.89354 16.25646,32.90579 24.38314,69.78329 23.42811,106.48932 -0.90153,38.06315 -11.54673,75.83389 -30.66761,108.73983 -5.66457,9.77701 -12.05893,19.13179 -19.11172,27.95346 -6.8086,1.90146 -13.67591,4.64829 -18.77554,9.68046 -3.53393,3.43618 -5.78398,8.15826 -6.26283,13.0637 -7.43503,6.09745 -13.8215,13.35713 -19.18446,21.36677 9.5115,-3.00132 18.086,-8.88477 24.22054,-16.76973 9.26098,-3.0126 16.91257,-10.34092 20.29146,-19.4943 0.70464,-1.80476 1.1526,-3.69086 1.57462,-5.54838 23.32637,-29.02836 39.4735,-63.80104 46.57471,-100.39165 7.05276,-35.97524 5.35729,-73.63609 -4.92155,-108.82108 -10.25583,-35.37318 -29.12858,-68.17959 -54.51069,-94.80912 -9.39273,-9.8468 -19.61114,-18.88604 -30.61121,-26.91278 -15.79506,-9.05278 -33.97488,-13.94958 -52.21257,-13.80041 z M 71.3519,271.71973 c -7.60742,4.40948 -13.16801,12.2775 -14.37945,21.03216 0.10641,0.97657 -0.98178,1.15978 -1.55954,1.70769 -6.67955,4.80212 -10.848346,12.71748 -11.251561,20.89331 -5.965751,5.34681 -8.434195,14.17585 -6.193953,21.85315 0.308637,0.67483 0.249659,1.81802 1.17409,1.86719 8.335604,2.37873 16.370024,5.76233 24.107104,9.65436 10.42723,5.43036 20.11919,12.25698 28.9352,20.03203 3.63704,3.26074 7.09153,6.72554 10.3574,10.35783 -0.66957,-5.10369 -1.08143,-10.27638 -1.01156,-15.42883 1.2414,-11.68451 3.36426,-23.29053 6.54264,-34.60918 -2.99592,-8.86734 -6.61952,-17.57027 -11.41082,-25.60655 -2.76693,-5.27566 -6.35833,-10.03654 -9.78464,-14.8784 -4.56807,-6.13902 -9.80124,-11.72274 -15.33121,-16.99097 l -0.11811,0.0709 -0.0756,0.0454 z m 85.89322,2.59122 c -5.52663,0.045 -11.04636,0.70278 -16.41678,1.96708 -9.73488,16.49021 -17.24983,34.31019 -22.41703,52.75837 17.04246,-9.50724 37.81367,-12.54705 56.74849,-7.48096 2.31234,0.62487 4.59195,1.36916 6.82669,2.23397 2.60724,-3.38635 3.52654,-7.97683 2.376,-12.09953 4.56647,-3.12214 7.16216,-8.91323 6.19826,-14.40665 -0.11048,-0.62908 -0.25955,-1.23725 -0.43043,-1.85516 3.63697,-2.45686 5.74041,-7.20827 4.72186,-11.54856 -11.48276,-6.23425 -24.51026,-9.67213 -37.60706,-9.56856 z m 232.09892,0.36586 c -15.87107,0.24398 -31.65047,4.49689 -45.4625,12.25878 3.77416,3.53574 6.24037,8.44051 6.74492,13.61465 6.45383,1.16371 12.02329,5.93472 14.29472,12.05646 1.66114,4.11866 1.66586,8.82892 0.15066,12.99913 6.00351,4.28879 9.5705,11.80489 8.818,19.20502 -0.13223,1.36429 -0.39005,2.72633 -0.7861,4.04275 9.74626,-2.15261 19.85256,-2.65074 29.78607,-1.62704 6.03076,-5.50575 8.33836,-14.71729 5.53136,-22.432 -0.50818,-1.45608 -1.19141,-2.84639 -2.01471,-4.13872 4.71277,-4.2589 6.8578,-11.22091 5.03609,-17.36804 -1.48174,-5.31697 -5.75482,-9.7368 -11.02342,-11.42804 2.57541,-4.61972 2.78504,-10.4259 0.63273,-15.22876 -0.35166,-0.48914 -0.34055,-1.54932 -1.12774,-1.44626 -3.5137,-0.36355 -7.04622,-0.58856 -10.58008,-0.50793 z m 15.31486,1.67871 c 1.64608,4.31283 1.84555,9.18091 0.37017,13.57589 6.63653,3.55308 10.9556,10.97355 10.65931,18.53019 -0.13539,4.68943 -1.97427,9.22164 -4.94745,12.80976 3.2216,6.60447 3.10646,14.71138 -0.15925,21.24625 -0.90719,1.86668 -2.0631,3.61656 -3.39612,5.20396 4.04601,0.52028 8.05103,1.35381 11.91012,2.67299 -0.1313,0.98669 -0.47602,2.0727 -0.48209,3.00012 2.40315,1.85153 5.45918,2.40594 8.42785,2.2895 0.65782,-0.009 1.37998,-0.0709 1.19235,0.80533 0.43428,4.68364 4.25717,9.13221 9.09916,9.41324 0.78745,-0.28278 1.35206,-1.16444 2.02658,-1.70196 13.23548,-12.78969 21.5764,-30.47321 22.85061,-48.8518 0.13347,-2.393 0.32664,-4.80592 0.0839,-7.19728 -7.43634,-7.45343 -15.44094,-14.32279 -24.03284,-20.40289 -10.35628,-5.89888 -21.82664,-9.72027 -33.61957,-11.43636 l 0.0172,0.0431 z m -64.55657,12.76238 c -17.27403,10.47411 -31.02226,26.49456 -38.80906,45.12987 -7.23246,17.16182 -9.37211,36.44304 -6.05944,54.7783 0.37605,1.78329 0.67473,3.71508 1.26118,5.36751 3.13517,-0.24989 6.29685,0.29517 9.26295,1.2784 10.91654,-17.9801 27.61653,-32.33503 46.97909,-40.53651 5.26712,-2.24198 10.71756,-4.04573 16.28617,-5.38225 2.21671,-4.98341 1.87015,-11.00048 -0.94748,-15.68349 -1.7421,-3.01668 -4.3787,-5.47049 -7.47612,-7.07359 2.70765,-4.48878 2.7901,-10.36368 0.21018,-14.91962 -2.48314,-4.94171 -7.81303,-8.36749 -13.3944,-8.30663 -0.57258,0.0692 -0.11491,-0.77554 -0.15495,-1.11913 0.0628,-5.32162 -2.55991,-10.51292 -6.6416,-13.84708 -0.17218,0.10474 -0.34435,0.20948 -0.51652,0.31422 z m 201.51224,13.48981 c -20.98003,6.63473 -43.55863,7.99646 -65.25624,4.45775 -1.14393,-0.31512 0.57836,0.89084 0.80297,1.30577 12.90032,13.6785 24.02097,29.02155 33.14776,45.46251 14.4982,6.07221 30.28855,8.85457 46.00053,8.54078 1.80434,-0.0211 3.61192,-0.064 5.40627,-0.26784 1.84598,-4.68345 1.97214,-10.06172 0.0633,-14.73782 -1.0216,-2.60353 -2.58741,-4.94275 -4.56993,-6.8829 0.88812,-7.08914 -1.4229,-14.44064 -6.12077,-19.79999 0.006,-7.03501 -3.42468,-13.93894 -8.97457,-18.23752 -0.16643,0.0531 -0.33287,0.10618 -0.4993,0.15926 z m -75.25287,9.1984 c -0.28336,17.71814 -6.86016,35.21624 -18.414,48.6434 -2.69309,3.12989 -5.63739,6.0591 -8.80238,8.712 1.60816,3.92048 5.13598,6.94054 9.17686,8.13952 0.42219,5.90514 4.77435,11.28226 10.45095,12.92163 0.66068,0.0343 0.87976,0.41099 0.84366,1.03736 0.62041,4.11685 3.65817,7.75282 7.6273,9.04343 14.31641,-8.67333 25.63577,-22.0902 31.71012,-37.68025 0.68245,-1.7428 1.29671,-3.50542 1.84655,-5.29433 -9.43129,-16.69961 -21.06752,-32.18202 -34.43476,-45.91446 -10e-4,0.13056 -0.003,0.26112 -0.004,0.3917 z m -310.50689,11.41512 c -13.48046,0.0847 -26.8447,4.01359 -38.30006,11.03634 -2.69841,10.13997 -4.66724,20.50609 -5.61926,30.94392 0.0937,11.89669 2.5526,23.72479 6.93639,34.7533 2.96713,-3.52763 7.08401,-6.08178 11.57008,-7.15812 -0.31023,-8.06263 4.73884,-15.89606 12.06508,-19.15004 3.77543,-1.70851 8.16466,-2.37418 12.22434,-1.33434 5.29292,-7.68985 15.19649,-11.94413 24.42713,-10.27505 0.5835,0.0589 -0.29442,-1.01821 -0.33952,-1.46166 -1.30903,-3.24945 -2.33769,-6.61238 -2.92745,-10.06911 0.5663,-0.88818 1.84143,-0.69277 2.73327,-1.08469 0.50601,-3.38531 -0.88619,-6.66645 -2.69023,-9.46095 3.32244,-2.26598 5.56921,-6.35789 4.94139,-10.44235 -0.20341,-0.94629 -0.37426,-2.08384 -1.00607,-2.78452 -7.79792,-2.24181 -15.88152,-3.58365 -24.01509,-3.51273 z M 38.879917,342.90072 c -6.002255,3.61124 -9.623229,10.83438 -8.810006,17.82359 0.249419,2.58421 1.062411,5.10651 2.30614,7.38696 -4.402851,5.02231 -6.122383,12.16527 -4.552496,18.65565 0.600065,2.5754 1.71544,5.04046 3.243975,7.21346 -2.802304,5.98419 -2.118284,13.60974 1.928347,18.87886 0.393933,0.37505 0.668,1.23344 1.336646,0.8067 21.478297,-5.02745 44.123337,-4.35063 65.522247,0.7473 5.79855,1.39085 11.51331,3.11657 17.11028,5.16508 -6.28736,-10.39287 -10.74683,-21.88134 -13.28321,-33.75898 -5.87833,-6.98155 -12.32133,-13.49885 -19.44578,-19.23632 -8.97627,-6.64921 -18.16363,-13.21846 -28.53268,-17.51642 -5.39486,-2.45895 -10.935376,-4.67017 -16.659898,-6.26059 l -0.119203,0.069 -0.04436,0.0257 z m 161.933783,7.30877 c -7.04362,0.0397 -14.08676,0.84031 -20.92343,2.50944 6.08628,19.73102 18.48465,37.37067 34.94476,49.74541 15.90587,12.06086 35.56223,19.1142 55.54524,19.86351 0.81313,0.22167 1.04065,-0.12325 0.87405,-0.89435 -0.12005,-4.43001 0.80506,-8.92221 2.90974,-12.82695 -25.87889,-14.96182 -51.78291,-29.88989 -77.64609,-44.8728 -0.64045,-0.79632 0.05,-2.21313 1.11483,-2.05749 3.44201,1.86668 6.93224,3.98556 10.39274,5.94943 22.52539,13.00746 45.05078,26.01492 67.57616,39.02237 2.34027,-4.27003 6.19947,-7.66199 10.71783,-9.47815 -12.27918,-19.58907 -31.49192,-34.62195 -53.44706,-41.87699 -10.3089,-3.43101 -21.18051,-5.16746 -32.05877,-5.08343 z m 191.7629,0 c -21.50321,0.11487 -42.8735,7.47654 -59.85466,20.62559 -9.38731,7.23404 -17.42165,16.12167 -23.67546,26.23582 4.33832,2.06617 8.03481,5.33363 10.59299,9.4093 26.02436,-14.83933 52.04656,-29.70618 78.07222,-44.52846 0.80368,-0.39224 1.84734,0.45216 1.45487,1.30422 -0.53923,1.12794 -1.97854,1.37003 -2.9081,2.08171 -25.20536,14.46027 -50.41072,28.92053 -75.61609,43.38079 2.34552,3.85727 3.49183,8.46598 3.18092,12.9776 -0.0564,0.36735 -0.14417,0.73158 -0.30561,1.06747 20.74257,-0.72169 41.12498,-8.16278 57.47162,-20.9062 15.99269,-12.35994 28.05016,-29.70225 34.00317,-49.06732 -0.79058,-0.37312 -1.99011,-0.47798 -2.94428,-0.72607 -6.39896,-1.32089 -12.93599,-1.90828 -19.47159,-1.85445 z m 120.71106,8.92722 c 6.33187,12.28177 11.69971,25.065 15.91749,38.22689 11.91715,8.27029 25.17465,14.5714 39.07483,18.71529 3.29348,-4.70592 3.78816,-11.12349 1.40347,-16.33183 -0.40567,-0.59128 -0.42351,-1.188 -0.12076,-1.82821 1.36815,-4.47638 1.19836,-9.44751 -0.67798,-13.75863 -0.3417,-0.98854 -1.01749,-1.90879 -1.34508,-2.84322 1.22683,-3.74554 1.05952,-7.94257 -0.61492,-11.52833 -0.70471,-1.59785 -1.67842,-3.0671 -2.82424,-4.36761 -12.12686,1.0803 -24.43415,0.27492 -36.30456,-2.39425 -5.03194,-1.13472 -9.97626,-2.61915 -14.79663,-4.44537 0.0961,0.1851 0.19226,0.37018 0.28838,0.55527 z m -10.22712,2.63856 c -6.33258,17.60844 -18.97477,32.89459 -35.19663,42.26437 -0.43222,0.24792 -0.0842,0.95973 -0.13344,1.39461 0.33101,3.38305 2.58057,6.46658 5.71617,7.78226 -0.28037,3.9229 1.35466,7.98608 4.61857,10.27878 0.79167,0.58069 1.65554,1.03132 2.5697,1.37739 -0.27001,4.40391 1.62984,8.91032 5.17253,11.59738 0.56315,0.33588 1.18788,-0.62472 1.77061,-0.80828 13.73097,-8.78297 24.81781,-21.53688 31.7271,-36.30957 -4.1856,-13.08433 -9.5223,-25.82489 -16.14561,-37.85242 -0.033,0.0918 -0.066,0.18365 -0.099,0.27548 z m -328.18482,3.40043 c -7.57736,0.0674 -14.94618,4.43488 -18.53021,11.11812 -3.22155,-0.96121 -6.71728,-1.21259 -9.96388,-0.23876 -6.32699,1.69981 -11.34727,7.43761 -12.18628,13.94811 -0.22962,1.92903 -0.27603,3.93506 0.12913,5.8453 -5.76376,0.26385 -11.30556,3.49193 -14.28182,8.43222 8.0236,17.8725 21.62511,33.02761 38.39475,43.0908 1.10087,-5.08939 4.17537,-9.70509 8.34184,-12.75809 -2.07266,-6.11392 -0.92599,-13.29203 3.19406,-18.29749 2.79527,-3.47891 6.86663,-5.92413 11.25992,-6.70214 0.73211,-7.81978 6.15276,-14.96066 13.49413,-17.7253 0.86213,-0.32727 1.73559,-0.60587 2.63426,-0.81783 -6.52291,-7.54731 -12.00544,-15.95391 -16.18864,-24.99963 -2.04657,-0.59085 -4.16484,-0.93456 -6.29726,-0.89531 z m 233.72166,10.73504 c -11.11149,18.65075 -28.2724,33.60854 -48.30942,41.9864 -9.68924,4.07955 -20.00937,6.63919 -30.48163,7.56952 20.31479,7.33605 38.24837,21.03912 50.65785,38.7133 4.23188,6.0081 7.84427,12.45988 10.75655,19.20598 12.99659,2.18568 26.30798,2.43042 39.41763,1.11557 16.30034,-1.6847 32.32897,-6.05261 47.20302,-12.91378 3.21753,-8.02251 2.52541,-17.45377 -1.89822,-24.87051 -2.7434,-4.68522 -6.82312,-8.52768 -11.63033,-11.02773 0.86666,-4.01327 0.39358,-8.24668 -0.52539,-12.2113 -2.44313,-10.12798 -9.90673,-18.82214 -19.45649,-22.82589 -0.8202,-0.3487 -1.65258,-0.67185 -2.49972,-0.95144 -3.18323,-10.66844 -11.8495,-19.42503 -22.47505,-22.76463 -3.34637,-1.07914 -6.86808,-1.62548 -10.39723,-1.6281 -0.12052,0.20087 -0.24106,0.40174 -0.36157,0.60261 z m -208.43363,18.22029 c -6.61604,0.73671 -12.44285,5.58825 -14.51566,11.86832 -0.70284,2.18409 -1.14211,4.54002 -0.83365,6.84267 -5.56328,-0.2294 -10.99688,3.01046 -13.59311,7.9243 -2.59687,4.6182 -2.66129,10.67399 0.0947,15.24169 -5.10836,2.52494 -8.86298,7.55451 -9.68477,13.17991 17.52052,9.77903 38.1685,13.75637 58.11641,11.42993 20.15245,-2.26735 39.5206,-11.06999 54.38627,-24.84227 0.25074,-0.46505 1.38605,-0.79126 0.90797,-1.35071 -1.58492,-2.57797 -2.69491,-5.45703 -3.2194,-8.44598 -21.99147,-0.57728 -43.68214,-8.44089 -60.89359,-22.11142 -3.78914,-2.99026 -7.36025,-6.24855 -10.68338,-9.74504 l -0.0818,0.009 z m 96.70573,3.80935 c -7.58462,0.12976 -14.87844,4.3928 -18.77519,10.85196 -4.64556,7.39698 -4.43236,17.47814 0.52045,24.67611 4.20856,6.3497 11.77303,10.25408 19.42552,9.98608 7.96373,-0.12833 15.61411,-4.76001 19.40869,-11.74078 3.74066,-6.58536 3.74416,-15.1121 0.0774,-21.73974 -3.69801,-7.00333 -11.25524,-11.799 -19.19772,-12.02072 -0.48579,-0.0263 -0.9729,-0.0182 -1.45916,-0.0129 z m 234.14779,5.27283 c 3.72101,13.02184 6.34116,26.37313 7.8253,39.83671 7.29412,10.69343 16.90578,19.48084 26.35425,28.23932 0.55393,-0.33115 1.05119,-1.2039 1.51638,-1.78911 3.27542,-4.69642 4.19633,-10.95513 2.32005,-16.36943 3.17623,-4.88384 3.95958,-11.19312 2.05266,-16.69809 -0.12693,-0.639 -0.71991,-1.29454 -0.15445,-1.85795 2.48708,-4.32568 2.33689,-9.96577 -0.36157,-14.1742 -11.62684,-3.16197 -22.8204,-7.77798 -33.24577,-13.79931 -2.18792,-1.25578 -4.34547,-2.58258 -6.47042,-3.94752 0.0545,0.18653 0.10905,0.37305 0.16357,0.55958 z m -10.24434,1.12773 c -7.84069,15.09639 -20.06649,27.82929 -34.71885,36.43629 -0.10262,3.04699 1.385,6.10136 3.94709,7.80808 -1.61317,4.59684 -0.21067,10.13941 3.46929,13.34347 0.37089,0.43139 1.21222,0.63951 0.8953,1.32574 -0.33236,3.36067 0.49127,6.80007 2.44487,9.56426 12.48925,-8.55476 23.2487,-19.48084 31.75747,-31.98129 -1.60295,-12.38805 -4.15359,-24.65517 -7.73491,-36.61277 l -0.0603,0.11622 z m -457.92642,9.39639 c -9.16157,0.12785 -18.283461,1.13695 -27.306765,2.66869 -3.167642,6.91993 -2.733227,15.24374 0.512217,22.03825 1.385366,2.89185 3.308786,5.53574 5.612867,7.74353 -1.783039,7.37631 0.269617,15.60747 5.457971,21.17475 1.71774,1.86629 3.75545,3.42632 5.99159,4.60826 0.70711,9.74218 6.82476,18.87368 15.5559,23.28222 1.36746,0.70928 2.81391,1.31784 4.29144,1.78199 16.1845,-21.91922 38.05749,-39.60781 62.97688,-50.68797 0.88436,-0.39391 1.77203,-0.77796 2.66439,-1.15356 -7.03783,-5.98382 -13.18067,-12.99433 -18.40108,-20.61782 -18.13425,-7.41328 -37.75175,-11.09248 -57.35541,-10.83834 z m -39.500976,13.32196 c -2.011679,9.73454 -1.105557,20.10115 2.589759,29.32574 0.167197,0.78244 1.085069,1.60304 0.483544,2.34562 -1.754329,3.68566 -1.085432,7.98557 -0.05229,11.80145 1.555528,5.30718 4.067049,10.4002 7.603227,14.69144 0.734088,0.89868 1.663323,1.69545 2.58149,2.37636 12.747664,32.95613 33.222234,62.87989 59.309124,86.68836 28.252812,25.89114 63.042912,44.57507 100.258042,53.81428 38.58728,9.64938 79.70048,9.13342 118.01083,-1.58634 10.54321,-2.93997 20.87336,-6.59992 30.88691,-11.03503 16.58762,-9.56295 30.36832,-23.83371 39.37671,-40.71254 9.76371,-18.16978 13.90246,-39.34865 11.6639,-59.90729 -2.33139,-22.30322 -12.21931,-43.68861 -27.63142,-59.9425 -12.29332,-13.07351 -28.08683,-22.83707 -45.31228,-27.98008 -0.21075,0.9378 -0.48685,1.85306 -0.87809,2.72465 20.74054,6.17476 39.26619,19.29703 52.0268,36.76112 12.80048,17.3323 19.77996,38.86699 19.50999,60.4353 -0.15477,22.07363 -7.88181,43.9746 -21.54182,61.27666 -7.83653,9.97657 -17.55758,18.48231 -28.53478,24.85276 -32.58653,14.33741 -68.57013,20.75413 -104.1157,18.77147 C 203.15565,629.8037 167.26377,618.92426 135.88695,600.34793 104.33496,581.74632 77.37845,555.42986 58.08813,524.28588 50.7715,512.49782 44.539654,500.04812 39.482525,487.12642 c 2.418868,-8.2413 0.96183,-17.21109 -2.448132,-24.96774 -1.256619,-2.90855 -2.887233,-5.64519 -4.67556,-8.23598 -1.676726,-9.422 -4.725845,-18.60093 -8.940125,-27.17764 -0.02439,0.10474 -0.04878,0.20947 -0.07317,0.31423 z m 297.425986,5.88403 c -1.48161,2.78496 -3.40617,5.37186 -5.82379,7.39057 9.58317,17.8085 13.89293,38.47362 11.88857,58.64178 -0.63153,6.50798 -1.89281,12.94064 -3.80071,19.19369 3.89209,5.38543 11.03558,7.94201 17.51837,6.64296 2.26695,-0.43061 4.43274,-1.34239 6.37076,-2.61409 2.7461,4.90435 8.3482,7.90703 13.95038,7.64883 5.27254,-0.0447 10.37837,-3.0503 12.97329,-7.64883 4.71418,3.17917 10.9443,3.76118 16.2489,1.84226 -0.28581,-19.9901 -7.01616,-39.76859 -18.89176,-55.79723 -11.39133,-15.49068 -27.51153,-27.46252 -45.70488,-33.84688 -1.54386,-0.54426 -3.11458,-1.05373 -4.6904,-1.52624 l -0.0387,0.0732 z m -38.27424,9.53843 c -10.38568,20.18478 -13.8502,43.90694 -9.35958,66.19735 3.50488,17.77031 12.00509,34.50918 24.31717,47.79463 13.88812,-14.97508 22.96748,-34.35075 25.54197,-54.64689 2.46607,-18.77456 -0.68061,-38.21501 -8.8795,-55.26293 -0.63872,-1.35019 -1.33162,-2.69407 -2.0277,-4.01329 -3.91943,2.68871 -8.59972,4.25345 -13.36068,4.34739 0.009,29.87013 0.0634,59.74499 0.043,89.61217 -0.1558,1.14517 -2.01915,1.30037 -2.33727,0.17218 -0.2034,-1.68254 -0.0154,-3.42648 -0.0785,-5.13078 0.019,-28.31112 0.038,-56.62224 0.057,-84.93335 -4.92497,0.15899 -9.84947,-1.51308 -13.71796,-4.51526 -0.066,0.12626 -0.13199,0.25251 -0.19798,0.37878 z m 246.62178,3.60274 c -9.01924,12.37686 -20.22315,23.17558 -33.04447,31.56806 -0.20429,2.94627 1.17594,5.97199 3.67162,7.59718 -3.03207,2.92657 -2.55844,8.44763 0.82212,10.92443 -1.84212,2.81091 -1.25577,6.89295 1.32574,9.04342 10.38434,-5.8116 19.77456,-13.40183 27.81468,-22.11142 0.99162,-12.32084 0.64857,-24.7485 -0.58969,-37.02167 z m -252.47569,0.49068 c -15.54625,12.96895 -34.90139,21.30952 -55.00095,23.7514 -8.41072,1.0222 -16.94273,1.06309 -25.3612,0.1033 -18.76045,22.84792 -30.53271,51.35321 -33.23013,80.82512 0.28124,0.81749 1.15225,1.44015 1.7205,2.1279 6.55736,6.85283 16.63261,10.07349 25.95273,8.27327 3.59445,-0.66485 7.06959,-2.04799 10.16256,-3.99012 7.72496,5.88902 18.04772,8.17011 27.53919,6.07342 5.55587,-1.20541 10.79735,-3.811 15.03078,-7.63589 9.37668,2.13415 19.60792,0.27589 27.49616,-5.26423 4.1366,-2.86593 7.62684,-6.66443 10.09369,-11.05356 -10.10178,-17.74697 -14.66163,-38.55492 -13.00951,-58.92089 0.94489,-11.95429 3.98258,-23.74428 9.01077,-34.62975 -0.13486,0.11334 -0.26973,0.22669 -0.40459,0.34003 z m -135.38029,1.32574 c -25.30226,10.5398 -47.67992,27.92908 -64.21395,49.73435 -0.45316,0.6767 -1.24116,1.25005 -0.99258,2.15884 0.12305,8.59149 5.38118,16.77595 13.12278,20.47618 2.21537,1.0828 4.5987,1.79605 7.04738,2.11734 4.37206,9.10013 12.84439,16.06926 22.61503,18.6206 3.36321,0.91807 6.86458,1.28105 10.35626,1.21382 4.14846,7.01848 12.04028,11.52832 20.17013,11.6592 3.47925,0.0803 7.00796,-0.47686 10.1712,-1.90125 2.31415,-28.18862 12.75426,-55.6652 29.80156,-78.20909 0.95279,-1.28339 1.94654,-2.5397 2.9459,-3.78868 -18.41516,-2.85975 -36.06315,-10.56956 -50.56314,-22.275 -0.15353,0.0646 -0.30705,0.12913 -0.46057,0.19369 z m 398.21653,2.1737 c 1.01486,12.34061 0.98806,24.7643 -0.0344,37.10346 3.99194,8.69037 8.85845,16.97951 14.6563,24.56921 4.3206,-2.05963 6.76259,-7.64116 4.89833,-12.16408 -0.0531,-0.44826 0.68101,-0.69974 0.94266,-1.09331 3.71682,-3.60136 5.12475,-9.3426 3.48389,-14.27673 -0.33696,-0.52236 0.0352,-0.86572 0.40724,-1.21891 1.43273,-1.66605 2.40048,-3.88205 2.22965,-6.09064 -0.0645,-0.79736 -1.0823,-1.03398 -1.53879,-1.60947 -9.17232,-7.64446 -17.67761,-16.07506 -25.06638,-25.47348 l 0.0116,0.13725 0.01,0.1167 z m -60.14031,24.76291 c -21.75141,10.01236 -45.86756,14.7295 -69.79902,13.87373 -5.63864,-0.18069 -11.2728,-0.64739 -16.83885,-1.55039 6.89772,17.24527 9.08536,36.35824 6.19479,54.71958 0.13729,0.61908 1.07718,0.91899 1.54248,1.39732 21.94346,16.5232 48.37354,27.10089 75.73691,29.99154 7.04148,-3.98736 11.79382,-11.86326 11.79969,-20.01951 0.0389,-3.15807 -0.59843,-6.28259 -1.79639,-9.1898 5.2514,-7.86786 7.30948,-17.8285 5.26852,-27.10445 -0.86044,-4.01729 -2.43972,-7.9051 -4.63148,-11.39361 4.11223,-6.90307 4.17954,-15.92628 0.36157,-22.95507 -1.70065,-3.20213 -4.11704,-5.98947 -7.0247,-8.14382 -0.27118,0.12482 -0.54234,0.24965 -0.81352,0.37448 z m -435.591168,3.42626 c -0.04443,2.60241 -0.285744,5.19718 -0.82213,7.74351 3.530278,9.18937 7.735858,18.10587 12.542858,26.69125 0.0374,-5.49293 0.38807,-10.99915 1.15787,-16.42969 -0.88165,-0.95592 -2.09472,-1.56106 -3.37891,-1.74756 0.38155,-1.43921 0.24451,-3.0492 -0.70591,-4.24409 -0.73106,-1.01522 -1.86836,-1.73189 -3.069,-2.01012 -0.36332,-4.0975 -2.494,-7.99965 -5.716169,-10.55426 -0.0029,0.18365 -0.0057,0.3673 -0.0086,0.55096 z m -11.651864,9.18546 c -0.118605,3.27283 0.783305,6.63719 2.858086,9.2113 -0.834839,2.98947 0.266598,6.41438 2.556781,8.47526 0.01333,0.71568 -0.03156,1.43416 0.03444,2.14786 1.839827,0.97013 3.664053,1.97017 5.432084,3.06901 -3.779167,-7.11333 -7.055265,-14.48315 -9.86556,-22.03394 -0.268431,-0.15449 -0.915233,-1.13329 -1.015826,-0.86949 z m 496.872132,1.4721 c -8.71501,8.723 -18.79462,16.0998 -29.74734,21.76707 -0.28415,2.02044 0.0688,4.19232 1.3817,5.80226 -1.98256,3.36549 -1.72113,7.79176 0.45626,10.99761 -2.81395,1.76487 -3.81622,5.72566 -2.22965,8.64312 0.37837,0.70645 0.86397,1.32451 1.47639,1.84226 8.55993,-4.86424 16.53107,-10.77038 23.75998,-17.42399 2.50845,-10.49329 4.2615,-21.18281 5.20828,-31.93395 -0.10188,0.10188 -0.20375,0.20375 -0.30562,0.30562 z m 9.82683,5.23408 c -1.24964,10.98356 -3.22279,21.89764 -5.94431,32.61402 1.41855,7.23191 3.50754,14.3225 6.20257,21.18168 3.52328,-2.75028 5.743,-7.27732 5.44069,-11.77669 -0.0955,-0.43236 -0.15859,-0.91675 0.37447,-1.04595 3.65941,-2.16221 5.85156,-6.83188 4.6487,-11.01912 2.40179,-1.55295 3.98294,-4.26752 4.27422,-7.08495 -1.01545,-1.52969 -2.34099,-2.88371 -3.40045,-4.40336 -4.40622,-5.85169 -8.1344,-12.18066 -11.57438,-18.64642 l -0.0163,0.13677 -0.005,0.044 z M 59.3686,503.1558 c -0.42169,5.20124 -0.41948,10.42316 -0.40891,15.6377 4.16427,7.0582 8.75894,13.87244 13.74808,20.35954 -1.15878,-8.37376 -1.1969,-16.90859 -1.02874,-25.32246 -0.7764,-0.63076 -1.69932,-1.06989 -2.66439,-1.36448 0.1731,-3.00886 -2.29364,-5.79285 -5.23839,-6.20256 -0.52761,-1.96212 -2.3522,-3.49648 -4.3646,-3.60273 -0.0143,0.165 -0.0287,0.33 -0.043,0.49499 z m -20.028118,9.13383 c 0.07039,3.37314 1.812085,6.65989 4.515259,8.65173 -0.803474,3.12186 0.473889,6.69336 3.318649,8.3246 -0.0626,2.01942 0.10679,4.11117 1.1923,5.86252 4.13705,1.03846 8.17509,2.43355 12.09522,4.11927 -5.09029,-7.07787 -9.80575,-14.43014 -13.89013,-22.13296 -2.359989,-1.68246 -4.666048,-3.51416 -7.231298,-4.82516 z m 35.764808,8.99608 c 0.003,7.89981 0.67666,15.79492 2.04456,23.57059 4.99386,6.30265 10.36922,12.26345 16.05521,17.92761 -1.85863,-10.50028 -2.51001,-21.19427 -2.21243,-31.85216 -0.7947,-0.46042 -1.73176,-0.67566 -2.65578,-0.65426 -0.40204,-2.72169 -3.08158,-5.06824 -5.86683,-4.76921 -0.63336,0.0538 -0.54816,-0.9178 -0.8996,-1.29993 -1.25539,-2.37108 -3.79481,-3.98954 -6.46513,-4.16229 0,0.41321 0,0.82643 0,1.23965 z m 246.68205,0.77478 c -3.1151,9.49826 -7.72814,18.51692 -13.55008,26.62668 1.63448,7.20588 7.33714,13.22779 14.37652,15.38804 2.23535,0.71849 4.59646,1.04536 6.95582,1.01152 1.23878,6.37733 6.60012,11.67661 12.93158,13.0233 5.23385,1.20054 10.94942,-0.23789 14.99931,-3.78188 3.0716,4.94116 8.71843,8.11422 14.53147,8.19548 11.18036,-15.55971 17.60119,-34.50259 18.04294,-53.70091 -0.0838,-0.42753 0.34288,-1.54929 -0.43817,-1.05467 -4.83134,1.44461 -10.1904,1.06225 -14.79834,-0.95987 -3.8248,4.57595 -9.93714,6.99612 -15.87872,6.49526 -4.98814,-0.30374 -9.80759,-2.67525 -13.02926,-6.49526 -7.35483,3.32679 -16.64417,2.05103 -22.6839,-3.35308 -0.50221,-0.43902 -1.00674,-0.93013 -1.45917,-1.39461 z m 200.63846,4.52817 c -8.02124,6.93026 -16.86506,12.91761 -26.28234,17.77695 0.0652,0.88355 0.22187,1.77601 0.7016,2.53956 -1.92582,1.71054 -2.50511,4.66491 -1.37079,6.97496 0.19325,0.4617 0.6189,0.90724 0.0709,1.28507 -1.77888,2.36037 -2.08933,5.77259 -0.87808,8.46236 7.25408,-4.08909 14.1505,-8.8341 20.46284,-14.28613 2.95927,-7.45422 5.46981,-15.07499 7.4121,-22.85607 l -0.10296,0.0915 -0.0132,0.0118 z m 8.21269,8.118 c -2.44604,8.4412 -5.38191,16.73254 -8.8153,24.82316 -0.1462,4.68071 0.21997,9.41896 1.48499,13.92887 3.27359,-1.62079 5.54725,-5.00252 5.94,-8.62591 2.96085,-1.45862 4.89789,-4.64284 4.87252,-7.94584 1.49032,-0.73742 2.66423,-2.01916 3.38323,-3.49513 -2.83153,-6.25006 -4.74715,-12.86152 -6.64591,-19.44702 -0.0732,0.25395 -0.14637,0.50792 -0.21953,0.76187 z M 96.3085,537.24622 c -0.66196,0.0289 -1.31065,0.21839 -1.93266,0.43044 0.0701,9.85488 1.11401,19.71551 3.33157,29.31259 7.75282,7.51729 16.16358,14.35139 25.02977,20.51451 -3.33229,-12.06407 -4.58004,-24.67276 -4.14939,-37.1465 -1.41964,-1.21494 -3.33708,-2.16624 -5.22548,-1.83796 -0.63573,0.39004 -0.74441,-0.50033 -1.11052,-0.87378 -1.98462,-2.82313 -5.54186,-4.51473 -8.98747,-4.09774 -0.5423,-0.0573 -0.23663,-0.91387 -0.47348,-1.33864 -0.66888,-2.87557 -3.46591,-5.16243 -6.48234,-4.96292 z m -44.16689,2.6687 c -0.21006,3.60958 1.52317,7.27726 4.4636,9.35764 0.2648,0.78035 0.0726,1.68586 0.34435,2.47501 0.50305,2.37309 2.00303,4.54303 4.13217,5.74198 -0.0341,1.65425 0.42352,3.32118 1.40322,4.66591 6.77632,0.68702 13.49976,2.00665 20.02812,3.94278 -6.23683,-6.52769 -12.08537,-13.41885 -17.53591,-20.62211 -4.04197,-2.3602 -8.37841,-4.18866 -12.83125,-5.61718 l -0.004,0.056 z m 345.89721,6.49095 c -1.63379,8.91271 -4.54833,17.57532 -8.49678,25.72708 3.80211,27.50141 15.48417,53.77922 33.17912,75.11835 0.71032,0.76473 1.33034,1.7904 2.12512,2.36846 8.40775,-0.79811 16.07516,-6.12246 20.04535,-13.54145 1.14046,-2.0942 1.983,-4.32464 2.53525,-6.64162 7.21966,-2.11676 13.19895,-7.89561 15.49134,-15.08242 0.76041,-2.40837 1.23382,-4.95387 1.089,-7.48095 -0.16227,-0.72207 0.91391,-0.87542 1.27053,-1.35052 7.79286,-5.98343 12.28646,-16.20383 10.90057,-26.01415 -0.11905,-0.88175 -0.26926,-1.7591 -0.41593,-2.63662 -28.06232,-3.00391 -55.16628,-13.84227 -77.65039,-30.87507 -0.0244,0.1363 -0.0488,0.2726 -0.0732,0.40891 z m -92.48747,5.97443 c -2.39508,3.16524 -5.08672,6.09713 -8.03622,8.75504 -0.73991,-0.64799 -1.48693,-1.28786 -2.22965,-1.93265 -3.12491,1.34762 -5.53251,4.03218 -6.94721,7.08925 -2.58812,-1.01669 -5.47148,-1.7246 -8.20409,-0.83074 -2.1497,0.64562 -4.1079,1.98014 -5.31156,3.89544 3.85421,18.27971 14.83149,34.92291 30.11893,45.64262 2.42059,1.71552 4.95355,3.27224 7.56562,4.6924 10.17902,-2.70101 20.14563,-6.22297 29.73523,-10.58613 10.27257,-6.03248 19.32021,-13.99658 26.59574,-23.39238 -4.57746,-0.75518 -8.85215,-3.08798 -12.03064,-6.44361 -7.31191,4.46359 -17.43395,3.62733 -23.92139,-1.96102 -2.75104,-2.29468 -4.8667,-5.39244 -6.00242,-8.79984 -8.21728,-0.62662 -15.93477,-5.65904 -19.74404,-12.96899 -0.57442,-1.06815 -1.05577,-2.17911 -1.46778,-3.32296 l -0.0817,0.1109 -0.0388,0.0527 z m -181.43678,2.66009 c -0.72341,0.0495 -1.42557,0.2063 -2.10483,0.44335 0.014,11.89349 1.7808,23.77346 5.148,35.16219 10.30765,6.82561 21.21399,12.94261 32.50211,17.88886 -6.24213,-13.97104 -9.91151,-29.08445 -10.79099,-44.36489 -2.22465,-1.47603 -5.11439,-1.93106 -7.61439,-0.95126 -0.49421,0.18402 -1.07112,0.52734 -1.07178,-0.24965 -1.14401,-3.6517 -5.5729,-5.92434 -9.15965,-4.39043 -0.65144,0.54781 -0.8057,-0.29669 -1.16217,-0.72744 -1.30435,-1.80547 -3.50699,-2.94164 -5.7463,-2.81073 z m 387.7957,1.41612 c -6.56735,4.95416 -13.57057,9.35127 -20.9062,13.08091 0.0386,1.0062 -0.13586,2.07737 0.30562,3.02165 -2.47444,1.13974 -3.69178,4.10172 -3.13357,6.69756 0.0643,0.4891 0.37231,1.02672 -0.12483,1.35587 -1.09803,1.43112 -1.40907,3.51068 -0.62843,5.1394 4.90541,-2.24173 9.67947,-4.78409 14.23877,-7.67895 3.98886,-7.12511 7.59682,-14.46164 10.74795,-21.99522 -0.16643,0.12626 -0.33286,0.25253 -0.49931,0.37878 z m -445.58585,9.80531 c 0.66972,4.73313 3.89215,9.00154 8.24713,10.95026 -0.0796,4.30035 2.72602,8.47603 6.80093,9.89178 0.79166,0.10817 0.36664,1.12667 0.64989,1.6783 0.49771,2.31246 1.91021,4.37173 3.77922,5.7506 9.00483,-1.55814 18.20053,-2.09659 27.32829,-1.52805 -8.96263,-6.5854 -17.4459,-13.83011 -25.37412,-21.62933 -6.95964,-2.43102 -14.14775,-4.14918 -21.44425,-5.21686 l 0.0129,0.1033 z m 452.12846,0.85656 c -3.54327,7.72905 -7.57101,15.22281 -11.96177,22.50312 -0.39728,2.83399 -0.53369,5.78581 -0.50791,8.613 2.88986,-1.73613 4.76618,-4.90483 5.18243,-8.22561 3.14728,-0.68871 5.47696,-3.77765 5.39765,-6.97304 1.87661,-0.75951 3.49867,-2.15777 4.51095,-3.92127 -1.20363,-4.06191 -2.10823,-8.2423 -2.40182,-12.47829 -0.0732,0.1607 -0.14635,0.32139 -0.21953,0.48209 z m -364.62541,0.056 c -0.40932,0.12136 -1.316,-0.15214 -1.06317,0.52943 1.18895,14.92102 5.17678,29.60653 11.72073,43.05636 11.49053,4.88377 23.39784,8.74315 35.5582,11.57871 -9.21215,-14.37288 -14.22291,-31.42119 -14.23877,-48.50999 -2.53622,-1.4934 -5.75128,-1.83737 -8.44514,-0.54234 -0.60475,0.45781 -0.86788,-0.49903 -1.33456,-0.77993 -3.08371,-3.04033 -7.8674,-4.30972 -11.9848,-2.82714 -0.57263,0.0777 -1.18656,0.63155 -1.6985,0.49502 -2.38294,-1.94528 -5.42752,-3.06973 -8.51399,-3.00012 z m 115.70512,1.76908 c -3.66199,0.0863 -7.18168,1.65235 -9.92584,4.0504 -5.25667,-2.65407 -12.07382,-1.60137 -16.29194,2.52233 -0.36858,0.43199 -0.72035,0.84485 -1.24826,0.40031 -3.89052,-1.7043 -8.58368,-0.71036 -11.80681,1.8896 0.13595,17.1828 6.40526,34.16082 17.43273,47.31818 0.95753,1.15254 1.94324,2.27173 2.97416,3.3655 19.14628,0.11854 38.3119,-2.15026 56.8561,-6.89556 -15.28449,-9.1357 -27.29436,-23.65242 -33.16068,-40.48668 -1.39979,-3.89388 -2.39134,-7.9872 -3.17659,-12.00912 -0.54139,-0.13505 -1.0934,-0.17767 -1.65287,-0.15496 z m -60.35124,5.77214 c -2.53162,0.0584 -4.99876,1.00866 -7.00316,2.53095 -3.39984,-2.41879 -7.98078,-3.10542 -11.88431,-1.64857 -0.6183,0.1584 -1.23582,0.36523 -0.95822,1.12761 0.59966,16.66766 6.09753,33.09579 15.70921,46.7281 13.39365,2.98419 27.09316,4.63642 40.82241,4.90696 -11.27561,-13.0282 -18.01883,-29.84395 -19.01229,-47.05942 -0.1203,-1.68272 -0.12629,-3.39868 -0.17217,-5.06621 -2.56922,-1.51951 -5.82168,-1.89148 -8.58163,-0.65046 -0.76534,0.33171 -1.48675,0.77747 -2.13188,1.31333 -1.987,-1.36748 -4.35184,-2.24643 -6.78796,-2.18229 z m 177.46817,3.06469 c -5.75844,10.59649 -13.42669,20.1173 -22.43855,28.11167 -8.42866,21.9331 -10.67374,46.19281 -6.75058,69.35804 0.48321,2.73327 1.03591,5.44403 1.68867,8.1374 5.82764,3.30998 13.49516,3.16943 19.14142,-0.51652 2.50423,-1.59485 4.60997,-3.77664 6.12078,-6.32739 6.87662,1.38435 14.36114,-0.91434 19.1823,-6.02609 1.60893,-1.66957 2.9106,-3.60121 3.86748,-5.71186 7.01429,-0.53504 13.47454,-5.47765 15.72806,-12.18129 -0.0821,-0.5821 -0.83687,-1.023 -1.18369,-1.54956 -18.21491,-20.66488 -30.58611,-46.42975 -35.18372,-73.61294 -0.0574,0.10619 -0.11478,0.21236 -0.17217,0.31854 z m 111.41798,6.4479 c -4.73988,2.70489 -9.66891,5.08507 -14.70365,7.20117 -0.21754,1.24179 -0.24395,2.60897 0.17649,3.82657 -2.41023,0.47399 -4.05058,2.98754 -3.71655,5.38888 0.01,0.49463 0.30727,1.04051 -0.33385,1.24411 -3.1141,2.38024 -5.25834,6.08964 -5.72476,9.92151 2.40862,-1.3259 4.94711,-2.42478 7.5498,-3.31433 6.1262,-7.68967 11.7753,-15.83182 16.75252,-24.26791 z m 4.07192,12.30613 c -4.26585,6.63852 -8.86647,13.0688 -13.87291,19.16724 -0.076,0.52421 -0.759,1.84969 0.19614,1.05563 2.65466,-1.52688 4.73959,-3.93227 6.01504,-6.71584 3.0395,-0.83782 5.57012,-3.45718 6.08633,-6.58994 0.74409,-0.23381 1.38532,-0.70049 1.96709,-1.20522 -0.0929,-2.0791 -0.0419,-4.16096 -0.0516,-6.24131 -0.11335,0.17648 -0.22669,0.35297 -0.34004,0.52944 z m -396.77889,-0.24966 c -5.03461,0.0486 -10.07085,0.48255 -15.05229,1.14066 -0.23874,4.24099 2.4687,8.51095 6.5383,9.87416 0.52297,0.27736 1.32717,0.21721 1.69958,0.56586 0.87868,5.54566 5.41661,10.2854 10.93495,11.36007 0.89029,-0.0814 0.68671,1.0127 1.06911,1.55693 0.83111,1.93678 2.35629,3.57341 4.24118,4.50071 11.71144,-4.65609 23.96907,-7.94121 36.47932,-9.52121 -11.33512,-5.33252 -22.19421,-11.67413 -32.46767,-18.84444 -4.46607,-0.43972 -8.95398,-0.68005 -13.44248,-0.63274 z m 253.54749,14.03217 c -4.08343,3.15821 -8.32315,6.09816 -12.87333,8.56086 -10.77355,4.80124 -21.95753,8.64187 -33.35105,11.66525 -15.23582,17.09594 -26.14078,37.98649 -31.35715,60.3082 7.82442,4.53744 17.80801,5.27695 26.21345,1.84226 6.91996,3.59194 15.4215,3.89199 22.68718,1.15888 0.90996,-0.3015 1.78627,-0.85794 2.66112,-1.12015 6.81034,2.12869 14.61155,0.59637 20.10496,-3.93486 1.10128,-0.89324 2.12516,-1.90941 3.0266,-2.99943 -5.28549,-21.51385 -5.23974,-44.34873 0.1203,-65.84357 0.79443,-3.25826 1.76974,-6.40724 2.76792,-9.63744 z m -202.05029,8.29447 c -12.74248,1.19174 -25.32104,4.10238 -37.31007,8.55274 2.02606,6.23454 7.52859,11.14984 13.97621,12.43956 2.88468,5.58373 8.57161,9.61767 14.84138,10.35625 2.48377,4.55652 7.63447,7.40454 12.80973,7.30017 1.24919,-1.04407 2.42219,-2.35909 3.67511,-3.46776 9.40168,-8.77939 20.03448,-16.27037 31.56887,-21.98814 -13.37302,-3.22859 -26.44721,-7.66114 -39.02318,-13.24447 -0.17935,0.0172 -0.3587,0.0344 -0.53805,0.0516 z m 149.89453,13.39512 c -18.89596,4.58959 -38.37591,6.67904 -57.82029,6.46514 -13.918,10.59496 -25.36427,24.51403 -32.8852,40.34463 4.013,5.04192 10.51064,7.88841 16.95048,7.52016 1.39009,-0.0479 2.76697,-0.21952 4.11069,-0.59017 5.38599,4.02338 12.32466,5.6102 18.97695,4.75766 0.66189,-0.12245 1.31612,-0.22093 1.87762,0.2526 5.94009,2.98949 13.16768,3.38571 19.39107,1.08039 0.4273,-0.81673 0.47379,-1.9683 0.77209,-2.91988 4.93081,-20.87088 14.84333,-40.52536 28.65241,-56.91483 l -0.0258,0.004 z m -105.49951,1.19227 c -12.93749,6.13847 -24.86927,14.39831 -35.22247,24.26361 2.59113,5.52523 8.41952,9.33821 14.52287,9.45234 3.84805,4.66211 9.91249,7.28385 15.93899,7.19686 0.46293,0.18168 0.29661,0.63727 0.80061,0.90821 3.80003,3.74211 9.50603,5.23593 14.70364,4.17952 7.16493,-15.81436 18.13236,-29.84554 31.51211,-40.87407 -14.03437,-0.49954 -28.0294,-2.25645 -41.71772,-5.38042 -0.17933,0.0846 -0.35868,0.1693 -0.53803,0.25395 z"
       id="path1688"
       style="fill:#000000;stroke:none" /></g></svg>