<?xml version="1.0" encoding="UTF-8" standalone="no"?>
<svg xmlns="http://www.w3.org/2000/svg" height="623.622px" width="623.622px">
	<rect
     id="rect2864"
     height="566.931"
     width="566.929"
     fill="#E93628"
     y="28.346"
     x="28.346" />
	 <path
     id="path2866"
     d="M516.012,96.657c-18.744-15.355-36.02-23.485-51.602-24.502c-17.275,10.275-41.551,17.615-72.828,21.905  c-26.15,0-186.445,31.32-234.856-19.195c-23.598,13.211-43.245,27.776-58.488,43.697c-23.147,19.195-22.13,45.955,3.049,80.506  c38.795,53.753,105.713,25.315,168.803,3.952c101.912-34.801,159.494,29.97,206.176,20.324c13.664-2.823,31.955-19.195,54.65-49.117  C537.799,146.104,538.578,114.662,516.012,96.657z"
     fill="#FFFFFF" />
	 <path
     id="path2868"
     d="M502.123,451.651c-11.305-42.508-54.092-67.642-96.99-56.004c-41.154,10.727-67.896,53.163-56.004,96.991  c11.27,42.373,54.537,67.522,96.99,56.004C489.135,536.975,513.602,493.965,502.123,451.651z"
     fill="#FFFFFF" />
	 <path
     id="path2870"
     d="M370.242,248.411c-31.289-31.289-81.041-31.421-112.234,0c-30.862,30.414-31.412,80.823,0,112.009  c31.091,31.317,81.13,31.102,112.234,0C401.609,328.82,400.967,279.135,370.242,248.411z"
     fill="#FFFFFF" />
	 <path
     id="path2872"
     d="M289.511,432.456c-22.04-38.172-70.418-50.881-108.283-29.018c-37.436,21.614-51.465,69.403-29.019,108.283  c21.427,37.106,69.215,51.644,108.17,29.018C298.73,518.598,311.162,470.518,289.511,432.456z"
     fill="#FFFFFF" />
	 </svg>