<?xml version="1.0" encoding="UTF-8"?>
<!DOCTYPE svg  PUBLIC '-//W3C//DTD SVG 20010904//EN'  'http://www.w3.org/TR/2001/REC-SVG-20010904/DTD/svg10.dtd'>
<svg width="917pt" height="917pt" version="1.0" viewBox="0 0 917 917" xmlns="http://www.w3.org/2000/svg">
 <rect width="917pt" height="917pt"/>
 <g transform="translate(0 917) scale(.1 -.1)" fill="#fff">
  <path d="m4275 8979c-285-28-415-47-600-85-1345-283-2486-1193-3065-2444-280-604-405-1180-404-1860 2-695 149-1311 465-1941 558-1115 1576-1942 2791-2268 619-166 1342-187 1993-56 635 128 1231 398 1770 803 182 136 384 325 615 574 503 541 889 1317 1034 2073 57 300 93 732 81 980-25 531-130 1020-323 1510-147 370-445 862-716 1179-158 186-474 486-671 639-49 38-160 116-245 172-632 420-1278 644-2074 720-168 16-512 18-651 4zm690-900c557-60 1135-276 1593-596 427-297 818-722 1044-1133 244-444 375-832 435-1288 22-169 25-684 5-857-76-661-339-1276-769-1804-111-136-348-373-484-484-454-370-966-612-1539-727-242-48-327-55-695-55-309 1-352 3-475 24-679 116-1179 334-1675 730-158 126-425 394-555 556-331 414-558 887-674 1406-68 305-71 331-71 749 0 396 3 437 46 660 92 470 254 870 513 1265 601 914 1593 1494 2686 1569 89 6 517-4 615-15z"/>
  <path d="m4237 7915c-218-41-442-157-652-336-111-94-272-260-258-266 6-2 60-43 119-91 183-148 319-327 369-485 23-72 26-103 36-399 15-445 6-1804-15-2173-15-271-20-342-33-434l-6-44-511 6c-633 7-812 23-1084 92-164 41-258 80-335 139l-46 35-35-39c-73-81-158-291-177-437-27-219 33-565 125-706 92-143 292-281 468-322 156-36 429-29 788 19 377 51 750 74 1335 82 567 9 1065-8 1730-57 787-58 1026-29 1202 147 164 165 243 365 228 578-19 259-129 459-324 589-154 104-248 128-531 134l-215 5-55-42c-75-57-276-154-385-185-105-31-285-44-616-45h-207l-6 33c-7 40-24 446-28 660l-3 158 80 55c44 31 152 91 240 134 281 138 547 234 972 350 401 110 460 135 548 231 102 111 118 171 113 438l-3 198-42 84c-120 241-407 474-780 633l-81 34-46-58c-68-89-241-281-357-401-120-121-251-213-372-259-93-36-231-60-248-43-12 12-2 119 33 317 24 140 33 166 103 271 64 98 107 182 136 266 31 92 31 278 0 364-30 85-133 252-208 336-164 187-412 352-628 419-92 28-235 34-338 15z"/>
 </g>
</svg>
