<?xml version="1.0" encoding="UTF-8" standalone="no"?>
<!-- Created with Inkscape (http://www.inkscape.org/) -->
<svg
   xmlns:dc="http://purl.org/dc/elements/1.1/"
   xmlns:cc="http://web.resource.org/cc/"
   xmlns:rdf="http://www.w3.org/1999/02/22-rdf-syntax-ns#"
   xmlns:svg="http://www.w3.org/2000/svg"
   xmlns="http://www.w3.org/2000/svg"
   xmlns:sodipodi="http://sodipodi.sourceforge.net/DTD/sodipodi-0.dtd"
   xmlns:inkscape="http://www.inkscape.org/namespaces/inkscape"
   id="svg2211"
   sodipodi:version="0.32"
   inkscape:version="0.45.1"
   width="241"
   height="226"
   version="1.0"
   sodipodi:docbase="C:\Documents and Settings\PC User\My Documents\My Pictures"
   sodipodi:docname="Mon_ogasawara.svg"
   inkscape:output_extension="org.inkscape.output.svg.inkscape">
  <metadata
     id="metadata2216">
    <rdf:RDF>
      <cc:Work
         rdf:about="">
        <dc:format>image/svg+xml</dc:format>
        <dc:type
           rdf:resource="http://purl.org/dc/dcmitype/StillImage" />
      </cc:Work>
    </rdf:RDF>
  </metadata>
  <defs
     id="defs2214" />
  <sodipodi:namedview
     inkscape:window-height="712"
     inkscape:window-width="1024"
     inkscape:pageshadow="2"
     inkscape:pageopacity="0.0"
     guidetolerance="10.0"
     gridtolerance="10.0"
     objecttolerance="10.0"
     borderopacity="1.0"
     bordercolor="#666666"
     pagecolor="#ffffff"
     id="base"
     inkscape:zoom="1.7433628"
     inkscape:cx="120.5"
     inkscape:cy="113"
     inkscape:window-x="-4"
     inkscape:window-y="-4"
     inkscape:current-layer="svg2211" />
  <path
     style="fill:#000000"
     d="M 174.72389,183.29361 C 204.42389,163.02014 228.86914,145.71635 229.04666,144.84075 C 229.24086,143.88287 228.36165,142.8656 226.83937,142.28682 C 224.63389,141.4483 186.17259,116.31606 183.85534,114.19924 C 183.37764,113.76286 187.99014,109.44897 194.10534,104.61282 C 200.22054,99.776674 205.22389,95.272979 205.22389,94.604612 C 205.22389,93.936245 203.9618,92.759784 202.41924,91.990254 C 199.71062,90.639016 165.22389,66.450222 165.22389,65.901649 C 165.22389,65.752882 169.49889,62.069668 174.72389,57.716729 C 179.94889,53.363789 184.22389,49.215296 184.22389,48.497854 C 184.22389,47.780412 183.21139,46.807464 181.97389,46.335747 C 179.15506,45.261249 124.4673,9.723179 121.65945,7.1412559 C 120.524,6.0971692 119.33783,5.2429164 119.02351,5.2429164 C 117.53658,5.2429164 119.20507,56.44712 118.91416,57.74194 C 118.43577,59.871272 108.04173,68.406999 116.85832,74.620234 C 121.17182,77.660047 122.65971,84.627327 74.218132,67.061793 C 73.865942,66.934084 99.057592,85.623487 88.060772,92.755014 C 77.063942,99.886542 75.523392,106.21486 75.523392,106.81793 C 75.523392,108.32604 59.397592,90.625549 69.739532,98.340259 L 72.222162,122.1071 L 71.797912,136.62986 C 69.987152,137.99225 75.420732,135.19422 66.345732,141.62915 C 57.270732,148.06408 81.074072,139.39706 81.623012,139.35513 C 112.40813,137.004 65.778282,133.51371 66.463602,134.33948 C 68.721372,137.05991 117.99851,220.24392 119.37648,220.19869 C 120.11756,220.17437 145.0239,203.56708 174.72389,183.29361 z "
     id="path2224"
     sodipodi:nodetypes="cssssssssssssssssscccssssc" />
  <path
     style="fill:#000000"
     d="M 63.158252,183.5728 C 33.458252,163.29933 9.013002,145.99554 8.835482,145.11994 C 8.641282,144.16206 9.520492,143.14479 11.042772,142.56601 C 13.248252,141.72749 51.709552,116.59525 54.026802,114.47843 C 54.504502,114.04205 49.892002,109.72816 43.776802,104.89201 C 37.661602,100.05586 32.658252,95.552171 32.658252,94.883801 C 32.658252,94.215431 33.920342,93.038971 35.462902,92.269441 C 38.171522,90.918201 72.658252,66.729411 72.658252,66.180838 C 72.658252,66.032071 68.383252,62.348857 63.158252,57.995918 C 57.933252,53.642978 53.658252,49.494485 53.658252,48.777043 C 53.658252,48.059601 54.670752,47.086653 55.908252,46.614936 C 58.727082,45.540438 113.41484,10.002367 116.22269,7.420444 C 117.35814,6.376358 118.54431,5.522105 118.85863,5.522105 C 120.34556,5.522105 118.67707,56.726309 118.96798,58.021129 C 119.44637,60.150461 129.84041,68.686188 121.02382,74.899421 C 116.71032,77.939231 115.22243,84.906511 163.66401,67.340982 C 164.0162,67.213273 138.82455,85.902671 149.82137,93.034201 C 160.8182,100.16573 162.35875,106.49405 162.35875,107.09712 C 162.35875,108.60523 178.48455,90.904741 168.14261,98.619451 L 165.65998,122.38629 L 166.08423,136.90905 C 167.89499,138.27144 162.46141,135.47341 171.53641,141.90834 C 180.61141,148.34327 156.80807,139.67625 156.25913,139.63432 C 125.47401,137.28319 172.10386,133.7929 171.41854,134.61867 C 169.16077,137.3391 119.88363,220.52311 118.50566,220.47788 C 117.76458,220.45356 92.858242,203.84627 63.158252,183.5728 z "
     id="path2226"
     sodipodi:nodetypes="cssssssssssssssssscccssssc" />
</svg>
