<?xml version="1.0" encoding="UTF-8" standalone="no"?>
<svg xmlns="http://www.w3.org/2000/svg" width="688" height="688">
  <path d="M0 0h688v688H0z"/>
  <path fill="#fff" d="M424.54342 347.50688c3.96626-2.29615 12.66631-4.55107 19.6221-5.08573l7.00146-.53818 2.7534-5.46751c9.47628-18.81739 28.24611-32.52157 48.31-35.272 2.39276-.32801 4.35048-.75524 4.35048-.94942 0-1.16756-4.48007-7.94803-9.1695-12.26177-28.01576-25.77126-48.77113-21.71904-58.4802-20.43326l-7.14567.94631-5.71321-3.0494c-11.80758-6.30224-27.98789-10.86406-42.94018-12.71505-8.5304-1.05601-33.95707-1.13136-35.57764-.10543-.95222.60282-1.07376 2.84546-.66172 12.21005.83392 18.95298 5.2853 36.46269 13.36523 52.57278l4.20752 8.38912 9.5296.18401c17.09713.33013 29.51684 5.26918 40.84749 16.24418 3.74029 3.62288 6.98697 6.57436 7.21485 6.55884.22788-.0155 1.34658-.56791 2.48599-1.22754zM289.79361 621.1127c-7.71804-1.50784-14.1104-4.00782-20.02859-7.83293-7.5491-4.87922-10.58734-7.89637-20.97399-20.8284-27.62454-34.3943-53.15721-72.13721-74.55717-110.21192-17.83142-31.72561-32.35393-54.39453-50.43258-78.72279-14.42829-19.416-23.67287-30.57253-48.051978-57.98997l-3.56442-4.00865 4.80741-1.86683c5.86929-2.27919 19.11644-3.10099 26.218968-1.62652 7.16465 1.48738 15.9851 6.29882 21.65475 11.81239l4.99395 4.85647 6.216-2.89944c8.00036-3.73174 12.84966-4.81414 21.54622-4.8093 18.31991.0102 34.67118 9.82387 42.26633 25.36727 3.83925 7.85698 4.94905 13.79945 4.96906 26.60694.0284 18.20213 4.17846 44.5374 10.37511 65.83823 13.34131 45.8605 37.38205 86.7529 71.02902 120.81766 5.51463 5.58311 10.25922 10.1511 10.54352 10.1511.28431 0 .96012-1.65703 1.50179-3.6823 2.63718-9.86013 13.82145-15.65526 24.32227-12.60258 14.27099 4.14868 19.70703 19.78936 10.7907 31.04715-6.71787 8.482-27.98157 13.6409-43.62637 10.58442zm91.15271.63298c-5.7006-.91364-12.75161-3.06433-17.60018-5.36839-6.16625-2.93023-10.35317-7.87887-11.81233-13.96133-3.74839-15.62505 14.8797-29.19131 29.70078-21.63016 4.35941 2.22401 8.24823 6.8837 9.42886 11.29791.54167 2.02527 1.21479 3.6823 1.49581 3.6823.87446 0 19.42929-19.12911 25.31918-26.10282 30.94838-36.64333 53.46752-83.48582 61.99809-128.96347 3.12884-16.68042 3.81514-22.79849 4.58919-40.91204.57633-13.48506 1.04163-17.55935 2.49717-21.86552 2.39591-7.08812 6.19979-12.82243 12.15579-18.32454 9.25333-8.54811 19.94165-12.69025 32.62961-12.64516 8.71983.031 13.56882 1.12061 21.54618 4.84165l6.21603 2.89944 4.97089-4.80153c5.64385-5.45144 12.79411-9.54301 19.92134-11.39941 9.00788-2.34627 23.98112-1.23193 30.69187 2.28417 2.01422 1.0554 2.00768 1.06621-5.96296 9.73154-34.58798 37.60247-64.73641 79.66797-92.33331 128.83082-10.16328 18.10546-20.38622 34.84409-31.88389 52.20564-21.41954 32.34346-50.74667 70.55859-59.64909 77.72656-5.75364 4.63268-14.42633 9.03732-21.54519 10.94227-5.09844 1.3643-17.9358 2.24335-22.37384 1.53207z"/>
  <path fill="#fff" d="M289.63135 583.0795c-30.42313-31.28516-53.54115-69.0805-66.93085-109.4244-8.26634-24.90689-12.52495-48.38585-13.69867-75.52474-.72085-16.66751-1.35768-20.61536-4.23876-26.27697-.8605-1.69096-1.56454-3.68725-1.56454-4.4362 0-2.52006 10.85496-12.39487 17.06027-15.51981 5.96034-3.00158 15.98738-5.56985 21.6447-5.54395 5.5481.0254 14.57818 2.36868 20.65987 5.36117 3.25391 1.60108 6.07695 2.91106 6.27342 2.91106.19648 0 2.26561-2.38147 4.59809-5.29215 10.05952-12.55322 28.65972-20.41583 45.47365-19.22246 6.58298.46722 15.82837 2.8038 20.40025 5.15573l2.28152 1.17368-6.42482 5.68292c-16.22506 14.3515-31.54616 34.28471-41.87351 54.47868-28.24595 55.23178-26.5945 119.41025 4.45695 173.20499l5.03099 8.71587-1.8148 1.27114c-.99814.69912-2.83419 2.87853-4.08011 4.84314l-2.26529 3.572zm103.72274 3.50147c-.30569-.96314-2.03724-3.2326-3.84788-5.04324l-3.29209-3.29209 3.28335-5.53421c13.57787-22.88615 22.00035-47.30744 25.0577-72.65577 1.26224-10.46528 1.2647-32.51096.005-42.26171-5.71221-44.20495-27.61928-86.06123-60.30514-115.22072l-6.87449-6.13281 2.28147-1.17929c10.63666-5.49812 28.23392-6.68663 40.41735-2.72977 10.66651 3.46419 18.80808 9.04957 26.58142 18.23568l3.39638 4.01365 4.45727-2.25866c11.25203-5.70184 20.59625-7.18421 31.43811-4.98737 8.71055 1.76499 16.73119 5.80152 22.92865 11.53927 6.9095 6.39699 7.53937 7.81853 5.44252 12.28359-3.03571 6.46431-3.62489 10.0236-4.36359 26.35851-1.16749 25.81678-4.75408 47.21524-11.71913 69.91901-9.72049 31.68563-28.00579 66.41125-48.50837 92.12231-6.24518 7.8317-23.41028 27.08398-25.05288 28.09917-.42325.26158-1.01966-.31242-1.32535-1.27555zm93.16107-226.03488c-4.36315-6.36755-15.9991-13.85029-25.30844-16.27506-2.57884-.6717-4.83478-1.36726-5.0132-1.54569-.49093-.49092 2.29332-6.27422 5.04226-10.47353 10.99262-16.79247 30.17627-27.29458 49.92525-27.33161l7.57288-.0142.57004-3.03855c.75002-3.99791 4.94329-14.49124 7.69967-19.26776 13.97752-24.22167 40.02938-39.8433 66.44568-39.8433h6.43497l1.02489 6.00779c2.76748 16.22364 3.48087 24.20344 3.87059 43.29754.2926 14.33298.084 23.78062-.67685 30.66046l-1.0998 9.94393-9.10309.48588c-13.3358.71181-21.24339 3.65436-30.90541 11.50047l-5.22901 4.24632-5.12925-2.0358c-8.34238-3.31114-12.1287-4.05625-20.87372-4.1078-14.97747-.0883-27.16044 4.72376-37.41123 14.77668l-5.92202 5.80778-1.91421-2.79358zm-292.43712-3.33778c-9.32706-9.48527-21.80494-14.43594-36.45586-14.46409-8.8376-.017-14.70558 1.1461-21.8535 4.33156l-4.86594 2.16849-3.00634-2.84233c-9.07242-8.57748-18.67761-12.44463-32.513728-13.09036l-9.61955-.44895-1.06999-12.29113c-1.86542-21.42814-.52606-49.98511 3.4024-72.544l.91792-5.27108h6.39202c33.488198 0 65.608288 25.31695 73.856458 58.21344l.98691 3.93614 7.56673.0142c9.51992.0179 17.72663 2.07733 27.03582 6.78463 9.44642 4.77668 20.63022 15.66699 25.20549 24.54403 1.72031 3.33779 2.99987 6.18209 2.84348 6.32067-.1564.13858-2.52175.89041-5.25633 1.67073-8.31423 2.3725-16.06806 6.95144-22.12668 13.06666-3.05441 3.08294-5.66469 5.55562-5.80063 5.49485-.13594-.0607-2.67335-2.57783-5.63868-5.59346z"/>
  <path fill="#fff" d="M264.51944 347.56697c-3.96626-2.29615-12.66631-4.55107-19.6221-5.08573l-7.00146-.53818-2.7534-5.46751c-9.47628-18.81739-28.24611-32.52157-48.31-35.272-2.39276-.32801-4.35048-.75524-4.35048-.94942 0-1.16756 4.48007-7.94803 9.1695-12.26177 28.01576-25.77126 48.77113-21.71904 58.4802-20.43326l7.14567.94631 5.71321-3.0494c11.80758-6.30224 27.98789-10.86406 42.94018-12.71505 8.5304-1.05601 33.95707-1.13136 35.57764-.10543.95222.60282 1.07376 2.84546.66172 12.21005-.83392 18.95298-5.2853 36.46269-13.36523 52.57278l-4.20752 8.38912-9.5296.18401c-17.09713.33013-29.51684 5.26918-40.84749 16.24418-3.74029 3.62288-6.98697 6.57436-7.21485 6.55884-.22788-.0155-1.34658-.56791-2.48599-1.22754z"/>
  <path fill="#fff" d="M172.62086 296.62998c-1.37244-5.35502-6.55627-16.03946-10.96354-22.59707-9.78514-14.55936-28.80489-28.24477-45.24212-32.55334-3.0868-.80913-5.86048-1.69186-6.16372-1.96163-.79772-.70967.76375-14.87033 2.70398-24.52166 3.1801-15.81891 10.45735-34.77286 18.79525-48.95309 5.81772-9.89417 4.52688-9.42269 13.50365-4.93219 19.19006 9.59952 36.34008 26.5387 45.23861 44.68245 1.56783 3.19675 2.98308 4.8791 4.70417 5.592 5.03085 2.08384 14.38715 8.86417 18.22985 13.21079 8.28521 9.37175 13.23658 20.24227 14.47198 31.77256l.66302 6.18816-4.18796.99844c-18.09541 4.31409-34.86988 16.73172-45.50434 33.68548-3.03959 4.84579-4.89685 4.66421-6.24883-.6109zm335.63331-1.59247c-6.84582-10.72715-19.95449-22.10226-31.10526-26.99176-4.43101-1.94296-7.803-3.08063-13.37696-4.51324l-3.3551-.86233.57902-6.02073c1.7952-18.66643 13.76393-35.87183 30.74847-44.20184 4.08986-2.00583 4.73712-2.73472 7.93261-8.93295 9.17112-17.78911 26.38125-34.18471 45.31334-43.16877 3.40927-1.61786 6.35947-2.94155 6.55595-2.94155.72466 0 9.74364 15.77811 12.6215 22.08055 8.09767 17.73356 13.81129 39.50772 14.51052 55.29875l.2157 4.87147-6.81102 1.96634c-18.02221 5.20303-34.53834 17.24683-45.01212 32.82357-5.18518 7.71145-7.16112 11.69295-10.18225 20.51704-2.53579 7.40646-3.94799 7.4188-8.6344.0754z"/>
  <path fill="#fff" d="M429.9353 260.65939c-12.73188-6.21646-36.72252-11.69244-56.83275-12.97234-7.50441-.47762-13.72851-.95252-13.83132-1.05534-.10281-.10281-1.31949-4.65256-2.70374-10.11056-5.29179-20.86529-8.5035-42.72069-9.64762-65.65107l-.54784-10.97976 4.02856-.1468c2.21572-.0807 6.45241-.0577 9.41487.0511 21.00711.77213 42.85023 10.40065 57.37203 25.28981l4.92732 5.05196 7.25466.12636c14.44527.25161 25.66883 4.99155 35.77452 15.10836 3.46695 3.47076 7.05336 7.77859 7.96981 9.57297l1.66626 3.26249-4.39862 5.33266c-7.84057 9.50549-12.58853 20.88059-14.03523 33.62553l-.55382 4.8788-5.51958-.40377c-3.03578-.22207-8.12988-.18012-11.32022.0932l-5.53807.9339-3.47922-2.00752zm-197.34994-3.71232c-1.42136-12.30753-6.41974-24.29419-13.88676-33.302l-4.5082-5.43844 1.66627-3.2625c.91645-1.79437 4.50286-6.10221 7.9698-9.57297 10.05879-10.06984 21.28604-14.8348 35.64224-15.12693l7.12239-.14492 5.80062-5.72223c10.42487-10.28396 24.45477-18.18648 38.96558-21.94787 7.57094-1.96247 20.27487-3.25212 26.82745-2.72338l4.4721.36086-.56143 11.3059c-1.09779 22.10734-4.74277 45.80374-10.21546 66.41187l-2.31063 8.70094-7.45795.62295c-29.62183 2.47427-43.08203 5.21277-60.08537 12.22437-3.25992 1.48781-4.79751 2.54504-6.28417 3.58954-3.60813-.44025-5.8233-1.22873-11.04172-1.26641l-11.57646-.0477-.5383-4.66105z"/>
  <path fill="#fff" d="M206.33823 212.63879c-2.08891-1.48516-5.26386-3.36129-7.05544-4.16919-2.57428-1.16084-3.74057-2.45522-5.56122-6.17205-7.52883-15.36994-23.34525-32.1415-38.73583-41.07507l-3.87943-2.25183 2.24053-4.7193c11.23858-23.67209 29.5018-42.29418 52.91604-53.95581 3.73632-1.860903 7.36387-3.383463 8.06122-3.383463 1.91284 0 9.94727 10.215413 13.62863 17.328183 5.05249 9.76191 6.83837 16.47214 7.34603 27.60173.27947 6.12685.0682 11.61672-.57226 14.87227l-1.01526 5.16045 2.35269 1.6407c6.42614 4.48145 15.21181 16.71951 15.19066 21.15993-.004.9422-1.94676 1.85841-6.81446 3.21452-3.74451 1.04321-9.16328 3.21378-12.04172 4.82349-6.61289 3.69814-14.99262 11.50001-19.09452 17.77779l-3.16764 4.84794zm270.02736-.82158c-4.80369-8.19688-15.3483-17.4758-24.20967-21.30372-2.24844-.97128-6.58602-2.38569-9.63907-3.14315l-5.55101-1.3772 2.00774-4.93961c2.71067-6.66902 5.87916-10.91192 11.47234-15.36258 4.64224-3.69397 4.6803-3.76008 4.05439-7.04362-.3475-1.82305-.59828-8.53521-.55728-14.91589.0656-10.21632.33712-12.39266 2.27394-18.23055 1.20966-3.64611 3.7864-9.50435 5.72608-13.01831 3.79564-6.87625 10.81664-15.570503 12.57388-15.570503 1.93875 0 18.22868 8.685983 23.95987 12.775683 12.98437 9.26544 24.50574 22.10212 32.7636 36.50395 5.00627 8.73098 6.63931 13.04067 5.13189 13.54315-2.95823.98608-14.25752 9.44036-20.52527 15.35731-7.99865 7.55093-15.28829 16.8955-20.2915 26.01155-2.66191 4.85013-4.03044 6.43173-6.76726 7.82068-1.88686.95757-4.98274 2.80409-6.87971 4.10339l-3.44909 2.36234zm-220.40897-26.79084c-.30385-.30384-.55245-1.18598-.55245-1.96031 0-.77434-1.30965-4.02571-2.91033-7.22529-2.8075-5.61188-2.8836-6.00618-2.15371-11.16013 1.85688-13.11196 8.04514-28.57817 15.60412-38.99913 3.62668-4.9998 12.53331-14.68219 13.50585-14.68219.26453 0 .92854 1.23775 1.47558 2.75055 2.49115 6.88917 12.15705 13.9291 20.72027 15.09113 2.14072.2905 4.52343.70163 5.29492.91363 1.95808.53807 4.14675 10.90416 4.28683 20.30346l.11109 7.45373-7.04362 2.29649c-13.04086 4.25182-25.68555 11.90169-34.90257 21.11562-4.40505 4.40358-4.87852 4.65488-8.76999 4.65488-2.26245 0-4.36216-.2486-4.66599-.55244zm162.20282-5.13192c-9.79564-9.46328-19.75711-15.44257-33.28569-19.97948l-7.24208-2.42869-.26291-3.5214c-.28663-3.83904 1.10285-15.84642 2.40585-20.79054.57901-2.19699 1.35088-3.20156 2.65156-3.45096 9.09156-1.74326 11.7137-2.5649 15.56734-4.87799 4.89824-2.9401 9.71221-8.63522 10.46011-12.37469l.48473-2.42367 4.08772 3.99796c13.47984 13.1838 22.74636 31.68342 25.51876 50.94548.74394 5.16873.65805 5.75719-1.36975 9.38533-1.1899 2.12895-2.62145 5.42734-3.18122 7.32975l-1.01777 3.45893-4.4697.20389-4.4697.2039z"/>
  <path fill="#fff" d="m241.93559 162.7132-3.09018-2.83193.77113-7.45342c.93327-9.0207-.04-19.77876-2.51487-27.79861-1.97462-6.39877-6.54624-15.99941-9.47876-19.90594l-1.912-2.54704 6.58941-5.739573c20.97384-18.26884 49.90623-30.15415 74.06651-30.42622 6.7246-.0757 9.14571.24764 12.84424 1.71544 6.64012 2.63521 12.64102 8.25516 15.91608 14.90572 2.43908 4.95292 2.72879 6.29109 2.72879 12.60399 0 6.194653-.3166 7.724813-2.57586 12.449063-3.09089 6.46323-7.88266 11.36985-14.25907 14.60083-4.22907 2.1429-5.51445 2.38329-12.58253 2.35321-6.20279-.0264-8.68119-.40449-11.68655-1.7828-7.92525-3.63466-13.11552-10.33671-13.15509-16.98683-.01-1.68221-.38592-3.28584-.83537-3.56361-.44945-.27778-4.6627 3.33597-9.36279 8.03054-10.71859 10.706-17.3113 20.56939-22.1273 33.10478-2.16782 5.64255-4.98248 16.50681-4.98248 19.23183 0 3.14901-.95173 3.15789-4.35331.0406zm200.44446-1.5291c-.81209-6.90964-6.05647-21.98869-10.13915-29.15286-5.14843-9.03432-12.0502-17.79497-18.92312-24.01974-3.21987-2.91623-6.22721-5.39469-6.68297-5.50768-.45577-.11299-1.07388 1.80376-1.37358 4.25945-.70999 5.81742-3.99147 10.48213-9.84561 13.9958-6.0509 3.63177-9.99359 4.58491-17.09844 4.13355-12.32523-.78301-22.2183-8.76355-26.34866-21.25493-4.50671-13.629613 3.71157-30.347763 17.62379-35.851433 3.87667-1.53361 6.21211-1.85235 13.01133-1.77579 24.28781.27351 55.33528 13.2111 74.50184 31.04521l5.6344 5.242703-3.70907 6.00633c-7.55431 12.23317-11.23296 29.0826-9.66283 44.25896.43184 4.17408.68888 7.64467.57118 7.71243-.11769.0678-1.74845 1.30529-3.62393 2.75006l-3.40995 2.62686z"/>
</svg>