<?xml version="1.0" encoding="UTF-8" standalone="no"?>
<!-- Created with Inkscape (http://www.inkscape.org/) -->
<svg
   xmlns:svg="http://www.w3.org/2000/svg"
   xmlns="http://www.w3.org/2000/svg"
   version="1.0"
   width="688"
   height="688"
   id="svg2844">
  <defs
     id="defs2847" />
  <rect
     width="688"
     height="688"
     x="0"
     y="0"
     id="rect2857"
     style="opacity:1;fill:#000000;fill-opacity:1;fill-rule:nonzero;stroke:#000000;stroke-width:0;stroke-linecap:round;stroke-linejoin:miter;stroke-miterlimit:4;stroke-dasharray:none;stroke-opacity:1" />
  <path
     d="M 321.43859,538.64915 C 309.11905,529.25805 298.84129,521.38035 298.59914,521.14335 C 298.25454,520.80605 300.57599,518.87715 309.28029,512.26835 C 315.39709,507.62415 320.40777,503.71895 320.41514,503.59035 C 320.43903,503.17285 297.98897,486.23505 297.42705,486.24655 C 297.12757,486.25265 292.02955,489.94535 286.09811,494.45245 C 280.16668,498.95955 275.12785,502.72085 274.90071,502.81095 C 274.5092,502.96615 252.90132,486.81945 252.86389,486.34365 C 252.85412,486.21955 257.78001,482.35785 263.8103,477.76195 C 269.84059,473.16615 274.76823,469.22345 274.76062,469.00055 C 274.75301,468.77765 269.64269,464.74425 263.40435,460.03745 L 252.06194,451.47965 L 240.70949,459.99575 C 230.29721,467.80645 229.29515,468.47345 228.60963,468.04995 C 227.9054,467.61495 207.71193,452.44795 207.07423,451.87505 C 206.91057,451.72805 233.49857,431.34825 266.15869,406.58675 L 325.54071,361.56575 L 326.39296,362.41795 L 327.24521,363.27015 L 302.08828,400.44505 C 288.25197,420.89115 276.93716,437.79515 276.94426,438.00935 C 276.95665,438.38275 342.13139,488.04855 343.42145,488.66765 C 343.91541,488.90465 351.02912,483.68245 376.9041,464.08765 C 394.97458,450.40315 410.05919,438.92305 410.42546,438.57625 C 411.06861,437.96725 410.228,436.67015 385.86105,400.67395 C 370.5263,378.02055 360.7097,363.19625 360.83213,362.87725 C 360.94292,362.58855 361.26853,362.26215 361.55572,362.15195 C 361.8818,362.02685 384.29258,378.79575 421.23768,406.80925 C 453.77558,431.48095 480.39751,451.77335 480.39751,451.90345 C 480.39751,452.33475 459.01875,468.23615 458.46918,468.21355 C 458.17261,468.20145 452.94615,464.42505 446.85486,459.82155 L 435.77975,451.45165 L 424.41006,460.04495 C 418.15675,464.77135 412.99435,468.79045 412.93809,468.97625 C 412.86242,469.22615 428.03409,481.03125 434.62122,485.84795 C 435.11975,486.21245 433.68258,487.43495 424.81908,494.18585 C 419.1066,498.53675 414.1032,502.30055 413.70037,502.54985 C 413.03418,502.96215 411.95257,502.23375 401.7342,494.49105 C 395.55562,489.80945 390.35941,486.03095 390.18706,486.09445 C 389.36757,486.39605 367.55716,503.15465 367.54008,503.49585 C 367.52932,503.71065 372.52627,507.69255 378.64441,512.34455 L 389.76829,520.80285 L 372.26362,534.10855 C 362.63605,541.42655 352.30169,549.28385 349.29836,551.56905 L 343.83777,555.72405 L 321.43859,538.64915 z M 341.81764,464.74145 C 331.37353,458.06375 325.14079,447.71565 323.81955,434.85985 C 323.61995,432.91765 323.54472,432.77555 322.82491,432.98065 C 319.21829,434.00855 314.70594,435.01305 312.17574,435.35115 C 309.05985,435.76755 300.02308,435.90755 299.66057,435.54495 C 299.54952,435.43395 299.82136,433.60415 300.26467,431.47875 C 304.96659,408.93565 314.81955,386.96685 328.37141,368.81025 L 330.67374,365.72555 L 332.83062,366.71655 C 334.75799,367.60215 337.41557,368.41895 340.28985,369.00935 L 341.27842,369.21245 L 341.28333,389.06695 C 341.28603,399.98685 341.38747,409.29185 341.50876,409.74455 C 342.01135,411.62075 345.00777,411.94325 345.92982,410.22045 C 346.1856,409.74245 346.31115,402.87435 346.31115,389.36015 L 346.31115,369.21245 L 347.29973,369.01175 C 350.07718,368.44785 352.59492,367.67065 354.47093,366.79795 C 355.61792,366.26435 356.67538,365.81785 356.82086,365.80575 C 357.18863,365.77505 361.26756,371.37705 364.7881,376.74785 C 375.51739,393.11615 383.17024,411.52745 387.25618,430.80175 L 388.29512,435.70275 L 385.90627,435.75245 C 378.80646,435.90045 374.28907,435.41875 368.30506,433.87585 C 366.06741,433.29885 364.18897,432.82685 364.13075,432.82685 C 364.07252,432.82685 363.91412,434.04915 363.77873,435.54325 C 362.93237,444.88315 357.87654,454.89565 350.99735,460.85515 C 348.99943,462.58595 344.26758,465.90465 343.81164,465.89485 C 343.70352,465.89255 342.80622,465.37345 341.81764,464.74145 z M 191.35217,439.80885 C 185.5321,435.34495 180.63604,431.56285 180.47204,431.40435 C 180.30803,431.24585 185.20497,427.28535 191.35411,422.60325 C 197.50326,417.92115 202.44329,413.94305 202.33195,413.76285 C 201.96863,413.17495 179.9244,396.51925 179.50967,396.51925 C 179.16875,396.51925 172.27054,401.67615 159.66495,411.35455 L 156.89319,413.48275 L 146.36415,405.49025 C 140.57318,401.09445 135.61874,397.29815 135.35427,397.05415 C 134.96331,396.69335 136.96378,395.01875 146.05661,388.09525 C 152.20736,383.41205 157.1487,379.43285 157.03737,379.25275 C 156.67405,378.66485 134.62981,362.00915 134.21508,362.00915 C 133.87416,362.00915 126.97599,367.16595 114.37039,376.84445 L 111.59868,378.97245 L 88.751631,361.61095 C 76.185751,352.06205 65.947611,344.13045 66.000201,343.98505 C 66.052801,343.83965 76.327931,335.93895 88.833841,326.42795 L 111.57186,309.13515 L 122.71994,317.62345 C 128.85139,322.29205 134.10199,326.05995 134.38795,325.99655 C 134.99622,325.86175 157.17787,309.09785 157.20553,308.75205 C 157.21581,308.62355 152.20489,304.67065 146.07016,299.96775 C 137.08785,293.08195 135.00556,291.32965 135.3756,290.96805 C 136.88151,289.49625 156.752,274.68055 157.06397,274.79685 C 157.27241,274.87455 162.34715,278.67605 168.3412,283.24455 C 174.33524,287.81305 179.3696,291.55085 179.52867,291.55085 C 179.93989,291.55085 202.52291,274.29745 202.49926,274.00135 C 202.4885,273.86675 197.47374,269.96935 191.35535,265.34045 C 185.23696,260.71155 180.231,256.87985 180.231,256.82565 C 180.231,256.57245 202.00759,240.03485 202.38377,240.00235 C 202.80524,239.96595 322.22727,330.74325 322.21911,331.09375 C 322.19126,332.28985 319.55931,331.32725 271.06022,312.38225 L 220.46094,292.61685 L 186.6857,318.20845 C 168.10931,332.28385 152.91046,343.91245 152.91046,344.04995 C 152.91046,344.23305 207.8331,386.06625 219.11251,394.47435 L 220.46827,395.48495 L 270.17879,376.07445 C 297.51958,365.39865 320.34614,356.49105 320.90447,356.27975 C 321.74056,355.96335 321.8991,355.98825 321.80318,356.42145 C 321.69491,356.91035 202.70589,447.92505 202.17494,447.92505 C 202.04249,447.92505 197.17224,444.27275 191.35217,439.80885 z M 425.98825,402.65215 C 393.394,377.77135 366.48482,357.17315 366.19006,356.87845 C 365.8953,356.58365 365.79098,356.26445 365.95823,356.16905 C 366.12549,356.07355 388.74787,364.78695 416.23018,375.53205 C 443.71249,386.27715 466.46037,395.15665 466.78102,395.26435 C 467.17056,395.39505 478.56207,386.97715 501.11145,369.89535 C 519.67252,355.83475 534.89351,344.22365 534.93586,344.09295 C 534.99953,343.89655 469.02548,293.71405 467.65219,292.91435 C 467.41209,292.77455 444.66292,301.47095 417.09847,312.23975 C 389.53404,323.00855 366.74452,331.85835 366.45511,331.90595 C 363.88723,332.32835 368.34372,328.80705 425.11015,285.55985 C 457.79192,260.66145 484.73321,240.16725 484.97974,240.01735 C 485.26668,239.84275 489.42882,242.81235 496.54773,248.27095 C 507.52412,256.68725 507.65745,256.80515 506.88399,257.40855 C 506.45301,257.74485 501.49005,261.53115 495.85519,265.82255 C 490.22033,270.11395 485.57429,273.81645 485.53065,274.05035 C 485.436,274.55745 507.49744,291.37115 508.25749,291.37115 C 508.54684,291.37115 513.66117,287.65055 519.6227,283.10305 C 525.58422,278.55565 530.59718,274.78265 530.76261,274.71865 C 530.98603,274.63225 551.24749,289.79275 552.71762,291.14635 C 552.85192,291.26995 547.96564,295.17265 541.85925,299.81895 C 535.75285,304.46525 530.78997,308.46185 530.83066,308.70045 C 530.95878,309.45215 553.11844,326.11725 553.76504,325.94815 C 554.09127,325.86285 559.24356,322.09225 565.21457,317.56915 C 571.18559,313.04595 576.18787,309.34515 576.3308,309.34515 C 576.65157,309.34515 621.99195,343.78535 622,344.03505 C 622.00568,344.21155 576.87948,378.64525 576.42908,378.80815 C 576.30262,378.85385 571.18577,375.08425 565.05827,370.43105 C 558.83717,365.70675 553.6779,362.03405 553.37514,362.11415 C 552.55377,362.33135 530.91636,378.90255 530.82523,379.38415 C 530.78159,379.61475 535.73862,383.58945 541.84088,388.21685 L 552.93586,396.63035 L 551.98568,397.40645 C 550.61275,398.52795 531.70025,412.87665 531.21822,413.16255 C 530.99207,413.29665 525.90865,409.66345 519.71659,404.94225 C 513.51738,400.21545 508.38151,396.54495 508.0793,396.62535 C 507.24742,396.84655 485.62077,413.40235 485.53065,413.88695 C 485.48701,414.12155 490.44403,418.09965 496.54629,422.72705 L 507.64127,431.14045 L 506.69109,431.91915 C 503.52626,434.51285 485.79386,447.92195 485.54801,447.90755 C 485.38437,447.89785 458.58249,427.53295 425.98825,402.65215 z M 213.87474,372.63145 C 215.5189,368.10185 218.24317,363.31385 221.07616,359.97465 C 221.94163,358.95455 222.65008,357.98395 222.6505,357.81775 C 222.65091,357.65155 221.56661,357.57135 220.24094,357.63935 C 216.72956,357.81975 209.05968,357.06465 204.40953,356.08085 C 196.02063,354.30625 187.6814,350.82895 180.49061,346.10715 L 177.22321,343.96165 L 180.74455,341.68815 C 187.68606,337.20635 196.15572,333.73525 204.40953,331.98945 C 208.75858,331.06955 218.51243,330.17965 221.07721,330.46875 C 223.06653,330.69295 223.0786,330.33795 221.16008,328.03165 C 219.37567,325.88645 216.94114,322.15835 215.61238,319.53615 C 214.64599,317.62905 213.30324,314.04255 213.30324,313.36845 C 213.30324,313.13475 215.68864,313.09855 220.18274,313.26405 C 251.11359,314.40315 283.53902,321.45245 313.06025,333.45555 C 316.22427,334.74205 319.01089,335.91685 319.25274,336.06635 C 319.56658,336.26035 319.60141,336.69365 319.3744,337.58035 C 319.19947,338.26355 318.95334,339.42925 318.82745,340.17065 L 318.59855,341.51875 L 288.28719,341.51875 C 258.16632,341.51875 257.96987,341.52335 257.02864,342.26375 C 256.40056,342.75785 256.08146,343.35455 256.08146,344.03505 C 256.08146,344.71565 256.40056,345.31235 257.02864,345.80635 C 257.96986,346.54675 258.16659,346.55145 288.26447,346.55145 L 318.55312,346.55145 L 319.13426,349.12485 C 319.45389,350.54015 319.67364,351.72385 319.62262,351.75515 C 319.57158,351.78645 316.69892,352.96745 313.23892,354.37955 C 288.27442,364.56815 260.89541,371.27575 234.51261,373.66695 C 228.80202,374.18455 226.29235,374.34545 217.20783,374.77645 L 213.02409,374.97495 L 213.87474,372.63145 z M 466.01828,374.56915 C 439.49046,373.37045 411.88632,367.94875 386.71355,358.99325 C 380.31319,356.71625 368.64915,352.09075 368.16555,351.63785 C 368.02602,351.50725 368.05732,350.75425 368.23508,349.96445 C 368.41285,349.17475 368.65141,348.08375 368.76522,347.54005 L 368.97214,346.55145 L 399.48134,346.55145 C 428.5956,346.55145 430.02799,346.52115 430.80925,345.88845 C 431.36292,345.44015 431.62793,344.84015 431.62793,344.03505 C 431.62793,343.22995 431.36292,342.63005 430.80925,342.18165 C 430.02799,341.54905 428.5956,341.51875 399.48134,341.51875 L 368.97214,341.51875 L 368.76481,340.53015 C 368.65077,339.98645 368.39776,338.83445 368.20255,337.97005 C 368.00735,337.10575 367.89536,336.35115 367.95369,336.29325 C 368.01202,336.23525 370.81342,335.05935 374.17901,333.68005 C 403.76626,321.55445 436.61637,314.39835 467.94786,313.25355 L 474.73048,313.00565 L 474.45616,313.87155 C 473.05688,318.28815 469.98695,323.83845 466.82711,327.66455 C 465.78911,328.92135 464.93984,330.11455 464.93984,330.31605 C 464.93984,330.54275 465.65883,330.60885 466.82711,330.48935 C 469.74149,330.19115 478.54734,331.00915 483.35755,332.02475 C 492.47316,333.94945 501.30032,337.69325 508.32511,342.61415 L 510.28985,343.99045 L 508.73434,345.12285 C 503.74479,348.75535 495.86432,352.54275 488.84531,354.68165 C 482.59477,356.58635 472.51266,357.96375 467.26643,357.62965 C 465.98679,357.54825 464.93984,357.57305 464.93984,357.68485 C 464.93984,357.79675 465.61149,358.69415 466.4324,359.67905 C 469.44273,363.29085 472.6063,368.77555 473.97657,372.75835 C 474.34465,373.82815 474.64582,374.75905 474.64582,374.82695 C 474.64582,374.96065 474.74791,374.96365 466.01828,374.56915 z M 339.63749,363.29875 C 327.1255,360.43875 320.56167,346.93825 326.0769,335.40755 C 327.65957,332.09865 331.40681,328.21495 334.66506,326.50655 C 342.47216,322.41315 352.424,324.21485 358.33771,330.79235 C 364.23433,337.35085 365.1122,346.46075 360.591,354.17565 C 359.38208,356.23845 355.99817,359.62235 353.93532,360.83125 C 349.64302,363.34675 344.06137,364.31005 339.63749,363.29875 z M 361.43667,325.91035 C 361.02621,325.47345 360.69039,325.00185 360.69039,324.86225 C 360.69039,324.72275 372.01403,307.85615 385.85405,287.38095 C 399.69406,266.90585 411.00944,250.04495 410.99937,249.91235 C 410.97299,249.56615 344.59509,199.36645 343.98575,199.23195 C 343.21612,199.06205 277.10591,249.41105 277.13558,250.14445 C 277.15578,250.64375 289.74378,269.41895 323.77122,319.70235 C 327.31488,324.93885 327.36298,325.03795 326.6874,325.70795 C 326.01231,326.37745 324.97776,325.61415 266.60864,281.37985 C 233.94313,256.62475 207.21916,236.28965 207.22206,236.19085 C 207.23129,235.87525 229.14161,219.47055 229.40589,219.58135 C 229.54544,219.63985 234.56783,223.41175 240.56675,227.96315 C 246.56567,232.51465 251.66131,236.30045 251.89039,236.37605 C 252.46313,236.56505 274.59472,219.58645 274.59472,218.95805 C 274.59472,218.68045 269.74173,214.75035 263.8103,210.22455 C 257.87886,205.69865 253.02587,201.85795 253.02587,201.68975 C 253.02587,201.52155 255.93767,199.16335 259.49653,196.44925 C 263.05539,193.73525 267.9255,190.01675 270.319,188.18585 L 274.67082,184.85705 L 285.95642,193.43255 C 292.1635,198.14905 297.3229,202.01365 297.42176,202.02045 C 297.69399,202.03925 320.23512,184.81175 320.34002,184.50475 C 320.39019,184.35785 315.42337,180.43805 309.30262,175.79395 C 303.18188,171.14995 298.17585,167.26935 298.17812,167.17055 C 298.18038,167.07165 308.44977,159.17995 320.99897,149.63335 L 343.8157,132.27595 L 366.63228,149.60625 C 379.1814,159.13795 389.44886,167.04545 389.44886,167.17845 C 389.44886,167.31155 384.51498,171.17455 378.48469,175.76285 C 372.4544,180.35125 367.52052,184.24985 367.52052,184.42635 C 367.52052,185.01705 390.20473,202.05945 390.64347,201.79835 C 390.87615,201.65985 395.91951,197.87345 401.85095,193.38395 C 407.78238,188.89455 412.76306,185.16365 412.91915,185.09305 C 413.2022,184.96515 435.06338,201.33965 435.06482,201.68065 C 435.06521,201.77955 430.05919,205.65445 423.94032,210.29155 C 417.82146,214.92865 412.81511,218.82685 412.81511,218.95415 C 412.81511,219.08145 417.78943,222.95805 423.86915,227.56875 C 429.94887,232.17945 435.1173,236.09965 435.3546,236.28025 C 435.65095,236.50575 439.22013,234.00915 446.75668,228.30445 C 452.79053,223.73725 457.96472,219.90935 458.25486,219.79795 C 458.82873,219.57775 480.87591,236.04005 480.68628,236.54715 C 480.62632,236.70755 464.31973,249.17765 444.44943,264.25845 C 424.57912,279.33935 397.9404,299.55915 385.25228,309.19145 L 362.18296,326.70475 L 361.43667,325.91035 z M 327.91952,318.42205 C 316.75824,303.34805 307.95679,285.29875 302.86439,267.04115 C 301.57094,262.40385 299.57864,253.69245 299.57864,252.67405 C 299.57864,252.38675 301.48818,252.32655 306.31891,252.46165 C 313.00504,252.64855 316.9256,253.21495 321.68672,254.68175 C 322.67529,254.98635 323.50868,255.23725 323.53869,255.23945 C 323.56871,255.24155 323.69928,254.23225 323.82885,252.99655 C 324.62905,245.36495 326.78187,239.44405 330.96116,233.38055 C 333.18526,230.15375 338.29147,225.28345 341.49824,223.33025 L 343.88366,221.87735 L 345.90624,223.15535 C 353.13216,227.72085 358.98471,235.07815 361.72937,243.04655 C 362.78543,246.11255 363.92572,251.83705 363.92572,254.07275 C 363.92572,255.06645 364.04201,255.25665 364.55481,255.10185 C 370.97226,253.16435 376.3195,252.37225 382.99963,252.36955 L 388.23353,252.36745 L 387.27419,256.95085 C 383.33451,275.77325 375.5457,294.65365 365.09963,310.70285 C 362.30641,314.99435 357.13693,322.10675 356.81102,322.10675 C 356.68722,322.10675 355.28515,321.55265 353.6953,320.87535 C 352.10545,320.19815 349.79362,319.44915 348.55791,319.21095 L 346.31115,318.77785 L 346.31115,298.59395 C 346.31115,276.16295 346.37935,276.81215 344.02285,276.81215 C 343.37985,276.81215 342.53975,277.04175 342.15596,277.32225 C 341.48137,277.81545 341.45489,278.51485 341.35968,298.35185 C 341.30551,309.63765 341.14374,318.87425 341.00019,318.87765 C 339.72269,318.90825 335.53983,320.09975 333.56209,320.99655 C 332.21537,321.60715 331.00872,322.10675 330.88065,322.10675 C 330.75257,322.10675 329.42007,320.44865 327.91952,318.42205 z"
     id="path2855"
     style="fill:#ffffff" />
</svg>
