<!DOCTYPE svg PUBLIC "-//W3C//DTD SVG 1.1//EN" "http://www.w3.org/Graphics/SVG/1.1/DTD/svg11.dtd">
<svg version="1.1" id="Layer_1" xmlns="http://www.w3.org/2000/svg" width="142px" height="142px">
<path fill="#010101" d="M70.855,0L36.903,33.952l33.952,33.952l33.952-33.952L70.855,0z M70.855,25.465l8.487,8.487l-8.487,8.488l-8.487-8.488L70.855,25.465z"/>
<path fill="#010101" d="M108.049,37.192L74.096,71.146l33.953,33.95L142,71.146L108.049,37.192z M108.049,62.657l8.486,8.488l-8.486,8.487l-8.488-8.487L108.049,62.657z"/>
<path fill="#010101" d="M71.145,74.096l-33.952,33.953L71.145,142l33.951-33.951L71.145,74.096z M71.145,99.561l8.486,8.488l-8.486,8.488l-8.487-8.488L71.145,99.561z"/>
<path fill="#010101" d="M33.952,36.903L0,70.856l33.952,33.951l33.952-33.951L33.952,36.903z M33.952,62.368l8.487,8.488l-8.487,8.488l-8.487-8.488L33.952,62.368z"/>
</svg>
