<?xml version="1.0" encoding="UTF-8" standalone="no"?>
<!-- Created with Inkscape (http://www.inkscape.org/) -->

<svg
   xmlns:dc="http://purl.org/dc/elements/1.1/"
   xmlns:cc="http://creativecommons.org/ns#"
   xmlns:rdf="http://www.w3.org/1999/02/22-rdf-syntax-ns#"
   xmlns:svg="http://www.w3.org/2000/svg"
   xmlns="http://www.w3.org/2000/svg"
   version="1.1"
   width="688"
   height="688"
   id="svg2"
   xml:space="preserve"><metadata
     id="metadata8"><rdf:RDF><cc:Work
         rdf:about=""><dc:format>image/svg+xml</dc:format><dc:type
           rdf:resource="http://purl.org/dc/dcmitype/StillImage" /><dc:title></dc:title></cc:Work></rdf:RDF></metadata><defs
     id="defs6" /><g
     transform="matrix(1.25,0,0,-1.25,-27.874985,870.25002)"
     id="g10"><rect
       width="550.40002"
       height="550.40002"
       x="22.299976"
       y="-696.20001"
       transform="scale(1,-1)"
       id="rect3881"
       style="fill:#000000;fill-opacity:1;fill-rule:nonzero;stroke:none" /><g
       transform="matrix(0.75940598,0,0,0.75940598,72.45762,94.925426)"
       id="g3100"
       style="fill:#ffffff;stroke:none"><path
         d="m 296.28,554.8416 c 46.2,0 83.64,37.44 83.76,83.64 0,-1.32 0,-1.2 0,0.12 0,46.2 -37.56,83.64 -83.76,83.64 -46.2,0 -83.64,-37.44 -83.64,-83.64 0,-1.32 0,-1.44 0,-0.12 0,-46.2 37.44,-83.64 83.64,-83.64 z"
         id="path16"
         style="fill:#ffffff;stroke:none" /><path
         d="m 495.12,410.2416 c 46.2,0 83.64,37.44 83.76,83.64 0,-1.32 0,-1.2 0,0.12 0,46.2 -37.56,83.64 -83.76,83.64 -46.2,0 -83.64,-37.44 -83.64,-83.64 0,-1.32 0,-1.44 0,-0.12 0,-46.2 37.44,-83.64 83.64,-83.64 z"
         id="path20"
         style="fill:#ffffff;stroke:none" /><path
         d="m 419.16,176.60064 c 46.2,0 83.64,37.44 83.76,83.64096 0,-1.32 0,-1.2 0,0.12 0,46.2 -37.56,83.64 -83.76,83.64 -46.2,0 -83.64,-37.44 -83.64,-83.64 0,-1.32 0,-1.44 0,-0.12 0,-46.20096 37.44,-83.64096 83.64,-83.64096 z"
         id="path24"
         style="fill:#ffffff;stroke:none" /><path
         d="m 173.4,176.60064 c 46.2,0 83.64,37.44 83.76,83.64096 0,-1.32 0,-1.2 0,0.12 0,46.2 -37.56,83.64 -83.76,83.64 -46.2,0 -83.64,-37.44 -83.64,-83.64 0,-1.32 0,-1.44 0,-0.12 0,-46.20096 37.44,-83.64096 83.64,-83.64096 z"
         id="path28"
         style="fill:#ffffff;stroke:none" /><path
         d="m 97.44,410.2416 c 46.2,0 83.64,37.44 83.76,83.64 0,-1.32 0,-1.2 0,0.12 0,46.2 -37.56,83.64 -83.76,83.64 -46.2,0 -83.64,-37.44 -83.64,-83.64 0,-1.32 0,-1.44 0,-0.12 0,-46.2 37.44,-83.64 83.64,-83.64 z"
         id="path32"
         style="fill:#ffffff;stroke:none" /><path
         d="m 369.12,429.4416 c 0,40.2 -32.64,72.72 -72.84,72.72 -40.2,0 -72.72,-32.52 -72.72,-72.72 0,-1.2 0,-1.2 0,-0.12 0,-40.08 32.52,-72.72 72.72,-72.72 40.2,0 72.72,32.64 72.84,72.72 0,-1.08 0,-1.08 0,0.12 z"
         id="path34"
         style="fill:#ffffff;stroke:none" /><path
         d="m 240.9,483.1416 -136.02,132.18 19.44,50.88 54.36,2.76 83.7,-170.22 c -7.98,-3.9 -15.3,-9.18 -21.48,-15.6 z"
         id="path46"
         style="fill:#ffffff;stroke:none" /><path
         d="m 487.92,615.3216 -19.44,50.88 -54.48,2.76 -83.64,-170.22 c 8.04,-3.9 15.24,-9.18 21.42,-15.6 z"
         id="path52"
         style="fill:#ffffff;stroke:none" /><path
         d="m 364.68,393.3216 c 4.2,7.8 6.96,16.32 8.16,25.08 l 187.8,-26.88 14.16,-52.56 -42.36,-34.32 z"
         id="path62"
         style="fill:#ffffff;stroke:none" /><path
         d="m 296.4,352.0416 c 4.44,0 8.88,0.48 13.14,1.26 L 342,166.28064 l -45.6,-29.76 -45.6,29.76 32.34,187.02096 c 4.26,-0.78 8.7,-1.26 13.26,-1.26 z"
         id="path76"
         style="fill:#ffffff;stroke:none" /><path
         d="m 228.06,393.3216 -167.7,-88.68 -42.48,34.32 14.16,52.56 187.86,26.88 c 1.14,-8.76 3.9,-17.28 8.16,-25.08 z"
         id="path86"
         style="fill:#ffffff;stroke:none" /></g></g></svg>