<?xml version="1.0" encoding="UTF-8"?>
<!DOCTYPE svg  PUBLIC '-//W3C//DTD SVG 20010904//EN'  'http://www.w3.org/TR/2001/REC-SVG-20010904/DTD/svg10.dtd'>
<svg width="640pt" height="480pt" version="1.0" viewBox="0 0 640 480" xmlns="http://www.w3.org/2000/svg">
 <g transform="translate(0 480) scale(.1 -.1)">
  <path d="m2140 3631c-435-96-719-369-670-643 38-209 202-323 424-297 136 17 244 103 341 273 156 272 208 316 360 303 74-5 130-33 179-87 54-60 76-113 76-188 0-114-71-214-200-281-97-50-225-137-255-172-75-90-90-197-42-301 71-157 259-240 400-175 56 26 69 39 180 198 95 137 184 186 316 177 83-6 152-40 210-103 66-72 84-120 79-224-3-76-8-96-40-162-65-132-199-242-450-369-200-102-396-170-593-206-107-19-483-30-597-17-43 5-78 8-78 6 0-1 39-23 88-47 491-246 1058-265 1495-50l87 43 106-39c133-50 348-104 501-127 146-21 531-24 668-5 201 29 459 94 439 111-5 4-58 29-119 55-264 115-528 265-723 411-126 93-321 285-414 405-79 103-331 467-553 800-184 276-259 373-367 476-124 118-231 182-375 226-100 30-355 35-473 9z"/>
  <path d="m4015 3487c-61-29-127-101-143-155-26-86-11-176 41-244 92-120 281-133 389-26 99 100 104 256 10 360-49 55-104 80-182 85-54 3-74 0-115-20z"/>
  <path d="m5255 2714c-22-8-59-34-83-57-144-142-45-388 157-390 109-1 196 63 226 168 52 178-125 343-300 279z"/>
  <path d="m4459 2590c-58-31-106-95-120-157-38-166 108-311 274-274 115 25 183 121 175 244-5 77-36 132-100 174-56 37-173 44-229 13z"/>
  <path d="m1778 2168c-46-12-113-69-137-117-29-58-34-106-16-166 69-238 404-217 450 28 19 99-58 222-158 252-57 17-85 17-139 3z"/>
  <path d="m1005 1696c-55-25-109-80-133-135-25-59-20-157 11-217 125-243 491-156 490 116 0 75-17 121-64 175-47 53-119 85-194 85-42 0-75-7-110-24z"/>
 </g>
</svg>
