<?xml version="1.0" encoding="UTF-8" standalone="no"?>
<!-- Created with Inkscape (http://www.inkscape.org/) -->
<svg
   xmlns:svg="http://www.w3.org/2000/svg"
   xmlns="http://www.w3.org/2000/svg"
   version="1.0"
   width="688"
   height="688"
   id="svg2652">
  <defs
     id="defs2654" />
  <g
     id="layer1">
    <rect
       width="688"
       height="688"
       x="0"
       y="0"
       id="rect5371"
       style="opacity:1;fill:#000000;fill-opacity:1;stroke:#60441c;stroke-width:0;stroke-linecap:round;stroke-linejoin:miter;stroke-miterlimit:4;stroke-dasharray:none;stroke-opacity:1" />
    <path
       d="M 327.08834,621.66174 C 274.98761,618.63579 223.20148,600.10391 180.85475,569.33144 C 169.04049,560.74626 159.04191,552.12252 147.43137,540.5039 C 131.44816,524.50954 121.20817,511.78617 109.15318,492.94254 L 103.46918,484.05765 L 121.94677,473.26114 C 132.10944,467.32306 140.91984,462.19944 141.52544,461.87534 C 142.38078,461.41758 151.66491,467.45956 183.12188,488.94571 L 223.61722,516.60537 L 225.69636,513.83896 C 226.83989,512.31743 233.82281,502.68373 241.21397,492.43073 C 251.73849,477.83114 254.80928,473.98333 255.37573,474.68549 C 256.87107,476.53912 274.91943,486.91595 274.91943,485.92206 C 274.91943,485.65051 275.06393,485.57284 275.24054,485.74944 C 275.41714,485.92605 270.70714,496.74779 264.77386,509.79776 C 258.84058,522.84773 254.17531,533.74398 254.40659,534.01165 C 254.63786,534.27931 274.42897,543.94233 298.38683,555.48502 C 322.34468,567.02771 342.02086,576.68943 342.11166,576.95552 C 342.20246,577.2216 342.27675,587.54291 342.27675,599.89175 L 342.27675,622.34419 L 338.80983,622.24267 C 336.90302,622.18684 331.62835,621.92542 327.08834,621.66174 z M 344.91821,599.17447 C 344.91821,586.37266 345.08197,576.06222 345.28212,576.26236 C 345.64075,576.62099 432.02756,534.90103 432.80749,533.99254 C 433.02825,533.73538 428.3503,522.83871 422.41202,509.77771 C 416.47375,496.71671 411.61517,485.92696 411.61517,485.80048 C 411.61517,485.674 411.92032,485.75911 412.29328,485.98962 C 413.65176,486.8292 433.00789,475.42349 432.31745,474.19027 C 430.89005,471.64071 434.93413,477.05486 448.27499,495.55395 C 456.5257,506.99479 463.33153,516.42029 463.39906,516.49951 C 463.46659,516.57874 481.75962,504.18655 504.05024,488.96132 C 526.34085,473.73609 544.74977,461.37024 544.95894,461.48165 C 545.16811,461.59306 553.88228,466.66718 564.32377,472.75747 C 581.007,482.48844 583.44064,483.72089 584.40008,482.92463 C 586.10427,481.51028 576.41566,496.95722 569.85165,506.1198 C 553.11776,529.4783 530.38079,552.34586 507.00874,569.32367 C 482.48921,587.13503 453.26085,601.6093 424.16212,610.35041 C 401.47607,617.16519 379.53548,620.81477 353.99825,622.02144 L 344.91821,622.45051 L 344.91821,599.17447 z M 300.74165,553.28473 C 277.35255,541.88629 258.11171,532.45598 257.98423,532.3285 C 257.85674,532.20102 262.32593,522.25771 267.91574,510.23227 C 273.50556,498.20682 277.88817,488.15437 277.65488,487.89347 C 277.14308,487.32112 277.38568,487.40826 286.14565,490.94355 C 295.71017,494.80353 307.10866,497.94665 318.83376,499.95726 C 327.49751,501.44291 330.64326,501.65681 343.92767,501.66356 C 357.39742,501.67041 360.23695,501.47481 369.02157,499.93504 C 374.46959,498.9801 382.49303,497.19041 386.85145,495.95793 C 394.66226,493.74917 406.6301,489.38263 408.05152,488.22294 C 408.55369,487.81323 411.99183,494.54151 419.11003,509.86391 C 424.7914,522.09345 429.34305,532.19618 429.2248,532.31443 C 428.76053,532.77871 344.01891,574.13351 343.65513,574.07333 C 343.44182,574.03805 324.13076,564.68318 300.74165,553.28473 z M 184.0981,485.89151 C 162.68079,471.14714 144.93685,458.88182 144.66713,458.63526 C 144.17559,458.18594 136.70005,364.12394 137.12232,363.70168 C 137.42365,363.40034 185.94089,358.14858 186.18337,358.39105 C 186.28803,358.49572 186.98985,362.58108 187.74297,367.46963 C 192.85057,400.6235 207.66401,430.46354 230.95143,454.50831 C 235.59812,459.30611 245.90018,468.19697 250.28847,471.19651 C 251.72695,472.17975 251.59846,472.39406 237.83823,491.96146 C 230.19119,502.83576 223.73295,511.95039 223.48659,512.21619 C 223.24023,512.482 205.51541,500.63589 184.0981,485.89151 z M 450.17164,493.12188 C 435.008,471.60888 435.05387,471.67699 435.89689,471.93242 C 436.22097,472.03062 439.58222,469.6798 443.36634,466.70838 C 468.31755,447.11588 487.93209,416.91412 496.46913,384.94267 C 498.7958,376.22923 501.6625,359.77688 501.03188,358.75651 C 500.84198,358.44925 500.79651,358.19785 500.93084,358.19785 C 502.25985,358.19785 549.90503,363.53406 550.07265,363.70168 C 550.49494,364.12397 543.01935,458.18596 542.52783,458.63463 C 542.02606,459.09267 466.03111,511.4408 464.69968,512.24554 C 464.25019,512.51721 458.60311,505.08381 450.17164,493.12188 z M 333.03163,499.19544 C 332.48683,499.05228 330.03248,498.74476 327.57752,498.51207 C 325.12257,498.27937 323.24814,497.8719 323.41211,497.60658 C 323.57609,497.34126 326.99756,471.28901 331.01537,439.71269 C 335.03318,408.13637 338.4813,381.26113 338.67786,379.98992 L 339.03523,377.67864 L 343.62764,377.67864 C 346.15346,377.67864 348.22004,377.6844 348.22004,377.69145 C 348.22004,377.69849 351.77683,404.36866 356.12402,436.95848 C 360.4712,469.54832 363.86863,496.628 363.67386,497.13556 C 363.47908,497.64313 362.52249,498.24429 361.54809,498.47149 C 359.49769,498.94957 334.51005,499.58394 333.03163,499.19544 z M 273.92889,482.43072 C 268.48087,479.62562 260.57201,474.9607 256.35365,472.06425 L 248.68391,466.79796 L 285.66563,418.48482 C 314.74395,380.49675 322.81935,370.34368 323.45213,370.97645 C 324.05879,371.58311 329.84509,374.78343 330.87535,375.08212 C 331.15252,375.16248 284.85799,486.54041 284.33845,487.04314 C 284.06121,487.31141 279.3769,485.23582 273.92889,482.43072 z M 379.58742,431.75279 C 353.32497,368.30876 355.79657,374.41406 356.56809,374.89089 C 357.17429,375.26554 364.87012,371.20953 364.56582,370.67577 C 363.47108,368.75554 371.07979,378.58601 400.39751,416.97041 C 419.40012,441.8497 435.80336,463.30548 436.84916,464.64994 L 438.75062,467.09441 L 429.90523,473.0145 C 422.1504,478.20469 407.84119,486.0415 404.02096,487.19069 C 402.82001,487.55196 400.60403,482.52406 379.58742,431.75279 z M 566.29676,470.09992 C 555.66812,463.87142 546.8253,458.62873 546.64607,458.44949 C 546.46684,458.27026 547.94764,436.32458 549.93674,409.68131 C 551.92583,383.03804 553.43985,361.12559 553.30123,360.98696 C 553.1626,360.84834 541.50801,359.57145 527.40214,358.14943 C 513.29627,356.72741 501.7551,355.5621 501.7551,355.55984 C 501.7551,355.55758 501.7551,350.20682 501.7551,343.66925 C 501.7551,337.1317 501.7551,331.78118 501.7551,331.77922 C 501.7551,331.77726 513.29627,330.61219 527.40214,329.19017 C 541.50801,327.76815 553.16258,326.49128 553.30119,326.35268 C 553.43979,326.21407 551.93141,304.42328 549.9492,277.92869 C 547.96701,251.43409 546.34174,229.56902 546.33751,229.33964 C 546.32768,228.80806 585.24659,206.04656 585.58012,206.38884 C 586.53498,207.36872 594.4955,223.00993 597.86504,230.52687 C 610.20213,258.04903 618.03306,287.78813 621.0502,318.5759 C 623.02152,338.69177 621.84211,369.09986 618.27367,390.1624 C 613.11295,420.62327 601.22367,454.48653 587.17127,478.74881 L 585.62157,481.42448 L 566.29676,470.09992 z M 100.70713,478.87551 C 98.710579,475.58321 92.455422,462.96953 89.10849,455.48654 C 77.804764,430.21396 69.692559,399.02225 66.811607,369.75425 C 65.599981,357.44512 65.775784,327.86324 67.133047,315.66744 C 70.571585,284.77012 77.992512,257.29876 90.309603,229.87065 C 93.067172,223.73 101.30792,207.50336 102.17987,206.49722 C 102.31021,206.34681 140.71247,228.39333 141.2413,228.92216 C 141.40254,229.0834 139.75867,251.01459 137.58826,277.65814 C 135.41784,304.30168 133.73819,326.1971 133.8557,326.31462 C 133.97322,326.43213 145.77631,327.70906 160.0848,329.15225 C 174.39328,330.59542 186.10023,331.77769 186.10023,331.7795 C 186.10023,331.7813 186.10023,337.1317 186.10023,343.66925 C 186.10023,350.20682 185.95165,355.55758 185.77004,355.55984 C 183.94473,355.58256 134.08181,360.79889 133.89391,360.98679 C 133.75539,361.12531 135.41859,383.04708 137.58991,409.70182 C 139.76124,436.35657 141.31215,458.35759 141.03638,458.59298 C 140.53705,459.01921 106.17178,478.8275 103.44067,480.26331 C 102.1702,480.93122 101.85751,480.77247 100.70713,478.87551 z M 418.80042,401.69006 L 370.84514,364.67998 L 373.23518,360.46458 C 374.54971,358.14611 375.92239,356.35577 376.28559,356.48605 C 378.017,357.10709 487.26227,402.67072 487.50207,402.87183 C 488.23166,403.48367 478.38886,421.83949 473.06896,429.78813 C 469.76543,434.72402 466.99351,438.74846 466.90913,438.73132 C 466.82476,438.71417 445.17584,422.04561 418.80042,401.69006 z M 214.3027,429.04141 C 209.09409,421.16931 199.66802,403.42762 200.38308,402.842 C 200.60603,402.65941 310.03033,357.03823 311.56974,356.48605 C 311.93294,356.35577 313.3064,358.14745 314.62187,360.46755 L 317.01364,364.68592 L 269.30244,401.20202 C 243.06129,421.28588 221.30597,437.81322 220.95729,437.92944 C 220.60861,438.04566 217.61404,434.04605 214.3027,429.04141 z M 339.30511,374.32054 C 333.54523,372.93868 331.59982,372.25589 328.50164,370.52882 C 321.68062,366.72647 315.88216,359.38283 313.81177,351.92438 C 313.30767,350.10837 312.89522,346.39381 312.89522,343.6698 C 312.89522,335.05365 315.82683,327.91921 321.83686,321.90918 C 327.84689,315.89915 334.98133,312.96754 343.59748,312.96754 C 346.32149,312.96754 350.03605,313.37999 351.85206,313.88409 C 361.85073,316.65962 370.60767,325.41655 373.38319,335.41523 C 374.5586,339.64955 374.5586,347.69005 373.38319,351.92438 C 370.69485,361.60899 362.44937,370.11971 352.84261,373.12571 C 349.66172,374.12102 341.48252,374.84292 339.30511,374.32054 z M 190.10355,363.54732 C 187.92351,360.01995 188.07722,325.91006 190.2831,323.70419 C 190.55863,323.42865 217.50933,326.76812 250.17355,331.12523 C 282.83777,335.48234 309.64309,339.04724 309.74093,339.04724 C 309.83878,339.04724 309.91882,341.10128 309.91882,343.61176 L 309.91882,348.17627 L 307.44245,348.5661 C 306.08045,348.78051 280.30142,352.2233 250.15572,356.21675 C 220.01001,360.21021 194.26148,363.64785 192.93675,363.85596 C 191.56042,364.07217 190.34618,363.9399 190.10355,363.54732 z M 436.70907,356.1725 C 404.56576,351.86344 378.11811,348.32762 377.93651,348.31511 C 377.71908,348.30013 377.39164,339.04724 377.60854,339.04724 C 377.60976,339.04724 404.48992,335.48289 437.34224,331.12646 C 470.19456,326.77002 497.30399,323.43595 497.58544,323.7174 C 498.74868,324.88064 499.60464,338.38781 499.18462,348.95273 C 498.63427,362.79568 498.39745,364.16129 496.56232,364.07414 C 495.78634,364.03728 468.85238,360.48154 436.70907,356.1725 z M 256.09901,307.82053 C 225.59011,295.08446 200.53604,284.59951 200.4233,284.52063 C 200.31055,284.44175 202.19195,280.43863 204.60417,275.62479 C 210.03199,264.793 220.50491,248.87962 221.63719,249.74348 C 222.06793,250.07212 243.73162,266.63414 269.77872,286.54799 L 317.1371,322.75499 L 314.87775,326.76415 C 313.63511,328.96918 312.38245,330.81913 312.09407,330.87515 C 311.80569,330.93117 286.60791,320.55659 256.09901,307.82053 z M 373.11121,327.03468 C 371.81969,324.74316 370.9655,322.66983 371.21301,322.42727 C 372.58296,321.08475 466.16591,249.23749 466.54462,249.23749 C 467.66697,249.23749 478.83868,266.81535 483.01576,275.15361 C 485.55721,280.22684 487.54444,284.44236 487.43182,284.52143 C 487.28804,284.6224 385.52833,327.04749 376.20269,330.89446 C 375.7939,331.0631 374.40273,329.32619 373.11121,327.03468 z M 160.07284,326.08861 C 147.57378,324.86447 137.24614,323.76176 137.12254,323.63815 C 136.7001,323.21571 144.17544,229.15381 144.66713,228.70498 C 145.16891,228.24693 221.16386,175.89881 222.49528,175.09407 C 222.94477,174.82239 228.59186,182.2558 237.02333,194.21773 C 244.60934,204.98017 251.03877,214.15802 251.31094,214.61294 C 251.64207,215.1664 249.34784,217.411 244.3771,221.39681 C 214.69572,245.19696 193.62463,281.57288 188.08523,318.5759 C 186.5498,328.83255 186.67,328.49365 184.60182,328.39786 C 183.60994,328.35192 172.57189,327.31276 160.07284,326.08861 z M 500.88407,326.36297 C 500.10445,316.13142 495.71929,298.43184 490.93794,286.21797 C 479.85004,257.89417 461.14515,233.92329 435.44076,215.09669 C 435.28799,214.9848 435.7617,214.22581 436.49345,213.41004 C 437.22518,212.59427 443.7071,203.54045 450.8977,193.29044 C 458.84456,181.96241 464.25848,174.82748 464.70326,175.09628 C 466.03164,175.89909 542.02678,228.24759 542.52783,228.70498 C 543.01146,229.14644 550.49851,323.21206 550.08309,323.62749 C 549.93398,323.7766 502.51397,328.48139 501.16017,328.48139 C 501.09709,328.48139 500.97285,327.5281 500.88407,326.36297 z M 287.75266,271.25408 C 268.52715,246.31668 251.96534,224.7873 250.94864,223.411 L 249.1001,220.90865 L 257.95007,214.98549 C 266.05413,209.56156 283.91436,199.90009 284.5893,200.57503 C 284.83233,200.81806 331.05053,312.04207 331.05053,312.38389 C 331.05053,312.65848 323.76552,316.5948 323.25733,316.5948 C 322.95528,316.5948 306.97818,296.19148 287.75266,271.25408 z M 360.43681,314.61371 C 358.62081,313.53724 356.90874,312.5757 356.63221,312.47696 C 356.1943,312.32058 401.7932,201.3875 402.64588,200.53482 C 403.39444,199.78626 420.5506,208.80488 428.94977,214.3622 C 433.94379,217.6665 438.02884,220.55045 438.02767,220.77098 C 438.02459,221.35383 364.81971,316.23583 364.23273,316.41777 C 363.96099,316.502 362.25282,315.69017 360.43681,314.61371 z M 338.97368,309.82605 C 338.973,309.73525 335.5594,282.78854 331.38789,249.94447 C 327.21639,217.10039 323.88865,190.14266 323.99292,190.03839 C 324.56629,189.46502 337.09689,188.49466 343.92767,188.49466 C 350.77131,188.49466 363.28936,189.46534 363.86465,190.04062 C 363.97014,190.14612 360.49327,217.10286 356.13825,249.94448 C 351.78324,282.78611 348.22004,309.73181 348.22004,309.82383 C 348.22004,309.91586 346.13989,309.99114 343.59748,309.99114 C 341.05507,309.99114 338.97437,309.91685 338.97368,309.82605 z M 123.35003,214.86835 C 112.82569,208.70169 104.29279,203.35176 104.38803,202.97962 C 104.75248,201.55569 113.64496,187.83431 118.70401,180.88962 C 136.06379,157.05939 159.32918,133.94611 182.46822,117.54232 C 227.36206,85.716041 277.33219,68.659441 333.50981,65.986411 L 342.24255,65.570881 L 342.42475,88.053771 L 342.60693,110.53665 L 298.49343,131.79858 C 274.231,143.49263 254.29332,153.23018 254.18747,153.43756 C 254.08162,153.64495 258.84751,164.49187 264.77833,177.54184 C 270.70915,190.59181 275.49143,201.3133 275.40563,201.36736 C 275.31982,201.42142 272.8723,202.74225 269.96669,204.30254 C 267.06108,205.86281 262.51166,208.48122 259.85686,210.1212 C 257.09939,211.82462 254.79229,212.85087 254.47561,212.51491 C 254.17073,212.19146 247.17069,202.56613 238.91998,191.12529 C 230.66927,179.68445 223.8637,170.25921 223.79649,170.18031 C 223.72928,170.10141 206.00803,182.24966 184.41592,197.17642 C 162.82381,212.10319 144.55627,224.713 143.82137,225.19823 C 142.60844,225.99909 140.72019,225.04627 123.35003,214.86835 z M 504.07343,198.064 L 463.57653,170.07546 L 461.498,172.84108 C 460.35481,174.36217 453.36719,184.00239 445.96995,194.26379 C 433.17976,212.00628 432.45314,212.87745 431.14783,212.0347 C 425.02447,208.08129 415.04491,202.56194 411.78934,201.32819 C 411.70354,201.29567 416.48582,190.59181 422.41664,177.54184 C 428.34746,164.49187 433.11456,153.64691 433.01019,153.44193 C 432.90584,153.23695 413.04245,143.45993 388.86933,131.71519 L 344.91821,110.36115 L 344.91821,87.955321 L 344.91821,65.549491 L 353.99825,65.978531 C 386.18438,67.499371 414.43468,73.207831 442.32218,83.825911 C 479.84986,98.114471 510.90544,118.20108 539.81024,146.88078 C 556.10862,163.05222 567.55114,177.23761 579.14453,195.64381 L 583.89372,203.18383 L 565.33217,214.02941 C 555.12331,219.99447 546.27555,225.13993 545.67047,225.46376 C 544.81526,225.92145 535.55426,219.82128 504.07343,198.064 z M 268.33901,177.75288 C 262.80696,165.67644 258.14787,155.47211 257.98548,155.07659 C 257.81658,154.66522 276.1463,145.54395 300.8163,133.76304 L 343.94237,113.16863 L 386.4616,133.64473 C 409.84717,144.90659 429.08339,154.22339 429.20874,154.34874 C 429.41337,154.55337 409.29652,198.94698 408.75278,199.49072 C 408.62874,199.61477 405.13601,198.37291 400.99117,196.73104 C 391.61469,193.01678 379.01193,189.64833 367.37065,187.74498 C 360.00862,186.54129 355.86754,186.29146 343.59748,186.31078 C 330.58284,186.33126 327.51019,186.54925 318.83376,188.06767 C 307.1299,190.1159 295.71915,193.23496 286.18298,196.99256 C 282.3899,198.48718 279.0864,199.71005 278.84187,199.71005 C 278.59734,199.71005 273.87105,189.82932 268.33901,177.75288 z"
       id="path7961"
       style="fill:#ffffff" />
  </g>
</svg>
