<?xml version="1.0" encoding="utf-8"?>
<!-- Generator: Adobe Illustrator 12.0.0, SVG Export Plug-In  -->
<!DOCTYPE svg PUBLIC "-//W3C//DTD SVG 1.1//EN" "http://www.w3.org/Graphics/SVG/1.1/DTD/svg11.dtd" [
	<!ENTITY ns_flows "http://ns.adobe.com/Flows/1.0/">
	<!ENTITY ns_svg "http://www.w3.org/2000/svg">
	<!ENTITY ns_xlink "http://www.w3.org/1999/xlink">
]>
<svg  version="1.1" xmlns="&ns_svg;" xmlns:xlink="&ns_xlink;" xmlns:a="http://ns.adobe.com/AdobeSVGViewerExtensions/3.0/"
	 width="576" height="572" viewBox="-0.845 -0.177 576 572" enable-background="new -0.845 -0.177 576 572" xml:space="preserve">
<defs>
</defs>
<path d="M265.048,260.19c0,0-100.257-143.224-106.225-152.772s-16.709-37.596,16.709-57.886S267.435,24.467,287.725,0
	c0,0,19.323,20.952,96.677,44.161c59.677,17.903,23.87,76.386,23.87,76.386l-97.869,140.837c0,0-7.759-5.968-18.354-6.564v-47.145
	h-10.327v47.145C281.722,254.819,273.999,255.416,265.048,260.19z"/>
<path d="M320.226,267.463c0,0,104.979-139.802,112.206-148.441c7.217-8.639,30.542-27.568,60.208-2.107
	c29.675,25.46,52.38,79.566,81.948,91.245c0,0-13.912,24.878-11.936,105.614c1.529,62.287-65.188,46.427-65.188,46.427
	l-164.278-49.261c0,0,3.264-9.227,0.541-19.479l44.809-14.653l-3.213-9.814l-44.809,14.648
	C330.515,281.641,327.55,274.489,320.226,267.463z"/>
<path d="M254.363,267.151c0,0-104.98-139.802-112.207-148.441c-7.217-8.639-30.542-27.568-60.208-2.107
	C52.273,142.063,29.568,196.168,0,207.847c0,0,13.912,24.878,11.936,105.614c-1.529,62.288,65.187,46.427,65.187,46.427
	l164.279-49.261c0,0-3.263-9.227-0.541-19.479l-44.809-14.653l3.212-9.814l44.809,14.649
	C244.073,281.329,247.038,274.177,254.363,267.151z"/>
<path d="M293.029,348.68c0,0,4.163,174.773,5.026,186.01c0.855,11.227,8.83,40.184,47.769,36.705
	c38.948-3.469,88.872-34.295,119.718-26.616c0,0,3.142-28.328,51.676-92.881c37.452-49.798-26.062-75.669-26.062-75.669
	L328.85,320.832c0,0-2.716,9.404-10.889,16.169l27.942,37.965l-8.314,6.116l-27.948-37.96
	C309.641,343.122,303.074,347.211,293.029,348.68z"/>
<path d="M281.152,348.68c0,0-4.163,174.773-5.026,186.01c-0.855,11.227-8.83,40.184-47.769,36.705
	c-38.948-3.469-88.872-34.295-119.718-26.616c0,0-3.142-28.328-51.676-92.881c-37.452-49.798,26.062-75.669,26.062-75.669
	l162.307-55.396c0,0,2.716,9.404,10.889,16.169l-27.942,37.965l8.314,6.116l27.948-37.96
	C264.541,343.122,271.107,347.211,281.152,348.68z"/>
<circle cx="286.245" cy="302.207" r="37"/>
</svg>
