<?xml version="1.0" encoding="UTF-8" standalone="no"?>
<!-- Created with Inkscape (http://www.inkscape.org/) -->
<svg
   xmlns:dc="http://purl.org/dc/elements/1.1/"
   xmlns:cc="http://creativecommons.org/ns#"
   xmlns:rdf="http://www.w3.org/1999/02/22-rdf-syntax-ns#"
   xmlns:svg="http://www.w3.org/2000/svg"
   xmlns="http://www.w3.org/2000/svg"
   xmlns:sodipodi="http://sodipodi.sourceforge.net/DTD/sodipodi-0.dtd"
   xmlns:inkscape="http://www.inkscape.org/namespaces/inkscape"
   id="svg2522"
   sodipodi:version="0.32"
   inkscape:version="0.46"
   width="160"
   height="160"
   version="1.0"
   sodipodi:docname="jimonji.svg"
   inkscape:output_extension="org.inkscape.output.svg.inkscape">
  <metadata
     id="metadata2527">
    <rdf:RDF>
      <cc:Work
         rdf:about="">
        <dc:format>image/svg+xml</dc:format>
        <dc:type
           rdf:resource="http://purl.org/dc/dcmitype/StillImage" />
      </cc:Work>
    </rdf:RDF>
  </metadata>
  <defs
     id="defs2525">
    <inkscape:perspective
       sodipodi:type="inkscape:persp3d"
       inkscape:vp_x="0 : 526.18109 : 1"
       inkscape:vp_y="0 : 1000 : 0"
       inkscape:vp_z="744.09448 : 526.18109 : 1"
       inkscape:persp3d-origin="372.04724 : 350.78739 : 1"
       id="perspective2529" />
  </defs>
  <sodipodi:namedview
     inkscape:window-height="837"
     inkscape:window-width="1077"
     inkscape:pageshadow="2"
     inkscape:pageopacity="0.0"
     guidetolerance="10.0"
     gridtolerance="10.0"
     objecttolerance="10.0"
     borderopacity="1.0"
     bordercolor="#666666"
     pagecolor="#ffffff"
     id="base"
     showgrid="false"
     inkscape:zoom="3.5538462"
     inkscape:cx="115.04475"
     inkscape:cy="111.52658"
     inkscape:window-x="132"
     inkscape:window-y="132"
     inkscape:current-layer="svg2522" />
  <path
     style="fill:#000000"
     d="M 0,80 L 0,0 L 80,0 L 160,0 L 160,80 L 160,160 L 80,160 L 0,160 L 0,80 z M 94.43797,137.98156 C 97.30194,136.53895 104.14095,134.28485 109.63576,132.97244 C 115.13058,131.66005 120.983,129.69735 122.64116,128.61087 C 127.14274,125.66133 130.10644,119.95668 131.04662,112.43173 C 131.75851,106.73389 132.36407,105.52982 135.02695,104.5174 C 147.82894,99.65009 154.04623,83.77494 149.05569,68.696576 C 147.37191,63.609204 139.50518,55.847902 134.84763,54.678931 C 132.13141,53.997202 131.69248,53.058925 130.94664,46.340002 C 130.20141,39.626383 129.53415,38.197762 125.05314,33.721758 C 120.84003,29.513376 118.55474,28.351181 111.30617,26.730699 C 100.12301,24.230602 90.28338,19.85085 84.55993,14.825595 L 80.021043,10.840402 L 76.134813,14.110449 C 70.045639,19.23415 59.351568,24.08866 48.62862,26.59672 C 34.187733,29.974393 28.307692,36.566448 28.307692,49.378311 C 28.307692,52.364304 27.441481,53.317634 22.705711,55.54371 C 3.56591,64.540478 3.856187,95.1939 23.163631,103.90035 C 27.771262,105.9781 28.018777,106.38351 28.698075,112.96528 C 29.876251,124.3807 35.046136,129.28628 49.911914,133.09453 C 62.1675,136.23412 71.071321,140.40749 75.601,145.13547 L 79.115673,148.80399 L 84.17322,144.70425 C 86.95487,142.44939 91.57401,139.42419 94.43797,137.98156 z M 40.615385,105.23077 C 39.316478,103.66568 39.599708,103.38462 42.475737,103.38462 C 52.496665,103.38462 60.577197,97.4217 62.312226,88.74656 C 62.951355,85.55092 62.596355,84.41836 60.49398,82.9458 C 58.979483,81.885005 57.037907,78.165858 55.874187,74.096452 C 54.770139,70.235711 53.100636,66.202544 52.164182,65.133858 C 49.579866,62.184623 50.106602,60.438208 53.846154,59.557216 C 58.48769,58.463727 64,53.066789 64,49.615888 C 64,45.389937 69.808992,45.582075 70.878517,49.843402 C 72.061072,54.555077 70.70287,56.513964 64.32223,59.2993 C 57.206719,62.405429 57.385712,62.255637 58.213111,64.411803 C 58.755458,65.825136 60.10869,65.937972 65.268666,65.000117 C 68.780143,64.361886 72.485889,64.159242 73.50366,64.549797 C 76.501531,65.700188 72.955182,68.923077 68.691463,68.923077 C 63.467024,68.923077 60.406517,70.881286 61.155371,73.744907 C 62.062346,77.213185 63.605813,77.459743 77.082437,76.289144 C 91.69143,75.020185 93.11817,74.543618 93.8555,70.686545 C 94.34904,68.10479 93.96394,67.692308 91.06009,67.692308 C 85.94724,67.692308 80,66.285962 80,65.076923 C 80,64.484615 82.14615,64 84.76923,64 C 92.83994,64 97.39583,62.67039 96.93371,60.449865 C 96.64929,59.083199 95.38041,58.542065 92.87534,58.719096 C 89.20342,58.978584 82.408336,55.027564 83.92247,53.513429 C 84.36729,53.068606 87.76087,52.4172 91.46376,52.06586 C 97.18128,51.523367 98.58739,51.81816 100.79045,54.021222 C 104.04028,57.271049 104.0322,59.129125 100.7253,68.991788 C 96.86104,80.516805 95.10129,82.83564 90.86265,81.987914 L 87.38462,81.292308 L 87.40346,90.18462 C 87.42932,102.38562 87.70852,102.67461 98.64956,101.82525 C 111.65607,100.81554 111.68619,100.79314 112.69441,91.37849 C 113.4421,84.39663 113.78297,83.56073 115.1307,85.40387 C 116.8307,87.72875 121.24197,104.39906 120.38417,105.25685 C 120.09546,105.54557 112.8856,106.15459 104.36226,106.61025 L 88.86528,107.43871 L 85.66341,104.23684 C 82.88661,101.46004 82.461538,99.9967 82.461538,93.21426 C 82.461538,83.88903 80.728617,80.847235 75.749661,81.432876 C 72.708208,81.790623 71.951163,82.72341 70.115586,88.37492 C 67.496236,96.43955 63.951695,100.40103 56,104.15086 C 48.944441,107.4781 42.836338,107.90686 40.615385,105.23077 z"
     id="path2533" />
</svg>
