<?xml version="1.0" encoding="UTF-8" standalone="no"?>
<!-- Created with Inkscape (http://www.inkscape.org/) -->
<svg
   xmlns:dc="http://purl.org/dc/elements/1.1/"
   xmlns:cc="http://creativecommons.org/ns#"
   xmlns:rdf="http://www.w3.org/1999/02/22-rdf-syntax-ns#"
   xmlns:svg="http://www.w3.org/2000/svg"
   xmlns="http://www.w3.org/2000/svg"
   xmlns:sodipodi="http://sodipodi.sourceforge.net/DTD/sodipodi-0.dtd"
   xmlns:inkscape="http://www.inkscape.org/namespaces/inkscape"
   width="450"
   height="450"
   id="svg2"
   sodipodi:version="0.32"
   inkscape:version="0.46"
   version="1.0"
   sodipodi:docname="yamanouchi mon.svg"
   inkscape:output_extension="org.inkscape.output.svg.inkscape">
  <defs
     id="defs4">
    <inkscape:perspective
       sodipodi:type="inkscape:persp3d"
       inkscape:vp_x="0 : 526.18109 : 1"
       inkscape:vp_y="0 : 1000 : 0"
       inkscape:vp_z="744.09448 : 526.18109 : 1"
       inkscape:persp3d-origin="372.04724 : 350.78739 : 1"
       id="perspective10" />
    <inkscape:perspective
       id="perspective2390"
       inkscape:persp3d-origin="372.04724 : 350.78739 : 1"
       inkscape:vp_z="744.09448 : 526.18109 : 1"
       inkscape:vp_y="0 : 1000 : 0"
       inkscape:vp_x="0 : 526.18109 : 1"
       sodipodi:type="inkscape:persp3d" />
    <inkscape:perspective
       id="perspective2403"
       inkscape:persp3d-origin="372.04724 : 350.78739 : 1"
       inkscape:vp_z="744.09448 : 526.18109 : 1"
       inkscape:vp_y="0 : 1000 : 0"
       inkscape:vp_x="0 : 526.18109 : 1"
       sodipodi:type="inkscape:persp3d" />
    <inkscape:perspective
       id="perspective3210"
       inkscape:persp3d-origin="372.04724 : 350.78739 : 1"
       inkscape:vp_z="744.09448 : 526.18109 : 1"
       inkscape:vp_y="0 : 1000 : 0"
       inkscape:vp_x="0 : 526.18109 : 1"
       sodipodi:type="inkscape:persp3d" />
    <inkscape:perspective
       id="perspective3253"
       inkscape:persp3d-origin="372.04724 : 350.78739 : 1"
       inkscape:vp_z="744.09448 : 526.18109 : 1"
       inkscape:vp_y="0 : 1000 : 0"
       inkscape:vp_x="0 : 526.18109 : 1"
       sodipodi:type="inkscape:persp3d" />
    <inkscape:perspective
       id="perspective3299"
       inkscape:persp3d-origin="372.04724 : 350.78739 : 1"
       inkscape:vp_z="744.09448 : 526.18109 : 1"
       inkscape:vp_y="0 : 1000 : 0"
       inkscape:vp_x="0 : 526.18109 : 1"
       sodipodi:type="inkscape:persp3d" />
    <inkscape:perspective
       id="perspective3334"
       inkscape:persp3d-origin="372.04724 : 350.78739 : 1"
       inkscape:vp_z="744.09448 : 526.18109 : 1"
       inkscape:vp_y="0 : 1000 : 0"
       inkscape:vp_x="0 : 526.18109 : 1"
       sodipodi:type="inkscape:persp3d" />
    <inkscape:perspective
       id="perspective3483"
       inkscape:persp3d-origin="372.04724 : 350.78739 : 1"
       inkscape:vp_z="744.09448 : 526.18109 : 1"
       inkscape:vp_y="0 : 1000 : 0"
       inkscape:vp_x="0 : 526.18109 : 1"
       sodipodi:type="inkscape:persp3d" />
    <inkscape:perspective
       id="perspective3546"
       inkscape:persp3d-origin="372.04724 : 350.78739 : 1"
       inkscape:vp_z="744.09448 : 526.18109 : 1"
       inkscape:vp_y="0 : 1000 : 0"
       inkscape:vp_x="0 : 526.18109 : 1"
       sodipodi:type="inkscape:persp3d" />
    <inkscape:perspective
       id="perspective3615"
       inkscape:persp3d-origin="372.04724 : 350.78739 : 1"
       inkscape:vp_z="744.09448 : 526.18109 : 1"
       inkscape:vp_y="0 : 1000 : 0"
       inkscape:vp_x="0 : 526.18109 : 1"
       sodipodi:type="inkscape:persp3d" />
    <inkscape:perspective
       id="perspective2596"
       inkscape:persp3d-origin="372.04724 : 350.78739 : 1"
       inkscape:vp_z="744.09448 : 526.18109 : 1"
       inkscape:vp_y="0 : 1000 : 0"
       inkscape:vp_x="0 : 526.18109 : 1"
       sodipodi:type="inkscape:persp3d" />
  </defs>
  <sodipodi:namedview
     id="base"
     pagecolor="#ffffff"
     bordercolor="#666666"
     borderopacity="1.0"
     inkscape:pageopacity="0.0"
     inkscape:pageshadow="2"
     inkscape:zoom="0.72702114"
     inkscape:cx="243.43711"
     inkscape:cy="234.05194"
     inkscape:document-units="px"
     inkscape:current-layer="layer1"
     showgrid="false"
     inkscape:window-width="1024"
     inkscape:window-height="748"
     inkscape:window-x="-8"
     inkscape:window-y="-8" />
  <metadata
     id="metadata7">
    <rdf:RDF>
      <cc:Work
         rdf:about="">
        <dc:format>image/svg+xml</dc:format>
        <dc:type
           rdf:resource="http://purl.org/dc/dcmitype/StillImage" />
      </cc:Work>
    </rdf:RDF>
  </metadata>
  <g
     inkscape:label="Capa 1"
     inkscape:groupmode="layer"
     id="layer1">
    <rect
       style="opacity:1;fill:#000000;fill-opacity:1;fill-rule:nonzero;stroke:none;stroke-width:22;stroke-linecap:round;stroke-linejoin:round;stroke-miterlimit:4;stroke-dasharray:none;stroke-dashoffset:0;stroke-opacity:1"
       id="rect3224"
       width="450.31766"
       height="450.31766"
       x="-6.8113923e-07"
       y="-0.31765935"
       ry="8.2044783" />
    <path
       style="fill:none;fill-rule:evenodd;stroke:#000000;stroke-width:3;stroke-linecap:butt;stroke-linejoin:miter;stroke-miterlimit:4;stroke-dasharray:none;stroke-opacity:1"
       d="M 106.0143,414.4998 L 106.98691,404.77372 L 108.44582,396.50655 L 109.90473,391.1572 L 110.87734,387.75307 L 131.30212,395.53394"
       id="path3380" />
    <path
       sodipodi:type="arc"
       style="opacity:1;fill:#ffffff;fill-opacity:1;fill-rule:nonzero;stroke:none;stroke-width:1;stroke-linecap:round;stroke-linejoin:round;stroke-miterlimit:4;stroke-dasharray:none;stroke-dashoffset:0;stroke-opacity:1"
       id="path3426"
       sodipodi:cx="251.41924"
       sodipodi:cy="768.28607"
       sodipodi:rx="90.452568"
       sodipodi:ry="90.695724"
       d="M 341.74239,773.13592 A 90.452568,90.695724 0 1 1 341.75205,772.95142"
       sodipodi:start="0.053499384"
       sodipodi:end="6.3346476"
       sodipodi:open="true"
       transform="matrix(2.1321197,0,0,2.1078732,-312.79925,-1395.2059)" />
    <path
       sodipodi:type="arc"
       style="opacity:1;fill:#000000;fill-opacity:1;fill-rule:nonzero;stroke:none;stroke-width:1;stroke-linecap:round;stroke-linejoin:round;stroke-miterlimit:4;stroke-dasharray:none;stroke-dashoffset:0;stroke-opacity:1"
       id="path3424"
       sodipodi:cx="251.41924"
       sodipodi:cy="768.28607"
       sodipodi:rx="90.452568"
       sodipodi:ry="90.695724"
       d="M 341.74239,773.13592 A 90.452568,90.695724 0 1 1 341.75205,772.95142"
       sodipodi:start="0.053499384"
       sodipodi:end="6.3346476"
       sodipodi:open="true"
       transform="matrix(1.7883857,0,0,1.774326,-225.95786,-1139.3665)" />
    <path
       style="fill:#ffffff;fill-opacity:1;fill-rule:evenodd;stroke:none;stroke-width:1px;stroke-linecap:butt;stroke-linejoin:miter;stroke-opacity:1"
       d="M 218.94919,229.30539 L 215.97817,238.21846 L 211.22452,245.94313 L 205.87669,253.6678 L 192.20995,269.71135 L 186.26788,274.465 L 178.54324,279.21864 C 178.54324,279.21864 172.00696,281.59546 169.63015,282.18966 C 167.25332,282.78388 159.52864,287.53752 159.52864,287.53752 L 155.96342,294.07378 L 152.39818,295.8564 L 142.8909,296.45061 L 135.16622,297.63903 L 128.03575,301.79847 C 128.03575,301.79847 128.62996,304.76949 126.25314,304.76949 C 123.87632,304.76949 108.42698,302.98687 108.42698,302.98687 L 94.760236,302.98687 L 86.441368,302.98687 L 87.035572,296.45061 L 92.383432,289.32015 L 97.731268,279.81286 L 99.51388,273.2766 L 104.86172,267.92874 L 114.36903,263.1751 L 120.31108,256.04464 L 122.09368,251.29099 L 125.06472,247.72575 L 133.9778,245.94313 L 141.70248,242.3779 L 148.23874,237.62425 L 154.775,232.87061 L 164.28229,228.71117 L 175.5722,226.92856 C 175.5722,226.92856 185.67369,225.74014 188.64472,225.74014 C 191.61574,225.74014 204.68827,225.74014 204.68827,225.74014 L 213.00714,225.74014 L 218.94919,229.30539 z"
       id="path2602" />
    <path
       style="fill:none;fill-rule:evenodd;stroke:#000000;stroke-width:1.72800004px;stroke-linecap:butt;stroke-linejoin:miter;stroke-opacity:1"
       d="M 214.19556,229.30539 L 99.51388,294.07378"
       id="path2604" />
    <path
       style="fill:none;fill-rule:evenodd;stroke:#000000;stroke-width:1.72800004px;stroke-linecap:butt;stroke-linejoin:miter;stroke-opacity:1"
       d="M 114.36903,293.47956 L 122.09368,292.29118 L 126.84735,289.32015 L 132.1952,283.37808 L 137.54304,277.43602 L 142.29668,269.11716 L 131.00678,270.30556 L 123.87632,270.89976 L 117.93426,273.2766 L 111.398,276.84183 L 107.83276,282.18966"
       id="path2606" />
    <path
       style="fill:none;fill-rule:evenodd;stroke:#000000;stroke-width:1.72800004px;stroke-linecap:butt;stroke-linejoin:miter;stroke-opacity:1"
       d="M 125.06472,259.01565 L 133.9778,255.45042 L 147.05032,254.262 L 155.96342,255.45042 L 162.49966,255.45042 L 166.06492,255.45042 L 164.28229,261.39247 L 161.90546,267.92874 L 159.52864,275.05921 L 155.36922,280.40706 L 150.02136,285.16071 L 142.8909,289.91434"
       id="path2608" />
    <path
       style="fill:none;fill-rule:evenodd;stroke:#000000;stroke-width:1.72800004px;stroke-linecap:butt;stroke-linejoin:miter;stroke-opacity:1"
       d="M 172.00696,275.05921 L 180.32584,268.52296 L 185.07949,261.39247 L 189.23893,254.85622 L 192.80416,247.13155 L 193.39837,240.00108 L 188.05052,238.81267 L 182.10847,237.62425 L 174.97798,237.62425 L 166.06492,237.62425 L 158.93444,238.81267 L 153.5866,241.78368"
       id="path2610" />
    <path
       style="fill:#ffffff;fill-opacity:1;fill-rule:evenodd;stroke:none;stroke-width:1px;stroke-linecap:butt;stroke-linejoin:miter;stroke-opacity:1"
       d="M 227.86228,215.63866 L 233.80435,200.78351 L 240.93481,188.30519 L 245.68845,175.23267 L 249.25369,163.34855 L 248.06527,152.05865 C 248.06527,152.05865 246.87687,144.9282 246.87687,141.95717 C 246.87687,138.98614 249.84789,131.85567 249.84789,131.85567 C 249.84789,131.85567 252.81891,128.88463 251.63052,126.50782 C 250.4421,124.13099 245.68845,118.78314 245.68845,118.78314 L 242.71742,111.65267 L 243.90583,101.55118 L 240.93481,93.232319 L 235.58697,84.913415 L 232.02172,76.594559 L 227.26809,70.058291 L 220.73181,69.464087 L 216.57238,74.811935 L 211.81874,86.101835 L 205.28248,90.855479 L 202.90564,98.580157 L 202.90564,111.65267 L 201.12304,117.59472 L 194.58679,124.72521 L 196.36939,133.63827 L 199.93462,145.52239 L 196.96359,164.53697 L 198.7462,173.45005 L 204.68827,190.68202 L 211.22452,201.37773 L 215.97817,209.69659 L 218.94919,215.04444 L 220.73181,217.42127 L 227.86228,215.63866 z"
       id="path2640" />
    <path
       style="fill:none;fill-rule:evenodd;stroke:#000000;stroke-width:1.72800004px;stroke-linecap:butt;stroke-linejoin:miter;stroke-opacity:1"
       d="M 223.10865,214.45024 L 224.29706,83.130803"
       id="path2612" />
    <path
       style="fill:none;fill-rule:evenodd;stroke:#000000;stroke-width:1.72800004px;stroke-linecap:butt;stroke-linejoin:miter;stroke-opacity:1"
       d="M 215.97817,95.609127 L 214.19556,104.52222 L 213.60135,111.65267 L 215.97817,119.37735 L 220.13761,127.10202 L 223.70284,131.85567 L 227.86228,125.91363 L 232.02172,117.00053 C 232.02172,117.00053 233.21013,111.65267 233.21013,109.27587 C 233.21013,106.89903 233.21013,101.55118 233.21013,101.55118 L 229.64491,95.014917"
       id="path2614" />
    <path
       style="fill:none;fill-rule:evenodd;stroke:#000000;stroke-width:1.72800004px;stroke-linecap:butt;stroke-linejoin:miter;stroke-opacity:1"
       d="M 206.47089,121.15998 L 206.47089,133.63827 L 208.84771,141.36295 L 215.38396,148.49343 L 220.13761,154.43549 L 223.10865,158.59491 L 227.86228,152.65287 L 233.21013,145.52239 L 236.77537,137.79773 L 239.74641,130.66726 L 240.93481,121.75419"
       id="path2616" />
    <path
       style="fill:none;fill-rule:evenodd;stroke:#000000;stroke-width:1.72800004px;stroke-linecap:butt;stroke-linejoin:miter;stroke-opacity:1"
       d="M 205.28248,154.43549 L 205.87669,160.97175 L 207.65929,167.508 L 210.03613,174.04426 L 214.78977,181.17473 L 219.5434,187.11679 L 223.10865,191.27621 L 228.45649,185.33416 L 234.39855,179.39211 L 239.1522,171.07323 L 242.12322,160.97175 L 242.12322,154.43549"
       id="path2618" />
    <path
       style="fill:#ffffff;fill-opacity:1;fill-rule:evenodd;stroke:none;stroke-width:1px;stroke-linecap:butt;stroke-linejoin:miter;stroke-opacity:1"
       d="M 229.64491,234.05903 L 242.12322,254.262 L 252.81891,268.52296 L 261.13779,275.65342 L 271.8335,281.00128 L 281.34078,286.34911 L 287.87704,294.07378 C 287.87704,294.07378 293.8191,297.04482 296.19594,297.04482 C 298.57274,297.04482 308.67426,297.04482 308.67426,297.04482 L 313.4279,299.42163 L 322.34096,304.76949 L 338.97872,304.76949 L 355.61647,304.76949 L 357.99331,304.17528 L 359.18172,297.04482 C 359.18172,297.04482 355.61647,292.29118 354.42808,289.91434 C 353.23966,287.53752 347.89182,282.78388 347.89182,282.78388 L 346.10918,275.65342 L 340.76134,269.11716 L 333.03667,263.76931 L 326.50041,257.82725 L 322.34096,251.29099 L 315.8047,247.72575 C 315.8047,247.72575 307.48584,246.53735 305.109,244.16052 C 302.73219,241.78368 293.22489,235.84165 293.22489,235.84165 L 281.34078,229.89959 L 270.64508,227.52276 L 258.16677,226.33435 L 239.1522,224.55175 L 234.39855,224.55175 L 230.2391,225.14593 L 229.64491,234.05903 z"
       id="path2642" />
    <path
       style="fill:none;fill-rule:evenodd;stroke:#000000;stroke-width:1.72800004px;stroke-linecap:butt;stroke-linejoin:miter;stroke-opacity:1"
       d="M 233.21013,228.71117 L 345.51499,295.8564"
       id="path2644" />
    <path
       style="fill:none;fill-rule:evenodd;stroke:#000000;stroke-width:1.72800004px;stroke-linecap:butt;stroke-linejoin:miter;stroke-opacity:1"
       d="M 330.65985,295.2622 L 324.12358,293.47956 L 319.36994,291.10276 L 312.83368,286.34911 L 309.86264,283.37808 L 305.70321,276.24761 L 304.5148,272.08818 L 311.05106,271.49397 L 321.15254,271.49397 L 330.06564,274.465 L 336.6019,279.21864 L 338.3845,283.97229"
       id="path2646" />
    <path
       style="fill:none;fill-rule:evenodd;stroke:#000000;stroke-width:1.72800004px;stroke-linecap:butt;stroke-linejoin:miter;stroke-opacity:1"
       d="M 302.73219,289.91434 L 296.19594,286.34911 L 290.84808,282.78388 L 286.68865,275.65342 L 284.31182,268.52296 L 281.34078,261.98668 L 280.7466,257.23303 L 286.09443,256.63884 C 286.09443,256.63884 293.22489,256.04464 295.60172,256.04464 C 297.97855,256.04464 306.29742,256.04464 306.29742,256.04464 L 314.6163,258.42145 L 320.55836,260.79828"
       id="path2648" />
    <path
       style="fill:none;fill-rule:evenodd;stroke:#000000;stroke-width:1.72800004px;stroke-linecap:butt;stroke-linejoin:miter;stroke-opacity:1"
       d="M 273.02191,275.65342 L 267.67406,271.49397 L 262.92042,266.74032 L 259.94937,262.58089 L 256.38415,255.45042 L 253.41312,248.31996 L 252.81891,241.18949 L 259.94937,239.40688 L 268.26828,239.40688 L 276.58713,239.40688 L 285.50023,240.5953 L 291.44229,242.3779"
       id="path2650" />
    <path
       sodipodi:type="arc"
       style="opacity:1;fill:#ffffff;fill-opacity:1;fill-rule:nonzero;stroke:#000000;stroke-width:1;stroke-linecap:round;stroke-linejoin:round;stroke-miterlimit:4;stroke-dasharray:none;stroke-dashoffset:0;stroke-opacity:1"
       id="path2652"
       sodipodi:cx="248.10146"
       sodipodi:cy="768.0788"
       sodipodi:rx="6.0177069"
       sodipodi:ry="5.5019031"
       d="M 254.11055,768.373 A 6.0177069,5.5019031 0 1 1 254.1112,768.36181"
       sodipodi:start="0.053499384"
       sodipodi:end="6.3346476"
       sodipodi:open="true"
       transform="matrix(1.728,0,0,1.728,-205.31356,-1102.0942)" />
  </g>
</svg>
