<?xml version="1.0" standalone="no"?>
<!DOCTYPE svg PUBLIC "-//W3C//DTD SVG 20010904//EN"
 "http://www.w3.org/TR/2001/REC-SVG-20010904/DTD/svg10.dtd">
<svg version="1.0" xmlns="http://www.w3.org/2000/svg"
 width="5000.000000pt" height="5000.000000pt" viewBox="0 0 5000.000000 5000.000000"
 preserveAspectRatio="xMidYMid meet">
<metadata>
Created by potrace 1.16, written by Peter Selinger 2001-2019
</metadata>
<g transform="translate(0.000000,5000.000000) scale(0.100000,-0.100000)"
fill="#000000" stroke="none">
<path d="M14809 45737 c-24 -13 -57 -43 -74 -66 -30 -43 -30 -44 -29 -169 2
-263 114 -1156 220 -1757 288 -1641 758 -3058 1435 -4326 l51 -96 -59 -94
c-376 -593 -758 -1354 -1078 -2144 -133 -330 -148 -376 -231 -715 -543 -2215
-874 -3984 -910 -4860 l-6 -145 368 -139 c437 -164 478 -177 1009 -311 1092
-275 2276 -519 3475 -715 206 -34 409 -68 450 -76 112 -22 424 -57 1035 -119
1851 -185 3738 -305 4805 -305 1646 0 5160 299 7410 630 446 65 1317 247 1994
417 l339 84 516 198 c284 109 605 232 714 272 l197 74 0 68 c0 101 -27 400
-61 667 -105 837 -340 2011 -700 3495 -126 519 -333 1328 -364 1421 -29 86
-235 568 -335 784 -183 395 -430 863 -642 1218 l-109 182 101 185 c790 1444
1326 3213 1585 5228 41 321 95 843 95 923 0 190 -223 286 -363 155 -42 -38
-50 -59 -97 -236 -57 -217 -154 -535 -244 -800 -482 -1417 -1219 -2725 -2120
-3758 -67 -77 -134 -154 -150 -173 l-28 -34 -72 67 c-90 86 -309 274 -451 388
-1166 933 -2720 1680 -4435 2130 -269 71 -638 157 -652 153 -5 -2 30 -51 78
-108 474 -567 937 -1395 1262 -2260 225 -596 394 -1213 551 -2010 69 -350 147
-817 139 -825 -3 -3 -101 -42 -218 -86 -133 -50 -216 -76 -220 -69 -3 5 -12
63 -19 127 -39 366 -131 965 -207 1343 -225 1124 -696 2461 -1254 3565 -179
353 -171 341 -221 349 -37 6 -142 -33 -1147 -425 -609 -238 -1117 -434 -1129
-437 -12 -2 -108 31 -230 81 -114 47 -525 214 -912 372 -554 226 -706 284
-713 273 -24 -34 -325 -652 -393 -807 -324 -736 -587 -1472 -790 -2211 -129
-470 -230 -965 -314 -1541 -30 -203 -81 -599 -81 -626 0 -10 -7 -12 -22 -8
-51 16 -404 157 -412 165 -26 25 154 964 294 1535 328 1337 890 2554 1576
3413 l93 117 -29 13 c-27 11 -52 7 -216 -33 -2016 -488 -3846 -1377 -5113
-2484 l-105 -91 -45 52 c-642 733 -1155 1500 -1591 2383 -355 719 -628 1437
-840 2216 -66 243 -81 274 -156 316 -55 32 -145 31 -205 0z m556 -1857 c979
-2369 2580 -4224 4635 -5370 240 -134 733 -376 975 -478 468 -198 943 -363
1420 -492 105 -28 198 -53 207 -56 14 -4 8 -18 -40 -82 -330 -446 -541 -1006
-592 -1572 -11 -129 -12 -405 -2 -522 9 -91 11 -93 -83 47 -88 132 -215 390
-264 542 -82 246 -112 449 -117 786 -2 136 -6 252 -9 257 -13 22 -35 8 -44
-27 -29 -115 -36 -200 -36 -443 0 -265 6 -329 51 -557 46 -228 129 -486 222
-685 25 -54 43 -101 40 -104 -3 -3 -79 24 -169 59 l-164 64 -88 109 c-107 132
-275 381 -351 522 -217 399 -381 915 -462 1452 -12 83 -41 106 -64 49 -15 -35
-10 -120 21 -356 76 -585 201 -1031 404 -1435 35 -71 60 -128 56 -128 -15 0
-445 220 -464 238 -11 9 -52 62 -92 117 -336 461 -592 1076 -689 1653 -25 148
-39 289 -54 552 -6 107 -9 125 -24 128 -12 2 -21 -6 -28 -23 -13 -34 -13 -494
0 -661 38 -487 147 -934 327 -1342 30 -68 53 -126 51 -128 -2 -1 -32 15 -66
38 -72 47 -180 181 -327 403 -414 626 -640 1246 -749 2053 -13 95 -28 178 -34
184 -8 8 -16 7 -28 -3 -15 -12 -16 -31 -11 -179 23 -593 207 -1320 482 -1897
35 -73 61 -133 58 -133 -3 0 -43 30 -90 66 -90 71 -155 151 -335 414 -467 682
-719 1428 -788 2330 -11 144 -26 185 -50 139 -17 -31 -7 -478 15 -679 49 -453
161 -917 320 -1325 24 -60 52 -135 64 -165 l21 -55 -168 170 -168 170 -91 180
c-295 582 -483 1175 -557 1750 -26 202 -36 368 -36 600 0 176 -3 225 -14 241
-10 13 -18 16 -25 9 -20 -20 -34 -350 -28 -650 10 -504 77 -976 197 -1393 17
-56 30 -105 30 -109 0 -17 -108 140 -161 235 -87 154 -239 467 -297 612 -203
508 -330 1138 -368 1840 -6 119 -15 157 -35 144 -19 -11 -5 -416 26 -799 27
-317 76 -658 131 -914 13 -63 23 -115 21 -117 -6 -7 -224 380 -305 541 -126
252 -239 698 -287 1135 -18 168 -35 540 -28 621 6 67 -10 110 -33 88 -34 -35
-44 -688 -14 -972 6 -59 10 -113 8 -119 -8 -23 -285 674 -307 773 -22 96 -41
347 -41 526 1 208 9 319 41 528 17 110 19 146 10 168 -14 35 -32 31 -43 -9
-43 -152 -93 -478 -104 -674 -4 -66 -9 -118 -11 -116 -8 8 -124 394 -183 606
-137 501 -244 975 -339 1514 -40 221 -111 681 -111 707 1 8 38 -85 84 -206 45
-121 113 -294 151 -385z m20175 324 c-129 -840 -324 -1696 -553 -2423 l-23
-74 -17 169 c-26 262 -88 583 -115 592 -6 2 -17 -9 -22 -24 -9 -21 -5 -70 16
-208 32 -220 44 -571 25 -773 -11 -109 -19 -145 -63 -267 -53 -148 -211 -549
-247 -626 l-21 -45 5 60 c3 33 8 188 11 345 7 317 -6 584 -31 609 -12 13 -16
11 -25 -13 -6 -16 -8 -49 -4 -75 7 -61 -12 -461 -31 -631 -24 -209 -62 -417
-115 -628 -48 -188 -51 -197 -157 -405 -103 -202 -295 -549 -300 -543 -1 1 8
58 22 127 77 396 128 890 142 1375 6 226 2 265 -24 231 -6 -6 -15 -102 -22
-211 -40 -669 -161 -1257 -362 -1763 -27 -70 -92 -213 -144 -318 -72 -147
-114 -218 -185 -313 -51 -68 -94 -121 -96 -119 -2 2 9 55 26 118 61 237 113
534 145 834 33 308 29 1066 -6 1100 -7 7 -15 4 -23 -8 -10 -13 -15 -94 -19
-325 -5 -319 -17 -450 -63 -722 -77 -452 -249 -974 -468 -1425 l-93 -190 -173
-178 c-95 -98 -174 -176 -176 -174 -2 2 12 43 31 91 159 405 273 865 326 1316
25 221 38 684 19 719 -24 46 -38 5 -50 -144 -60 -785 -264 -1464 -618 -2060
-68 -115 -234 -364 -300 -450 -35 -46 -250 -231 -258 -222 -2 2 16 46 40 98
261 560 443 1287 463 1854 5 154 4 171 -12 185 -15 13 -19 12 -31 -5 -8 -10
-14 -33 -14 -49 0 -17 -11 -107 -25 -199 -113 -770 -333 -1362 -732 -1971
-146 -224 -193 -279 -295 -347 -50 -34 -88 -55 -85 -48 3 8 29 68 57 134 105
243 202 578 249 860 42 246 53 385 58 720 5 344 1 390 -35 383 -15 -3 -18 -26
-28 -208 -7 -113 -17 -250 -24 -305 -70 -597 -336 -1287 -686 -1780 -62 -88
-73 -98 -148 -139 -117 -64 -398 -206 -407 -206 -4 0 26 71 66 158 194 420
311 874 380 1472 18 162 19 211 3 245 -23 51 -51 25 -62 -60 -15 -107 -69
-367 -108 -520 -129 -513 -329 -947 -612 -1330 -143 -194 -102 -167 -459 -306
l-47 -19 14 33 c165 380 241 646 281 987 34 285 4 768 -48 778 -24 5 -27 -17
-31 -283 -6 -326 -36 -521 -116 -765 -94 -288 -264 -582 -472 -816 -69 -77
-78 -84 -148 -108 -96 -32 -349 -106 -365 -106 -9 0 -8 22 5 88 21 102 50 317
50 372 0 21 14 106 30 189 46 228 62 390 62 621 0 186 -20 436 -38 483 -3 10
-13 17 -20 17 -30 0 -36 -42 -26 -205 8 -153 1 -395 -15 -460 -5 -25 -9 -14
-20 59 -30 207 -100 464 -180 666 -61 155 -193 411 -282 548 -41 62 -72 114
-70 116 2 2 51 13 109 25 196 41 544 129 775 196 2882 831 5101 2712 6475
5490 212 429 407 881 551 1282 24 67 45 120 47 119 1 -2 -16 -124 -38 -272z
m-10141 -5979 c906 -112 1686 -669 2086 -1490 127 -260 207 -515 251 -800 23
-148 26 -568 6 -710 -44 -305 -128 -580 -256 -840 -122 -248 -250 -437 -428
-635 -335 -372 -817 -663 -1303 -789 -933 -240 -1903 24 -2580 703 -403 404
-657 900 -757 1481 -20 114 -22 165 -22 415 0 250 2 301 22 415 49 283 126
524 248 770 407 829 1221 1394 2144 1488 105 11 477 6 589 -8z m-9567 -5714
c166 -64 280 -221 281 -391 2 -189 -118 -350 -305 -411 -56 -18 -85 -21 -165
-17 -88 3 -106 7 -174 39 -270 129 -336 456 -134 668 98 103 201 143 350 137
61 -2 109 -11 147 -25z m19429 13 c215 -64 343 -240 326 -446 -11 -126 -96
-262 -205 -325 -135 -80 -322 -84 -465 -11 -49 25 -121 90 -157 144 -109 158
-87 378 53 518 116 116 297 165 448 120z m-16290 -480 c85 -26 144 -60 203
-118 187 -188 156 -492 -67 -639 -147 -98 -347 -103 -499 -14 -62 36 -145 128
-176 194 -24 52 -27 69 -27 168 0 104 2 114 32 176 36 73 123 163 191 198 99
50 241 65 343 35z m13110 0 c120 -36 210 -102 266 -195 172 -287 -42 -639
-386 -639 -129 0 -229 38 -318 122 -89 85 -133 185 -133 305 0 185 136 357
320 407 74 20 184 20 251 0z m-9870 -263 c73 -25 123 -57 181 -117 161 -169
154 -421 -17 -583 -162 -153 -414 -169 -594 -37 -62 46 -103 97 -139 173 -24
52 -27 70 -27 163 0 97 2 110 31 170 59 122 160 206 293 242 81 22 190 18 272
-11z m6691 0 c70 -24 130 -64 185 -124 224 -243 88 -622 -249 -693 -87 -19
-164 -13 -253 20 -116 42 -200 119 -253 233 -24 52 -27 70 -27 163 0 97 2 110
32 173 98 206 343 305 565 228z m-3477 -170 c165 -58 276 -197 292 -365 20
-219 -148 -419 -383 -457 -85 -14 -192 4 -275 45 -253 128 -318 448 -132 656
118 131 326 182 498 121z"/>
<path d="M24890 37987 c-3 -3 -42 -7 -86 -11 -277 -21 -643 -137 -907 -288
-813 -462 -1286 -1299 -1254 -2218 35 -981 667 -1853 1591 -2195 407 -151 876
-188 1305 -103 384 75 747 243 1056 488 108 86 306 285 389 392 331 428 509
922 521 1453 30 1241 -888 2308 -2125 2469 -96 12 -480 22 -490 13z m455 -182
c434 -65 787 -211 1107 -457 773 -597 1074 -1611 753 -2538 -200 -576 -659
-1072 -1224 -1320 -308 -135 -593 -191 -946 -185 -224 3 -344 19 -539 70 -785
205 -1411 840 -1612 1633 -48 188 -65 336 -65 547 -1 274 41 527 126 765 43
121 159 353 230 462 168 256 396 487 645 655 295 200 685 341 1016 369 43 4
81 8 84 11 6 6 375 -5 425 -12z"/>
<path d="M24862 37690 c-225 -59 -429 -250 -502 -469 -53 -159 -42 -370 26
-503 29 -56 35 -58 163 -51 92 5 134 2 194 -11 197 -44 358 -181 416 -354 12
-34 21 -72 21 -85 0 -24 -1 -24 -74 -19 -149 9 -296 -37 -424 -133 l-74 -55
-60 55 c-212 197 -469 294 -743 282 -234 -10 -434 -98 -599 -263 -175 -176
-254 -378 -244 -623 9 -201 76 -352 222 -496 88 -87 190 -148 301 -181 91 -26
241 -23 330 7 108 37 119 67 100 274 -13 149 23 257 118 362 88 96 224 167
345 179 l57 6 3 -86 c4 -144 60 -284 161 -398 21 -24 28 -39 20 -43 -24 -15
-133 -174 -171 -250 -180 -356 -154 -779 67 -1090 55 -78 185 -201 258 -244
107 -63 179 -83 312 -89 147 -5 210 8 345 75 79 38 109 61 181 132 151 151
216 319 207 534 -5 124 -38 239 -80 284 -21 23 -27 24 -88 18 -225 -24 -385
24 -528 159 -82 78 -138 177 -148 261 l-6 50 87 -3 c155 -6 288 37 415 135
l66 50 49 -44 c133 -118 300 -214 452 -259 117 -35 320 -44 436 -20 188 38
330 117 472 260 89 89 107 114 153 206 73 147 87 206 87 370 0 113 -4 147 -24
210 -79 256 -286 458 -522 510 -78 17 -249 9 -319 -16 -47 -17 -58 -26 -78
-64 -19 -37 -22 -55 -18 -100 17 -158 18 -190 7 -241 -27 -128 -108 -245 -225
-321 -63 -40 -184 -84 -251 -90 l-40 -3 -6 100 c-10 144 -45 237 -138 358 -32
41 -47 69 -40 73 6 3 38 43 71 87 78 105 151 258 185 382 23 88 26 119 27 265
0 142 -3 177 -23 254 -89 342 -319 597 -606 671 -82 21 -232 19 -323 -5z m273
-265 c173 -44 344 -183 423 -345 55 -112 73 -185 74 -300 1 -151 -34 -294
-109 -445 -47 -95 -126 -215 -138 -212 -5 2 -13 44 -17 93 -11 121 -40 230
-88 326 -51 103 -94 161 -175 236 -133 125 -281 182 -472 182 l-115 0 4 63
c10 168 178 350 369 401 71 19 171 20 244 1z m-1122 -1360 c115 -17 246 -59
353 -113 l78 -39 -65 -7 c-98 -11 -147 -25 -234 -66 -248 -119 -404 -367 -422
-670 -3 -58 -11 -108 -17 -112 -18 -13 -128 -9 -185 7 -94 25 -162 65 -237
139 -92 93 -126 161 -132 271 -3 64 0 93 18 144 77 228 314 410 585 450 91 13
151 12 258 -4z m2612 -10 c198 -52 360 -228 373 -404 11 -154 -80 -324 -238
-446 -260 -200 -618 -215 -970 -42 -76 37 -82 42 -55 45 314 30 551 218 649
515 23 68 46 209 46 278 0 46 3 58 18 62 38 10 121 6 177 -8z m-1848 -1111 c7
-146 45 -287 109 -403 83 -150 190 -252 339 -321 108 -51 170 -64 299 -64
l108 0 -4 -61 c-14 -168 -174 -342 -367 -399 -260 -76 -588 113 -700 403 -62
161 -62 322 -1 521 43 139 177 386 205 377 5 -2 11 -26 12 -53z"/>
<path d="M24346 44598 c-21 -134 -49 -277 -62 -319 -81 -257 -388 -525 -830
-724 -53 -24 -92 -45 -87 -48 4 -3 374 -154 822 -337 l814 -332 866 338 c476
185 872 340 880 344 8 5 -46 38 -150 92 -528 274 -826 502 -921 705 -57 121
-88 253 -95 401 l-6 122 -596 0 -597 0 -38 -242z"/>
<path d="M11125 33179 c-842 -51 -1598 -336 -2235 -843 -171 -136 -479 -447
-626 -631 -943 -1184 -2211 -3378 -3301 -5715 -58 -124 -109 -235 -114 -248
-18 -47 350 -557 677 -937 164 -191 370 -407 442 -465 501 -399 1510 -913
2762 -1407 631 -249 1705 -633 1720 -616 4 5 24 76 45 158 43 173 105 357 170
505 25 56 43 106 40 110 -3 4 -21 11 -40 14 -20 4 -138 36 -263 72 -806 229
-1843 639 -2979 1178 -381 180 -1229 610 -1256 636 -5 4 468 756 1050 1671
583 915 1063 1671 1067 1679 18 32 -128 -125 -1234 -1325 -629 -682 -1156
-1253 -1172 -1270 -37 -37 -114 -153 1957 2953 950 1425 1731 2592 1734 2592
3 -1 34 -38 68 -83 224 -298 660 -649 1238 -994 154 -92 385 -223 395 -223 3
0 17 20 33 44 44 70 182 252 283 372 l92 111 -96 68 c-509 362 -892 799 -1051
1200 -61 154 -120 325 -111 325 4 0 310 -126 680 -280 370 -154 676 -277 679
-274 3 3 146 346 318 762 264 643 309 758 295 763 -34 13 -310 59 -437 74
-285 33 -559 41 -830 24z"/>
<path d="M38275 33134 c-189 -15 -609 -75 -623 -88 -4 -5 576 -1417 587 -1429
5 -5 322 123 706 283 384 160 702 289 705 288 13 -5 -145 -432 -200 -542 -136
-274 -362 -555 -644 -803 -66 -59 -122 -110 -124 -114 -2 -4 34 -47 79 -95
105 -114 183 -204 280 -325 l77 -97 83 50 c259 155 587 389 780 555 134 116
309 296 383 396 32 42 61 77 65 77 7 -1 3714 -5560 3707 -5560 -3 0 -537 577
-1188 1283 -651 705 -1201 1300 -1221 1322 -47 50 -142 200 1102 -1755 552
-866 1003 -1578 1004 -1583 4 -19 -924 -487 -1482 -747 -1155 -537 -2212 -940
-2961 -1130 -46 -12 -87 -23 -91 -26 -3 -2 11 -48 33 -101 63 -157 146 -461
174 -641 4 -23 10 -44 14 -47 4 -2 148 44 321 104 1729 596 3091 1198 3874
1710 158 103 538 490 842 857 189 228 543 719 543 752 0 29 -384 832 -681
1422 -906 1804 -1792 3297 -2567 4325 -453 601 -862 958 -1427 1245 -414 211
-820 331 -1335 396 -120 15 -691 27 -815 18z"/>
<path d="M13019 31298 c-613 -446 -1119 -952 -1467 -1467 -297 -438 -474 -860
-549 -1306 -28 -172 -26 -575 5 -748 28 -153 52 -230 99 -316 559 -1028 3641
-1937 8473 -2500 2279 -266 4900 -428 6353 -392 2186 54 4747 281 6951 617
3620 551 5910 1319 6498 2178 70 102 115 211 142 346 101 503 31 1030 -209
1560 -316 698 -944 1413 -1775 2019 -69 50 -133 91 -143 91 -37 0 -1111 -396
-1857 -685 -711 -275 -819 -309 -1375 -429 -1770 -381 -5797 -800 -8430 -877
-2154 -63 -7339 427 -9430 891 -425 94 -625 155 -1054 321 -680 264 -1501 571
-1987 744 l-121 43 -124 -90z m1171 -1419 c-152 -308 -251 -581 -307 -848 -24
-110 -27 -149 -27 -316 -1 -210 10 -278 65 -386 99 -198 365 -418 822 -680
269 -154 795 -401 1179 -554 81 -32 146 -60 144 -63 -15 -15 -707 190 -1013
299 -633 227 -1069 463 -1304 705 -159 164 -209 282 -216 509 -4 103 -1 165
11 235 51 291 238 670 493 997 65 84 233 281 240 283 1 0 -38 -82 -87 -181z
m22308 36 c259 -308 449 -624 541 -901 62 -185 76 -267 76 -434 -1 -163 -20
-256 -77 -362 -168 -315 -714 -639 -1563 -928 -279 -95 -858 -262 -902 -260
-4 1 73 34 172 74 850 344 1484 693 1792 989 186 178 245 304 260 546 19 325
-116 805 -365 1291 -72 142 -65 140 66 -15z m705 -259 c284 -340 495 -743 557
-1061 35 -183 24 -385 -29 -526 -125 -331 -708 -691 -1616 -996 -291 -98 -831
-253 -880 -253 -5 0 78 35 185 79 1128 455 1859 921 1990 1269 127 334 16 892
-307 1535 l-75 151 53 -59 c30 -32 84 -95 122 -139z m-23653 62 c-173 -337
-298 -694 -346 -986 -22 -132 -22 -353 1 -457 9 -43 29 -106 44 -140 30 -64
121 -184 192 -251 126 -120 375 -294 619 -434 274 -157 810 -409 1202 -566 81
-32 145 -60 143 -62 -2 -2 -72 15 -157 37 -1209 317 -2028 717 -2282 1113
-221 347 -80 940 366 1540 86 116 268 332 274 326 1 -2 -24 -56 -56 -120z
m-675 -232 c-232 -460 -348 -858 -349 -1196 -1 -186 17 -277 76 -392 170 -328
878 -767 1938 -1200 118 -48 211 -88 207 -88 -16 0 -255 63 -442 116 -758 219
-1360 479 -1711 740 -108 79 -251 227 -297 305 -94 160 -121 400 -72 629 66
308 248 660 514 995 69 86 199 235 206 235 1 0 -30 -65 -70 -144z m24975 -21
c229 -271 422 -595 514 -864 58 -166 79 -285 78 -441 0 -212 -41 -333 -161
-481 -283 -350 -1055 -715 -2123 -1003 -326 -88 -328 -88 -77 12 271 108 480
202 764 342 632 311 1014 579 1178 828 98 149 127 415 76 707 -44 256 -173
618 -333 930 -33 66 -62 125 -64 130 -4 13 65 -62 148 -160z m-8481 -609 c-2
-2 -62 -24 -134 -50 -681 -240 -1603 -435 -2470 -520 -1508 -150 -3311 -14
-4770 359 -375 96 -401 107 -195 80 562 -72 1496 -148 2295 -185 666 -31 1653
-40 2175 -20 1007 39 2104 154 2900 304 182 35 206 39 199 32z m551 -645 c-33
-20 -388 -136 -600 -197 -892 -258 -1830 -419 -2850 -489 -414 -28 -1201 -35
-1660 -15 -1109 48 -2191 193 -3149 419 -229 54 -584 151 -578 157 2 3 35 0
73 -5 38 -6 191 -24 339 -40 878 -98 1763 -161 2845 -203 433 -17 1833 -17
2170 0 948 47 1680 114 2480 228 238 34 800 126 870 143 19 5 44 9 55 10 16 0
17 -1 5 -8z m565 -642 c-110 -43 -475 -162 -687 -223 -1104 -318 -2304 -508
-3573 -566 -284 -13 -1141 -13 -1450 0 -1483 62 -2926 273 -4105 602 -132 36
-216 66 -150 53 14 -2 122 -16 240 -30 1154 -133 2210 -209 3575 -257 455 -16
1822 -16 2180 0 1201 53 2176 145 3200 302 267 41 767 129 774 136 2 2 14 4
25 4 12 -1 0 -9 -29 -21z m585 -630 c-164 -74 -770 -261 -1195 -369 -1074
-275 -2125 -434 -3385 -511 -279 -17 -1341 -23 -1705 -10 -1371 50 -2693 214
-3920 486 -352 78 -936 231 -953 251 -4 3 2 4 13 1 58 -17 972 -115 1505 -162
1750 -152 3630 -213 5095 -164 1114 37 2213 131 3310 285 362 50 911 140 1120
183 169 35 172 35 115 10z m609 -624 c-7 -7 -261 -98 -414 -148 -1330 -438
-2969 -734 -4565 -827 -753 -43 -1690 -41 -2525 5 -1647 92 -3386 365 -4661
731 -224 64 -224 64 53 29 1053 -131 2579 -251 3873 -305 663 -27 867 -32
1735 -37 1285 -8 2058 19 3135 108 1108 91 2380 257 3200 418 152 30 176 34
169 26z"/>
<path d="M9316 29648 c-196 -335 -356 -611 -356 -613 0 -2 154 84 341 191 188
108 348 198 356 201 8 3 -497 -1016 -1121 -2265 l-1136 -2271 33 -25 c382
-287 1359 -696 2637 -1104 378 -121 840 -262 857 -262 7 0 50 57 96 128 532
806 1367 1577 2253 2078 85 48 153 88 151 90 -1 2 -111 39 -244 83 -1314 437
-2102 926 -2376 1476 -114 229 -170 656 -137 1035 31 342 152 775 297 1065 23
45 31 71 24 73 -31 10 -599 298 -696 352 -173 97 -390 226 -512 306 l-112 72
-355 -610z"/>
<path d="M40174 30162 c-156 -100 -468 -281 -640 -372 l-102 -53 40 -71 c183
-329 328 -742 382 -1091 67 -436 20 -945 -114 -1220 -246 -507 -914 -961
-2025 -1375 -229 -85 -641 -221 -882 -291 -97 -28 -153 -49 -153 -57 0 -30 25
-54 90 -87 284 -143 711 -428 1067 -711 417 -332 771 -687 1028 -1029 86 -116
196 -272 211 -303 0 -1 106 30 235 68 1350 408 2417 810 2971 1120 115 65 308
191 308 202 0 4 -509 1026 -1131 2269 -621 1244 -1128 2263 -1126 2265 3 3
495 -273 701 -394 6 -3 0 10 -11 29 -12 19 -174 296 -360 615 l-339 582 -150
-96z"/>
<path d="M13775 25646 c-17 -43 -22 -48 -139 -107 -1105 -563 -2147 -1585
-2632 -2584 -46 -93 -104 -231 -129 -305 -302 -886 -489 -2958 -512 -5659 l-6
-754 102 79 c243 188 319 245 541 408 931 684 1920 1305 2840 1784 186 97 336
162 570 247 222 80 611 198 620 188 9 -10 70 -256 70 -281 0 -15 -26 -26 -147
-62 -475 -138 -724 -241 -1193 -493 -1184 -636 -2608 -1601 -3551 -2404 -87
-73 -160 -133 -163 -133 -10 0 -7 1507 5 2019 6 266 9 485 6 487 -2 2 -73 -44
-158 -102 -649 -450 -1137 -950 -1335 -1369 -307 -649 -505 -2291 -564 -4670
-5 -214 -12 -610 -16 -880 l-6 -490 33 30 c19 17 79 73 134 125 1335 1261
2989 2273 4351 2665 596 171 1602 353 2933 530 145 19 265 34 266 33 10 -12
65 -302 58 -308 -4 -3 -89 -17 -188 -29 -99 -12 -385 -51 -635 -87 -1264 -179
-2150 -359 -2655 -539 -1138 -406 -2354 -1144 -3490 -2120 -348 -298 -666
-601 -919 -875 -99 -107 -184 -196 -188 -198 -12 -5 -10 1649 3 2122 6 224 9
410 7 412 -6 6 -343 -224 -478 -325 -190 -143 -341 -272 -494 -421 -391 -381
-534 -633 -681 -1206 -228 -886 -368 -2325 -415 -4284 -10 -431 -13 -1130 -5
-1130 3 0 60 47 128 103 629 532 1433 1096 2181 1532 918 534 1937 975 2739
1185 1035 271 3075 547 5977 810 447 40 1196 104 1345 115 44 3 96 8 115 11
36 5 37 4 180 -162 870 -1009 2127 -2235 3070 -2993 302 -243 367 -277 675
-351 510 -123 1464 -241 2465 -305 510 -32 908 -30 1505 11 1179 79 2172 238
2496 400 186 93 822 627 1519 1277 283 264 1096 1078 1335 1337 219 237 473
523 595 668 82 97 86 101 126 101 95 2 1548 -128 2449 -219 2467 -248 4134
-500 5000 -755 1493 -440 3228 -1415 4705 -2644 63 -53 123 -102 133 -110 17
-14 18 -7 12 150 -3 90 -10 319 -15 509 -79 2701 -324 4737 -655 5437 -153
325 -494 665 -1000 998 -159 104 -284 180 -289 174 -2 -2 0 -92 5 -199 25
-588 53 -1863 47 -2124 l-3 -138 -151 163 c-696 754 -1635 1526 -2574 2116
-678 426 -1410 779 -2028 977 -544 174 -1597 372 -2932 551 -190 26 -346 48
-348 49 -1 2 12 71 30 154 29 137 35 152 53 152 35 0 801 -106 1115 -155 1115
-172 1853 -332 2359 -511 1323 -470 2754 -1384 4005 -2559 l149 -140 -7 355
c-16 842 -63 1898 -121 2710 -111 1559 -279 2619 -485 3065 -166 361 -552 752
-1109 1124 -136 91 -499 311 -514 311 -5 0 -6 -49 -3 -117 27 -502 65 -2453
49 -2453 -5 0 -78 59 -163 131 -907 768 -2200 1654 -3335 2286 -565 314 -821
430 -1242 563 -84 26 -133 46 -133 55 0 21 62 279 69 287 8 9 471 -145 636
-212 296 -120 874 -432 1480 -798 744 -450 1591 -1033 2242 -1544 62 -48 116
-88 119 -88 8 0 -1 596 -16 1080 -77 2479 -227 4210 -446 5160 -43 185 -64
253 -115 383 -283 710 -960 1449 -1924 2096 -215 145 -369 234 -620 357 -115
57 -216 108 -222 114 -7 6 -13 26 -13 44 0 18 -2 35 -5 38 -3 3 -121 -24 -263
-59 -494 -122 -1145 -260 -1737 -369 -143 -26 -262 -49 -265 -52 -3 -2 84 -90
192 -196 l197 -191 21 -125 c129 -784 43 -1518 -269 -2299 -40 -98 -41 -105
-26 -127 9 -14 21 -22 27 -18 16 10 149 293 197 419 69 181 60 179 97 25 47
-192 84 -418 84 -513 0 -95 -33 -243 -79 -360 -90 -226 -209 -410 -389 -598
-423 -445 -1019 -705 -1987 -868 -325 -55 -1015 -151 -1265 -176 -559 -57
-794 -105 -1011 -208 -315 -150 -495 -404 -554 -782 -21 -133 -16 -440 9 -600
25 -159 68 -354 82 -373 12 -16 14 -16 30 0 15 15 16 31 5 186 -41 614 30 933
255 1159 34 33 71 66 82 72 18 10 17 3 -13 -61 -110 -241 -158 -589 -135 -980
12 -198 18 -256 30 -263 13 -8 38 5 44 22 4 8 11 126 16 262 18 423 58 598
187 819 69 118 279 382 304 382 5 0 -5 -24 -22 -52 -115 -196 -179 -388 -214
-648 -18 -128 -41 -596 -31 -633 8 -34 43 -37 51 -4 2 12 14 92 25 177 55 413
147 698 288 895 28 39 62 84 76 100 l26 30 -21 -60 c-71 -213 -113 -475 -125
-798 -6 -155 -5 -174 10 -186 31 -26 43 7 81 219 77 425 162 633 351 861 40
48 78 90 83 94 6 3 -12 -40 -39 -97 -93 -193 -130 -392 -110 -593 13 -143 19
-165 41 -165 11 0 19 3 20 8 0 4 2 63 4 132 5 229 85 429 235 593 73 80 76 81
151 51 35 -14 65 -27 66 -28 1 0 7 -73 13 -161 33 -442 -66 -895 -296 -1361
l-85 -171 -275 -344 c-537 -669 -616 -757 -984 -1089 -354 -320 -529 -499
-705 -725 -288 -368 -442 -732 -490 -1157 l-6 -57 -177 -97 c-426 -235 -697
-360 -997 -459 -485 -161 -990 -228 -1815 -242 -1085 -17 -1835 88 -2445 344
-162 68 -440 206 -696 346 l-196 107 -6 73 c-18 209 -95 475 -202 692 -76 155
-214 366 -340 522 -117 143 -463 488 -700 698 -394 349 -601 560 -835 853
-208 260 -335 454 -460 702 -211 421 -317 864 -289 1208 9 116 11 130 41 256
20 85 22 89 57 103 l36 15 80 -84 c149 -157 222 -339 234 -583 6 -131 7 -140
26 -140 17 0 22 11 32 80 37 248 -6 493 -124 715 l-45 85 58 -64 c103 -112
173 -213 234 -336 85 -175 130 -335 181 -648 24 -152 36 -180 64 -157 16 14
17 32 12 205 -10 304 -50 559 -120 765 l-35 101 37 -42 c195 -225 306 -537
371 -1043 10 -82 23 -153 29 -159 5 -5 17 -7 27 -3 16 6 17 25 11 239 -10 354
-45 600 -112 787 -28 77 -108 240 -146 298 -16 25 -18 32 -6 32 8 0 50 -42 94
-92 316 -367 379 -548 399 -1160 6 -186 9 -209 26 -225 34 -30 45 -1 57 152
36 458 -15 848 -146 1108 -31 62 -32 67 -12 56 12 -6 58 -46 103 -89 231 -223
304 -533 263 -1125 -13 -180 -13 -212 -1 -225 26 -26 42 9 73 156 107 501 87
885 -60 1177 -167 331 -460 498 -1018 582 -57 8 -237 29 -400 45 -331 34
-1167 153 -1451 206 -718 136 -1185 314 -1565 599 -421 316 -683 726 -745
1166 -8 57 -7 96 9 203 22 152 101 500 111 489 3 -5 30 -71 59 -148 61 -161
196 -445 211 -445 6 0 16 11 22 25 10 21 3 45 -47 172 -142 363 -233 716 -282
1088 -14 112 -18 208 -18 480 1 336 8 444 46 660 l11 60 141 105 c116 86 409
318 513 406 l24 20 -152 28 c-294 54 -945 185 -1218 246 -406 91 -1073 258
-1262 316 -12 3 -20 -7 -33 -40z m20955 -1316 l49 -45 21 -120 c30 -174 66
-323 205 -860 256 -986 359 -1478 406 -1940 18 -176 16 -480 -4 -590 -22 -123
-39 -172 -152 -440 -105 -250 -121 -276 -297 -483 -134 -158 -529 -548 -893
-884 -520 -480 -798 -775 -1017 -1081 -211 -295 -383 -636 -472 -938 -14 -46
-25 -77 -25 -69 -1 8 4 139 9 290 33 906 -94 1748 -351 2313 -70 155 -70 140
3 161 35 10 71 21 80 23 12 4 28 -12 58 -58 189 -292 321 -831 359 -1463 6
-87 12 -160 14 -162 5 -5 22 78 44 211 24 145 29 531 9 705 -30 259 -105 579
-181 769 -14 36 -25 70 -25 76 0 6 45 27 101 47 l101 36 29 -65 c132 -295 236
-812 256 -1271 3 -84 9 -155 13 -157 10 -6 48 211 61 350 16 165 6 504 -20
670 -23 155 -62 332 -101 464 -16 53 -28 96 -27 96 1 1 30 13 63 28 34 15 66
27 72 27 12 0 75 -158 120 -300 80 -254 135 -600 160 -1015 l8 -120 21 115
c78 406 52 851 -73 1293 -20 70 -35 129 -33 131 2 2 39 22 82 46 l77 42 54
-114 c84 -175 133 -341 176 -593 23 -136 50 -394 51 -499 l1 -71 14 50 c39
144 56 462 34 660 -17 156 -61 355 -112 513 -28 84 -48 155 -46 158 3 2 54 38
114 79 l109 75 16 -33 c36 -71 91 -235 124 -370 49 -202 82 -449 98 -737 2
-41 4 -36 19 45 31 158 41 292 35 460 -9 236 -44 438 -115 661 l-29 91 108
101 107 102 30 -73 c97 -233 156 -529 185 -917 l13 -165 17 90 c66 354 40 727
-79 1106 l-37 116 63 94 c123 187 208 392 252 611 30 152 32 431 4 588 -35
198 -98 388 -195 592 l-42 87 15 53 c61 214 110 555 122 858 8 203 -14 575
-42 699 -5 24 22 3 186 -149z m-19134 58 c-28 -229 -35 -589 -16 -813 15 -167
54 -416 90 -565 l31 -126 -61 -126 c-189 -396 -250 -805 -174 -1176 36 -180
123 -390 229 -554 l53 -83 -43 -130 c-130 -393 -161 -827 -83 -1175 l12 -55 8
130 c22 377 91 727 189 960 47 113 36 113 152 -3 l104 -103 -33 -97 c-81 -242
-114 -432 -121 -692 -6 -199 9 -384 41 -505 12 -49 13 -47 19 100 11 256 54
534 118 755 35 120 108 300 125 307 6 2 59 -31 118 -73 80 -58 105 -81 101
-93 -31 -77 -100 -298 -119 -387 -68 -300 -75 -619 -20 -936 10 -60 24 -33 24
48 0 163 46 501 95 692 46 184 131 398 188 476 13 18 11 19 164 -69 1 0 -9
-37 -23 -80 -106 -342 -155 -717 -134 -1040 9 -140 42 -371 59 -418 5 -12 10
44 14 134 17 385 85 777 188 1074 33 98 80 207 95 224 2 2 33 -9 69 -25 45
-20 64 -34 61 -44 -2 -8 -20 -73 -40 -145 -91 -323 -120 -559 -113 -905 4
-205 9 -269 31 -394 24 -140 36 -185 36 -140 0 11 5 91 10 179 24 368 73 674
152 948 38 132 120 352 138 371 5 5 50 -6 108 -28 l100 -38 -50 -141 c-126
-360 -181 -679 -181 -1047 1 -215 9 -310 45 -500 l22 -115 8 100 c42 596 101
923 225 1254 56 152 169 361 195 361 5 0 43 -10 83 -21 l73 -21 -40 -87 c-270
-584 -405 -1366 -385 -2234 3 -131 4 -237 2 -235 -2 2 -19 46 -39 98 -46 119
-155 336 -232 463 -247 406 -541 736 -1179 1325 -510 472 -786 749 -960 966
-66 82 -79 107 -139 259 -36 92 -90 225 -121 296 -89 207 -99 267 -99 576 -1
192 4 296 17 400 60 464 155 915 362 1710 180 694 234 923 250 1060 4 33 10
66 14 73 8 14 171 131 185 132 4 0 5 -24 2 -52z m23259 -5847 l-7 -523 -97 5
c-83 4 -170 24 -666 157 -313 83 -572 154 -575 157 -6 7 207 -2 720 -31 217
-12 397 -18 401 -14 3 4 54 222 115 484 l109 476 3 -93 c2 -52 0 -330 -3 -618z
m-27559 219 c58 -256 109 -468 113 -471 3 -3 184 4 401 17 521 29 734 37 695
24 -16 -6 -284 -78 -595 -160 -492 -131 -574 -150 -641 -150 l-76 0 -6 188
c-7 196 -8 1044 -2 1027 3 -5 52 -219 111 -475z m23158 -195 c85 -428 159
-1009 150 -1180 -12 -219 -85 -975 -94 -975 -4 0 -12 54 -18 121 -50 505 -190
1287 -333 1853 -16 65 -29 125 -27 132 5 24 272 254 279 241 4 -7 23 -93 43
-192z m-18554 76 c52 -47 103 -92 113 -101 17 -16 16 -24 -27 -196 -57 -227
-134 -586 -186 -867 -40 -218 -114 -709 -126 -842 -15 -158 -19 -135 -70 435
-29 321 -28 370 11 715 31 273 63 479 116 753 37 191 43 211 58 200 9 -7 59
-51 111 -97z m328 -296 c11 -10 -2 -145 -68 -740 -45 -400 -80 -734 -78 -741
2 -8 86 269 187 614 101 345 187 630 190 635 4 4 20 -6 36 -23 l28 -29 -26
-163 c-88 -536 -158 -1142 -232 -2013 -125 -1476 -137 -1635 -155 -1949 -5
-98 -11 -180 -13 -182 -2 -2 -37 161 -78 363 l-74 368 2 265 c5 579 36 1155
89 1661 5 48 3 68 -6 74 -6 4 -16 3 -20 -1 -21 -22 -118 -526 -161 -839 -17
-121 -33 -236 -36 -255 l-6 -35 -8 50 c-5 28 -22 151 -40 275 l-31 225 22 205
c54 511 141 1155 221 1620 38 226 125 680 135 709 3 9 21 -1 57 -34 28 -27 58
-53 65 -60z m17867 -126 c125 -636 233 -1375 314 -2149 l30 -286 -34 -244
c-19 -135 -35 -247 -36 -250 -1 -3 -14 96 -30 220 -43 336 -156 948 -180 974
-6 6 -13 6 -20 -1 -9 -9 -6 -68 10 -235 39 -412 55 -720 72 -1368 l10 -425
-70 -350 c-39 -192 -77 -375 -84 -405 l-14 -55 -6 85 c-4 47 -11 180 -17 295
-17 328 -47 691 -176 2125 -61 685 -140 1352 -208 1760 l-24 145 43 44 43 44
24 -79 c14 -43 101 -339 194 -656 93 -317 170 -575 171 -574 2 1 -35 344 -81
761 l-85 759 52 47 c29 26 53 46 55 44 2 -1 23 -103 47 -226z m-2473 91 c230
-333 379 -595 497 -877 283 -674 367 -1501 216 -2128 -13 -55 -47 -176 -75
-269 -122 -403 -135 -460 -109 -509 8 -13 -13 -1 -52 31 -35 29 -125 93 -199
143 -84 56 -137 98 -140 111 -3 13 -29 34 -61 52 l-56 31 55 95 c409 702 451
1590 108 2289 -25 52 -46 105 -46 118 0 28 -24 40 -45 23 -12 -10 -15 -39 -15
-134 0 -181 -31 -302 -122 -476 -106 -205 -235 -358 -554 -661 -242 -228 -346
-341 -451 -487 -75 -104 -171 -294 -209 -413 l-27 -86 -141 -11 c-187 -16
-319 -36 -505 -77 -85 -19 -157 -33 -159 -30 -7 6 157 249 270 400 127 169
291 366 584 700 293 334 411 475 524 626 315 420 531 910 594 1344 12 83 24
125 49 172 17 35 34 63 37 63 3 -1 17 -18 32 -40z m-13057 -448 c136 -347 365
-715 702 -1127 138 -169 259 -300 582 -628 329 -335 380 -392 526 -587 88
-118 345 -492 345 -503 0 -2 -68 14 -152 35 -178 45 -377 82 -538 97 -244 24
-216 17 -229 64 -21 70 -106 237 -166 326 -106 158 -177 237 -580 646 -189
191 -328 351 -401 460 -147 221 -214 441 -201 655 5 82 3 102 -9 115 -21 21
-33 19 -43 -7 -5 -13 -37 -85 -70 -160 -150 -337 -211 -620 -211 -981 0 -337
51 -617 166 -914 43 -113 143 -320 189 -393 14 -22 25 -44 25 -50 0 -5 -32
-26 -72 -46 -101 -51 -230 -132 -322 -203 -44 -33 -83 -58 -87 -55 -13 8 -114
325 -158 494 -46 179 -82 366 -107 565 -27 209 -25 624 5 840 58 432 167 810
332 1153 82 171 129 250 261 440 l100 144 34 -131 c18 -72 54 -184 79 -249z
m-1890 -912 c-42 -485 -75 -884 -73 -886 2 -1 59 196 128 439 68 243 160 572
205 731 l81 289 28 -35 27 -36 -25 -219 c-73 -634 -123 -1345 -147 -2098 -13
-409 -7 -1564 11 -1905 51 -1023 166 -1880 348 -2623 22 -86 38 -157 36 -157
-7 0 -194 321 -271 465 -45 83 -109 210 -143 283 l-61 133 -153 1714 c-83 943
-154 1716 -157 1719 -2 3 -38 -452 -79 -1010 -41 -558 -78 -1014 -81 -1014 -3
0 -34 107 -69 238 l-63 237 12 246 c6 135 20 479 31 765 46 1220 55 1333 269
3194 28 239 53 466 57 503 l7 69 79 -80 80 -79 -77 -883z m16895 975 c0 -16
25 -244 55 -505 199 -1703 223 -1985 260 -2960 22 -594 44 -1101 50 -1135 3
-16 5 -70 5 -120 1 -77 -6 -115 -45 -260 -66 -247 -128 -465 -131 -462 -3 3
-89 1145 -109 1457 -19 284 -63 831 -67 835 -2 2 -77 -823 -166 -1832 l-163
-1836 -55 -108 c-96 -193 -306 -549 -290 -494 36 127 131 633 175 930 102 684
149 1319 172 2275 27 1140 -27 2376 -152 3524 -25 221 -25 217 26 281 13 16
26 27 28 25 2 -3 97 -341 212 -752 115 -411 210 -746 211 -745 1 1 -33 409
-77 907 l-79 905 62 62 c65 66 77 67 78 8z m-16395 -615 l37 -50 38 -1087 c22
-599 41 -1108 42 -1133 2 -25 52 315 112 755 113 833 116 858 122 852 2 -2 20
-48 40 -103 l37 -99 2 -285 c3 -294 17 -474 56 -705 46 -277 132 -570 233
-798 l55 -122 -117 -121 c-64 -67 -120 -122 -123 -123 -3 0 -56 170 -119 379
-63 209 -116 380 -120 380 -3 0 -33 -296 -67 -657 -50 -546 -64 -666 -81 -703
-18 -42 -20 -43 -26 -20 -3 14 -65 366 -136 784 l-131 758 11 192 c71 1313 90
1706 90 1857 0 54 2 99 4 99 2 0 21 -22 41 -50z m15854 -230 c6 -146 29 -629
52 -1075 l42 -810 -137 -795 c-76 -437 -139 -796 -141 -798 -15 -16 -32 125
-90 749 -37 392 -67 715 -69 716 -1 1 -57 -185 -126 -413 -68 -227 -125 -414
-127 -414 -3 0 -59 56 -126 125 -78 79 -116 125 -105 125 32 0 120 141 191
304 82 192 143 465 168 754 14 165 7 588 -11 755 -9 80 -10 114 -2 130 7 12
27 65 46 117 47 131 56 153 60 149 2 -2 55 -380 117 -839 93 -681 115 -826
121 -785 4 28 24 536 44 1130 35 1023 38 1082 56 1113 11 18 22 32 23 30 2 -2
8 -122 14 -268z m-1215 -17 c211 -638 174 -1254 -108 -1828 -41 -82 -95 -182
-121 -222 l-46 -71 -42 18 c-23 10 -59 25 -80 34 l-38 16 25 32 c41 55 95 178
120 279 39 154 49 278 43 534 -6 235 -13 290 -38 290 -11 0 -15 -30 -20 -155
-8 -173 -24 -266 -74 -418 -57 -171 -61 -173 -68 -46 -9 170 -89 454 -130 462
-28 6 -31 -44 -8 -144 40 -177 21 -355 -59 -557 -24 -59 -44 -107 -44 -107 -1
0 0 55 2 122 6 160 -8 232 -66 349 -26 51 -52 95 -59 97 -22 6 -23 -35 -2 -94
25 -72 36 -211 21 -281 -14 -64 -93 -243 -108 -243 -7 0 -14 34 -18 89 -8 104
-23 163 -60 226 -72 123 -131 78 -67 -51 46 -92 48 -121 12 -174 -17 -25 -31
-50 -31 -57 0 -9 -34 -11 -137 -6 -76 3 -140 7 -142 9 -7 6 40 126 82 209 95
191 215 338 590 722 354 363 467 512 555 731 36 89 72 241 72 305 0 20 2 37 4
37 2 0 20 -48 40 -107z m-13425 21 c2 -62 51 -226 95 -319 99 -210 205 -343
561 -705 336 -342 463 -498 557 -685 31 -59 78 -178 78 -194 0 -4 -64 -11
-142 -15 -79 -4 -153 -10 -165 -13 -16 -4 -25 0 -30 13 -3 11 -17 36 -31 56
-29 45 -24 92 19 175 29 55 34 78 23 107 -9 24 -27 19 -62 -16 -46 -49 -71
-116 -87 -236 -8 -59 -15 -110 -15 -114 0 -5 -6 -8 -12 -8 -13 0 -66 117 -95
207 -25 78 -20 214 10 303 19 57 23 80 15 94 -10 19 -11 19 -31 -5 -29 -35
-82 -155 -98 -219 -14 -62 -18 -195 -7 -285 l8 -60 -41 94 c-91 209 -115 414
-70 585 25 95 26 119 5 136 -23 20 -37 -1 -73 -105 -44 -130 -62 -224 -70
-355 l-6 -115 -36 90 c-65 161 -96 316 -103 514 -4 121 -15 164 -36 132 -25
-42 -33 -494 -11 -650 27 -185 80 -343 151 -445 l30 -45 -46 -20 c-26 -12 -52
-21 -59 -21 -25 0 -155 227 -223 390 -84 200 -146 434 -172 644 -14 115 -14
406 0 522 22 184 64 373 122 554 26 80 32 91 39 70 4 -14 7 -39 8 -56z m-9449
-1751 c-60 -738 -110 -1353 -110 -1365 0 -13 38 126 84 307 163 639 296 1083
434 1445 47 124 133 322 138 318 2 -2 -10 -76 -26 -163 -171 -951 -380 -2130
-378 -2137 2 -5 65 58 141 140 311 337 556 525 917 706 275 137 559 242 891
330 141 37 489 110 495 103 2 -2 -96 -50 -219 -107 -780 -361 -1168 -609
-1631 -1043 -214 -200 -362 -402 -504 -687 -74 -147 -125 -260 -118 -260 2 0
39 42 82 92 113 132 304 328 409 417 267 228 667 486 1260 811 189 103 543
286 530 273 -5 -5 -82 -63 -170 -128 -569 -421 -1124 -938 -1516 -1415 -45
-54 -49 -62 -24 -46 17 11 86 57 155 101 779 508 1368 738 2150 841 248 32
841 29 1000 -5 33 -7 32 -8 -35 -20 -451 -79 -1500 -418 -2070 -670 -638 -282
-1431 -825 -2120 -1454 -86 -78 -179 -162 -206 -186 l-49 -44 0 224 c0 470 47
1784 91 2534 54 933 207 1741 443 2335 48 121 62 149 64 125 2 -16 -47 -634
-108 -1372z m29075 340 l-7 -163 -80 0 c-71 0 -141 16 -632 146 -722 192 -672
175 -496 168 80 -3 336 -16 570 -29 234 -13 425 -23 426 -22 0 1 50 216 110
478 l109 477 3 -447 c2 -245 0 -519 -3 -608z m3143 954 c221 -519 393 -1374
452 -2242 38 -561 86 -1778 97 -2480 6 -413 6 -420 -13 -405 -10 8 -59 53
-109 100 -379 359 -923 789 -1358 1074 -551 361 -946 546 -1776 833 -400 138
-947 293 -1181 334 -70 12 -73 14 -40 20 177 37 765 37 1035 0 525 -72 962
-203 1395 -420 245 -123 604 -334 813 -477 42 -29 77 -50 77 -47 0 10 -188
230 -304 355 -352 381 -776 759 -1236 1101 -96 72 -179 134 -185 140 -49 46
747 -388 1075 -586 518 -314 792 -534 1091 -878 62 -71 114 -129 115 -129 4 0
-82 193 -122 271 -59 119 -160 282 -240 390 -88 119 -285 318 -459 464 -405
340 -756 551 -1423 860 -127 60 -230 110 -228 112 6 7 352 -65 494 -103 552
-146 1050 -373 1377 -629 112 -87 311 -277 451 -428 66 -70 120 -124 122 -119
1 4 -41 249 -93 543 -53 294 -143 797 -201 1119 -57 322 -106 599 -109 615 -5
28 -4 28 16 -9 35 -65 143 -340 209 -531 112 -328 220 -706 351 -1220 43 -170
78 -302 78 -291 1 16 -212 2640 -222 2734 -2 17 -1 32 3 32 3 0 25 -46 48
-103z m-28914 -854 c0 -1 192 9 426 22 608 33 706 38 700 32 -6 -5 -131 -40
-725 -198 -371 -99 -432 -112 -522 -117 l-103 -4 1 608 0 609 111 -475 c60
-261 111 -476 112 -477z m25161 -1620 c-9 -25 -135 -15 -277 21 -449 113
-1060 281 -1033 285 17 2 267 -9 557 -25 290 -15 529 -26 532 -23 3 2 53 216
113 474 l108 469 3 -594 c1 -327 0 -601 -3 -607z m-24664 686 c60 -259 111
-474 113 -476 4 -4 780 36 1046 53 52 3 93 4 90 1 -5 -5 -362 -102 -892 -241
-256 -68 -297 -76 -378 -76 l-90 0 0 443 c0 244 -3 520 -6 613 -4 93 -4 166 0
162 4 -3 57 -219 117 -479z m7333 101 c285 -37 530 -95 826 -196 346 -118 645
-255 1100 -504 806 -442 1267 -601 1970 -680 717 -80 1728 -71 2380 21 624 88
1062 249 1835 674 515 283 917 455 1331 569 515 141 1036 172 1520 91 256 -43
598 -140 609 -173 3 -9 45 -43 94 -75 212 -139 464 -370 634 -582 320 -397
515 -829 594 -1310 27 -168 24 -488 -6 -660 -69 -389 -245 -767 -521 -1115
-102 -130 -352 -380 -484 -486 -363 -290 -754 -504 -1195 -655 -160 -54 -324
-101 -317 -91 7 13 135 437 170 566 20 71 38 131 40 134 3 2 47 19 98 37 132
46 224 86 374 164 787 408 1253 1129 1221 1885 -10 224 -60 454 -144 656 -19
47 -50 139 -68 205 -118 429 -359 715 -709 842 -50 18 -111 45 -136 59 -625
355 -1291 308 -2340 -164 -85 -38 -247 -111 -360 -162 -578 -261 -1116 -456
-1576 -574 -437 -111 -864 -175 -1711 -257 l-232 -23 -228 23 c-614 60 -984
118 -1685 266 -494 105 -937 266 -1798 655 -342 155 -549 240 -747 306 -788
263 -1392 207 -1905 -178 -113 -85 -303 -272 -401 -393 -261 -323 -428 -696
-483 -1075 -23 -160 -15 -463 16 -605 113 -528 460 -1009 960 -1331 206 -133
445 -249 655 -318 l51 -16 18 -73 c10 -39 54 -191 98 -337 44 -146 83 -273 85
-282 5 -15 -4 -15 -85 8 -391 107 -820 304 -1152 528 -726 491 -1202 1187
-1295 1894 -17 129 -20 395 -5 527 26 234 111 541 214 776 204 463 561 896
966 1171 85 58 118 73 251 116 284 93 535 142 844 166 121 9 477 -4 629 -24z
m-84 -680 c144 -17 136 -8 81 -98 -163 -264 -281 -550 -361 -876 -52 -216 -67
-311 -50 -331 18 -22 39 -19 50 8 5 12 26 85 45 162 69 264 148 481 227 620
91 160 303 455 327 455 15 0 261 -69 269 -75 1 -1 -27 -21 -62 -44 -99 -64
-199 -177 -251 -285 -57 -119 -75 -210 -75 -383 -1 -313 -40 -403 -233 -535
-128 -88 -196 -183 -237 -329 -25 -91 -38 -229 -21 -229 6 0 11 14 11 30 0 48
30 180 51 230 37 84 94 145 240 255 176 134 262 217 290 281 24 53 27 103 19
359 -9 306 55 418 306 541 l114 56 107 -43 c126 -49 564 -246 576 -258 5 -5
-25 -60 -66 -122 -188 -287 -384 -678 -518 -1033 -33 -88 -34 -88 -41 -55 -21
90 10 251 101 521 74 218 84 270 79 405 -3 96 -7 115 -35 176 -18 37 -37 67
-42 67 -17 0 -13 -24 17 -86 24 -52 27 -71 27 -159 0 -116 -9 -148 -97 -340
-120 -260 -131 -320 -108 -597 l13 -158 -51 -163 c-29 -89 -72 -234 -97 -322
-24 -88 -57 -184 -72 -212 -22 -41 -26 -57 -17 -70 8 -12 6 -37 -8 -92 -31
-131 -136 -602 -154 -694 l-17 -88 -22 68 c-49 154 -115 232 -265 313 -52 29
-117 69 -145 90 -91 70 -157 177 -190 307 -19 74 -27 53 107 260 117 181 173
293 193 388 16 76 20 241 6 249 -5 3 -12 -31 -16 -76 -15 -180 -63 -280 -267
-560 -101 -137 -159 -246 -192 -359 -14 -46 -25 -79 -25 -74 -1 6 -10 89 -21
185 -103 926 1 1768 319 2573 47 116 67 157 80 157 9 0 55 -5 101 -10z m10338
-100 c55 -134 143 -390 188 -548 l35 -124 -52 -80 c-68 -106 -132 -243 -161
-343 -19 -68 -23 -103 -23 -230 0 -139 3 -162 38 -310 21 -88 45 -196 54 -240
20 -108 20 -277 -2 -410 -19 -116 -18 -294 2 -329 17 -32 23 -2 12 60 -16 84
-5 207 37 400 23 109 38 209 41 281 5 106 4 116 -20 170 -26 58 -39 137 -52
313 -9 110 8 257 41 362 27 84 101 244 110 235 10 -9 64 -307 83 -457 32 -242
41 -402 41 -694 0 -393 -26 -692 -95 -1097 -50 -288 -188 -889 -202 -876 -2 3
-14 58 -26 123 l-22 118 -39 20 c-55 30 -145 131 -178 203 -34 72 -40 166 -14
228 9 21 16 49 16 64 0 24 -6 27 -72 43 -40 10 -97 30 -128 45 -73 35 -177
141 -214 217 -15 33 -54 164 -86 291 -196 777 -427 1375 -728 1883 -33 56 -59
102 -57 102 3 0 37 -21 76 -46 39 -26 122 -70 183 -99 327 -154 441 -267 454
-448 7 -98 25 -60 25 53 0 199 -96 309 -438 500 -170 95 -248 146 -313 205
l-54 49 45 22 c78 40 338 155 467 206 256 103 608 208 615 185 2 -7 9 -48 15
-92 7 -44 35 -195 62 -335 44 -220 51 -276 55 -411 6 -176 -4 -258 -63 -522
-57 -253 -58 -447 -4 -759 20 -113 27 -135 40 -121 5 4 2 55 -6 113 -18 138
-18 381 1 495 19 119 56 244 113 385 l47 115 -1 140 c0 157 -12 254 -54 465
-26 126 -116 483 -135 532 -8 21 1 23 140 43 164 22 153 27 203 -95z m-6811
-2225 c239 -33 379 -83 888 -313 155 -70 288 -118 413 -149 95 -24 125 -27
272 -27 152 1 174 3 281 32 138 37 262 85 509 199 435 200 652 260 988 270
421 14 761 -85 1057 -307 150 -112 262 -224 640 -639 388 -426 677 -599 1049
-627 47 -4 86 -10 86 -15 0 -15 80 -605 86 -633 l6 -29 -58 7 c-98 12 -352 65
-463 97 -321 92 -629 248 -914 462 -144 109 -286 242 -528 495 -415 435 -626
575 -945 628 -121 20 -379 14 -494 -11 -196 -43 -307 -94 -605 -281 -256 -161
-367 -219 -491 -260 -81 -26 -101 -29 -224 -29 -126 0 -141 3 -230 33 -122 43
-232 101 -455 242 -397 250 -579 314 -905 313 -179 0 -314 -23 -440 -76 -231
-96 -394 -230 -767 -628 -194 -207 -307 -311 -491 -449 -360 -270 -742 -433
-1162 -494 -83 -13 -111 -13 -138 -4 -28 10 -38 9 -67 -6 -19 -11 -37 -17 -40
-14 -5 4 77 640 90 708 6 25 6 26 118 27 187 3 341 45 502 139 185 109 316
227 655 594 119 129 255 270 302 312 259 235 477 347 805 414 223 45 438 51
670 19z m-8702 -633 c62 -276 114 -504 116 -506 2 -1 56 1 119 5 63 4 309 19
545 33 237 14 459 28 494 30 118 10 135 15 -659 -191 -449 -116 -539 -137
-621 -141 l-97 -4 -6 283 c-10 476 -15 1035 -9 1014 3 -11 56 -246 118 -523z
m21084 78 c-4 -245 -8 -536 -8 -647 l-1 -203 -82 0 c-72 0 -138 15 -552 121
-577 148 -797 206 -803 212 -5 5 -23 6 687 -37 289 -18 526 -32 527 -31 1 0
52 226 113 500 111 503 120 539 124 533 2 -2 -1 -203 -5 -448z m1611 -326 c-5
-324 -10 -617 -10 -652 l0 -64 -92 7 c-73 5 -223 40 -693 161 -330 84 -613
158 -630 164 -37 12 0 10 678 -31 280 -17 511 -28 514 -25 6 5 44 170 164 708
40 180 74 326 76 324 2 -1 -1 -268 -7 -592z m-24310 71 c62 -280 114 -512 116
-514 1 -2 234 11 516 28 282 17 558 33 613 36 l100 5 -65 -19 c-36 -10 -319
-84 -630 -164 -440 -113 -585 -146 -656 -151 l-92 -7 -6 113 c-8 148 -19 1194
-13 1188 2 -3 55 -234 117 -515z m6474 351 c11 -68 77 -194 136 -260 30 -32
111 -102 180 -156 133 -104 162 -135 204 -218 59 -117 71 -278 36 -511 -11
-74 -20 -155 -19 -180 1 -25 -8 -116 -20 -201 -30 -223 -48 -407 -62 -633 -7
-108 -14 -196 -15 -194 -7 7 -137 379 -203 581 -125 380 -227 754 -308 1126
-31 141 -36 183 -36 285 1 72 8 152 18 199 18 85 62 206 75 206 4 0 11 -20 14
-44z m-8083 -581 c61 -275 112 -501 113 -502 1 -2 214 11 472 27 586 36 740
44 734 37 -5 -5 -259 -72 -958 -252 -257 -66 -304 -75 -382 -75 l-88 0 -6 608
c-3 334 -8 627 -10 652 -7 87 14 5 125 -495z m27535 48 c-3 -269 -9 -561 -12
-650 l-6 -163 -85 0 c-76 0 -139 14 -651 146 -312 81 -596 155 -632 165 l-65
19 140 -6 c77 -3 349 -18 605 -34 256 -16 468 -26 471 -22 4 4 58 238 120 519
63 282 116 513 118 513 2 0 0 -219 -3 -487z m-29151 -222 c63 -282 115 -514
115 -515 0 -1 51 2 113 6 61 4 306 18 542 32 237 14 462 28 500 30 48 3 64 2
50 -4 -11 -6 -211 -59 -445 -119 -846 -218 -817 -211 -900 -211 l-78 0 -6 428
c-3 235 -8 531 -11 657 -2 127 -2 226 0 220 3 -5 57 -241 120 -524z m30757
-316 l-7 -460 -95 1 c-100 1 -39 -14 -1293 312 -32 8 -56 16 -55 18 2 2 145
-6 318 -16 742 -45 900 -54 904 -49 2 2 55 233 118 512 l113 508 2 -183 c2
-101 -1 -390 -5 -643z m-10830 636 c23 -10 64 -26 90 -35 35 -13 50 -25 63
-53 16 -33 16 -40 0 -107 -20 -79 -22 -172 -6 -232 16 -61 66 -131 118 -167
120 -83 149 -129 179 -289 l15 -77 -50 -163 c-88 -285 -254 -765 -270 -781 -4
-4 -11 61 -14 145 -19 466 -106 1040 -284 1872 -6 27 -1 25 55 -32 33 -35 80
-71 104 -81z m-6162 95 c193 -42 343 -108 590 -260 420 -260 557 -313 783
-304 185 8 323 64 660 269 213 130 319 185 442 229 459 162 864 89 1213 -219
l82 -72 -20 -39 c-25 -50 -52 -150 -89 -330 -16 -80 -39 -174 -51 -210 -63
-188 -166 -394 -303 -603 -62 -96 -69 -112 -61 -135 5 -15 16 -28 24 -29 31
-5 290 350 404 552 116 206 191 423 203 587 l6 87 167 -160 168 -159 -49 -94
c-26 -52 -66 -153 -88 -225 -23 -72 -59 -189 -81 -261 -70 -224 -233 -581
-390 -855 -51 -87 -68 -126 -64 -142 4 -13 13 -23 20 -23 25 0 273 348 409
574 200 334 294 587 331 889 l5 47 28 -22 c16 -13 73 -61 127 -107 86 -72 292
-228 332 -250 11 -6 -2 -41 -56 -157 -38 -82 -136 -293 -217 -469 -340 -738
-495 -1013 -1070 -1895 -48 -74 -98 -152 -111 -172 l-24 -38 -58 26 c-475 214
-1033 351 -1602 395 -194 15 -644 6 -830 -15 -509 -60 -964 -177 -1387 -357
-52 -22 -96 -39 -97 -37 -2 2 -88 136 -193 298 -548 850 -694 1113 -1038 1864
-75 165 -163 356 -196 424 -32 69 -59 128 -59 132 0 4 26 24 58 45 88 59 241
177 352 271 l100 85 0 -54 c0 -213 124 -559 316 -880 147 -246 399 -599 423
-595 33 6 22 49 -37 151 -134 229 -273 518 -356 739 -19 51 -57 171 -86 266
-57 196 -104 319 -150 393 l-31 50 128 123 c148 141 213 201 213 193 0 -43 28
-183 52 -257 57 -180 206 -485 321 -660 104 -159 223 -310 242 -310 14 0 25
22 25 51 0 11 -36 75 -81 142 -93 142 -234 422 -278 552 -16 50 -46 168 -66
264 -20 95 -50 211 -67 257 -35 98 -39 88 67 174 173 141 371 237 560 269 33
6 71 13 85 15 51 9 277 -3 350 -18z m8264 -1162 c-130 -297 -238 -546 -241
-554 -3 -8 169 158 382 370 l387 385 -122 -240 c-288 -564 -284 -557 -413
-717 -246 -306 -576 -683 -951 -1088 -228 -246 -979 -999 -1231 -1236 -351
-329 -832 -761 -839 -753 -6 7 731 887 1114 1329 411 476 714 811 975 1080
183 188 176 183 -185 -145 -734 -667 -1521 -1433 -1915 -1865 -82 -90 -169
-185 -193 -210 -50 -52 -76 -85 1058 1385 475 616 886 1149 913 1185 l50 65
-50 -50 c-28 -27 -592 -628 -1253 -1335 -1254 -1339 -1268 -1354 -1255 -1330
7 12 1059 1510 1477 2103 65 92 116 167 114 167 -3 0 -415 -439 -916 -975
-501 -536 -914 -975 -916 -975 -2 0 2 10 10 23 8 12 233 391 501 842 268 451
501 843 517 870 19 32 23 43 10 30 -11 -11 -291 -346 -622 -745 -547 -658
-665 -798 -647 -764 18 32 676 1518 674 1521 -2 1 -232 -312 -512 -697 l-508
-699 -61 35 c-34 19 -89 49 -123 67 -35 17 -63 34 -63 38 0 4 57 88 126 186
158 222 440 648 567 855 314 511 615 1106 766 1513 16 44 34 92 40 107 l10 27
133 -64 c73 -36 139 -65 146 -65 6 0 12 -6 12 -14 0 -20 -204 -676 -290 -935
-61 -182 -70 -217 -61 -238 6 -14 17 -23 23 -21 7 3 62 130 123 284 119 299
344 844 355 857 3 4 46 -2 96 -14 55 -12 143 -22 230 -26 l142 -6 -74 -151
c-41 -83 -91 -194 -111 -246 -20 -52 -85 -193 -145 -313 -59 -120 -108 -226
-108 -236 0 -20 19 -41 36 -41 6 0 50 65 97 144 85 142 156 242 257 367 110
136 255 411 246 467 -3 23 -1 32 10 32 8 0 14 -3 14 -8 0 -23 66 -379 95 -512
19 -91 33 -180 32 -215 -2 -92 48 -154 98 -121 29 19 128 267 328 826 14 38
-1 33 202 70 539 100 1152 423 1585 837 47 44 86 80 88 78 2 -1 -103 -245
-234 -541z m-25489 -629 c-52 -637 -95 -1172 -94 -1189 0 -17 36 106 79 274
118 461 221 814 317 1080 58 163 156 396 160 383 3 -9 -54 -336 -287 -1637
-34 -186 -59 -340 -58 -342 2 -1 41 40 88 92 178 200 364 366 544 485 284 189
677 352 1101 458 176 44 395 88 384 77 -2 -2 -112 -54 -244 -116 -617 -287
-963 -508 -1335 -855 -145 -136 -218 -220 -312 -360 -97 -146 -289 -525 -235
-465 7 8 60 68 117 133 266 305 559 525 1127 850 304 175 727 398 698 369 -5
-5 -75 -58 -155 -118 -334 -247 -568 -451 -871 -753 -196 -197 -449 -475 -449
-494 0 -3 60 34 133 82 345 229 692 411 993 524 464 174 1030 260 1496 228
101 -7 201 -16 223 -20 l40 -7 -60 -13 c-478 -100 -1266 -355 -1755 -568 -582
-253 -1320 -765 -1952 -1354 -64 -60 -118 -109 -120 -109 -16 0 27 1398 67
2170 41 798 120 1340 270 1860 62 213 170 508 182 496 2 -2 -39 -524 -92
-1161z m36891 977 c177 -467 304 -1130 354 -1842 36 -527 104 -2444 88 -2492
-3 -7 -44 25 -104 82 -411 393 -1003 843 -1459 1109 -339 198 -581 305 -1133
502 -383 137 -846 271 -1137 330 l-60 13 40 7 c22 4 124 13 228 20 604 40
1291 -102 1849 -382 174 -87 437 -238 598 -343 69 -45 139 -91 155 -101 26
-17 23 -11 -20 40 -347 419 -780 825 -1267 1188 -97 72 -175 133 -173 135 4 5
359 -182 590 -311 331 -184 627 -372 830 -526 106 -80 370 -336 475 -460 75
-89 72 -76 -25 124 -129 263 -272 459 -471 640 -423 387 -788 613 -1523 942
-29 13 -52 26 -49 28 8 8 342 -64 485 -104 379 -108 678 -233 937 -393 160
-99 272 -193 479 -400 114 -114 207 -204 207 -198 0 8 -225 1270 -330 1854
-11 60 -18 111 -16 113 4 4 68 -141 116 -262 110 -278 327 -1021 426 -1457 10
-43 19 -76 21 -75 2 3 -179 2246 -192 2362 l-5 50 22 -40 c11 -22 40 -91 64
-153z m-25367 85 c237 -218 507 -400 816 -552 285 -141 546 -227 816 -270 57
-9 105 -18 107 -19 1 -2 36 -95 76 -207 83 -229 197 -528 231 -606 28 -62 56
-75 91 -42 30 29 48 82 41 126 -4 21 3 75 18 137 24 103 87 432 100 519 11 80
33 65 116 -80 39 -71 154 -265 254 -433 100 -168 197 -333 216 -367 37 -69 64
-81 75 -36 4 14 2 38 -3 52 -6 14 -93 215 -193 446 -100 231 -184 427 -187
435 -3 13 16 18 109 28 62 6 156 22 208 36 52 13 98 21 101 17 10 -9 290 -684
385 -929 46 -118 86 -218 89 -220 9 -10 35 21 35 42 0 12 -32 116 -70 231 -89
266 -290 910 -290 930 0 8 6 15 12 15 7 0 73 30 146 66 73 37 134 65 136 63 1
-2 20 -51 41 -109 245 -669 703 -1489 1328 -2379 70 -101 130 -188 133 -195 4
-11 -221 -134 -230 -125 -2 2 -230 315 -507 694 -276 380 -500 683 -496 675 3
-8 156 -354 341 -769 184 -415 335 -756 333 -757 -1 -1 -283 335 -627 747
-344 413 -633 760 -643 772 -10 12 -17 18 -14 12 2 -5 236 -399 519 -875 283
-476 521 -876 527 -890 19 -36 42 -60 -924 975 -918 984 -912 978 -900 956 5
-8 361 -516 792 -1129 432 -612 783 -1116 780 -1118 -2 -3 -570 598 -1261
1336 -691 737 -1259 1340 -1262 1340 -2 0 26 -39 64 -87 74 -94 346 -448 1337
-1733 345 -448 633 -822 639 -831 15 -21 -23 20 -188 201 -477 524 -1510 1520
-2286 2204 -19 17 58 -63 170 -179 376 -385 931 -1015 1641 -1865 358 -428
456 -547 433 -529 -86 72 -432 382 -627 562 -676 624 -1360 1320 -1907 1942
-166 189 -497 582 -577 686 -36 46 -443 824 -443 846 0 4 172 -163 381 -372
210 -209 379 -373 376 -365 -7 20 -447 1022 -453 1032 -13 21 12 2 75 -55z
m-2574 -714 c62 -277 115 -506 117 -508 2 -2 213 9 468 25 256 16 528 31 605
34 l140 6 -65 -19 c-36 -10 -320 -84 -631 -165 -513 -132 -575 -146 -652 -146
l-85 0 -6 378 c-3 207 -8 501 -11 652 -2 151 -2 269 1 262 4 -8 57 -241 119
-519z m19780 -160 l-7 -613 -86 0 c-74 0 -126 10 -381 76 -451 115 -903 233
-936 244 -41 13 135 6 715 -30 255 -16 465 -28 466 -27 1 1 53 231 115 512 65
290 116 497 118 480 2 -17 0 -306 -4 -642z m1615 -28 c-5 -292 -9 -586 -10
-654 l0 -124 -97 6 c-82 4 -176 25 -568 127 -614 158 -768 199 -775 206 -3 4
22 4 55 0 151 -14 1155 -69 1161 -63 6 6 76 313 219 960 9 43 19 77 21 75 1
-2 -1 -242 -6 -533z m-22993 -62 l98 -443 46 0 c26 0 222 11 435 24 214 14
443 27 509 31 66 3 147 8 180 10 l60 4 -45 -15 c-25 -8 -308 -83 -630 -166
-490 -127 -600 -152 -676 -156 l-92 -4 -6 193 c-3 107 -8 401 -10 654 l-5 460
19 -75 c10 -41 62 -274 117 -517z m24609 -25 c-3 -222 -9 -517 -12 -655 l-6
-253 -92 6 c-72 5 -210 37 -676 156 -684 176 -684 176 -650 177 14 1 288 -15
609 -35 321 -19 587 -32 591 -27 4 4 58 239 121 521 62 281 115 512 117 512 2
0 1 -181 -2 -402z m-26121 -636 c3 -3 400 20 1120 64 55 4 98 4 95 1 -6 -6
-145 -43 -760 -200 -377 -97 -506 -126 -577 -131 -51 -3 -94 -2 -96 2 -3 4 -7
297 -11 652 l-6 645 116 -515 c64 -283 118 -517 119 -518z m-1725 313 c61
-274 112 -500 113 -501 1 -1 207 11 457 26 250 16 523 31 605 34 l150 6 -65
-19 c-36 -10 -320 -84 -632 -165 -512 -132 -575 -146 -651 -146 l-85 0 -6 508
c-3 279 -8 572 -11 652 -2 91 -1 138 5 125 5 -11 59 -245 120 -520z m29456
-57 c-4 -321 -9 -611 -12 -645 l-6 -63 -81 0 c-72 0 -147 17 -682 155 -330 85
-613 159 -630 165 -41 14 149 6 720 -30 253 -16 460 -28 461 -27 0 1 52 233
114 515 63 281 116 512 118 512 2 0 1 -262 -2 -582z m-14776 -1678 c862 -49
1664 -308 2245 -724 340 -243 658 -598 817 -910 24 -47 27 -61 16 -68 -60 -40
-165 -79 -315 -118 -64 -16 -118 -28 -118 -27 -1 1 -34 49 -73 107 -447 661
-1169 1115 -2032 1279 -253 48 -359 56 -710 56 -351 0 -427 -6 -690 -51 -900
-154 -1703 -622 -2194 -1277 -38 -51 -70 -94 -71 -95 -6 -6 -217 49 -285 74
-36 14 -79 35 -95 48 l-29 23 34 59 c268 478 733 903 1300 1188 647 325 1429
480 2200 436z m82 -586 c910 -94 1748 -504 2334 -1144 81 -87 119 -137 111
-141 -20 -11 -619 -109 -665 -109 -4 0 -40 38 -79 84 -398 469 -1113 726
-2023 726 -452 0 -935 -73 -1250 -190 -134 -49 -326 -145 -432 -216 -144 -97
-321 -271 -377 -372 -7 -13 -21 -13 -102 -3 -157 19 -543 82 -557 90 -20 11
122 185 278 341 544 544 1262 869 2085 943 122 11 538 6 677 -9z"/>
<path d="M23566 10583 c-34 -35 40 -156 301 -493 l27 -35 -27 24 c-43 39 -31
15 31 -62 310 -383 665 -931 857 -1322 74 -152 181 -410 192 -465 3 -17 9 -30
13 -30 5 0 42 65 84 145 276 528 714 1216 1043 1638 46 60 74 103 63 97 -14
-8 -4 11 28 52 27 35 102 136 166 225 93 129 117 169 114 190 -4 41 -21 35
-73 -27 -78 -92 -265 -278 -360 -358 -208 -175 -399 -276 -648 -344 -73 -20
-105 -23 -287 -22 -174 0 -221 3 -308 22 -336 73 -646 228 -903 450 -94 81
-209 204 -263 282 -22 31 -40 43 -50 33z"/>
<path d="M16247 24793 c-91 -193 -145 -366 -188 -610 -16 -90 -23 -176 -26
-358 -7 -323 12 -494 87 -790 128 -505 402 -995 754 -1349 196 -197 404 -345
671 -476 507 -250 1054 -363 2120 -440 154 -11 287 -22 295 -25 8 -2 179 -25
380 -50 569 -71 813 -118 1090 -207 254 -82 414 -187 525 -343 58 -82 91 -150
115 -239 20 -70 20 -86 11 -208 -35 -428 21 -886 148 -1209 22 -58 41 -108 41
-112 0 -4 -35 -7 -79 -7 -329 0 -615 -162 -745 -422 -61 -124 -77 -188 -83
-343 -11 -284 81 -560 297 -888 320 -487 665 -784 942 -813 124 -13 267 48
325 139 15 23 28 44 30 46 1 2 55 -46 120 -105 707 -650 1043 -914 1376 -1079
240 -119 352 -145 627 -145 270 0 401 30 634 147 325 163 653 422 1388 1095
l97 89 25 -39 c32 -51 78 -89 146 -121 46 -22 69 -26 145 -26 102 1 159 16
275 76 215 111 467 370 697 717 210 317 305 581 307 852 1 155 -19 252 -79
375 -78 162 -187 271 -350 350 -117 57 -231 85 -377 92 -65 3 -118 6 -118 7 0
0 15 44 34 96 122 341 194 882 167 1245 -11 143 -10 154 10 215 85 259 269
432 574 539 264 94 574 155 1110 221 138 17 294 37 349 46 54 8 194 21 310 29
1039 74 1561 169 2035 372 339 145 572 302 826 557 447 450 722 1015 821 1691
25 170 26 574 1 735 -24 157 -62 313 -109 450 -45 131 -142 340 -157 340 -5 0
-29 -13 -53 -29 -58 -39 -195 -95 -298 -121 -262 -67 -619 -67 -1055 1 l-129
20 -276 -36 c-151 -20 -286 -39 -300 -42 -15 -4 27 -13 112 -24 75 -10 251
-36 390 -58 372 -60 482 -72 698 -78 219 -6 349 5 499 43 114 29 253 94 336
157 l60 46 32 -97 c17 -53 32 -104 32 -113 1 -20 -376 -199 -529 -249 -159
-53 -245 -64 -468 -57 -214 6 -350 30 -560 98 -68 22 -130 38 -138 35 -10 -4
-14 -16 -12 -33 2 -22 13 -33 48 -50 136 -67 338 -128 529 -160 165 -28 508
-25 659 5 176 35 328 94 460 178 36 24 54 30 57 22 33 -89 56 -575 36 -770
-36 -345 -115 -626 -266 -933 -134 -274 -282 -482 -500 -701 -356 -358 -808
-611 -1330 -743 -299 -75 -835 -152 -1300 -186 -481 -34 -1393 -47 -1715 -24
-228 16 -559 14 -665 -5 -186 -34 -310 -97 -369 -188 -35 -54 -42 -57 -51 -25
-4 12 -63 129 -131 260 -154 293 -297 580 -314 627 -11 33 -9 42 35 140 135
303 256 528 402 748 429 649 1017 1093 1853 1400 293 108 565 188 1013 299
293 72 318 80 324 101 10 42 -7 46 -119 33 -472 -56 -1009 -193 -1477 -378
-1050 -415 -1775 -1045 -2074 -1803 -25 -63 -51 -137 -58 -163 -6 -27 -15 -45
-19 -40 -19 20 -58 223 -75 390 l-7 61 50 64 c27 34 127 173 222 308 413 585
529 698 1150 1120 237 162 260 175 322 187 226 43 476 131 786 278 67 32 121
59 120 60 -2 2 -93 -6 -203 -16 -110 -10 -398 -35 -639 -55 l-440 -36 -40 -46
c-348 -399 -622 -597 -933 -674 -116 -29 -319 -31 -443 -5 -89 19 -304 87
-355 112 -16 9 -21 13 -10 9 11 -3 74 -8 141 -11 374 -17 775 161 1129 501
l90 86 -90 -6 c-70 -5 -97 -11 -120 -27 -246 -178 -491 -296 -712 -343 -102
-21 -259 -22 -343 0 -87 22 -197 77 -251 125 l-44 39 65 -16 c48 -12 111 -16
245 -16 156 0 197 4 305 27 163 34 298 79 419 139 l96 48 -129 -6 c-103 -5
-149 -12 -223 -35 -162 -50 -243 -62 -372 -56 -81 3 -137 11 -185 27 -67 21
-77 22 -341 15 l-273 -8 -7 -61 c-17 -157 -69 -327 -111 -367 -13 -12 -26 -21
-28 -18 -2 2 2 36 10 74 7 39 13 136 14 218 l0 147 -29 0 c-29 0 -30 -2 -35
-57 -22 -215 -62 -362 -139 -506 -63 -119 -89 -144 -170 -164 -37 -9 -70 -13
-73 -10 -3 3 13 22 35 43 50 45 103 150 125 250 18 82 36 265 36 372 0 64 -2
72 -19 72 -17 0 -20 -10 -25 -77 -25 -311 -111 -494 -269 -569 -20 -10 -40
-15 -43 -11 -4 4 9 42 29 84 68 147 107 323 107 481 l0 82 -49 0 -48 0 -7 -83
c-7 -92 -41 -266 -76 -396 -20 -74 -25 -82 -36 -66 -42 57 -116 334 -130 485
l-7 71 -101 -3 -100 -3 -13 -97 c-18 -133 -64 -309 -103 -393 l-33 -70 -22 70
c-32 99 -63 252 -77 388 l-12 117 -48 0 -48 0 0 -76 c0 -163 46 -371 112 -512
36 -77 29 -93 -28 -64 -52 26 -136 116 -167 178 -52 104 -87 267 -87 405 0 74
-1 79 -21 79 -21 0 -21 -1 -16 -187 3 -118 11 -216 22 -263 22 -100 74 -209
124 -259 l40 -40 -32 5 c-63 11 -128 36 -148 57 -30 33 -114 204 -142 292 -33
101 -57 238 -57 325 0 65 -1 68 -26 74 -15 4 -31 3 -37 -3 -15 -15 -2 -344 17
-420 9 -35 14 -66 12 -68 -9 -10 -66 118 -91 202 -13 47 -30 132 -37 189 l-12
104 -76 6 c-41 3 -152 9 -247 12 -170 7 -173 6 -235 -20 -99 -41 -174 -56
-279 -56 -129 0 -232 21 -425 86 -123 41 -183 55 -248 60 -50 4 -86 3 -86 -2
0 -12 88 -64 165 -99 304 -135 666 -195 915 -151 41 8 77 12 78 10 8 -6 -85
-68 -143 -95 -181 -86 -405 -84 -655 3 -167 59 -396 187 -563 315 -54 42 -62
45 -135 50 l-77 5 80 -82 c286 -294 629 -490 954 -544 102 -17 245 -20 326 -6
28 4 51 7 53 5 6 -5 -188 -74 -278 -99 -52 -14 -143 -31 -203 -38 -299 -33
-606 75 -897 317 -88 73 -308 297 -399 406 l-63 77 -82 6 c-44 4 -101 9 -125
13 -31 4 -42 2 -37 -6 9 -14 0 -14 -26 0 -11 6 -203 28 -426 50 -224 21 -472
45 -551 54 -79 8 -146 13 -148 11 -6 -6 463 -224 606 -281 156 -61 336 -116
451 -136 72 -12 83 -18 305 -167 421 -283 641 -460 808 -650 116 -130 178
-213 360 -472 82 -118 179 -253 215 -299 l65 -85 -12 -110 c-12 -109 -53 -314
-73 -365 -9 -23 -13 -15 -33 74 -195 843 -951 1547 -2138 1989 -441 164 -1030
304 -1443 342 -77 7 -90 1 -80 -40 4 -18 17 -25 63 -35 175 -37 729 -179 900
-230 640 -192 1111 -421 1504 -732 134 -105 383 -354 488 -488 197 -249 371
-542 536 -903 45 -99 90 -189 100 -201 15 -18 16 -24 4 -61 -14 -42 -166 -348
-368 -738 l-113 -218 -31 47 c-64 95 -178 156 -354 189 -107 20 -227 21 -1088
10 -1049 -14 -1653 26 -2330 155 -378 72 -618 150 -905 295 -1057 533 -1624
1646 -1443 2834 8 58 18 108 22 112 3 4 35 -13 71 -39 86 -61 224 -126 335
-158 170 -49 254 -59 485 -59 243 -1 349 13 558 70 116 32 300 102 330 126 17
14 15 57 -2 64 -8 3 -70 -12 -138 -34 -231 -75 -406 -103 -633 -103 -168 0
-296 20 -427 67 -73 26 -515 229 -531 244 -8 7 20 125 44 187 8 22 10 21 74
-27 193 -146 451 -207 825 -197 208 6 384 26 731 81 283 46 495 73 671 87 79
6 154 13 168 16 25 6 -577 92 -655 95 -22 0 -132 -15 -245 -35 -709 -123
-1135 -105 -1469 63 -44 22 -82 44 -86 50 -16 26 -36 2 -88 -107z m8947 -1302
c46 -62 119 -120 201 -158 50 -23 77 -28 160 -31 67 -3 118 1 156 11 l56 14 8
-241 c11 -356 11 -346 -4 -681 -15 -347 -10 -1391 8 -1710 51 -865 133 -1706
202 -2048 58 -294 139 -476 268 -602 204 -201 470 -223 975 -80 70 20 130 35
131 33 2 -2 -29 -30 -68 -63 -69 -58 -215 -186 -722 -631 -132 -116 -309 -276
-393 -357 -450 -432 -666 -595 -922 -698 -140 -56 -182 -59 -295 -19 -257 92
-457 234 -849 605 -99 93 -220 207 -270 251 -159 142 -774 682 -908 797 -71
60 -127 111 -125 113 2 2 66 -14 143 -36 239 -67 333 -83 489 -84 158 -1 215
9 320 60 154 73 262 203 345 413 57 145 104 398 145 781 166 1556 193 2732 91
4040 -7 91 -12 166 -11 167 0 1 34 -9 74 -23 272 -95 527 26 657 311 l27 57
36 -69 c20 -38 54 -93 75 -122z m-1690 -18 c33 -20 98 -74 142 -118 67 -67 90
-98 128 -176 69 -142 89 -241 89 -429 0 -300 -61 -542 -311 -1235 -223 -620
-329 -1009 -378 -1390 -21 -159 -23 -525 -5 -670 64 -508 259 -931 539 -1170
36 -31 58 -57 51 -60 -6 -4 -65 46 -132 112 -67 65 -162 154 -211 198 -311
281 -466 596 -568 1160 -11 59 -16 70 -33 70 -19 0 -20 -8 -23 -115 -9 -364
155 -845 413 -1215 72 -104 73 -103 -50 -17 -206 146 -382 387 -458 627 -39
125 -51 230 -43 388 6 134 1 167 -24 167 -32 0 -64 -246 -57 -445 10 -331 104
-601 294 -852 17 -22 22 -35 13 -31 -8 3 -38 11 -67 18 l-52 14 -85 135 c-172
274 -236 468 -260 786 -9 128 -14 150 -28 153 -27 5 -30 -29 -26 -268 1 -121
2 -220 1 -220 -5 0 -45 190 -60 285 -25 158 -25 538 0 690 55 334 143 574 434
1180 218 453 300 682 367 1020 63 316 61 746 -4 1063 -10 53 -18 98 -16 99 2
2 29 -24 60 -58 110 -122 195 -342 216 -557 15 -161 -11 -358 -69 -526 -40
-112 -20 -132 27 -28 75 166 105 311 105 512 0 157 -16 266 -57 386 -57 170
-160 324 -280 421 l-39 32 26 6 c18 5 45 -2 91 -24 247 -118 406 -423 406
-779 0 -143 -22 -281 -82 -512 -75 -291 -73 -279 -61 -291 8 -8 23 20 51 93
181 461 217 831 111 1139 -48 141 -140 284 -239 370 l-60 54 62 22 c35 12 69
22 77 22 7 1 41 -16 75 -36z m3276 21 l40 -16 -37 -27 c-101 -73 -208 -217
-267 -359 -56 -133 -70 -220 -70 -427 0 -168 3 -204 27 -318 43 -203 158 -537
184 -537 19 0 18 3 -37 203 -87 322 -94 365 -94 592 0 188 2 205 27 290 15 50
50 137 79 195 43 88 64 117 132 186 92 92 190 148 251 142 l34 -3 -57 -45
c-304 -243 -418 -784 -257 -1230 39 -107 64 -155 77 -142 6 6 0 41 -20 103
-107 334 -92 617 47 904 34 69 68 120 110 167 52 57 115 108 133 108 3 0 -3
-35 -13 -77 -46 -190 -63 -348 -63 -593 0 -313 25 -497 109 -805 66 -242 131
-400 329 -812 158 -328 218 -466 281 -638 151 -418 188 -813 114 -1246 -29
-171 -73 -299 -183 -528 -51 -108 -96 -206 -100 -218 -4 -13 -12 -23 -18 -23
-5 0 -8 6 -5 13 3 6 21 51 40 98 91 217 129 417 131 684 1 206 -5 248 -32 243
-13 -2 -18 -15 -19 -58 -10 -219 -45 -409 -107 -568 -45 -116 -78 -180 -179
-342 l-84 -135 -59 -22 c-32 -12 -64 -22 -71 -22 -6 -1 19 40 56 89 134 178
222 388 262 621 18 107 21 149 16 314 -5 171 -20 290 -41 324 -4 7 -15 11 -24
9 -15 -3 -17 -25 -17 -203 0 -220 -10 -278 -74 -434 -79 -190 -252 -411 -411
-522 -127 -90 -126 -90 -56 12 236 346 379 742 406 1122 11 150 4 202 -25 202
-17 0 -23 -18 -46 -145 -15 -80 -36 -182 -48 -227 -71 -275 -204 -535 -360
-703 l-60 -65 54 110 c90 185 154 402 191 650 21 142 29 475 15 631 -40 437
-133 779 -471 1729 -167 470 -230 747 -230 1010 1 252 66 434 209 587 62 67
199 168 227 168 7 0 32 -7 54 -16z m-626 -324 c-21 -99 -28 -300 -15 -436 26
-286 89 -554 217 -929 341 -996 421 -1281 481 -1705 24 -177 24 -544 0 -695
-63 -386 -205 -697 -453 -993 -78 -94 -78 -94 -95 -71 -16 21 -15 25 21 103
66 142 114 321 141 526 16 123 16 464 0 605 -27 229 -89 501 -114 492 -16 -5
-14 -77 6 -207 54 -349 45 -644 -28 -901 -28 -97 -122 -346 -134 -354 -28 -16
-162 986 -210 1560 -42 504 -69 1071 -76 1610 l-5 390 49 -186 c76 -285 214
-694 246 -727 17 -19 53 0 61 33 3 13 -3 64 -14 112 -29 124 -77 398 -106 603
-66 465 -76 889 -24 1090 11 45 58 154 63 148 2 -2 -3 -32 -11 -68z m-2135
-945 c-14 -216 -51 -420 -135 -759 -38 -153 -40 -192 -8 -213 32 -21 44 -4
102 149 98 258 182 556 252 890 l38 183 1 -240 c3 -1002 -80 -2279 -199 -3070
-11 -71 -31 -218 -44 -325 -14 -108 -29 -207 -34 -220 -9 -23 -13 -19 -46 54
-171 373 -248 778 -216 1143 19 221 19 257 -2 261 -12 2 -20 -8 -28 -39 -141
-524 -93 -1075 135 -1534 63 -127 64 -129 47 -157 -9 -15 -20 -28 -24 -28 -20
0 -157 166 -244 297 -158 237 -263 526 -305 843 -18 132 -15 447 5 605 52 411
150 775 407 1508 177 505 239 729 276 999 l18 131 7 -169 c3 -93 2 -232 -3
-309z m-1622 -4144 c61 -7 79 -14 109 -40 21 -19 42 -30 51 -27 10 4 66 -40
162 -127 205 -186 326 -292 811 -708 259 -222 511 -448 645 -579 121 -119 254
-243 295 -276 430 -349 782 -349 1217 0 47 38 190 171 317 295 153 150 386
359 686 616 436 373 625 538 809 708 59 53 93 77 110 77 14 0 38 12 53 27 25
24 39 28 116 33 104 8 266 -4 342 -26 79 -23 176 -76 251 -139 65 -53 149
-151 149 -173 0 -15 -134 -181 -287 -354 -151 -171 -532 -552 -733 -734 -328
-296 -726 -626 -995 -826 -182 -135 -380 -276 -383 -273 -1 1 18 44 42 96 24
52 52 120 62 153 18 57 23 62 159 176 193 161 405 354 704 641 140 134 292
279 338 322 80 76 100 111 69 123 -21 8 -735 -599 -1063 -904 l-151 -142 5
138 c6 142 -5 261 -33 360 -8 28 -18 52 -22 52 -5 0 -6 -52 -4 -115 13 -331
-75 -663 -244 -922 -57 -88 -134 -187 -140 -180 -2 1 16 41 40 87 53 103 97
231 125 365 39 190 74 555 53 555 -6 0 -13 -17 -16 -37 -60 -405 -122 -617
-234 -806 -45 -77 -211 -264 -197 -222 90 258 121 376 160 609 28 169 35 265
20 266 -5 1 -16 -27 -23 -62 -102 -484 -188 -724 -321 -900 -54 -71 -77 -83
-194 -104 l-38 -6 56 73 c135 179 247 494 257 723 5 107 -16 95 -37 -21 -22
-124 -74 -275 -130 -379 -87 -159 -280 -404 -320 -404 -30 0 -154 143 -252
290 -100 149 -169 320 -198 488 -9 47 -20 91 -25 96 -19 19 -21 -24 -5 -137
34 -252 124 -484 257 -664 21 -29 36 -53 32 -53 -12 0 -129 31 -155 41 -14 6
-36 24 -48 40 -145 196 -228 416 -316 839 -31 152 -32 157 -46 143 -7 -7 -4
-57 11 -164 35 -252 93 -495 160 -667 l29 -76 -65 65 c-83 81 -166 205 -216
322 -70 162 -110 325 -164 676 -4 24 -9 30 -16 23 -7 -7 -7 -53 1 -154 27
-329 73 -529 178 -767 17 -37 -71 48 -106 103 -168 266 -252 589 -239 919 3
64 1 117 -3 117 -12 0 -36 -88 -50 -182 -12 -83 -7 -338 7 -388 5 -17 -38 18
-142 116 -82 78 -214 200 -294 271 -208 184 -798 683 -809 683 -13 0 -22 -30
-14 -45 11 -19 588 -571 793 -758 96 -88 235 -210 309 -271 74 -61 147 -122
163 -136 19 -16 44 -62 72 -133 50 -126 65 -128 -139 22 -643 470 -1365 1113
-1808 1611 -148 165 -307 358 -307 371 0 4 9 33 21 64 76 203 391 326 736 286z
m6193 -477 c33 -108 22 -203 -41 -356 -116 -281 -570 -855 -794 -1003 -153
-101 -309 -162 -387 -152 -38 5 -88 39 -88 60 0 6 107 119 238 251 416 422
701 761 960 1144 46 67 85 122 87 122 2 0 13 -30 25 -66z m-6894 -84 c251
-367 583 -757 975 -1149 236 -236 234 -232 172 -281 -61 -48 -211 -2 -400 123
-174 115 -316 263 -549 573 -170 226 -254 417 -274 620 -9 95 -3 221 10 207 4
-4 34 -46 66 -93z"/>
<path d="M5781 24163 c-7 -15 -281 -668 -586 -1398 -34 -82 -306 -730 -603
-1440 -297 -709 -547 -1306 -555 -1326 l-15 -36 161 -129 c236 -189 617 -472
896 -667 1145 -800 2326 -1431 3391 -1813 l175 -63 59 67 c32 37 125 132 205
212 l147 146 -156 38 c-313 77 -751 218 -1070 346 -695 279 -1415 710 -2108
1263 -102 82 -237 194 -299 248 l-112 99 49 143 c26 78 163 474 304 881 141
406 256 740 256 743 0 2 -258 -284 -572 -636 -315 -352 -574 -638 -576 -636
-2 2 1213 2987 1223 3003 2 2 887 -268 893 -273 1 -1 -58 -337 -133 -745 -74
-409 -134 -745 -132 -746 1 -1 200 272 441 607 242 335 441 609 443 609 3 0 2
-3 0 -7 -10 -17 -747 -1965 -747 -1975 0 -14 12 -23 160 -122 467 -312 1178
-589 2090 -816 219 -54 616 -140 643 -140 7 1 -46 23 -118 51 -344 132 -664
325 -995 601 -163 135 -449 420 -581 578 -103 123 -250 313 -245 317 1 1 63
-33 137 -77 534 -319 1333 -644 2139 -870 80 -22 152 -43 161 -45 14 -5 17 9
23 92 31 466 124 1241 197 1651 17 96 27 177 23 182 -5 4 -130 49 -279 100
-1946 666 -3392 1326 -4200 1915 -64 47 -118 85 -120 85 -2 0 -8 -8 -14 -17z"/>
<path d="M44109 24117 c-743 -561 -2170 -1222 -4050 -1875 -173 -60 -352 -122
-399 -137 -47 -15 -88 -30 -92 -34 -4 -4 4 -76 17 -161 56 -347 133 -1033 172
-1514 12 -150 21 -220 30 -223 24 -10 548 150 868 264 536 192 1032 417 1397
634 72 43 133 77 134 76 5 -5 -153 -208 -253 -327 -135 -159 -422 -443 -581
-575 -335 -276 -644 -462 -992 -596 -69 -27 -120 -48 -113 -49 26 0 372 74
601 130 928 227 1658 509 2132 826 147 98 160 108 160 121 0 9 -714 1900 -740
1961 -5 12 -8 22 -7 22 2 0 201 -274 443 -609 241 -335 440 -608 441 -607 1 1
-59 336 -133 745 -74 409 -134 744 -132 746 6 5 891 275 893 273 9 -15 1225
-3001 1223 -3003 -2 -2 -261 284 -576 636 -314 352 -572 638 -572 635 0 -2 54
-159 119 -348 133 -383 269 -775 401 -1160 l89 -258 -112 -99 c-62 -54 -197
-166 -299 -248 -693 -552 -1415 -985 -2108 -1263 -275 -110 -696 -250 -931
-310 -46 -12 -87 -24 -91 -26 -4 -3 25 -32 65 -66 39 -33 139 -128 221 -211
l149 -150 206 78 c1175 441 2525 1209 3759 2137 198 149 522 406 522 414 0 2
-111 269 -246 592 -135 323 -298 711 -361 862 -63 151 -347 829 -630 1505
-283 677 -517 1236 -520 1243 -3 6 -8 12 -13 12 -4 0 -45 -29 -91 -63z"/>
<path d="M17975 23969 c-55 -5 -208 -22 -340 -39 -539 -67 -624 -67 -1029 6
-109 19 -200 34 -202 32 -5 -5 209 -311 278 -398 314 -393 740 -759 1172
-1006 544 -310 1209 -468 2526 -599 899 -90 1254 -158 1665 -322 156 -62 213
-89 428 -205 82 -44 150 -79 151 -77 7 8 -74 328 -104 414 -17 50 -60 149 -96
220 -370 751 -1084 1325 -2039 1641 -403 133 -1030 265 -1515 320 -171 19
-741 27 -895 13z"/>
<path d="M31490 23973 c-575 -41 -1380 -208 -1858 -384 -522 -192 -952 -452
-1306 -790 -296 -282 -534 -627 -670 -969 -41 -104 -134 -455 -124 -466 3 -2
76 35 164 82 246 133 392 197 628 273 346 113 645 164 1406 241 899 91 1318
159 1820 295 459 125 859 335 1290 679 161 129 488 455 616 616 104 131 299
409 291 416 -2 3 -89 -11 -193 -30 -375 -69 -517 -70 -991 -11 -153 19 -336
39 -407 45 -116 9 -554 11 -666 3z"/>
<path d="M17627 22473 c-4 -3 -7 -19 -7 -35 0 -23 19 -44 118 -128 429 -367
942 -624 1447 -725 210 -42 291 -50 530 -50 253 0 371 14 575 65 162 40 170
44 170 79 0 15 -6 33 -12 38 -7 6 -123 13 -263 16 -995 25 -1771 240 -2428
674 -115 75 -119 78 -130 66z"/>
<path d="M32381 22460 c-49 -42 -268 -174 -404 -245 -593 -308 -1257 -460
-2121 -483 -260 -8 -266 -9 -253 -64 6 -22 18 -29 89 -48 578 -157 1176 -106
1775 150 320 137 662 358 918 591 48 45 56 56 53 83 -4 37 -24 43 -57 16z"/>
<path d="M22982 15548 c-24 -24 -14 -78 25 -132 141 -195 365 -427 551 -569
362 -277 776 -453 1207 -513 159 -22 432 -22 589 0 535 76 1056 349 1492 783
151 151 324 357 324 386 0 36 -25 29 -64 -19 -370 -442 -792 -742 -1268 -899
-792 -261 -1551 -111 -2278 450 -66 52 -207 182 -333 307 -121 120 -222 218
-226 218 -4 0 -12 -5 -19 -12z"/>
</g>
</svg>
