<?xml version="1.0" standalone="no"?>
<!DOCTYPE svg PUBLIC "-//W3C//DTD SVG 20010904//EN"
 "http://www.w3.org/TR/2001/REC-SVG-20010904/DTD/svg10.dtd">
<svg version="1.0" xmlns="http://www.w3.org/2000/svg"
 width="1300.000000pt" height="1300.000000pt" viewBox="0 0 1300.000000 1300.000000"
 preserveAspectRatio="xMidYMid meet">
<metadata>
Created by potrace 1.16, written by Peter Selinger 2001-2019
</metadata>
<g transform="translate(0.000000,1300.000000) scale(0.100000,-0.100000)"
fill="#000000" stroke="none">
<path d="M760 5755 l0 -5165 104 0 103 0 -1 2009 -1 2008 150 6 c693 26 923
29 1344 18 476 -12 740 -25 899 -42 57 -6 106 -9 108 -6 34 34 63 1163 31
1196 -10 10 -9 12 3 9 13 -3 15 38 14 322 -2 837 -4 951 -16 944 -10 -6 -10
-4 0 8 10 13 11 151 2 729 -20 1366 -29 1731 -42 1747 -10 13 -10 14 0 8 9 -6
12 30 12 163 l0 171 123 0 c82 0 127 4 135 12 13 13 17 153 6 182 -6 15 -57
16 -492 16 -445 -1 -488 -2 -506 -18 -20 -16 -20 -16 -7 1 13 16 -30 17 -873
17 l-886 0 0 415 0 415 -105 0 -105 0 0 -5165z m2438 4125 l72 0 0 -72 c0 -53
4 -77 18 -92 12 -14 12 -17 1 -9 -9 7 -57 13 -115 15 l-99 3 -3 78 c-3 74 -2
77 19 77 l22 0 -24 28 -24 27 31 -27 c27 -25 38 -28 102 -28z m-1888 -80 l0
-80 -170 0 -170 0 0 80 0 80 170 0 170 0 0 -80z m390 0 l0 -81 -97 3 -98 3 -3
78 -3 77 101 0 100 0 0 -80z m398 3 l-3 -78 -97 -3 -98 -3 0 81 0 80 100 0
101 0 -3 -77z m392 55 c0 -21 0 -21 23 -2 l22 19 -22 -26 c-18 -19 -23 -38
-23 -77 l0 -52 -100 0 -100 0 0 80 0 80 100 0 c96 0 100 -1 100 -22z m390 -58
l0 -80 -100 0 -100 0 0 80 0 80 100 0 100 0 0 -80z m-1760 -381 l0 -111 -72 5
-73 4 -3 107 -3 106 76 0 75 0 0 -111z m0 -409 l0 -110 -75 0 -75 0 0 110 0
110 75 0 75 0 0 -110z m3 -312 c-2 -5 -3 -53 -3 -108 l0 -100 -75 0 -75 0 0
110 0 111 78 -3 c42 -2 76 -6 75 -10z m7 -431 c0 -19 -3 -68 -6 -110 l-7 -77
-72 0 -72 0 -7 53 c-3 28 -6 78 -6 110 l0 57 85 0 85 0 0 -33z m-4 -393 c-3
-9 -6 -58 -6 -110 l0 -94 -74 0 -74 0 -4 43 c-3 23 -2 72 0 110 l5 67 79 0
c69 0 79 -2 74 -16z m-6 -504 l0 -110 -75 0 -75 0 0 110 0 110 75 0 75 0 0
-110z m0 -410 l0 -110 -75 0 -75 0 0 110 0 110 75 0 75 0 0 -110z m0 -410 l0
-110 -75 0 -75 0 0 110 0 110 75 0 75 0 0 -110z m0 -410 l0 -110 -75 0 -75 0
0 110 0 110 75 0 75 0 0 -110z m0 -410 l0 -110 -75 0 -75 0 0 110 0 110 75 0
75 0 0 -110z m0 -410 l0 -110 -75 0 -75 0 0 110 0 110 75 0 75 0 0 -110z m1
-342 c1 -24 2 -73 3 -110 l1 -68 -77 0 -78 0 0 110 0 110 75 0 75 0 1 -42z"/>
<path d="M5060 10323 l0 -598 105 -3 105 -3 0 81 0 80 176 0 177 0 -7 53 c-3
28 -6 76 -6 105 l0 52 -170 0 -170 0 0 415 0 415 -105 0 -105 0 0 -597z"/>
<path d="M9369 10238 c-2 -376 -2 -730 -1 -787 l4 -104 71 69 72 69 -75 -78
-75 -78 -1 -1682 c-1 -925 1 -1753 4 -1840 l5 -159 76 74 76 73 -81 -85 -81
-85 4 -995 4 -995 82 -85 82 -85 -82 80 -83 80 0 -820 0 -819 73 69 72 70 -72
-75 -73 -75 0 -693 0 -692 100 0 100 0 0 792 0 791 -27 -24 -28 -24 28 31 27
30 0 619 c0 574 -1 620 -17 639 -17 20 -17 20 0 7 16 -13 17 16 17 571 l0 585
178 6 c605 22 907 26 1302 17 457 -10 753 -23 918 -41 57 -6 105 -9 108 -7 9
10 24 212 34 446 14 360 12 1843 -5 2927 -8 517 -18 1162 -21 1433 l-7 492
124 0 c84 0 129 4 137 12 7 7 12 43 12 93 0 50 -5 86 -12 93 -9 9 -252 12
-1031 12 -969 0 -1019 -1 -1006 -17 12 -16 11 -16 -8 0 -17 15 -37 18 -100 17
-43 -1 -201 -1 -350 -1 l-273 1 0 352 c0 350 0 352 -22 377 l-23 26 23 -19 22
-19 0 56 0 57 -57 0 -57 0 35 -37 34 -38 -40 38 c-32 28 -49 37 -77 37 l-36 0
-3 -682z m549 -435 l-3 -78 -170 0 -170 0 -3 78 -3 77 176 0 176 0 -3 -77z
m392 -3 l0 -80 -100 0 -100 0 0 80 0 80 100 0 100 0 0 -80z m390 0 l0 -81 -97
3 -98 3 -3 78 -3 77 101 0 100 0 0 -80z m390 0 l0 -80 -95 0 -95 0 0 80 0 80
95 0 95 0 0 -80z m398 3 l-3 -78 -97 -3 -98 -3 0 81 0 80 100 0 101 0 -3 -77z
m392 -3 l0 -81 -97 3 -98 3 -3 78 -3 77 101 0 100 0 0 -80z m-2150 -376 l0
-104 -80 0 -80 0 0 106 c0 100 -1 106 -17 93 -16 -12 -16 -12 -6 1 9 12 30 14
97 12 l86 -3 0 -105z m0 -414 l0 -111 -77 3 -78 3 -3 108 -3 107 81 0 80 0 0
-110z m0 -410 l0 -111 -77 3 -78 3 -3 108 -3 107 81 0 80 0 0 -110z m0 -410
l0 -111 -77 3 -78 3 -3 108 -3 107 81 0 80 0 0 -110z m0 -410 l0 -110 -80 0
-80 0 0 110 0 110 80 0 80 0 0 -110z m0 -411 l0 -111 -77 4 -78 3 -3 108 -3
107 81 0 80 0 0 -111z m-160 -310 c0 7 28 11 80 11 l80 0 0 -110 0 -111 -77 3
-78 3 -3 90 c-2 67 -7 94 -20 110 -16 19 -16 19 1 6 11 -9 17 -10 17 -2z m160
-507 l0 -108 -77 1 -78 0 -3 108 -3 107 81 0 80 0 0 -108z m0 -412 l0 -111
-77 3 -78 3 -3 108 -3 107 81 0 80 0 0 -110z m0 -411 l0 -110 -77 3 -78 3 -3
104 -3 103 -22 -18 -22 -19 22 25 c20 23 27 25 102 22 l81 -4 0 -109z m0 -409
l0 -111 -77 3 -78 3 -3 94 c-1 52 -1 100 2 108 4 9 27 13 81 13 l75 0 0 -110z
m0 -410 l0 -111 -77 3 -78 3 -3 108 -3 107 81 0 80 0 0 -110z"/>
<path d="M5810 9985 l0 -105 100 0 100 0 0 105 0 105 -100 0 -100 0 0 -105z"/>
<path d="M6200 9985 l0 -105 100 0 100 0 0 105 0 105 -100 0 -100 0 0 -105z"/>
<path d="M6590 10051 c0 -24 8 -49 22 -67 l22 -29 -22 19 -22 19 0 -56 0 -57
57 0 57 0 -35 38 -34 37 40 -37 c32 -30 49 -38 78 -38 l37 0 0 105 0 105 -100
0 -100 0 0 -39z"/>
<path d="M6990 10038 c0 -29 -3 -77 -6 -105 l-7 -53 108 0 108 0 -7 53 c-3 28
-6 76 -6 105 l0 52 -95 0 -95 0 0 -52z"/>
<path d="M7380 9985 l0 -105 101 0 102 0 -7 61 c-3 34 -6 82 -6 105 l0 44 -95
0 -95 0 0 -105z"/>
<path d="M7770 9985 l0 -105 130 0 c151 0 147 -3 148 104 2 107 4 106 -148
106 l-130 0 0 -105z"/>
<path d="M5060 9426 l0 -103 97 -6 c53 -3 101 -3 105 -1 4 3 8 52 8 110 l0
104 -105 0 -105 0 0 -104z"/>
<path d="M6431 9310 c-285 -77 -499 -294 -567 -576 -24 -100 -22 -277 4 -376
58 -214 202 -393 400 -496 115 -60 223 -86 357 -85 302 1 560 161 694 429 54
108 81 223 81 349 0 340 -207 627 -535 741 -70 24 -98 28 -220 31 -115 2 -153
-1 -214 -17z"/>
<path d="M5060 9013 l0 -108 105 -3 105 -3 0 111 0 110 -105 0 -105 0 0 -107z"/>
<path d="M5065 8701 c-3 -2 -5 -49 -5 -103 0 -86 2 -98 18 -99 9 0 56 -2 105
-5 l87 -4 0 110 0 111 -100 -2 c-55 -2 -103 -5 -105 -8z"/>
<path d="M5060 8196 l0 -103 48 -6 c26 -3 73 -6 105 -7 l57 -1 0 110 0 111
-105 0 -105 0 0 -104z"/>
<path d="M5060 7780 l0 -110 105 0 105 0 0 110 0 110 -105 0 -105 0 0 -110z"/>
<path d="M5060 7375 l0 -105 44 0 c23 0 71 -3 105 -6 l61 -7 0 112 0 111 -105
0 -105 0 0 -105z"/>
<path d="M5062 6963 l3 -108 103 -3 102 -3 0 111 0 110 -105 0 -106 0 3 -107z"/>
<path d="M5060 6553 l0 -108 105 -2 105 -1 0 109 0 109 -105 0 -105 0 0 -107z"/>
<path d="M5538 6442 c-16 -3 -18 -16 -18 -98 l0 -94 621 0 c493 0 619 3 613
13 -6 10 -4 10 7 0 10 -10 131 -13 536 -13 l523 0 0 95 0 95 -572 2 c-1116 3
-1693 4 -1710 0z"/>
<path d="M5062 6143 l3 -108 103 -3 102 -3 0 111 0 110 -105 0 -106 0 3 -107z"/>
<path d="M5520 5935 l0 -95 826 0 c787 0 826 1 813 17 -13 17 -13 17 7 1 19
-16 50 -18 337 -18 l317 0 0 95 0 95 -412 0 -411 0 19 -22 19 -23 -26 23 -25
22 -732 0 -732 0 0 -95z"/>
<path d="M5060 5731 l0 -109 105 -1 105 -2 0 111 0 110 -105 0 -105 0 0 -109z"/>
<path d="M5520 5569 c0 -37 3 -48 13 -43 10 6 10 4 0 -7 -7 -7 -13 -30 -13
-51 l0 -38 1144 0 c1034 0 1144 2 1150 16 3 9 6 51 6 95 l0 79 -1150 0 -1150
0 0 -51z"/>
<path d="M5060 5325 c0 -58 3 -105 8 -105 4 -1 51 -3 105 -5 l97 -5 0 110 0
110 -105 0 -105 0 0 -105z"/>
<path d="M5520 5115 l0 -95 1145 0 1145 0 0 95 0 95 -1145 0 -1145 0 0 -95z"/>
<path d="M5060 4911 l0 -110 105 1 105 1 0 108 0 109 -105 0 -105 0 0 -109z"/>
<path d="M5070 4602 c-7 -3 -10 -671 -10 -2008 l0 -2004 105 0 105 0 0 2010 0
2009 -95 -2 c-52 -1 -99 -3 -105 -5z"/>
</g>
</svg>
