<?xml version="1.0" standalone="no"?>
<!DOCTYPE svg PUBLIC "-//W3C//DTD SVG 20010904//EN"
 "http://www.w3.org/TR/2001/REC-SVG-20010904/DTD/svg10.dtd">
<svg version="1.0" xmlns="http://www.w3.org/2000/svg"
 width="4675.000000pt" height="4675.000000pt" viewBox="0 0 4675.000000 4675.000000"
 preserveAspectRatio="xMidYMid meet">
<metadata>
Created by potrace 1.16, written by Peter Selinger 2001-2019
</metadata>
<g transform="translate(0.000000,4675.000000) scale(0.100000,-0.100000)"
fill="#000000" stroke="none">
<path d="M30800 35294 c-105 -28 -194 -105 -242 -210 l-23 -49 -3 -1667 -2
-1668 -8553 -1 c-4703 0 -8572 -2 -8597 -4 -25 -2 -79 -7 -120 -10 -231 -18
-553 -89 -808 -177 -1481 -511 -2699 -2020 -3297 -4083 -163 -564 -291 -1258
-339 -1840 -4 -38 -11 -124 -16 -190 -5 -66 -12 -221 -15 -345 -3 -124 -8
-250 -10 -281 -6 -73 11 -642 25 -830 91 -1266 395 -2425 901 -3439 l117 -235
-33 -35 c-18 -19 -46 -60 -61 -90 l-29 -55 -3 -2997 -2 -2997 21 -56 c25 -68
72 -130 124 -167 22 -16 204 -102 405 -192 557 -250 2710 -1216 2930 -1316
107 -48 438 -197 735 -330 297 -133 673 -302 835 -375 429 -192 437 -196 500
-207 41 -8 73 -8 112 0 29 6 298 120 598 255 1798 808 2064 928 2425 1089 105
47 393 177 640 288 248 111 716 321 1040 467 325 146 610 275 635 286 66 31
153 124 181 194 l24 58 3 1769 c1 974 4 1771 5 1773 2 1 151 4 332 6 319 3
332 4 390 26 107 42 178 98 235 183 124 186 102 429 -52 587 -58 60 -111 93
-193 121 -54 18 -84 20 -387 20 l-328 0 0 440 0 440 4433 2 c3876 3 4437 5
4472 18 62 23 131 97 149 162 15 48 16 545 14 5058 l-3 5005 -22 41 c-30 56
-91 108 -149 128 -45 15 -624 16 -7309 14 l-7260 -3 -53 -29 c-57 -32 -98 -79
-118 -135 -11 -29 -13 -719 -14 -3561 l0 -3525 -913 -410 c-501 -225 -1081
-485 -1287 -578 -206 -92 -456 -204 -554 -248 -98 -44 -267 -120 -375 -169
-805 -364 -1227 -550 -1236 -546 -15 6 -230 439 -301 606 -236 559 -408 1145
-518 1770 -33 186 -79 521 -91 660 -3 36 -8 79 -10 95 -2 17 -7 71 -10 120 -4
50 -10 142 -15 205 -8 115 -6 1089 3 1145 3 17 8 73 12 125 12 177 55 544 90
755 136 836 358 1548 695 2230 137 277 224 432 357 635 485 739 1061 1260
1691 1529 218 93 379 140 652 188 88 16 691 17 8698 20 l8602 3 0 -1933 c0
-2109 -3 -1986 55 -2076 86 -134 259 -200 408 -157 34 10 199 99 419 227 200
117 404 235 453 264 50 28 178 103 285 165 107 62 238 138 290 168 52 30 205
119 340 197 135 79 535 311 890 517 355 206 661 385 680 396 19 12 38 22 41
22 15 0 191 -372 286 -605 320 -782 504 -1585 588 -2570 14 -156 25 -474 25
-701 1 -1817 -507 -3512 -1406 -4694 -310 -408 -675 -750 -1044 -980 -406
-252 -815 -390 -1241 -419 -68 -5 -1950 -9 -4182 -10 -2742 -1 -4073 -4 -4104
-11 -206 -47 -353 -232 -356 -450 -3 -180 90 -335 251 -423 112 -61 -188 -57
4262 -56 2241 1 4128 5 4194 10 880 64 1699 454 2421 1151 1230 1188 2022
3164 2132 5323 10 197 10 907 0 1110 -65 1276 -379 2532 -895 3575 -59 118
-107 218 -107 222 0 4 218 134 485 289 267 155 636 369 820 476 184 107 409
238 500 290 91 53 201 117 245 143 44 26 188 109 320 186 132 76 256 153 276
171 20 18 50 59 67 91 78 146 52 321 -65 433 -32 31 -387 253 -1053 659 -553
337 -1311 800 -1685 1028 -374 228 -718 438 -765 467 -47 29 -434 265 -860
525 -426 260 -813 496 -860 525 -47 29 -330 202 -630 385 -300 183 -639 390
-755 461 -263 161 -321 179 -455 143z m835 -1234 c160 -98 1404 -857 1510
-922 1197 -730 1882 -1148 1930 -1178 33 -20 380 -232 770 -470 1005 -612
1035 -631 1035 -639 0 -4 -127 -81 -282 -171 -156 -90 -416 -241 -578 -336
-317 -184 -1486 -863 -1635 -949 -112 -65 -424 -246 -835 -485 -173 -101 -358
-208 -410 -238 -52 -30 -374 -217 -715 -415 -341 -198 -732 -425 -870 -505
-137 -79 -260 -151 -272 -158 l-23 -14 0 3355 0 3355 133 -82 c72 -44 182
-111 242 -148z m-2175 -9395 l0 -4705 -4278 0 -4278 0 -12 71 c-19 109 -64
187 -142 244 -25 18 -169 88 -320 155 -151 68 -322 144 -380 170 -1008 453
-1734 779 -1890 850 -107 48 -280 126 -385 173 -104 47 -307 138 -450 202
-143 64 -343 154 -445 200 -807 361 -1307 586 -1320 594 -13 7 -15 395 -18
3380 l-2 3371 6960 0 6960 0 0 -4705z m-13687 -2947 c260 -116 540 -241 622
-278 83 -37 553 -249 1045 -470 492 -221 1068 -480 1280 -575 729 -327 996
-447 1217 -547 l223 -100 2 -2666 c2 -1765 0 -2669 -7 -2678 -5 -7 -59 -35
-120 -63 -108 -49 -1034 -465 -1395 -626 -102 -46 -302 -136 -445 -200 -143
-65 -368 -166 -500 -225 -234 -105 -1057 -474 -1957 -879 l-447 -200 -658 295
c-362 163 -741 333 -843 379 -276 123 -1057 474 -1280 575 -107 48 -433 195
-725 326 -291 130 -717 321 -945 424 l-415 187 -3 2675 -2 2675 59 27 c32 14
61 26 65 26 4 0 -1 -14 -10 -32 -20 -38 -15 -102 12 -143 20 -31 54 -48 435
-218 129 -58 772 -346 1429 -642 657 -295 1301 -584 1430 -642 129 -58 395
-177 590 -265 195 -88 425 -191 510 -229 85 -38 166 -75 180 -82 l25 -13 5
-2569 c5 -2458 6 -2571 23 -2597 58 -86 195 -73 245 22 l22 44 0 2550 c0 1402
1 2551 3 2553 5 5 566 257 2027 913 107 48 438 196 735 330 673 302 1071 481
1380 620 333 149 336 151 362 189 44 65 24 162 -40 201 -69 43 -84 38 -597
-195 -78 -36 -875 -394 -1885 -847 -110 -50 -309 -139 -443 -199 -133 -60
-351 -158 -485 -218 -133 -59 -459 -206 -724 -325 l-482 -216 -203 91 c-112
50 -266 119 -343 154 -77 35 -297 134 -490 220 -192 86 -438 196 -545 245
-107 48 -393 177 -635 285 -242 109 -575 258 -740 333 -165 74 -363 163 -440
197 -77 35 -367 165 -645 290 -278 125 -523 233 -545 240 l-40 12 35 16 c19 8
262 117 540 242 774 348 1371 617 1625 730 127 57 262 118 300 135 39 18 176
79 305 137 129 58 278 125 330 148 109 50 791 356 1140 513 129 57 258 115
285 128 28 12 56 23 63 23 8 1 226 -94 485 -211z"/>
<path d="M23770 26733 c-39 -13 -245 -215 -1644 -1612 -1298 -1296 -1603
-1605 -1622 -1646 -30 -63 -32 -160 -5 -221 23 -51 75 -104 127 -130 54 -26
173 -26 229 0 56 27 3225 3195 3251 3251 27 58 26 176 -3 230 -64 121 -201
173 -333 128z"/>
<path d="M24195 25336 c-22 -7 -53 -20 -70 -29 -16 -8 -546 -532 -1176 -1164
-1052 -1054 -1148 -1152 -1163 -1197 -46 -142 10 -287 138 -354 69 -36 179
-38 246 -5 33 17 355 333 1196 1175 1101 1103 1153 1155 1169 1207 32 98 9
207 -60 289 -56 66 -195 105 -280 78z"/>
<path d="M14990 20675 c-562 -67 -959 -312 -1012 -627 -28 -162 53 -337 216
-467 436 -346 1395 -409 1982 -130 422 200 552 542 317 833 -161 199 -527 353
-943 396 -133 13 -423 11 -560 -5z m585 -291 c478 -66 809 -272 732 -455 -65
-155 -365 -297 -730 -345 -174 -23 -518 -15 -675 15 -350 67 -609 215 -637
363 -15 78 71 186 208 263 135 75 370 142 573 164 122 13 418 11 529 -5z"/>
<path d="M18845 17906 c-100 -23 -171 -55 -247 -109 -172 -123 -268 -312 -268
-527 0 -258 141 -477 375 -585 94 -44 163 -59 270 -59 111 0 177 15 280 64
230 111 364 326 365 585 0 348 -269 626 -620 641 -59 2 -117 -2 -155 -10z
m277 -309 c72 -32 142 -101 176 -175 23 -49 27 -70 27 -152 0 -115 -19 -163
-95 -244 -72 -77 -148 -109 -256 -109 -70 0 -91 4 -145 30 -77 36 -140 98
-177 173 -24 49 -27 67 -27 155 0 86 3 106 24 145 53 101 134 170 230 197 67
19 174 10 243 -20z"/>
<path d="M11472 17490 c-225 -59 -404 -239 -462 -466 -56 -220 7 -449 168
-613 125 -127 280 -191 457 -191 188 0 324 57 456 189 136 136 194 276 192
466 -1 180 -68 329 -204 460 -86 82 -180 134 -289 159 -89 21 -228 19 -318 -4z
m310 -297 c86 -39 174 -138 198 -225 6 -18 10 -64 11 -103 1 -103 -28 -174
-105 -251 -81 -81 -148 -107 -261 -102 -143 6 -252 78 -314 208 -22 47 -26 68
-26 145 0 76 4 99 26 145 45 95 114 158 217 197 55 20 195 12 254 -14z"/>
<path d="M17844 16395 c-141 -38 -236 -95 -333 -201 -108 -118 -164 -265 -164
-429 0 -183 59 -323 192 -456 94 -94 177 -142 301 -174 99 -26 271 -17 370 20
445 163 575 727 245 1061 -127 128 -285 195 -464 193 -53 0 -119 -6 -147 -14z
m272 -296 c85 -32 153 -93 194 -174 32 -63 35 -75 35 -159 0 -77 -4 -99 -26
-147 -36 -76 -86 -129 -161 -170 -60 -32 -68 -34 -163 -34 -89 0 -106 3 -157
28 -34 17 -77 50 -107 82 -64 71 -91 141 -91 240 0 164 100 296 260 346 51 15
158 10 216 -12z"/>
<path d="M13002 15568 c-300 -47 -527 -296 -549 -603 -7 -107 15 -216 68 -325
54 -110 179 -238 281 -288 165 -80 342 -93 509 -35 106 37 179 85 262 173 233
246 231 630 -4 885 -46 50 -151 124 -213 149 -106 44 -245 61 -354 44z m243
-316 c76 -36 115 -69 154 -130 190 -297 -125 -666 -444 -519 -204 94 -273 338
-149 525 66 101 164 151 294 151 73 1 93 -3 145 -27z"/>
<path d="M16924 14901 c-263 -42 -470 -226 -540 -481 -27 -101 -23 -254 9
-355 65 -200 214 -352 413 -422 70 -24 94 -28 204 -28 111 0 134 3 207 28 253
87 423 310 440 577 20 304 -188 588 -484 664 -76 19 -185 27 -249 17z m254
-331 c75 -40 125 -93 160 -169 22 -46 26 -71 27 -141 0 -75 -4 -93 -31 -150
-38 -79 -97 -140 -172 -177 -49 -23 -70 -27 -147 -28 -79 0 -98 4 -152 29
-224 103 -278 395 -107 572 110 112 282 139 422 64z"/>
<path d="M32112 26599 c-128 -16 -226 -56 -339 -135 -118 -84 -203 -200 -256
-351 -30 -83 -32 -96 -31 -228 0 -126 3 -148 28 -220 96 -277 322 -462 605
-494 218 -24 435 53 589 208 256 261 280 654 57 949 -51 67 -161 159 -236 197
-122 62 -286 91 -417 74z m153 -340 c125 -23 216 -92 272 -207 36 -71 38 -82
38 -166 0 -81 -3 -98 -32 -158 -37 -78 -101 -147 -170 -181 -77 -39 -147 -50
-233 -36 -125 20 -234 102 -288 217 -24 50 -27 70 -27 157 0 93 2 105 33 167
53 107 143 178 262 204 71 16 76 16 145 3z"/>
<path d="M12061 26383 c-18 -9 -45 -34 -60 -56 l-26 -41 -3 -493 -3 -493 -487
0 c-486 0 -487 0 -527 -23 -26 -14 -48 -37 -62 -67 -23 -44 -23 -46 -23 -541
0 -327 4 -507 11 -526 15 -42 68 -92 109 -103 21 -6 228 -10 508 -10 l472 0 0
-474 c0 -503 1 -517 49 -570 51 -56 47 -56 591 -56 479 0 502 1 540 20 21 11
49 34 62 52 l23 33 3 498 3 497 482 0 c448 0 485 2 523 19 49 22 79 61 94 122
8 30 10 194 8 524 -3 424 -5 483 -20 510 -21 39 -56 71 -91 84 -19 7 -194 11
-512 11 l-484 0 -3 499 c-3 489 -3 500 -24 528 -11 15 -36 38 -54 51 l-33 22
-516 0 c-459 0 -520 -2 -550 -17z m840 -770 c0 -503 1 -518 24 -563 20 -38 80
-78 125 -84 19 -3 243 -5 498 -5 l462 -1 0 -295 0 -295 -485 0 c-388 0 -492
-3 -518 -14 -43 -17 -84 -67 -97 -116 -7 -24 -10 -207 -10 -492 0 -249 0 -459
0 -465 0 -10 -66 -13 -295 -13 l-295 0 0 487 0 486 -26 45 c-49 83 -39 82
-591 82 l-483 0 0 295 0 295 33 0 c17 0 230 0 472 0 470 0 486 1 539 49 56 51
56 48 56 576 l0 485 295 0 295 0 1 -457z"/>
<path d="M30877 25380 c-260 -47 -475 -217 -566 -447 -95 -242 -49 -526 117
-725 329 -395 961 -325 1192 132 56 111 75 194 75 325 -1 138 -17 211 -71 321
-90 183 -269 328 -469 379 -75 19 -214 27 -278 15z m198 -345 c111 -29 204
-108 254 -214 23 -49 26 -69 26 -156 0 -90 -3 -106 -29 -160 -143 -291 -551
-289 -689 3 -29 61 -32 76 -32 162 0 82 4 103 27 153 29 61 113 154 166 181
44 23 129 45 177 45 23 1 68 -6 100 -14z"/>
<path d="M33295 25376 c-278 -55 -476 -231 -567 -501 -20 -61 -23 -89 -22
-210 0 -124 3 -149 27 -220 38 -113 90 -198 177 -285 136 -136 281 -199 477
-208 140 -6 231 13 352 74 356 178 500 622 316 972 -94 179 -253 308 -446 361
-97 27 -226 34 -314 17z m280 -365 c194 -90 278 -328 183 -515 -31 -61 -112
-140 -174 -170 -71 -35 -121 -43 -211 -35 -130 13 -244 95 -301 217 -24 50
-27 69 -27 162 0 98 2 109 32 165 52 100 157 184 256 205 74 16 172 4 242 -29z"/>
<path d="M32081 24159 c-152 -27 -271 -90 -387 -204 -222 -220 -277 -541 -139
-820 77 -156 175 -254 330 -330 212 -103 444 -99 660 13 107 55 238 191 292
302 52 107 75 191 79 300 15 396 -288 726 -682 744 -54 3 -123 1 -153 -5z
m220 -345 c109 -32 200 -110 247 -213 22 -47 26 -70 26 -151 1 -83 -3 -102
-26 -153 -38 -80 -114 -158 -191 -193 -55 -26 -73 -29 -162 -29 -90 0 -106 3
-158 28 -74 37 -147 110 -183 184 -26 52 -29 69 -29 158 0 88 3 107 27 157 82
175 270 264 449 212z"/>
</g>
</svg>
