<?xml version="1.0" standalone="no"?>
<!DOCTYPE svg PUBLIC "-//W3C//DTD SVG 20010904//EN"
 "http://www.w3.org/TR/2001/REC-SVG-20010904/DTD/svg10.dtd">
<svg version="1.0" xmlns="http://www.w3.org/2000/svg"
 width="2000.000000pt" height="2000.000000pt" viewBox="0 0 2000.000000 2000.000000"
 preserveAspectRatio="xMidYMid meet">
<metadata>
Created by potrace 1.16, written by Peter Selinger 2001-2019
</metadata>
<g transform="translate(0.000000,2000.000000) scale(0.100000,-0.100000)"
fill="#000000" stroke="none">
<path d="M5850 18383 c-217 -26 -385 -63 -350 -76 8 -3 137 -46 285 -95 591
-196 1073 -422 2310 -1082 1453 -775 2389 -1354 3165 -1959 96 -75 181 -141
189 -147 12 -10 8 -24 -26 -95 -58 -119 -60 -164 -9 -215 58 -58 123 -45 217
42 l47 45 72 -62 c63 -55 71 -65 65 -88 -3 -14 -13 -62 -21 -106 -19 -101 -47
-165 -71 -165 -23 0 -112 -60 -118 -81 -3 -8 -55 -60 -116 -115 -62 -54 -196
-186 -300 -293 l-188 -194 -73 78 c-40 43 -84 94 -97 113 -37 55 -78 152 -100
238 -36 145 -36 150 4 252 l36 93 -40 47 c-21 26 -56 77 -76 115 -20 37 -42
67 -48 67 -6 0 -28 -16 -48 -36 l-37 -36 -28 53 c-15 30 -38 71 -51 93 l-25
38 27 60 c38 85 63 221 71 386 6 128 5 142 -9 142 -13 0 -17 -10 -18 -42 -1
-24 -4 -54 -8 -68 -6 -19 -9 -10 -15 40 -13 117 -52 250 -73 250 -15 0 -15
-24 4 -116 3 -16 5 -87 6 -159 0 -140 -15 -224 -59 -323 l-24 -54 -59 53 -59
52 34 57 c19 32 34 62 34 67 0 13 -101 66 -110 57 -4 -5 -24 -34 -44 -64 -20
-30 -36 -52 -36 -49 0 6 32 100 45 130 4 12 -4 23 -28 38 -19 11 -37 21 -41
21 -4 0 -23 -35 -42 -79 -30 -65 -39 -78 -55 -74 -10 3 -19 8 -19 11 0 4 14
46 32 95 26 74 29 90 17 98 -8 5 -17 9 -20 9 -4 0 -24 -43 -45 -95 -22 -52
-42 -95 -46 -95 -4 0 -16 17 -27 38 -24 46 -108 162 -118 162 -5 0 -14 -4 -22
-9 -11 -7 -8 -17 16 -52 29 -43 73 -123 73 -134 0 -3 -13 -5 -29 -5 -26 0 -35
9 -76 75 -26 41 -49 75 -50 75 -2 0 -20 -9 -39 -21 l-35 -21 29 -59 c17 -32
30 -61 30 -64 0 -3 -10 -5 -23 -5 -14 0 -40 17 -66 44 l-44 44 -43 -21 c-24
-11 -44 -26 -44 -32 0 -6 11 -26 25 -45 28 -38 29 -36 -37 -74 l-47 -26 -46
57 c-117 149 -195 374 -198 576 -2 85 -4 92 -23 95 -26 4 -29 -5 -45 -148
l-13 -108 -21 51 c-12 30 -26 52 -35 52 -21 0 -18 -175 4 -269 35 -147 117
-305 200 -385 l35 -34 -44 -52 c-54 -63 -112 -157 -120 -196 l-6 -28 -65 49
c-66 51 -109 70 -123 54 -4 -5 -13 -29 -20 -54 -16 -57 -71 -159 -123 -228
-22 -29 -37 -60 -34 -67 3 -8 23 -23 46 -35 22 -11 64 -43 92 -71 l51 -50 -27
-67 c-14 -37 -47 -103 -72 -147 -62 -107 -211 -255 -311 -309 -87 -47 -112
-72 -119 -117 -7 -47 18 -83 111 -162 100 -86 196 -151 328 -224 90 -51 105
-62 93 -73 -13 -10 -21 -8 -43 10 -15 12 -44 28 -63 36 -36 15 -121 21 -139
10 -6 -4 -36 -46 -67 -94 -67 -103 -114 -161 -249 -302 -128 -134 -168 -183
-245 -300 -159 -243 -260 -516 -293 -797 -17 -138 -13 -219 14 -334 19 -84 67
-178 94 -186 6 -2 23 17 38 42 16 25 30 45 32 45 1 0 12 -28 25 -62 39 -110
165 -308 195 -308 6 0 25 24 41 53 l29 52 7 -70 c22 -207 102 -517 195 -755
25 -63 54 -146 64 -185 11 -38 22 -77 25 -86 3 -12 -4 -18 -28 -23 -92 -18
-99 -42 -112 -419 l-4 -109 -56 -54 c-164 -160 -237 -364 -326 -909 -11 -71
-24 -133 -28 -137 -9 -9 -360 -169 -862 -393 -385 -171 -613 -262 -1015 -405
-488 -173 -669 -240 -683 -254 -29 -29 12 -89 88 -132 78 -44 123 -56 215 -55
111 0 197 18 345 71 63 23 178 63 255 90 318 110 693 252 1050 397 116 47 232
94 259 104 l48 20 -33 -43 c-113 -143 -329 -359 -714 -716 -388 -360 -609
-579 -620 -611 -11 -35 6 -44 93 -49 94 -5 207 9 352 43 l105 26 102 92 c105
94 135 126 571 597 141 151 273 291 295 310 38 33 40 33 34 10 -13 -55 -121
-628 -125 -667 -5 -57 0 -59 176 -62 l82 -1 0 -608 c0 -596 0 -609 -20 -627
-29 -26 -41 -81 -34 -151 l6 -61 -58 -44 c-69 -52 -86 -83 -92 -160 l-4 -56
-73 -42 c-113 -64 -173 -139 -209 -260 -18 -62 -21 -178 -6 -233 10 -36 10
-37 -47 -90 -166 -156 -333 -356 -589 -709 -77 -105 -236 -310 -272 -349 -3
-3 -7 1 -9 8 -13 36 -59 -21 -51 -64 4 -27 -84 -83 -222 -141 -144 -60 -209
-117 -230 -201 -6 -29 -10 -62 -7 -72 6 -24 -19 -27 -47 -5 -30 23 -65 18 -97
-14 -46 -46 -41 -95 22 -217 57 -110 70 -130 146 -225 29 -36 53 -69 53 -73 0
-3 -9 -6 -19 -6 -11 0 -59 -20 -107 -44 -49 -25 -90 -44 -91 -42 -3 3 -11 46
-12 64 -2 24 -31 12 -67 -28 -20 -22 -40 -40 -45 -40 -5 0 -9 25 -9 55 0 67
-15 72 -59 18 -17 -20 -32 -35 -35 -32 -2 2 6 42 20 88 13 46 24 89 24 97 0
15 -73 -56 -138 -134 -24 -29 -48 -52 -52 -52 -5 0 -6 16 -3 35 7 46 -6 46
-88 -4 -63 -38 -122 -62 -188 -76 l-33 -7 7 53 c6 46 6 52 -7 41 -16 -13 -142
-62 -160 -62 -7 0 10 14 36 31 57 36 56 49 -2 19 -42 -22 -133 -50 -164 -50
-14 0 -16 7 -11 35 7 41 -4 44 -60 16 -23 -12 -37 -15 -37 -7 0 21 51 119 88
169 34 48 31 54 -11 19 -14 -13 -13 -4 8 42 14 32 20 54 13 50 -7 -5 -107 -81
-221 -171 -115 -90 -212 -163 -217 -163 -4 0 -10 7 -14 15 -7 19 -35 19 -61 2
-11 -7 -38 -24 -60 -37 l-40 -24 23 32 c30 41 17 41 -25 0 l-33 -32 0 35 c0
34 20 127 35 163 6 14 -9 7 -51 -23 -191 -140 -293 -191 -393 -199 -60 -5 -64
-4 -57 14 4 10 10 35 13 54 4 28 2 32 -7 20 -9 -12 -11 -10 -7 12 2 16 1 28
-2 28 -3 0 -43 -20 -88 -44 -46 -24 -83 -43 -83 -42 0 1 9 26 19 56 10 30 22
75 26 99 l7 44 -63 -51 c-34 -28 -90 -65 -123 -82 l-61 -31 39 34 c65 57 24
54 -72 -7 -47 -30 -88 -53 -90 -51 -2 2 1 27 7 55 25 117 12 124 -99 50 -41
-27 -75 -48 -77 -46 -11 11 59 160 116 246 20 30 40 61 45 69 15 24 -35 2
-120 -55 -64 -42 -94 -71 -152 -147 -71 -94 -169 -194 -179 -184 -3 3 4 19 16
36 12 16 28 45 36 65 l15 34 -53 -35 c-82 -55 -139 -81 -244 -110 -92 -25
-113 -27 -360 -31 -222 -3 -264 -6 -275 -19 -12 -14 191 -15 2130 -9 l2142 8
37 -62 c128 -208 192 -284 281 -333 92 -50 148 -59 399 -64 218 -5 239 -4 325
17 71 18 99 30 129 57 44 39 51 60 34 99 -10 23 -49 49 -185 124 -125 69 -176
102 -186 122 l-15 28 253 1 c139 1 240 4 223 6 -16 3 -34 9 -39 14 -6 5 -107
9 -226 9 l-217 0 -18 41 c-20 42 -44 62 -72 57 -12 -2 -20 9 -28 42 -11 41
-10 47 8 67 l20 23 -22 102 c-25 111 -33 128 -63 128 -14 0 -18 5 -15 18 3 9
10 39 17 65 14 51 40 77 77 77 23 0 43 26 43 55 0 34 75 111 257 263 103 86
307 261 453 387 l265 231 150 22 c83 12 222 40 310 63 159 40 161 40 290 34
183 -10 303 15 460 93 254 126 436 332 614 695 165 336 289 683 342 955 6 34
15 64 19 67 3 2 42 -36 85 -85 44 -50 82 -90 86 -90 4 0 19 -20 33 -44 14 -24
94 -109 177 -188 106 -100 185 -187 263 -288 141 -181 199 -245 295 -323 42
-34 120 -101 175 -150 272 -243 393 -270 646 -143 l71 36 -8 -57 c-13 -91 -9
-506 5 -623 8 -58 29 -206 47 -330 35 -229 40 -263 53 -382 8 -62 7 -68 -10
-68 -27 0 -26 -70 1 -77 18 -5 18 -8 6 -42 -7 -21 -42 -95 -78 -165 -37 -71
-69 -147 -73 -173 -7 -50 7 -113 37 -155 27 -38 24 -45 -22 -51 -48 -6 -61
-21 -53 -59 l6 -28 -107 0 c-96 0 -108 2 -124 21 -17 21 -67 28 -108 15 -12
-4 -29 1 -45 13 -16 13 -44 21 -79 23 -34 2 -54 8 -55 16 -1 6 -2 17 -3 23 0
6 -9 9 -19 7 -18 -5 -18 -3 -5 35 21 60 11 80 -14 27 -11 -25 -30 -54 -42 -64
-21 -19 -21 -18 3 35 14 30 28 81 32 114 l6 60 -80 -80 c-86 -85 -179 -148
-252 -169 -45 -13 -64 -6 -41 17 6 6 11 17 11 24 0 8 -32 -1 -92 -27 l-93 -38
-3 34 c-2 23 5 50 22 81 32 55 32 62 5 37 -12 -10 -35 -48 -51 -83 -15 -35
-31 -61 -34 -58 -8 8 13 71 48 141 16 32 28 60 26 61 -8 9 -148 -90 -200 -141
-32 -32 -58 -53 -58 -48 0 5 7 36 15 69 8 33 14 66 15 73 0 17 -80 -38 -147
-101 -63 -59 -70 -55 -12 8 50 54 35 60 -21 9 -43 -39 -45 -37 -31 14 5 17 8
32 5 32 -3 0 -59 -36 -125 -81 l-121 -81 7 61 c4 35 3 61 -2 61 -5 0 -26 -18
-48 -40 -38 -39 -119 -80 -132 -66 -3 3 1 6 9 6 18 0 68 44 68 61 0 8 -6 7
-17 -3 -10 -9 -37 -25 -60 -37 -60 -30 -98 -27 -55 5 15 12 15 13 1 14 -9 0
-34 -7 -55 -16 -95 -40 -222 -57 -454 -60 -124 -2 -272 -10 -330 -18 -100 -13
-77 -14 465 -17 314 -2 976 -2 1473 -1 790 2 902 0 902 -13 0 -43 37 -47 705
-70 94 -4 186 -8 205 -10 19 -2 98 -7 175 -10 77 -4 151 -9 165 -11 14 -2 160
-6 325 -10 340 -7 373 -4 406 49 15 24 18 42 14 72 -14 93 -89 146 -235 165
-128 16 -150 25 -150 61 0 41 -32 68 -127 107 -89 37 -109 39 -135 15 -17 -15
-23 -14 -93 22 -70 35 -89 55 -65 70 23 14 5 35 -89 98 -90 61 -101 66 -127
57 -25 -10 -31 -7 -64 25 -34 33 -37 39 -27 64 13 34 4 61 -23 68 -18 5 -20
11 -15 47 7 58 42 414 55 576 6 74 20 214 30 310 20 186 24 230 40 435 6 72
13 157 16 190 3 33 30 137 60 230 29 94 58 190 63 215 18 77 50 388 56 535 7
170 1 190 -60 190 -22 0 -51 -3 -65 -7 -24 -7 -26 -3 -58 95 -36 109 -102 249
-159 334 -19 29 -91 126 -159 215 -68 90 -163 215 -212 278 -481 632 -680 884
-785 993 -61 63 -64 69 -46 80 10 6 19 17 19 23 0 6 -22 40 -48 75 -99 132
-168 239 -282 438 -146 257 -320 552 -435 741 -189 310 -205 338 -205 348 0 6
46 36 103 67 117 65 137 81 137 106 0 10 10 24 23 30 46 24 609 400 762 509
294 209 702 517 772 583 37 35 37 54 -3 124 -16 28 -38 48 -69 63 l-46 22
-262 -177 c-144 -97 -352 -237 -462 -312 -338 -229 -714 -465 -853 -537 l-33
-17 52 77 c49 74 51 79 38 103 -11 20 -34 32 -102 54 -116 38 -121 35 -167
-109 l-35 -109 -5 100 c-5 92 -14 127 -44 164 -6 8 -16 47 -22 87 -9 68 -9 74
8 80 23 7 23 13 -3 147 l-21 110 22 17 c22 16 22 18 10 134 l-13 119 32 24
c43 34 56 81 86 333 9 76 24 229 30 305 6 74 9 82 38 107 18 15 41 30 52 32
218 47 303 77 345 125 18 20 66 43 165 81 77 29 146 57 153 63 9 7 12 55 12
177 l0 168 128 67 c193 101 291 188 308 273 6 29 33 53 218 191 116 87 328
243 471 347 312 225 494 365 494 380 1 6 27 18 59 28 92 29 211 90 294 150 62
46 82 67 104 111 24 50 26 62 20 126 -6 59 -4 80 15 132 30 83 22 128 -32 179
-21 20 -39 46 -39 57 0 49 -48 101 -94 101 -9 0 -18 11 -22 25 -8 33 -59 75
-90 75 -14 0 -35 -5 -46 -11 -17 -9 -24 -7 -42 14 -11 14 -31 30 -43 36 -28
14 -85 14 -117 0 -23 -11 -34 -4 -160 101 l-135 113 14 28 c8 15 19 31 25 34
5 3 10 21 10 39 0 64 -12 94 -44 117 -26 18 -31 27 -28 53 3 23 -3 37 -22 55
-25 23 -54 25 -98 7 -14 -6 -18 0 -23 39 -10 66 -32 89 -83 87 -36 -2 -42 1
-42 18 0 11 -9 29 -20 40 -31 31 -87 26 -165 -15 l-67 -35 -87 67 c-47 37 -87
67 -88 68 -2 1 6 25 17 53 31 81 27 127 -14 168 -29 29 -41 34 -79 34 -40 0
-55 -7 -112 -50 -36 -27 -68 -50 -71 -50 -3 0 -55 40 -117 89 -723 571 -1648
1161 -2822 1801 -159 87 -570 305 -880 468 -651 341 -1120 554 -1600 728 -143
51 -169 58 -245 60 -47 1 -101 0 -120 -3z m6673 -4282 l86 -74 -26 -46 c-14
-25 -37 -62 -50 -82 -61 -92 -54 -221 15 -283 25 -22 19 -41 -8 -26 -10 5 -38
10 -61 10 -37 0 -73 -19 -273 -139 -127 -76 -339 -201 -471 -276 -132 -76
-258 -150 -280 -165 -39 -27 -112 -56 -120 -48 -6 6 231 396 266 438 16 19 69
80 117 135 160 184 351 430 384 495 10 19 18 47 18 62 0 27 2 28 48 28 61 0
145 25 191 55 40 28 23 36 164 -84z"/>
<path d="M15379 2474 c-76 -185 -144 -257 -261 -281 l-33 -6 28 33 c25 29 87
140 87 155 0 16 -19 1 -24 -18 -6 -25 -87 -140 -93 -133 -2 2 5 31 17 65 11
33 20 75 20 92 l0 32 -39 -55 c-35 -48 -91 -99 -91 -83 0 3 7 20 16 36 27 53
6 44 -55 -23 -55 -59 -136 -114 -198 -133 -20 -6 -23 -3 -23 24 0 16 -4 32 -8
35 -5 3 -46 -20 -93 -50 -46 -29 -88 -54 -92 -54 -4 0 18 25 50 56 61 59 57
61 -18 7 -63 -45 -165 -82 -284 -103 -98 -18 -72 -18 1468 -19 883 -1 1567 3
1567 8 0 14 -213 33 -357 33 -157 -1 -218 8 -297 43 l-58 26 40 29 c39 28 60
50 47 50 -3 0 -22 -7 -41 -15 -35 -14 -35 -14 -28 8 3 12 15 36 25 53 11 17
19 35 19 39 0 14 -56 -7 -165 -61 -101 -51 -118 -56 -195 -61 l-85 -5 81 41
c45 22 88 49 95 58 13 15 12 16 -6 8 -63 -27 -252 -86 -321 -99 -112 -21 -239
-32 -231 -19 8 13 12 132 4 139 -3 3 -22 -6 -41 -21 -20 -15 -36 -23 -36 -19
0 20 61 113 106 163 l49 54 -35 -6 c-105 -21 -230 -110 -320 -226 -42 -54 -56
-66 -58 -52 -7 42 -27 42 -73 1 -24 -22 -45 -35 -47 -30 -2 4 11 36 27 69 34
66 35 71 23 71 -5 0 -14 -10 -19 -22 -7 -17 -9 3 -5 72 4 79 2 98 -12 109 -13
11 -17 9 -27 -15z"/>
</g>
</svg>
